G75*
%MOIN*%
%OFA0B0*%
%FSLAX25Y25*%
%IPPOS*%
%LPD*%
%AMOC8*
5,1,8,0,0,1.08239X$1,22.5*
%
%ADD10C,0.00000*%
%ADD11C,0.01600*%
D10*
X0004500Y0001000D02*
X0004500Y0002000D01*
X0022728Y0088339D02*
X0022730Y0088423D01*
X0022736Y0088506D01*
X0022746Y0088589D01*
X0022760Y0088672D01*
X0022777Y0088754D01*
X0022799Y0088835D01*
X0022824Y0088914D01*
X0022853Y0088993D01*
X0022886Y0089070D01*
X0022922Y0089145D01*
X0022962Y0089219D01*
X0023005Y0089291D01*
X0023052Y0089360D01*
X0023102Y0089427D01*
X0023155Y0089492D01*
X0023211Y0089554D01*
X0023269Y0089614D01*
X0023331Y0089671D01*
X0023395Y0089724D01*
X0023462Y0089775D01*
X0023531Y0089822D01*
X0023602Y0089867D01*
X0023675Y0089907D01*
X0023750Y0089944D01*
X0023827Y0089978D01*
X0023905Y0090008D01*
X0023984Y0090034D01*
X0024065Y0090057D01*
X0024147Y0090075D01*
X0024229Y0090090D01*
X0024312Y0090101D01*
X0024395Y0090108D01*
X0024479Y0090111D01*
X0024563Y0090110D01*
X0024646Y0090105D01*
X0024730Y0090096D01*
X0024812Y0090083D01*
X0024894Y0090067D01*
X0024975Y0090046D01*
X0025056Y0090022D01*
X0025134Y0089994D01*
X0025212Y0089962D01*
X0025288Y0089926D01*
X0025362Y0089887D01*
X0025434Y0089845D01*
X0025504Y0089799D01*
X0025572Y0089750D01*
X0025637Y0089698D01*
X0025700Y0089643D01*
X0025760Y0089585D01*
X0025818Y0089524D01*
X0025872Y0089460D01*
X0025924Y0089394D01*
X0025972Y0089326D01*
X0026017Y0089255D01*
X0026058Y0089182D01*
X0026097Y0089108D01*
X0026131Y0089032D01*
X0026162Y0088954D01*
X0026189Y0088875D01*
X0026213Y0088794D01*
X0026232Y0088713D01*
X0026248Y0088631D01*
X0026260Y0088548D01*
X0026268Y0088464D01*
X0026272Y0088381D01*
X0026272Y0088297D01*
X0026268Y0088214D01*
X0026260Y0088130D01*
X0026248Y0088047D01*
X0026232Y0087965D01*
X0026213Y0087884D01*
X0026189Y0087803D01*
X0026162Y0087724D01*
X0026131Y0087646D01*
X0026097Y0087570D01*
X0026058Y0087496D01*
X0026017Y0087423D01*
X0025972Y0087352D01*
X0025924Y0087284D01*
X0025872Y0087218D01*
X0025818Y0087154D01*
X0025760Y0087093D01*
X0025700Y0087035D01*
X0025637Y0086980D01*
X0025572Y0086928D01*
X0025504Y0086879D01*
X0025434Y0086833D01*
X0025362Y0086791D01*
X0025288Y0086752D01*
X0025212Y0086716D01*
X0025134Y0086684D01*
X0025056Y0086656D01*
X0024975Y0086632D01*
X0024894Y0086611D01*
X0024812Y0086595D01*
X0024730Y0086582D01*
X0024646Y0086573D01*
X0024563Y0086568D01*
X0024479Y0086567D01*
X0024395Y0086570D01*
X0024312Y0086577D01*
X0024229Y0086588D01*
X0024147Y0086603D01*
X0024065Y0086621D01*
X0023984Y0086644D01*
X0023905Y0086670D01*
X0023827Y0086700D01*
X0023750Y0086734D01*
X0023675Y0086771D01*
X0023602Y0086811D01*
X0023531Y0086856D01*
X0023462Y0086903D01*
X0023395Y0086954D01*
X0023331Y0087007D01*
X0023269Y0087064D01*
X0023211Y0087124D01*
X0023155Y0087186D01*
X0023102Y0087251D01*
X0023052Y0087318D01*
X0023005Y0087387D01*
X0022962Y0087459D01*
X0022922Y0087533D01*
X0022886Y0087608D01*
X0022853Y0087685D01*
X0022824Y0087764D01*
X0022799Y0087843D01*
X0022777Y0087924D01*
X0022760Y0088006D01*
X0022746Y0088089D01*
X0022736Y0088172D01*
X0022730Y0088255D01*
X0022728Y0088339D01*
X0022728Y0105661D02*
X0022730Y0105745D01*
X0022736Y0105828D01*
X0022746Y0105911D01*
X0022760Y0105994D01*
X0022777Y0106076D01*
X0022799Y0106157D01*
X0022824Y0106236D01*
X0022853Y0106315D01*
X0022886Y0106392D01*
X0022922Y0106467D01*
X0022962Y0106541D01*
X0023005Y0106613D01*
X0023052Y0106682D01*
X0023102Y0106749D01*
X0023155Y0106814D01*
X0023211Y0106876D01*
X0023269Y0106936D01*
X0023331Y0106993D01*
X0023395Y0107046D01*
X0023462Y0107097D01*
X0023531Y0107144D01*
X0023602Y0107189D01*
X0023675Y0107229D01*
X0023750Y0107266D01*
X0023827Y0107300D01*
X0023905Y0107330D01*
X0023984Y0107356D01*
X0024065Y0107379D01*
X0024147Y0107397D01*
X0024229Y0107412D01*
X0024312Y0107423D01*
X0024395Y0107430D01*
X0024479Y0107433D01*
X0024563Y0107432D01*
X0024646Y0107427D01*
X0024730Y0107418D01*
X0024812Y0107405D01*
X0024894Y0107389D01*
X0024975Y0107368D01*
X0025056Y0107344D01*
X0025134Y0107316D01*
X0025212Y0107284D01*
X0025288Y0107248D01*
X0025362Y0107209D01*
X0025434Y0107167D01*
X0025504Y0107121D01*
X0025572Y0107072D01*
X0025637Y0107020D01*
X0025700Y0106965D01*
X0025760Y0106907D01*
X0025818Y0106846D01*
X0025872Y0106782D01*
X0025924Y0106716D01*
X0025972Y0106648D01*
X0026017Y0106577D01*
X0026058Y0106504D01*
X0026097Y0106430D01*
X0026131Y0106354D01*
X0026162Y0106276D01*
X0026189Y0106197D01*
X0026213Y0106116D01*
X0026232Y0106035D01*
X0026248Y0105953D01*
X0026260Y0105870D01*
X0026268Y0105786D01*
X0026272Y0105703D01*
X0026272Y0105619D01*
X0026268Y0105536D01*
X0026260Y0105452D01*
X0026248Y0105369D01*
X0026232Y0105287D01*
X0026213Y0105206D01*
X0026189Y0105125D01*
X0026162Y0105046D01*
X0026131Y0104968D01*
X0026097Y0104892D01*
X0026058Y0104818D01*
X0026017Y0104745D01*
X0025972Y0104674D01*
X0025924Y0104606D01*
X0025872Y0104540D01*
X0025818Y0104476D01*
X0025760Y0104415D01*
X0025700Y0104357D01*
X0025637Y0104302D01*
X0025572Y0104250D01*
X0025504Y0104201D01*
X0025434Y0104155D01*
X0025362Y0104113D01*
X0025288Y0104074D01*
X0025212Y0104038D01*
X0025134Y0104006D01*
X0025056Y0103978D01*
X0024975Y0103954D01*
X0024894Y0103933D01*
X0024812Y0103917D01*
X0024730Y0103904D01*
X0024646Y0103895D01*
X0024563Y0103890D01*
X0024479Y0103889D01*
X0024395Y0103892D01*
X0024312Y0103899D01*
X0024229Y0103910D01*
X0024147Y0103925D01*
X0024065Y0103943D01*
X0023984Y0103966D01*
X0023905Y0103992D01*
X0023827Y0104022D01*
X0023750Y0104056D01*
X0023675Y0104093D01*
X0023602Y0104133D01*
X0023531Y0104178D01*
X0023462Y0104225D01*
X0023395Y0104276D01*
X0023331Y0104329D01*
X0023269Y0104386D01*
X0023211Y0104446D01*
X0023155Y0104508D01*
X0023102Y0104573D01*
X0023052Y0104640D01*
X0023005Y0104709D01*
X0022962Y0104781D01*
X0022922Y0104855D01*
X0022886Y0104930D01*
X0022853Y0105007D01*
X0022824Y0105086D01*
X0022799Y0105165D01*
X0022777Y0105246D01*
X0022760Y0105328D01*
X0022746Y0105411D01*
X0022736Y0105494D01*
X0022730Y0105577D01*
X0022728Y0105661D01*
X0132750Y0113250D02*
X0132752Y0113333D01*
X0132758Y0113416D01*
X0132768Y0113499D01*
X0132782Y0113581D01*
X0132799Y0113663D01*
X0132821Y0113743D01*
X0132846Y0113822D01*
X0132875Y0113900D01*
X0132908Y0113977D01*
X0132945Y0114052D01*
X0132984Y0114125D01*
X0133028Y0114196D01*
X0133074Y0114265D01*
X0133124Y0114332D01*
X0133177Y0114396D01*
X0133233Y0114458D01*
X0133292Y0114517D01*
X0133354Y0114573D01*
X0133418Y0114626D01*
X0133485Y0114676D01*
X0133554Y0114722D01*
X0133625Y0114766D01*
X0133698Y0114805D01*
X0133773Y0114842D01*
X0133850Y0114875D01*
X0133928Y0114904D01*
X0134007Y0114929D01*
X0134087Y0114951D01*
X0134169Y0114968D01*
X0134251Y0114982D01*
X0134334Y0114992D01*
X0134417Y0114998D01*
X0134500Y0115000D01*
X0134583Y0114998D01*
X0134666Y0114992D01*
X0134749Y0114982D01*
X0134831Y0114968D01*
X0134913Y0114951D01*
X0134993Y0114929D01*
X0135072Y0114904D01*
X0135150Y0114875D01*
X0135227Y0114842D01*
X0135302Y0114805D01*
X0135375Y0114766D01*
X0135446Y0114722D01*
X0135515Y0114676D01*
X0135582Y0114626D01*
X0135646Y0114573D01*
X0135708Y0114517D01*
X0135767Y0114458D01*
X0135823Y0114396D01*
X0135876Y0114332D01*
X0135926Y0114265D01*
X0135972Y0114196D01*
X0136016Y0114125D01*
X0136055Y0114052D01*
X0136092Y0113977D01*
X0136125Y0113900D01*
X0136154Y0113822D01*
X0136179Y0113743D01*
X0136201Y0113663D01*
X0136218Y0113581D01*
X0136232Y0113499D01*
X0136242Y0113416D01*
X0136248Y0113333D01*
X0136250Y0113250D01*
X0136248Y0113167D01*
X0136242Y0113084D01*
X0136232Y0113001D01*
X0136218Y0112919D01*
X0136201Y0112837D01*
X0136179Y0112757D01*
X0136154Y0112678D01*
X0136125Y0112600D01*
X0136092Y0112523D01*
X0136055Y0112448D01*
X0136016Y0112375D01*
X0135972Y0112304D01*
X0135926Y0112235D01*
X0135876Y0112168D01*
X0135823Y0112104D01*
X0135767Y0112042D01*
X0135708Y0111983D01*
X0135646Y0111927D01*
X0135582Y0111874D01*
X0135515Y0111824D01*
X0135446Y0111778D01*
X0135375Y0111734D01*
X0135302Y0111695D01*
X0135227Y0111658D01*
X0135150Y0111625D01*
X0135072Y0111596D01*
X0134993Y0111571D01*
X0134913Y0111549D01*
X0134831Y0111532D01*
X0134749Y0111518D01*
X0134666Y0111508D01*
X0134583Y0111502D01*
X0134500Y0111500D01*
X0134417Y0111502D01*
X0134334Y0111508D01*
X0134251Y0111518D01*
X0134169Y0111532D01*
X0134087Y0111549D01*
X0134007Y0111571D01*
X0133928Y0111596D01*
X0133850Y0111625D01*
X0133773Y0111658D01*
X0133698Y0111695D01*
X0133625Y0111734D01*
X0133554Y0111778D01*
X0133485Y0111824D01*
X0133418Y0111874D01*
X0133354Y0111927D01*
X0133292Y0111983D01*
X0133233Y0112042D01*
X0133177Y0112104D01*
X0133124Y0112168D01*
X0133074Y0112235D01*
X0133028Y0112304D01*
X0132984Y0112375D01*
X0132945Y0112448D01*
X0132908Y0112523D01*
X0132875Y0112600D01*
X0132846Y0112678D01*
X0132821Y0112757D01*
X0132799Y0112837D01*
X0132782Y0112919D01*
X0132768Y0113001D01*
X0132758Y0113084D01*
X0132752Y0113167D01*
X0132750Y0113250D01*
X0152750Y0109250D02*
X0152752Y0109333D01*
X0152758Y0109416D01*
X0152768Y0109499D01*
X0152782Y0109581D01*
X0152799Y0109663D01*
X0152821Y0109743D01*
X0152846Y0109822D01*
X0152875Y0109900D01*
X0152908Y0109977D01*
X0152945Y0110052D01*
X0152984Y0110125D01*
X0153028Y0110196D01*
X0153074Y0110265D01*
X0153124Y0110332D01*
X0153177Y0110396D01*
X0153233Y0110458D01*
X0153292Y0110517D01*
X0153354Y0110573D01*
X0153418Y0110626D01*
X0153485Y0110676D01*
X0153554Y0110722D01*
X0153625Y0110766D01*
X0153698Y0110805D01*
X0153773Y0110842D01*
X0153850Y0110875D01*
X0153928Y0110904D01*
X0154007Y0110929D01*
X0154087Y0110951D01*
X0154169Y0110968D01*
X0154251Y0110982D01*
X0154334Y0110992D01*
X0154417Y0110998D01*
X0154500Y0111000D01*
X0154583Y0110998D01*
X0154666Y0110992D01*
X0154749Y0110982D01*
X0154831Y0110968D01*
X0154913Y0110951D01*
X0154993Y0110929D01*
X0155072Y0110904D01*
X0155150Y0110875D01*
X0155227Y0110842D01*
X0155302Y0110805D01*
X0155375Y0110766D01*
X0155446Y0110722D01*
X0155515Y0110676D01*
X0155582Y0110626D01*
X0155646Y0110573D01*
X0155708Y0110517D01*
X0155767Y0110458D01*
X0155823Y0110396D01*
X0155876Y0110332D01*
X0155926Y0110265D01*
X0155972Y0110196D01*
X0156016Y0110125D01*
X0156055Y0110052D01*
X0156092Y0109977D01*
X0156125Y0109900D01*
X0156154Y0109822D01*
X0156179Y0109743D01*
X0156201Y0109663D01*
X0156218Y0109581D01*
X0156232Y0109499D01*
X0156242Y0109416D01*
X0156248Y0109333D01*
X0156250Y0109250D01*
X0156248Y0109167D01*
X0156242Y0109084D01*
X0156232Y0109001D01*
X0156218Y0108919D01*
X0156201Y0108837D01*
X0156179Y0108757D01*
X0156154Y0108678D01*
X0156125Y0108600D01*
X0156092Y0108523D01*
X0156055Y0108448D01*
X0156016Y0108375D01*
X0155972Y0108304D01*
X0155926Y0108235D01*
X0155876Y0108168D01*
X0155823Y0108104D01*
X0155767Y0108042D01*
X0155708Y0107983D01*
X0155646Y0107927D01*
X0155582Y0107874D01*
X0155515Y0107824D01*
X0155446Y0107778D01*
X0155375Y0107734D01*
X0155302Y0107695D01*
X0155227Y0107658D01*
X0155150Y0107625D01*
X0155072Y0107596D01*
X0154993Y0107571D01*
X0154913Y0107549D01*
X0154831Y0107532D01*
X0154749Y0107518D01*
X0154666Y0107508D01*
X0154583Y0107502D01*
X0154500Y0107500D01*
X0154417Y0107502D01*
X0154334Y0107508D01*
X0154251Y0107518D01*
X0154169Y0107532D01*
X0154087Y0107549D01*
X0154007Y0107571D01*
X0153928Y0107596D01*
X0153850Y0107625D01*
X0153773Y0107658D01*
X0153698Y0107695D01*
X0153625Y0107734D01*
X0153554Y0107778D01*
X0153485Y0107824D01*
X0153418Y0107874D01*
X0153354Y0107927D01*
X0153292Y0107983D01*
X0153233Y0108042D01*
X0153177Y0108104D01*
X0153124Y0108168D01*
X0153074Y0108235D01*
X0153028Y0108304D01*
X0152984Y0108375D01*
X0152945Y0108448D01*
X0152908Y0108523D01*
X0152875Y0108600D01*
X0152846Y0108678D01*
X0152821Y0108757D01*
X0152799Y0108837D01*
X0152782Y0108919D01*
X0152768Y0109001D01*
X0152758Y0109084D01*
X0152752Y0109167D01*
X0152750Y0109250D01*
X0152750Y0117250D02*
X0152752Y0117333D01*
X0152758Y0117416D01*
X0152768Y0117499D01*
X0152782Y0117581D01*
X0152799Y0117663D01*
X0152821Y0117743D01*
X0152846Y0117822D01*
X0152875Y0117900D01*
X0152908Y0117977D01*
X0152945Y0118052D01*
X0152984Y0118125D01*
X0153028Y0118196D01*
X0153074Y0118265D01*
X0153124Y0118332D01*
X0153177Y0118396D01*
X0153233Y0118458D01*
X0153292Y0118517D01*
X0153354Y0118573D01*
X0153418Y0118626D01*
X0153485Y0118676D01*
X0153554Y0118722D01*
X0153625Y0118766D01*
X0153698Y0118805D01*
X0153773Y0118842D01*
X0153850Y0118875D01*
X0153928Y0118904D01*
X0154007Y0118929D01*
X0154087Y0118951D01*
X0154169Y0118968D01*
X0154251Y0118982D01*
X0154334Y0118992D01*
X0154417Y0118998D01*
X0154500Y0119000D01*
X0154583Y0118998D01*
X0154666Y0118992D01*
X0154749Y0118982D01*
X0154831Y0118968D01*
X0154913Y0118951D01*
X0154993Y0118929D01*
X0155072Y0118904D01*
X0155150Y0118875D01*
X0155227Y0118842D01*
X0155302Y0118805D01*
X0155375Y0118766D01*
X0155446Y0118722D01*
X0155515Y0118676D01*
X0155582Y0118626D01*
X0155646Y0118573D01*
X0155708Y0118517D01*
X0155767Y0118458D01*
X0155823Y0118396D01*
X0155876Y0118332D01*
X0155926Y0118265D01*
X0155972Y0118196D01*
X0156016Y0118125D01*
X0156055Y0118052D01*
X0156092Y0117977D01*
X0156125Y0117900D01*
X0156154Y0117822D01*
X0156179Y0117743D01*
X0156201Y0117663D01*
X0156218Y0117581D01*
X0156232Y0117499D01*
X0156242Y0117416D01*
X0156248Y0117333D01*
X0156250Y0117250D01*
X0156248Y0117167D01*
X0156242Y0117084D01*
X0156232Y0117001D01*
X0156218Y0116919D01*
X0156201Y0116837D01*
X0156179Y0116757D01*
X0156154Y0116678D01*
X0156125Y0116600D01*
X0156092Y0116523D01*
X0156055Y0116448D01*
X0156016Y0116375D01*
X0155972Y0116304D01*
X0155926Y0116235D01*
X0155876Y0116168D01*
X0155823Y0116104D01*
X0155767Y0116042D01*
X0155708Y0115983D01*
X0155646Y0115927D01*
X0155582Y0115874D01*
X0155515Y0115824D01*
X0155446Y0115778D01*
X0155375Y0115734D01*
X0155302Y0115695D01*
X0155227Y0115658D01*
X0155150Y0115625D01*
X0155072Y0115596D01*
X0154993Y0115571D01*
X0154913Y0115549D01*
X0154831Y0115532D01*
X0154749Y0115518D01*
X0154666Y0115508D01*
X0154583Y0115502D01*
X0154500Y0115500D01*
X0154417Y0115502D01*
X0154334Y0115508D01*
X0154251Y0115518D01*
X0154169Y0115532D01*
X0154087Y0115549D01*
X0154007Y0115571D01*
X0153928Y0115596D01*
X0153850Y0115625D01*
X0153773Y0115658D01*
X0153698Y0115695D01*
X0153625Y0115734D01*
X0153554Y0115778D01*
X0153485Y0115824D01*
X0153418Y0115874D01*
X0153354Y0115927D01*
X0153292Y0115983D01*
X0153233Y0116042D01*
X0153177Y0116104D01*
X0153124Y0116168D01*
X0153074Y0116235D01*
X0153028Y0116304D01*
X0152984Y0116375D01*
X0152945Y0116448D01*
X0152908Y0116523D01*
X0152875Y0116600D01*
X0152846Y0116678D01*
X0152821Y0116757D01*
X0152799Y0116837D01*
X0152782Y0116919D01*
X0152768Y0117001D01*
X0152758Y0117084D01*
X0152752Y0117167D01*
X0152750Y0117250D01*
D11*
X0164500Y0122000D02*
X0164500Y0002000D01*
X0004500Y0002000D01*
X0004500Y0122000D01*
X0164500Y0122000D01*
M02*
