%
M48
M72
T01C0.01200
T02C0.03200
T03C0.03500
T04C0.03543
%
T01
X18250Y65750
X14500Y64500
X35750Y52000
X39500Y52000
X40750Y55750
X49500Y55750
X63250Y55750
X60750Y45750
X50750Y35750
X53250Y33250
X55750Y30750
X53250Y28250
X49500Y28250
X38250Y32000
X35750Y29500
X35750Y38250
X38250Y47000
X18250Y47000
X15750Y44500
X13250Y47000
X18250Y27000
X32000Y10750
X35750Y10750
X64500Y10750
X64500Y5750
X84500Y13250
X94500Y12000
X94500Y15750
X92000Y20750
X99500Y23250
X117000Y25750
X119500Y30750
X117000Y35750
X114500Y40750
X117000Y48250
X133250Y48250
X135750Y38250
X129500Y35750
X149500Y45750
X114500Y8250
X63250Y30750
X77000Y77000
X93250Y84500
X117000Y107000
X105750Y109500
X123250Y118250
T02
X83250Y97000
X93250Y97000
X103250Y97000
X113250Y97000
X123250Y97000
X133250Y97000
X143250Y97000
X143250Y67000
X133250Y67000
X123250Y67000
X113250Y67000
X103250Y67000
X93250Y67000
X83250Y67000
T03
X134500Y113250
X154500Y109250
X154500Y117250
T04
X24500Y105661
X24500Y88339
M30
