G75*
%MOIN*%
%OFA0B0*%
%FSLAX25Y25*%
%IPPOS*%
%LPD*%
%AMOC8*
5,1,8,0,0,1.08239X$1,22.5*
%
%ADD10C,0.01600*%
%ADD11OC8,0.05200*%
%ADD12R,0.05118X0.05906*%
%ADD13R,0.05118X0.01181*%
%ADD14R,0.08661X0.07087*%
%ADD15C,0.04756*%
%ADD16C,0.01800*%
%ADD17C,0.02400*%
D10*
X0001800Y0001800D02*
X0141800Y0001800D01*
X0141800Y0121800D01*
X0001800Y0121800D01*
X0001800Y0001800D01*
D11*
X0116800Y0055550D03*
X0126800Y0055550D03*
X0126800Y0103050D03*
X0116800Y0103050D03*
D12*
X0070540Y0101800D03*
X0063060Y0101800D03*
X0063060Y0091800D03*
X0070540Y0091800D03*
X0070540Y0076800D03*
X0063060Y0076800D03*
X0063060Y0066800D03*
X0070540Y0066800D03*
X0070540Y0056800D03*
X0063060Y0056800D03*
X0063060Y0046800D03*
X0070540Y0046800D03*
X0070540Y0031800D03*
X0063060Y0031800D03*
X0063060Y0021800D03*
X0070540Y0021800D03*
X0070540Y0011800D03*
X0063060Y0011800D03*
D13*
X0039595Y0023020D03*
X0039595Y0026957D03*
X0039595Y0030894D03*
X0039595Y0034831D03*
X0039595Y0038769D03*
X0039595Y0042706D03*
X0039595Y0046643D03*
X0039595Y0050580D03*
D14*
X0026800Y0060028D03*
X0026800Y0013572D03*
D15*
X0113489Y0076922D02*
X0113489Y0081678D01*
X0119113Y0081678D02*
X0119113Y0076922D01*
X0124737Y0076922D02*
X0124737Y0081678D01*
X0130361Y0081678D02*
X0130361Y0076922D01*
D16*
X0124737Y0079300D02*
X0123847Y0080540D01*
X0123847Y0082509D01*
X0121879Y0084477D01*
X0121879Y0108099D01*
X0115973Y0108099D01*
X0112036Y0104162D01*
X0112036Y0102194D01*
X0070698Y0102194D01*
X0070540Y0101800D01*
X0064792Y0102194D02*
X0063060Y0101800D01*
X0064792Y0102194D02*
X0064792Y0112036D01*
X0123847Y0112036D01*
X0135658Y0100225D01*
X0135658Y0051013D01*
X0114005Y0051013D01*
X0108099Y0056918D01*
X0108099Y0086446D01*
X0064792Y0086446D01*
X0051013Y0072666D01*
X0051013Y0043139D01*
X0041170Y0043139D01*
X0039595Y0042706D01*
X0041170Y0039202D02*
X0039595Y0038769D01*
X0041170Y0039202D02*
X0054950Y0039202D01*
X0054950Y0056918D01*
X0058887Y0051013D02*
X0062824Y0054950D01*
X0063060Y0056800D01*
X0062824Y0056918D01*
X0062824Y0066761D01*
X0063060Y0066800D01*
X0070540Y0066800D02*
X0070698Y0068729D01*
X0070698Y0072666D01*
X0074635Y0072666D01*
X0070698Y0072666D02*
X0070698Y0076603D01*
X0070540Y0076800D01*
X0064792Y0078572D02*
X0063060Y0076800D01*
X0064792Y0078572D02*
X0064792Y0082509D01*
X0072666Y0082509D01*
X0078572Y0076603D01*
X0078572Y0060855D01*
X0078572Y0041170D01*
X0066761Y0041170D01*
X0064792Y0043139D01*
X0064792Y0045107D01*
X0063060Y0046800D01*
X0058887Y0051013D02*
X0058887Y0031328D01*
X0041170Y0031328D01*
X0039595Y0030894D01*
X0039202Y0027391D02*
X0039595Y0026957D01*
X0039202Y0027391D02*
X0031328Y0027391D01*
X0031328Y0049044D01*
X0027391Y0049044D02*
X0033296Y0054950D01*
X0033296Y0062824D01*
X0037233Y0064792D02*
X0039202Y0066761D01*
X0023454Y0066761D01*
X0019517Y0062824D01*
X0019517Y0007706D01*
X0031328Y0007706D01*
X0033296Y0009674D01*
X0033296Y0011643D01*
X0062824Y0011643D01*
X0063060Y0011800D01*
X0070540Y0011800D02*
X0070698Y0013611D01*
X0084477Y0013611D01*
X0070540Y0021800D02*
X0070698Y0023454D01*
X0104162Y0056918D01*
X0104162Y0070698D01*
X0100225Y0074635D02*
X0100225Y0058887D01*
X0076603Y0035265D01*
X0076603Y0033296D01*
X0070698Y0033296D01*
X0070540Y0031800D01*
X0064792Y0033296D02*
X0064792Y0035265D01*
X0066761Y0037233D01*
X0064792Y0033296D02*
X0063060Y0031800D01*
X0063060Y0021800D02*
X0062824Y0021485D01*
X0062824Y0019517D01*
X0027391Y0019517D01*
X0023454Y0023454D01*
X0023454Y0049044D01*
X0027391Y0049044D02*
X0027391Y0023454D01*
X0039202Y0023454D01*
X0039595Y0023020D01*
X0039595Y0034831D02*
X0039202Y0035265D01*
X0035265Y0035265D01*
X0035265Y0052981D01*
X0037233Y0054950D01*
X0037233Y0064792D01*
X0039202Y0066761D02*
X0062824Y0090383D01*
X0063060Y0091800D01*
X0070540Y0091800D02*
X0070698Y0092351D01*
X0114005Y0092351D01*
X0117942Y0102194D02*
X0116800Y0103050D01*
X0117942Y0102194D02*
X0117942Y0080540D01*
X0119113Y0079300D01*
X0117942Y0078572D01*
X0117942Y0056918D01*
X0116800Y0055550D01*
X0074635Y0051013D02*
X0070698Y0051013D01*
X0070698Y0047076D01*
X0070540Y0046800D01*
X0070698Y0051013D02*
X0070698Y0054950D01*
X0070540Y0056800D01*
X0045107Y0056918D02*
X0045107Y0047076D01*
X0041170Y0047076D01*
X0039595Y0046643D01*
X0039595Y0050580D02*
X0041170Y0051013D01*
X0041170Y0060855D01*
D17*
X0041170Y0060855D03*
X0045107Y0056918D03*
X0054950Y0056918D03*
X0033296Y0062824D03*
X0031328Y0049044D03*
X0023454Y0049044D03*
X0066761Y0037233D03*
X0074635Y0051013D03*
X0078572Y0060855D03*
X0074635Y0072666D03*
X0100225Y0074635D03*
X0104162Y0070698D03*
X0114005Y0092351D03*
X0084477Y0013611D03*
M02*
