G75*
%MOIN*%
%OFA0B0*%
%FSLAX25Y25*%
%IPPOS*%
%LPD*%
%AMOC8*
5,1,8,0,0,1.08239X$1,22.5*
%
%ADD10C,0.01600*%
%ADD11R,0.50000X0.40000*%
%ADD12OC8,0.05200*%
%ADD13R,0.20000X0.10000*%
%ADD14C,0.04756*%
%ADD15C,0.01800*%
%ADD16C,0.02400*%
D10*
X0001800Y0001800D02*
X0141800Y0001800D01*
X0141800Y0121800D01*
X0001800Y0121800D01*
X0001800Y0001800D01*
D11*
X0031800Y0026800D03*
X0031800Y0096800D03*
D12*
X0116800Y0103050D03*
X0126800Y0103050D03*
X0126800Y0055550D03*
X0116800Y0055550D03*
D13*
X0044300Y0049300D03*
X0044300Y0074300D03*
D14*
X0113489Y0076922D02*
X0113489Y0081678D01*
X0119113Y0081678D02*
X0119113Y0076922D01*
X0124737Y0076922D02*
X0124737Y0081678D01*
X0130361Y0081678D02*
X0130361Y0076922D01*
D15*
X0130361Y0079300D02*
X0131721Y0080540D01*
X0125816Y0086446D01*
X0112036Y0086446D01*
X0100225Y0074635D01*
X0104162Y0070698D02*
X0112036Y0078572D01*
X0113489Y0079300D01*
X0114005Y0092351D02*
X0123847Y0102194D01*
X0125816Y0102194D01*
X0126800Y0103050D01*
X0074635Y0072666D02*
X0045107Y0072666D01*
X0044300Y0074300D01*
X0043139Y0072666D01*
X0033296Y0062824D01*
X0041170Y0060855D02*
X0078572Y0060855D01*
X0112036Y0060855D01*
X0115973Y0056918D01*
X0116800Y0055550D01*
X0125816Y0054950D02*
X0126800Y0055550D01*
X0125816Y0054950D02*
X0084477Y0013611D01*
X0078572Y0037233D02*
X0066761Y0037233D01*
X0078572Y0037233D02*
X0078572Y0051013D01*
X0074635Y0054950D01*
X0056918Y0054950D01*
X0054950Y0056918D01*
X0045107Y0056918D02*
X0031328Y0056918D01*
X0023454Y0049044D01*
X0031328Y0049044D02*
X0043139Y0049044D01*
X0044300Y0049300D01*
X0045107Y0051013D01*
X0074635Y0051013D01*
D16*
X0074635Y0051013D03*
X0078572Y0060855D03*
X0074635Y0072666D03*
X0054950Y0056918D03*
X0045107Y0056918D03*
X0041170Y0060855D03*
X0033296Y0062824D03*
X0031328Y0049044D03*
X0023454Y0049044D03*
X0066761Y0037233D03*
X0084477Y0013611D03*
X0104162Y0070698D03*
X0100225Y0074635D03*
X0114005Y0092351D03*
M02*
