%
M48
M72
T01C0.01200
T02C0.02756
T03C0.03200
%
T01
X84477Y13611
X66761Y37233
X74635Y51013
X78572Y60855
X74635Y72666
X54950Y56918
X45107Y56918
X41170Y60855
X33296Y62824
X31328Y49044
X23454Y49044
X100225Y74635
X104162Y70698
X114005Y92351
T02
X130361Y79300
X124737Y79300
X119113Y79300
X113489Y79300
T03
X126800Y55550
X116800Y55550
X116800Y103050
X126800Y103050
M30
