G75*
%MOIN*%
%OFA0B0*%
%FSLAX25Y25*%
%IPPOS*%
%LPD*%
%AMOC8*
5,1,8,0,0,1.08239X$1,22.5*
%
%ADD10C,0.01600*%
%ADD11OC8,0.05600*%
%ADD12R,0.05518X0.06306*%
%ADD13R,0.05512X0.01575*%
%ADD14R,0.09252X0.07480*%
%ADD15C,0.05156*%
D10*
X0001800Y0001800D02*
X0141800Y0001800D01*
X0141800Y0121800D01*
X0001800Y0121800D01*
X0001800Y0001800D01*
D11*
X0116800Y0055550D03*
X0126800Y0055550D03*
X0126800Y0103050D03*
X0116800Y0103050D03*
D12*
X0070540Y0101800D03*
X0063060Y0101800D03*
X0063060Y0091800D03*
X0070540Y0091800D03*
X0070540Y0076800D03*
X0063060Y0076800D03*
X0063060Y0066800D03*
X0070540Y0066800D03*
X0070540Y0056800D03*
X0063060Y0056800D03*
X0063060Y0046800D03*
X0070540Y0046800D03*
X0070540Y0031800D03*
X0063060Y0031800D03*
X0063060Y0021800D03*
X0070540Y0021800D03*
X0070540Y0011800D03*
X0063060Y0011800D03*
D13*
X0039595Y0023020D03*
X0039595Y0026957D03*
X0039595Y0030894D03*
X0039595Y0034831D03*
X0039595Y0038769D03*
X0039595Y0042706D03*
X0039595Y0046643D03*
X0039595Y0050580D03*
D14*
X0026800Y0060028D03*
X0026800Y0013572D03*
D15*
X0113489Y0076922D02*
X0113489Y0081678D01*
X0119113Y0081678D02*
X0119113Y0076922D01*
X0124737Y0076922D02*
X0124737Y0081678D01*
X0130361Y0081678D02*
X0130361Y0076922D01*
M02*
