G75*
%MOIN*%
%OFA0B0*%
%FSLAX25Y25*%
%IPPOS*%
%LPD*%
%AMOC8*
5,1,8,0,0,1.08239X$1,22.5*
%
%ADD10C,0.01600*%
%ADD11C,0.01000*%
%ADD12C,0.00600*%
%ADD13C,0.00400*%
%ADD14R,0.02559X0.05512*%
%ADD15C,0.00800*%
%ADD16R,0.03346X0.00787*%
%ADD17C,0.00500*%
%ADD18R,0.02953X0.05709*%
%ADD19C,0.00300*%
D10*
X0001800Y0001800D02*
X0141800Y0001800D01*
X0141800Y0121800D01*
X0001800Y0121800D01*
X0001800Y0001800D01*
D11*
X0115600Y0050550D02*
X0115600Y0060550D01*
X0128613Y0059743D02*
X0128712Y0059578D01*
X0128807Y0059411D01*
X0128897Y0059242D01*
X0128984Y0059071D01*
X0129066Y0058897D01*
X0129144Y0058722D01*
X0129218Y0058545D01*
X0129288Y0058366D01*
X0129353Y0058186D01*
X0129414Y0058004D01*
X0129471Y0057821D01*
X0129523Y0057636D01*
X0129571Y0057450D01*
X0129614Y0057263D01*
X0129653Y0057075D01*
X0129688Y0056887D01*
X0129717Y0056697D01*
X0129743Y0056507D01*
X0129763Y0056316D01*
X0129779Y0056125D01*
X0129791Y0055933D01*
X0129798Y0055742D01*
X0129800Y0055550D01*
X0128746Y0059519D02*
X0128647Y0059688D01*
X0128543Y0059854D01*
X0128436Y0060018D01*
X0128325Y0060179D01*
X0128210Y0060337D01*
X0128091Y0060492D01*
X0127968Y0060645D01*
X0127842Y0060794D01*
X0127712Y0060940D01*
X0127578Y0061083D01*
X0127441Y0061223D01*
X0127301Y0061359D01*
X0127157Y0061492D01*
X0127010Y0061621D01*
X0126860Y0061747D01*
X0126707Y0061868D01*
X0126551Y0061987D01*
X0126392Y0062101D01*
X0126231Y0062211D01*
X0126066Y0062317D01*
X0125900Y0062420D01*
X0125730Y0062518D01*
X0125559Y0062612D01*
X0125385Y0062702D01*
X0125209Y0062787D01*
X0125031Y0062869D01*
X0124851Y0062945D01*
X0124669Y0063018D01*
X0124486Y0063086D01*
X0124301Y0063149D01*
X0124114Y0063208D01*
X0123926Y0063262D01*
X0123737Y0063312D01*
X0123547Y0063357D01*
X0123355Y0063397D01*
X0123163Y0063433D01*
X0122970Y0063464D01*
X0122776Y0063490D01*
X0122581Y0063512D01*
X0122386Y0063528D01*
X0122191Y0063540D01*
X0121995Y0063548D01*
X0121800Y0063550D01*
X0129800Y0055550D02*
X0129798Y0055362D01*
X0129791Y0055174D01*
X0129780Y0054986D01*
X0129765Y0054798D01*
X0129745Y0054611D01*
X0129720Y0054425D01*
X0129692Y0054239D01*
X0129659Y0054053D01*
X0129621Y0053869D01*
X0129580Y0053686D01*
X0129534Y0053503D01*
X0129483Y0053322D01*
X0129429Y0053142D01*
X0129370Y0052963D01*
X0129307Y0052786D01*
X0129240Y0052610D01*
X0129169Y0052436D01*
X0129094Y0052263D01*
X0129014Y0052093D01*
X0128931Y0051924D01*
X0128844Y0051757D01*
X0121800Y0047550D02*
X0121605Y0047552D01*
X0121411Y0047559D01*
X0121217Y0047571D01*
X0121023Y0047588D01*
X0120829Y0047609D01*
X0120636Y0047635D01*
X0120444Y0047666D01*
X0120252Y0047701D01*
X0120062Y0047741D01*
X0119872Y0047786D01*
X0119684Y0047835D01*
X0119497Y0047889D01*
X0119311Y0047947D01*
X0119127Y0048010D01*
X0118944Y0048077D01*
X0118763Y0048149D01*
X0118584Y0048225D01*
X0118407Y0048305D01*
X0118232Y0048390D01*
X0118058Y0048479D01*
X0117888Y0048572D01*
X0117719Y0048669D01*
X0117553Y0048771D01*
X0117389Y0048876D01*
X0117228Y0048985D01*
X0117069Y0049098D01*
X0116914Y0049215D01*
X0116761Y0049336D01*
X0116612Y0049461D01*
X0116465Y0049589D01*
X0116321Y0049720D01*
X0116181Y0049855D01*
X0116044Y0049994D01*
X0115911Y0050135D01*
X0115781Y0050280D01*
X0115654Y0050428D01*
X0121800Y0047550D02*
X0121992Y0047552D01*
X0122184Y0047559D01*
X0122376Y0047571D01*
X0122568Y0047587D01*
X0122759Y0047608D01*
X0122949Y0047633D01*
X0123139Y0047663D01*
X0123328Y0047697D01*
X0123516Y0047736D01*
X0123703Y0047780D01*
X0123889Y0047828D01*
X0124074Y0047880D01*
X0124258Y0047937D01*
X0124440Y0047998D01*
X0124620Y0048064D01*
X0124799Y0048134D01*
X0124977Y0048208D01*
X0125152Y0048286D01*
X0125326Y0048369D01*
X0125497Y0048456D01*
X0125666Y0048546D01*
X0125833Y0048641D01*
X0125998Y0048740D01*
X0126161Y0048843D01*
X0126320Y0048950D01*
X0126478Y0049060D01*
X0126632Y0049174D01*
X0126784Y0049292D01*
X0126933Y0049414D01*
X0127079Y0049539D01*
X0127221Y0049667D01*
X0127361Y0049799D01*
X0127498Y0049934D01*
X0127631Y0050073D01*
X0127761Y0050214D01*
X0127887Y0050359D01*
X0128010Y0050507D01*
X0128129Y0050657D01*
X0128245Y0050811D01*
X0128357Y0050967D01*
X0128465Y0051126D01*
X0128570Y0051287D01*
X0128670Y0051451D01*
X0128766Y0051617D01*
X0128859Y0051785D01*
X0121800Y0063550D02*
X0121607Y0063548D01*
X0121414Y0063541D01*
X0121222Y0063529D01*
X0121029Y0063513D01*
X0120837Y0063492D01*
X0120646Y0063466D01*
X0120456Y0063436D01*
X0120266Y0063401D01*
X0120077Y0063362D01*
X0119889Y0063318D01*
X0119702Y0063270D01*
X0119516Y0063217D01*
X0119332Y0063160D01*
X0119149Y0063098D01*
X0118968Y0063032D01*
X0118788Y0062961D01*
X0118610Y0062887D01*
X0118434Y0062808D01*
X0118260Y0062724D01*
X0118088Y0062637D01*
X0117918Y0062545D01*
X0117751Y0062449D01*
X0117585Y0062350D01*
X0117422Y0062246D01*
X0117262Y0062139D01*
X0117105Y0062027D01*
X0116950Y0061912D01*
X0116798Y0061793D01*
X0116649Y0061671D01*
X0116502Y0061545D01*
X0116359Y0061415D01*
X0116219Y0061282D01*
X0116083Y0061146D01*
X0115949Y0061006D01*
X0115820Y0060864D01*
X0115693Y0060718D01*
X0115600Y0098050D02*
X0115600Y0108050D01*
X0128613Y0107243D02*
X0128712Y0107078D01*
X0128807Y0106911D01*
X0128897Y0106742D01*
X0128984Y0106571D01*
X0129066Y0106397D01*
X0129144Y0106222D01*
X0129218Y0106045D01*
X0129288Y0105866D01*
X0129353Y0105686D01*
X0129414Y0105504D01*
X0129471Y0105321D01*
X0129523Y0105136D01*
X0129571Y0104950D01*
X0129614Y0104763D01*
X0129653Y0104575D01*
X0129688Y0104387D01*
X0129717Y0104197D01*
X0129743Y0104007D01*
X0129763Y0103816D01*
X0129779Y0103625D01*
X0129791Y0103433D01*
X0129798Y0103242D01*
X0129800Y0103050D01*
X0128746Y0107019D02*
X0128647Y0107188D01*
X0128543Y0107354D01*
X0128436Y0107518D01*
X0128325Y0107679D01*
X0128210Y0107837D01*
X0128091Y0107992D01*
X0127968Y0108145D01*
X0127842Y0108294D01*
X0127712Y0108440D01*
X0127578Y0108583D01*
X0127441Y0108723D01*
X0127301Y0108859D01*
X0127157Y0108992D01*
X0127010Y0109121D01*
X0126860Y0109247D01*
X0126707Y0109368D01*
X0126551Y0109487D01*
X0126392Y0109601D01*
X0126231Y0109711D01*
X0126066Y0109817D01*
X0125900Y0109920D01*
X0125730Y0110018D01*
X0125559Y0110112D01*
X0125385Y0110202D01*
X0125209Y0110287D01*
X0125031Y0110369D01*
X0124851Y0110445D01*
X0124669Y0110518D01*
X0124486Y0110586D01*
X0124301Y0110649D01*
X0124114Y0110708D01*
X0123926Y0110762D01*
X0123737Y0110812D01*
X0123547Y0110857D01*
X0123355Y0110897D01*
X0123163Y0110933D01*
X0122970Y0110964D01*
X0122776Y0110990D01*
X0122581Y0111012D01*
X0122386Y0111028D01*
X0122191Y0111040D01*
X0121995Y0111048D01*
X0121800Y0111050D01*
X0129800Y0103050D02*
X0129798Y0102862D01*
X0129791Y0102674D01*
X0129780Y0102486D01*
X0129765Y0102298D01*
X0129745Y0102111D01*
X0129720Y0101925D01*
X0129692Y0101739D01*
X0129659Y0101553D01*
X0129621Y0101369D01*
X0129580Y0101186D01*
X0129534Y0101003D01*
X0129483Y0100822D01*
X0129429Y0100642D01*
X0129370Y0100463D01*
X0129307Y0100286D01*
X0129240Y0100110D01*
X0129169Y0099936D01*
X0129094Y0099763D01*
X0129014Y0099593D01*
X0128931Y0099424D01*
X0128844Y0099257D01*
X0121800Y0095050D02*
X0121605Y0095052D01*
X0121411Y0095059D01*
X0121217Y0095071D01*
X0121023Y0095088D01*
X0120829Y0095109D01*
X0120636Y0095135D01*
X0120444Y0095166D01*
X0120252Y0095201D01*
X0120062Y0095241D01*
X0119872Y0095286D01*
X0119684Y0095335D01*
X0119497Y0095389D01*
X0119311Y0095447D01*
X0119127Y0095510D01*
X0118944Y0095577D01*
X0118763Y0095649D01*
X0118584Y0095725D01*
X0118407Y0095805D01*
X0118232Y0095890D01*
X0118058Y0095979D01*
X0117888Y0096072D01*
X0117719Y0096169D01*
X0117553Y0096271D01*
X0117389Y0096376D01*
X0117228Y0096485D01*
X0117069Y0096598D01*
X0116914Y0096715D01*
X0116761Y0096836D01*
X0116612Y0096961D01*
X0116465Y0097089D01*
X0116321Y0097220D01*
X0116181Y0097355D01*
X0116044Y0097494D01*
X0115911Y0097635D01*
X0115781Y0097780D01*
X0115654Y0097928D01*
X0121800Y0095050D02*
X0121992Y0095052D01*
X0122184Y0095059D01*
X0122376Y0095071D01*
X0122568Y0095087D01*
X0122759Y0095108D01*
X0122949Y0095133D01*
X0123139Y0095163D01*
X0123328Y0095197D01*
X0123516Y0095236D01*
X0123703Y0095280D01*
X0123889Y0095328D01*
X0124074Y0095380D01*
X0124258Y0095437D01*
X0124440Y0095498D01*
X0124620Y0095564D01*
X0124799Y0095634D01*
X0124977Y0095708D01*
X0125152Y0095786D01*
X0125326Y0095869D01*
X0125497Y0095956D01*
X0125666Y0096046D01*
X0125833Y0096141D01*
X0125998Y0096240D01*
X0126161Y0096343D01*
X0126320Y0096450D01*
X0126478Y0096560D01*
X0126632Y0096674D01*
X0126784Y0096792D01*
X0126933Y0096914D01*
X0127079Y0097039D01*
X0127221Y0097167D01*
X0127361Y0097299D01*
X0127498Y0097434D01*
X0127631Y0097573D01*
X0127761Y0097714D01*
X0127887Y0097859D01*
X0128010Y0098007D01*
X0128129Y0098157D01*
X0128245Y0098311D01*
X0128357Y0098467D01*
X0128465Y0098626D01*
X0128570Y0098787D01*
X0128670Y0098951D01*
X0128766Y0099117D01*
X0128859Y0099285D01*
X0121800Y0111050D02*
X0121607Y0111048D01*
X0121414Y0111041D01*
X0121222Y0111029D01*
X0121029Y0111013D01*
X0120837Y0110992D01*
X0120646Y0110966D01*
X0120456Y0110936D01*
X0120266Y0110901D01*
X0120077Y0110862D01*
X0119889Y0110818D01*
X0119702Y0110770D01*
X0119516Y0110717D01*
X0119332Y0110660D01*
X0119149Y0110598D01*
X0118968Y0110532D01*
X0118788Y0110461D01*
X0118610Y0110387D01*
X0118434Y0110308D01*
X0118260Y0110224D01*
X0118088Y0110137D01*
X0117918Y0110045D01*
X0117751Y0109949D01*
X0117585Y0109850D01*
X0117422Y0109746D01*
X0117262Y0109639D01*
X0117105Y0109527D01*
X0116950Y0109412D01*
X0116798Y0109293D01*
X0116649Y0109171D01*
X0116502Y0109045D01*
X0116359Y0108915D01*
X0116219Y0108782D01*
X0116083Y0108646D01*
X0115949Y0108506D01*
X0115820Y0108364D01*
X0115693Y0108218D01*
D12*
X0126285Y0107036D02*
X0126383Y0106922D01*
X0126479Y0106806D01*
X0126571Y0106688D01*
X0126661Y0106567D01*
X0126748Y0106444D01*
X0126831Y0106319D01*
X0126911Y0106192D01*
X0126989Y0106063D01*
X0127062Y0105932D01*
X0127133Y0105800D01*
X0127200Y0105665D01*
X0127264Y0105529D01*
X0127324Y0105391D01*
X0127381Y0105252D01*
X0127435Y0105112D01*
X0127485Y0104970D01*
X0127531Y0104827D01*
X0127574Y0104683D01*
X0127613Y0104537D01*
X0127648Y0104391D01*
X0127680Y0104244D01*
X0127708Y0104097D01*
X0127732Y0103948D01*
X0127753Y0103799D01*
X0127770Y0103650D01*
X0127783Y0103500D01*
X0127792Y0103350D01*
X0127798Y0103200D01*
X0127800Y0103050D01*
X0121800Y0097050D02*
X0121646Y0097052D01*
X0121492Y0097058D01*
X0121338Y0097068D01*
X0121184Y0097082D01*
X0121031Y0097099D01*
X0120879Y0097121D01*
X0120727Y0097147D01*
X0120575Y0097176D01*
X0120425Y0097210D01*
X0120275Y0097247D01*
X0120127Y0097288D01*
X0119979Y0097333D01*
X0119833Y0097382D01*
X0119688Y0097434D01*
X0119545Y0097490D01*
X0119402Y0097550D01*
X0119262Y0097613D01*
X0119123Y0097680D01*
X0118986Y0097751D01*
X0118851Y0097825D01*
X0118718Y0097902D01*
X0118586Y0097983D01*
X0118457Y0098067D01*
X0118330Y0098155D01*
X0118206Y0098246D01*
X0118084Y0098339D01*
X0117964Y0098437D01*
X0117847Y0098537D01*
X0117732Y0098640D01*
X0117620Y0098746D01*
X0117511Y0098854D01*
X0117405Y0098966D01*
X0117301Y0099080D01*
X0117201Y0099197D01*
X0117103Y0099316D01*
X0117009Y0099438D01*
X0116918Y0099563D01*
X0121800Y0109050D02*
X0121952Y0109048D01*
X0122103Y0109042D01*
X0122254Y0109033D01*
X0122406Y0109019D01*
X0122556Y0109002D01*
X0122706Y0108981D01*
X0122856Y0108956D01*
X0123005Y0108928D01*
X0123153Y0108895D01*
X0123300Y0108859D01*
X0123447Y0108820D01*
X0123592Y0108776D01*
X0123736Y0108729D01*
X0123879Y0108678D01*
X0124020Y0108624D01*
X0124161Y0108566D01*
X0124299Y0108505D01*
X0124436Y0108440D01*
X0124572Y0108371D01*
X0124705Y0108300D01*
X0124837Y0108225D01*
X0124967Y0108146D01*
X0125094Y0108065D01*
X0125220Y0107980D01*
X0125344Y0107892D01*
X0125465Y0107801D01*
X0125584Y0107707D01*
X0125700Y0107609D01*
X0125814Y0107509D01*
X0125926Y0107407D01*
X0126034Y0107301D01*
X0126140Y0107193D01*
X0126244Y0107082D01*
X0126344Y0106968D01*
X0126442Y0106852D01*
X0126536Y0106733D01*
X0115800Y0103050D02*
X0115802Y0102898D01*
X0115808Y0102746D01*
X0115817Y0102595D01*
X0115831Y0102444D01*
X0115848Y0102293D01*
X0115869Y0102142D01*
X0115894Y0101993D01*
X0115923Y0101843D01*
X0115955Y0101695D01*
X0115991Y0101548D01*
X0116031Y0101401D01*
X0116075Y0101256D01*
X0116122Y0101111D01*
X0116173Y0100968D01*
X0116227Y0100827D01*
X0116285Y0100686D01*
X0116347Y0100547D01*
X0116412Y0100410D01*
X0116480Y0100275D01*
X0116552Y0100141D01*
X0116628Y0100009D01*
X0116706Y0099879D01*
X0116788Y0099751D01*
X0116873Y0099626D01*
X0116961Y0099502D01*
X0117053Y0099381D01*
X0117147Y0099262D01*
X0117244Y0099145D01*
X0115800Y0103050D02*
X0115802Y0103204D01*
X0115808Y0103359D01*
X0115818Y0103513D01*
X0115832Y0103666D01*
X0115850Y0103820D01*
X0115871Y0103973D01*
X0115897Y0104125D01*
X0115927Y0104276D01*
X0115960Y0104427D01*
X0115998Y0104577D01*
X0116039Y0104726D01*
X0116084Y0104873D01*
X0116133Y0105020D01*
X0116185Y0105165D01*
X0116241Y0105309D01*
X0116301Y0105451D01*
X0116365Y0105592D01*
X0116432Y0105731D01*
X0116503Y0105868D01*
X0116577Y0106003D01*
X0116655Y0106137D01*
X0116736Y0106268D01*
X0116820Y0106397D01*
X0116908Y0106524D01*
X0116999Y0106649D01*
X0117093Y0106771D01*
X0117191Y0106891D01*
X0121800Y0097050D02*
X0121950Y0097052D01*
X0122101Y0097058D01*
X0122251Y0097067D01*
X0122400Y0097080D01*
X0122550Y0097097D01*
X0122699Y0097118D01*
X0122847Y0097142D01*
X0122995Y0097170D01*
X0123142Y0097202D01*
X0123288Y0097237D01*
X0123433Y0097277D01*
X0123577Y0097319D01*
X0123720Y0097366D01*
X0123862Y0097416D01*
X0124003Y0097469D01*
X0124142Y0097526D01*
X0124280Y0097586D01*
X0124416Y0097650D01*
X0124550Y0097717D01*
X0124683Y0097788D01*
X0124814Y0097862D01*
X0124943Y0097939D01*
X0125070Y0098020D01*
X0125195Y0098103D01*
X0125318Y0098190D01*
X0125439Y0098279D01*
X0125557Y0098372D01*
X0125673Y0098468D01*
X0125787Y0098566D01*
X0125898Y0098667D01*
X0126007Y0098772D01*
X0126112Y0098878D01*
X0126216Y0098988D01*
X0126316Y0099100D01*
X0126414Y0099214D01*
X0126508Y0099331D01*
X0126600Y0099450D01*
X0121800Y0109050D02*
X0121648Y0109048D01*
X0121497Y0109042D01*
X0121346Y0109033D01*
X0121194Y0109019D01*
X0121044Y0109002D01*
X0120894Y0108981D01*
X0120744Y0108956D01*
X0120595Y0108928D01*
X0120447Y0108895D01*
X0120300Y0108859D01*
X0120153Y0108820D01*
X0120008Y0108776D01*
X0119864Y0108729D01*
X0119721Y0108678D01*
X0119580Y0108624D01*
X0119439Y0108566D01*
X0119301Y0108505D01*
X0119164Y0108440D01*
X0119028Y0108371D01*
X0118895Y0108300D01*
X0118763Y0108225D01*
X0118633Y0108146D01*
X0118506Y0108065D01*
X0118380Y0107980D01*
X0118256Y0107892D01*
X0118135Y0107801D01*
X0118016Y0107707D01*
X0117900Y0107609D01*
X0117786Y0107509D01*
X0117674Y0107407D01*
X0117566Y0107301D01*
X0117460Y0107193D01*
X0117356Y0107082D01*
X0117256Y0106968D01*
X0117158Y0106852D01*
X0117064Y0106733D01*
X0127800Y0103050D02*
X0127798Y0102896D01*
X0127792Y0102741D01*
X0127782Y0102587D01*
X0127768Y0102434D01*
X0127750Y0102280D01*
X0127729Y0102127D01*
X0127703Y0101975D01*
X0127673Y0101824D01*
X0127640Y0101673D01*
X0127602Y0101523D01*
X0127561Y0101374D01*
X0127516Y0101227D01*
X0127467Y0101080D01*
X0127415Y0100935D01*
X0127359Y0100791D01*
X0127299Y0100649D01*
X0127235Y0100508D01*
X0127168Y0100369D01*
X0127097Y0100232D01*
X0127023Y0100097D01*
X0126945Y0099963D01*
X0126864Y0099832D01*
X0126780Y0099703D01*
X0126692Y0099576D01*
X0126601Y0099451D01*
X0126507Y0099329D01*
X0126409Y0099209D01*
X0121800Y0107050D02*
X0121674Y0107048D01*
X0121549Y0107042D01*
X0121424Y0107032D01*
X0121299Y0107018D01*
X0121174Y0107001D01*
X0121050Y0106979D01*
X0120927Y0106954D01*
X0120805Y0106924D01*
X0120684Y0106891D01*
X0120564Y0106854D01*
X0120445Y0106814D01*
X0120328Y0106769D01*
X0120211Y0106721D01*
X0120097Y0106669D01*
X0119984Y0106614D01*
X0119873Y0106555D01*
X0119764Y0106493D01*
X0119657Y0106427D01*
X0119552Y0106358D01*
X0119449Y0106286D01*
X0119348Y0106211D01*
X0119250Y0106132D01*
X0119155Y0106050D01*
X0119062Y0105966D01*
X0118972Y0105878D01*
X0118884Y0105788D01*
X0118800Y0105695D01*
X0118718Y0105600D01*
X0118639Y0105502D01*
X0118564Y0105401D01*
X0118492Y0105298D01*
X0118423Y0105193D01*
X0118357Y0105086D01*
X0118295Y0104977D01*
X0118236Y0104866D01*
X0118181Y0104753D01*
X0118129Y0104639D01*
X0118081Y0104522D01*
X0118036Y0104405D01*
X0117996Y0104286D01*
X0117959Y0104166D01*
X0117926Y0104045D01*
X0117896Y0103923D01*
X0117871Y0103800D01*
X0117849Y0103676D01*
X0117832Y0103551D01*
X0117818Y0103426D01*
X0117808Y0103301D01*
X0117802Y0103176D01*
X0117800Y0103050D01*
X0119300Y0103050D02*
X0119302Y0103148D01*
X0119308Y0103246D01*
X0119317Y0103344D01*
X0119331Y0103441D01*
X0119348Y0103538D01*
X0119369Y0103634D01*
X0119394Y0103729D01*
X0119422Y0103823D01*
X0119455Y0103915D01*
X0119490Y0104007D01*
X0119530Y0104097D01*
X0119572Y0104185D01*
X0119619Y0104272D01*
X0119668Y0104356D01*
X0119721Y0104439D01*
X0119777Y0104519D01*
X0119837Y0104598D01*
X0119899Y0104674D01*
X0119964Y0104747D01*
X0120032Y0104818D01*
X0120103Y0104886D01*
X0120176Y0104951D01*
X0120252Y0105013D01*
X0120331Y0105073D01*
X0120411Y0105129D01*
X0120494Y0105182D01*
X0120578Y0105231D01*
X0120665Y0105278D01*
X0120753Y0105320D01*
X0120843Y0105360D01*
X0120935Y0105395D01*
X0121027Y0105428D01*
X0121121Y0105456D01*
X0121216Y0105481D01*
X0121312Y0105502D01*
X0121409Y0105519D01*
X0121506Y0105533D01*
X0121604Y0105542D01*
X0121702Y0105548D01*
X0121800Y0105550D01*
X0125800Y0103050D02*
X0125798Y0102924D01*
X0125792Y0102799D01*
X0125782Y0102674D01*
X0125768Y0102549D01*
X0125751Y0102424D01*
X0125729Y0102300D01*
X0125704Y0102177D01*
X0125674Y0102055D01*
X0125641Y0101934D01*
X0125604Y0101814D01*
X0125564Y0101695D01*
X0125519Y0101578D01*
X0125471Y0101461D01*
X0125419Y0101347D01*
X0125364Y0101234D01*
X0125305Y0101123D01*
X0125243Y0101014D01*
X0125177Y0100907D01*
X0125108Y0100802D01*
X0125036Y0100699D01*
X0124961Y0100598D01*
X0124882Y0100500D01*
X0124800Y0100405D01*
X0124716Y0100312D01*
X0124628Y0100222D01*
X0124538Y0100134D01*
X0124445Y0100050D01*
X0124350Y0099968D01*
X0124252Y0099889D01*
X0124151Y0099814D01*
X0124048Y0099742D01*
X0123943Y0099673D01*
X0123836Y0099607D01*
X0123727Y0099545D01*
X0123616Y0099486D01*
X0123503Y0099431D01*
X0123389Y0099379D01*
X0123272Y0099331D01*
X0123155Y0099286D01*
X0123036Y0099246D01*
X0122916Y0099209D01*
X0122795Y0099176D01*
X0122673Y0099146D01*
X0122550Y0099121D01*
X0122426Y0099099D01*
X0122301Y0099082D01*
X0122176Y0099068D01*
X0122051Y0099058D01*
X0121926Y0099052D01*
X0121800Y0099050D01*
X0121800Y0100550D02*
X0121898Y0100552D01*
X0121996Y0100558D01*
X0122094Y0100567D01*
X0122191Y0100581D01*
X0122288Y0100598D01*
X0122384Y0100619D01*
X0122479Y0100644D01*
X0122573Y0100672D01*
X0122665Y0100705D01*
X0122757Y0100740D01*
X0122847Y0100780D01*
X0122935Y0100822D01*
X0123022Y0100869D01*
X0123106Y0100918D01*
X0123189Y0100971D01*
X0123269Y0101027D01*
X0123348Y0101087D01*
X0123424Y0101149D01*
X0123497Y0101214D01*
X0123568Y0101282D01*
X0123636Y0101353D01*
X0123701Y0101426D01*
X0123763Y0101502D01*
X0123823Y0101581D01*
X0123879Y0101661D01*
X0123932Y0101744D01*
X0123981Y0101828D01*
X0124028Y0101915D01*
X0124070Y0102003D01*
X0124110Y0102093D01*
X0124145Y0102185D01*
X0124178Y0102277D01*
X0124206Y0102371D01*
X0124231Y0102466D01*
X0124252Y0102562D01*
X0124269Y0102659D01*
X0124283Y0102756D01*
X0124292Y0102854D01*
X0124298Y0102952D01*
X0124300Y0103050D01*
X0068414Y0104300D02*
X0065186Y0104300D01*
X0065186Y0099300D02*
X0068414Y0099300D01*
X0068414Y0094300D02*
X0065186Y0094300D01*
X0065186Y0089300D02*
X0068414Y0089300D01*
X0068414Y0069300D02*
X0065186Y0069300D01*
X0065186Y0064300D02*
X0068414Y0064300D01*
X0068414Y0059300D02*
X0065186Y0059300D01*
X0065186Y0054300D02*
X0068414Y0054300D01*
X0068414Y0034300D02*
X0065186Y0034300D01*
X0065186Y0029300D02*
X0068414Y0029300D01*
X0068414Y0024300D02*
X0065186Y0024300D01*
X0065186Y0019300D02*
X0068414Y0019300D01*
X0068414Y0014300D02*
X0065186Y0014300D01*
X0065186Y0009300D02*
X0068414Y0009300D01*
X0121800Y0061550D02*
X0121952Y0061548D01*
X0122103Y0061542D01*
X0122254Y0061533D01*
X0122406Y0061519D01*
X0122556Y0061502D01*
X0122706Y0061481D01*
X0122856Y0061456D01*
X0123005Y0061428D01*
X0123153Y0061395D01*
X0123300Y0061359D01*
X0123447Y0061320D01*
X0123592Y0061276D01*
X0123736Y0061229D01*
X0123879Y0061178D01*
X0124020Y0061124D01*
X0124161Y0061066D01*
X0124299Y0061005D01*
X0124436Y0060940D01*
X0124572Y0060871D01*
X0124705Y0060800D01*
X0124837Y0060725D01*
X0124967Y0060646D01*
X0125094Y0060565D01*
X0125220Y0060480D01*
X0125344Y0060392D01*
X0125465Y0060301D01*
X0125584Y0060207D01*
X0125700Y0060109D01*
X0125814Y0060009D01*
X0125926Y0059907D01*
X0126034Y0059801D01*
X0126140Y0059693D01*
X0126244Y0059582D01*
X0126344Y0059468D01*
X0126442Y0059352D01*
X0126536Y0059233D01*
X0126285Y0059536D02*
X0126383Y0059422D01*
X0126479Y0059306D01*
X0126571Y0059188D01*
X0126661Y0059067D01*
X0126748Y0058944D01*
X0126831Y0058819D01*
X0126911Y0058692D01*
X0126989Y0058563D01*
X0127062Y0058432D01*
X0127133Y0058300D01*
X0127200Y0058165D01*
X0127264Y0058029D01*
X0127324Y0057891D01*
X0127381Y0057752D01*
X0127435Y0057612D01*
X0127485Y0057470D01*
X0127531Y0057327D01*
X0127574Y0057183D01*
X0127613Y0057037D01*
X0127648Y0056891D01*
X0127680Y0056744D01*
X0127708Y0056597D01*
X0127732Y0056448D01*
X0127753Y0056299D01*
X0127770Y0056150D01*
X0127783Y0056000D01*
X0127792Y0055850D01*
X0127798Y0055700D01*
X0127800Y0055550D01*
X0121800Y0049550D02*
X0121646Y0049552D01*
X0121492Y0049558D01*
X0121338Y0049568D01*
X0121184Y0049582D01*
X0121031Y0049599D01*
X0120879Y0049621D01*
X0120727Y0049647D01*
X0120575Y0049676D01*
X0120425Y0049710D01*
X0120275Y0049747D01*
X0120127Y0049788D01*
X0119979Y0049833D01*
X0119833Y0049882D01*
X0119688Y0049934D01*
X0119545Y0049990D01*
X0119402Y0050050D01*
X0119262Y0050113D01*
X0119123Y0050180D01*
X0118986Y0050251D01*
X0118851Y0050325D01*
X0118718Y0050402D01*
X0118586Y0050483D01*
X0118457Y0050567D01*
X0118330Y0050655D01*
X0118206Y0050746D01*
X0118084Y0050839D01*
X0117964Y0050937D01*
X0117847Y0051037D01*
X0117732Y0051140D01*
X0117620Y0051246D01*
X0117511Y0051354D01*
X0117405Y0051466D01*
X0117301Y0051580D01*
X0117201Y0051697D01*
X0117103Y0051816D01*
X0117009Y0051938D01*
X0116918Y0052063D01*
X0115800Y0055550D02*
X0115802Y0055704D01*
X0115808Y0055859D01*
X0115818Y0056013D01*
X0115832Y0056166D01*
X0115850Y0056320D01*
X0115871Y0056473D01*
X0115897Y0056625D01*
X0115927Y0056776D01*
X0115960Y0056927D01*
X0115998Y0057077D01*
X0116039Y0057226D01*
X0116084Y0057373D01*
X0116133Y0057520D01*
X0116185Y0057665D01*
X0116241Y0057809D01*
X0116301Y0057951D01*
X0116365Y0058092D01*
X0116432Y0058231D01*
X0116503Y0058368D01*
X0116577Y0058503D01*
X0116655Y0058637D01*
X0116736Y0058768D01*
X0116820Y0058897D01*
X0116908Y0059024D01*
X0116999Y0059149D01*
X0117093Y0059271D01*
X0117191Y0059391D01*
X0115800Y0055550D02*
X0115802Y0055398D01*
X0115808Y0055246D01*
X0115817Y0055095D01*
X0115831Y0054944D01*
X0115848Y0054793D01*
X0115869Y0054642D01*
X0115894Y0054493D01*
X0115923Y0054343D01*
X0115955Y0054195D01*
X0115991Y0054048D01*
X0116031Y0053901D01*
X0116075Y0053756D01*
X0116122Y0053611D01*
X0116173Y0053468D01*
X0116227Y0053327D01*
X0116285Y0053186D01*
X0116347Y0053047D01*
X0116412Y0052910D01*
X0116480Y0052775D01*
X0116552Y0052641D01*
X0116628Y0052509D01*
X0116706Y0052379D01*
X0116788Y0052251D01*
X0116873Y0052126D01*
X0116961Y0052002D01*
X0117053Y0051881D01*
X0117147Y0051762D01*
X0117244Y0051645D01*
X0121800Y0049550D02*
X0121950Y0049552D01*
X0122101Y0049558D01*
X0122251Y0049567D01*
X0122400Y0049580D01*
X0122550Y0049597D01*
X0122699Y0049618D01*
X0122847Y0049642D01*
X0122995Y0049670D01*
X0123142Y0049702D01*
X0123288Y0049737D01*
X0123433Y0049777D01*
X0123577Y0049819D01*
X0123720Y0049866D01*
X0123862Y0049916D01*
X0124003Y0049969D01*
X0124142Y0050026D01*
X0124280Y0050086D01*
X0124416Y0050150D01*
X0124550Y0050217D01*
X0124683Y0050288D01*
X0124814Y0050362D01*
X0124943Y0050439D01*
X0125070Y0050520D01*
X0125195Y0050603D01*
X0125318Y0050690D01*
X0125439Y0050779D01*
X0125557Y0050872D01*
X0125673Y0050968D01*
X0125787Y0051066D01*
X0125898Y0051167D01*
X0126007Y0051272D01*
X0126112Y0051378D01*
X0126216Y0051488D01*
X0126316Y0051600D01*
X0126414Y0051714D01*
X0126508Y0051831D01*
X0126600Y0051950D01*
X0121800Y0061550D02*
X0121648Y0061548D01*
X0121497Y0061542D01*
X0121346Y0061533D01*
X0121194Y0061519D01*
X0121044Y0061502D01*
X0120894Y0061481D01*
X0120744Y0061456D01*
X0120595Y0061428D01*
X0120447Y0061395D01*
X0120300Y0061359D01*
X0120153Y0061320D01*
X0120008Y0061276D01*
X0119864Y0061229D01*
X0119721Y0061178D01*
X0119580Y0061124D01*
X0119439Y0061066D01*
X0119301Y0061005D01*
X0119164Y0060940D01*
X0119028Y0060871D01*
X0118895Y0060800D01*
X0118763Y0060725D01*
X0118633Y0060646D01*
X0118506Y0060565D01*
X0118380Y0060480D01*
X0118256Y0060392D01*
X0118135Y0060301D01*
X0118016Y0060207D01*
X0117900Y0060109D01*
X0117786Y0060009D01*
X0117674Y0059907D01*
X0117566Y0059801D01*
X0117460Y0059693D01*
X0117356Y0059582D01*
X0117256Y0059468D01*
X0117158Y0059352D01*
X0117064Y0059233D01*
X0127800Y0055550D02*
X0127798Y0055396D01*
X0127792Y0055241D01*
X0127782Y0055087D01*
X0127768Y0054934D01*
X0127750Y0054780D01*
X0127729Y0054627D01*
X0127703Y0054475D01*
X0127673Y0054324D01*
X0127640Y0054173D01*
X0127602Y0054023D01*
X0127561Y0053874D01*
X0127516Y0053727D01*
X0127467Y0053580D01*
X0127415Y0053435D01*
X0127359Y0053291D01*
X0127299Y0053149D01*
X0127235Y0053008D01*
X0127168Y0052869D01*
X0127097Y0052732D01*
X0127023Y0052597D01*
X0126945Y0052463D01*
X0126864Y0052332D01*
X0126780Y0052203D01*
X0126692Y0052076D01*
X0126601Y0051951D01*
X0126507Y0051829D01*
X0126409Y0051709D01*
X0121800Y0059550D02*
X0121674Y0059548D01*
X0121549Y0059542D01*
X0121424Y0059532D01*
X0121299Y0059518D01*
X0121174Y0059501D01*
X0121050Y0059479D01*
X0120927Y0059454D01*
X0120805Y0059424D01*
X0120684Y0059391D01*
X0120564Y0059354D01*
X0120445Y0059314D01*
X0120328Y0059269D01*
X0120211Y0059221D01*
X0120097Y0059169D01*
X0119984Y0059114D01*
X0119873Y0059055D01*
X0119764Y0058993D01*
X0119657Y0058927D01*
X0119552Y0058858D01*
X0119449Y0058786D01*
X0119348Y0058711D01*
X0119250Y0058632D01*
X0119155Y0058550D01*
X0119062Y0058466D01*
X0118972Y0058378D01*
X0118884Y0058288D01*
X0118800Y0058195D01*
X0118718Y0058100D01*
X0118639Y0058002D01*
X0118564Y0057901D01*
X0118492Y0057798D01*
X0118423Y0057693D01*
X0118357Y0057586D01*
X0118295Y0057477D01*
X0118236Y0057366D01*
X0118181Y0057253D01*
X0118129Y0057139D01*
X0118081Y0057022D01*
X0118036Y0056905D01*
X0117996Y0056786D01*
X0117959Y0056666D01*
X0117926Y0056545D01*
X0117896Y0056423D01*
X0117871Y0056300D01*
X0117849Y0056176D01*
X0117832Y0056051D01*
X0117818Y0055926D01*
X0117808Y0055801D01*
X0117802Y0055676D01*
X0117800Y0055550D01*
X0119300Y0055550D02*
X0119302Y0055648D01*
X0119308Y0055746D01*
X0119317Y0055844D01*
X0119331Y0055941D01*
X0119348Y0056038D01*
X0119369Y0056134D01*
X0119394Y0056229D01*
X0119422Y0056323D01*
X0119455Y0056415D01*
X0119490Y0056507D01*
X0119530Y0056597D01*
X0119572Y0056685D01*
X0119619Y0056772D01*
X0119668Y0056856D01*
X0119721Y0056939D01*
X0119777Y0057019D01*
X0119837Y0057098D01*
X0119899Y0057174D01*
X0119964Y0057247D01*
X0120032Y0057318D01*
X0120103Y0057386D01*
X0120176Y0057451D01*
X0120252Y0057513D01*
X0120331Y0057573D01*
X0120411Y0057629D01*
X0120494Y0057682D01*
X0120578Y0057731D01*
X0120665Y0057778D01*
X0120753Y0057820D01*
X0120843Y0057860D01*
X0120935Y0057895D01*
X0121027Y0057928D01*
X0121121Y0057956D01*
X0121216Y0057981D01*
X0121312Y0058002D01*
X0121409Y0058019D01*
X0121506Y0058033D01*
X0121604Y0058042D01*
X0121702Y0058048D01*
X0121800Y0058050D01*
X0125800Y0055550D02*
X0125798Y0055424D01*
X0125792Y0055299D01*
X0125782Y0055174D01*
X0125768Y0055049D01*
X0125751Y0054924D01*
X0125729Y0054800D01*
X0125704Y0054677D01*
X0125674Y0054555D01*
X0125641Y0054434D01*
X0125604Y0054314D01*
X0125564Y0054195D01*
X0125519Y0054078D01*
X0125471Y0053961D01*
X0125419Y0053847D01*
X0125364Y0053734D01*
X0125305Y0053623D01*
X0125243Y0053514D01*
X0125177Y0053407D01*
X0125108Y0053302D01*
X0125036Y0053199D01*
X0124961Y0053098D01*
X0124882Y0053000D01*
X0124800Y0052905D01*
X0124716Y0052812D01*
X0124628Y0052722D01*
X0124538Y0052634D01*
X0124445Y0052550D01*
X0124350Y0052468D01*
X0124252Y0052389D01*
X0124151Y0052314D01*
X0124048Y0052242D01*
X0123943Y0052173D01*
X0123836Y0052107D01*
X0123727Y0052045D01*
X0123616Y0051986D01*
X0123503Y0051931D01*
X0123389Y0051879D01*
X0123272Y0051831D01*
X0123155Y0051786D01*
X0123036Y0051746D01*
X0122916Y0051709D01*
X0122795Y0051676D01*
X0122673Y0051646D01*
X0122550Y0051621D01*
X0122426Y0051599D01*
X0122301Y0051582D01*
X0122176Y0051568D01*
X0122051Y0051558D01*
X0121926Y0051552D01*
X0121800Y0051550D01*
X0121800Y0053050D02*
X0121898Y0053052D01*
X0121996Y0053058D01*
X0122094Y0053067D01*
X0122191Y0053081D01*
X0122288Y0053098D01*
X0122384Y0053119D01*
X0122479Y0053144D01*
X0122573Y0053172D01*
X0122665Y0053205D01*
X0122757Y0053240D01*
X0122847Y0053280D01*
X0122935Y0053322D01*
X0123022Y0053369D01*
X0123106Y0053418D01*
X0123189Y0053471D01*
X0123269Y0053527D01*
X0123348Y0053587D01*
X0123424Y0053649D01*
X0123497Y0053714D01*
X0123568Y0053782D01*
X0123636Y0053853D01*
X0123701Y0053926D01*
X0123763Y0054002D01*
X0123823Y0054081D01*
X0123879Y0054161D01*
X0123932Y0054244D01*
X0123981Y0054328D01*
X0124028Y0054415D01*
X0124070Y0054503D01*
X0124110Y0054593D01*
X0124145Y0054685D01*
X0124178Y0054777D01*
X0124206Y0054871D01*
X0124231Y0054966D01*
X0124252Y0055062D01*
X0124269Y0055159D01*
X0124283Y0055256D01*
X0124292Y0055354D01*
X0124298Y0055452D01*
X0124300Y0055550D01*
D13*
X0116600Y0055007D02*
X0116600Y0053473D01*
X0116600Y0054240D02*
X0111996Y0054240D01*
X0111996Y0053473D02*
X0111996Y0055007D01*
X0111996Y0056542D02*
X0111996Y0059611D01*
X0111996Y0058077D02*
X0116600Y0058077D01*
X0116600Y0061146D02*
X0116600Y0064215D01*
X0114298Y0062681D02*
X0114298Y0061146D01*
X0111996Y0061146D02*
X0116600Y0061146D01*
X0111996Y0061146D02*
X0111996Y0064215D01*
X0111996Y0051938D02*
X0116600Y0051938D01*
X0114298Y0051938D02*
X0114298Y0048869D01*
X0116600Y0048869D02*
X0111996Y0048869D01*
X0111996Y0047334D02*
X0116600Y0047334D01*
X0115065Y0045800D01*
X0116600Y0044265D01*
X0111996Y0044265D01*
X0087965Y0033337D02*
X0087965Y0030267D01*
X0087198Y0029500D01*
X0085663Y0029500D01*
X0084896Y0030267D01*
X0087965Y0033337D01*
X0087198Y0034104D01*
X0085663Y0034104D01*
X0084896Y0033337D01*
X0084896Y0030267D01*
X0083361Y0030267D02*
X0082594Y0029500D01*
X0081059Y0029500D01*
X0080292Y0030267D01*
X0080292Y0031802D02*
X0081827Y0032569D01*
X0082594Y0032569D01*
X0083361Y0031802D01*
X0083361Y0030267D01*
X0080292Y0031802D02*
X0080292Y0034104D01*
X0083361Y0034104D01*
X0077223Y0034104D02*
X0077223Y0029500D01*
X0078757Y0029500D02*
X0075688Y0029500D01*
X0075688Y0032569D02*
X0077223Y0034104D01*
X0077285Y0024104D02*
X0077285Y0019500D01*
X0078819Y0019500D02*
X0075750Y0019500D01*
X0075750Y0022569D02*
X0077285Y0024104D01*
X0080354Y0024104D02*
X0080354Y0021802D01*
X0081889Y0022569D01*
X0082656Y0022569D01*
X0083423Y0021802D01*
X0083423Y0020267D01*
X0082656Y0019500D01*
X0081121Y0019500D01*
X0080354Y0020267D01*
X0084958Y0020267D02*
X0088027Y0023337D01*
X0088027Y0020267D01*
X0087260Y0019500D01*
X0085725Y0019500D01*
X0084958Y0020267D01*
X0084958Y0023337D01*
X0085725Y0024104D01*
X0087260Y0024104D01*
X0088027Y0023337D01*
X0083423Y0024104D02*
X0080354Y0024104D01*
X0081059Y0014104D02*
X0082594Y0014104D01*
X0083361Y0013337D01*
X0080292Y0010267D01*
X0081059Y0009500D01*
X0082594Y0009500D01*
X0083361Y0010267D01*
X0083361Y0013337D01*
X0084896Y0013337D02*
X0085663Y0014104D01*
X0087198Y0014104D01*
X0087965Y0013337D01*
X0084896Y0010267D01*
X0085663Y0009500D01*
X0087198Y0009500D01*
X0087965Y0010267D01*
X0087965Y0013337D01*
X0084896Y0013337D02*
X0084896Y0010267D01*
X0080292Y0010267D02*
X0080292Y0013337D01*
X0081059Y0014104D01*
X0077223Y0014104D02*
X0075688Y0012569D01*
X0077223Y0014104D02*
X0077223Y0009500D01*
X0078757Y0009500D02*
X0075688Y0009500D01*
X0068300Y0044202D02*
X0065300Y0044202D01*
X0065300Y0049398D02*
X0068202Y0049398D01*
X0074500Y0055750D02*
X0077569Y0055750D01*
X0076035Y0055750D02*
X0076035Y0060354D01*
X0074500Y0058819D01*
X0079104Y0060354D02*
X0079104Y0055750D01*
X0082173Y0055750D02*
X0082173Y0060354D01*
X0080639Y0058819D01*
X0079104Y0060354D01*
X0078535Y0064500D02*
X0078535Y0069104D01*
X0077000Y0067569D01*
X0077000Y0064500D02*
X0080069Y0064500D01*
X0081604Y0064500D02*
X0081604Y0069104D01*
X0083139Y0067569D01*
X0084673Y0069104D01*
X0084673Y0064500D01*
X0068300Y0074202D02*
X0065300Y0074202D01*
X0065300Y0079398D02*
X0068202Y0079398D01*
X0075688Y0089500D02*
X0078757Y0089500D01*
X0077223Y0089500D02*
X0077223Y0094104D01*
X0075688Y0092569D01*
X0080292Y0093337D02*
X0080292Y0090267D01*
X0083361Y0093337D01*
X0083361Y0090267D01*
X0082594Y0089500D01*
X0081059Y0089500D01*
X0080292Y0090267D01*
X0084896Y0090267D02*
X0087965Y0093337D01*
X0087965Y0090267D01*
X0087198Y0089500D01*
X0085663Y0089500D01*
X0084896Y0090267D01*
X0084896Y0093337D01*
X0085663Y0094104D01*
X0087198Y0094104D01*
X0087965Y0093337D01*
X0083361Y0093337D02*
X0082594Y0094104D01*
X0081059Y0094104D01*
X0080292Y0093337D01*
X0081059Y0099500D02*
X0080292Y0100267D01*
X0083361Y0103337D01*
X0083361Y0100267D01*
X0082594Y0099500D01*
X0081059Y0099500D01*
X0080292Y0100267D02*
X0080292Y0103337D01*
X0081059Y0104104D01*
X0082594Y0104104D01*
X0083361Y0103337D01*
X0084896Y0103337D02*
X0085663Y0104104D01*
X0087198Y0104104D01*
X0087965Y0103337D01*
X0084896Y0100267D01*
X0085663Y0099500D01*
X0087198Y0099500D01*
X0087965Y0100267D01*
X0087965Y0103337D01*
X0084896Y0103337D02*
X0084896Y0100267D01*
X0078757Y0099500D02*
X0075688Y0099500D01*
X0077223Y0099500D02*
X0077223Y0104104D01*
X0075688Y0102569D01*
X0126996Y0102507D02*
X0126996Y0100973D01*
X0126996Y0101740D02*
X0131600Y0101740D01*
X0131600Y0100973D02*
X0131600Y0102507D01*
X0131600Y0099438D02*
X0126996Y0099438D01*
X0129298Y0099438D02*
X0129298Y0096369D01*
X0131600Y0096369D02*
X0126996Y0096369D01*
X0126996Y0094834D02*
X0131600Y0094834D01*
X0130065Y0093300D01*
X0131600Y0091765D01*
X0126996Y0091765D01*
X0126996Y0104042D02*
X0126996Y0107111D01*
X0126996Y0105577D02*
X0131600Y0105577D01*
X0131600Y0108646D02*
X0131600Y0111715D01*
X0129298Y0110181D02*
X0129298Y0108646D01*
X0126996Y0108646D02*
X0131600Y0108646D01*
X0126996Y0108646D02*
X0126996Y0111715D01*
D14*
X0069720Y0101794D03*
X0063920Y0101794D03*
X0063920Y0091794D03*
X0069720Y0091794D03*
X0069680Y0066806D03*
X0063880Y0066806D03*
X0063880Y0056806D03*
X0069680Y0056806D03*
X0069720Y0031794D03*
X0063920Y0031794D03*
X0063880Y0021806D03*
X0069680Y0021806D03*
X0069720Y0011794D03*
X0063920Y0011794D03*
D15*
X0036643Y0014359D02*
X0036643Y0021052D01*
X0036643Y0014359D02*
X0028769Y0014359D01*
X0028769Y0012391D01*
X0024831Y0012391D01*
X0024831Y0014359D01*
X0019320Y0014359D01*
X0020894Y0014359D01*
X0019320Y0014359D02*
X0019320Y0015540D01*
X0019320Y0058060D01*
X0018139Y0058060D01*
X0018139Y0059241D01*
X0015383Y0059241D01*
X0015383Y0014359D01*
X0018139Y0014359D01*
X0018139Y0015540D01*
X0019320Y0015540D01*
X0032706Y0014359D02*
X0036643Y0014359D01*
X0036643Y0059241D01*
X0036643Y0052548D01*
X0036643Y0059241D02*
X0028769Y0059241D01*
X0028769Y0061209D01*
X0024831Y0061209D01*
X0024831Y0059241D01*
X0019320Y0059241D01*
X0020894Y0059241D01*
X0019320Y0059241D02*
X0019320Y0058060D01*
X0018139Y0051367D02*
X0018139Y0049792D01*
X0016564Y0050580D01*
X0018139Y0051367D01*
X0018139Y0051308D02*
X0018020Y0051308D01*
X0018139Y0050509D02*
X0016704Y0050509D01*
X0032706Y0059241D02*
X0036643Y0059241D01*
D16*
X0038513Y0050580D03*
X0038513Y0046643D03*
X0038513Y0042706D03*
X0038513Y0038769D03*
X0038513Y0034831D03*
X0038513Y0030894D03*
X0038513Y0026957D03*
X0038513Y0023020D03*
D17*
X0108808Y0071426D02*
X0108808Y0087174D01*
X0109004Y0087460D01*
X0109207Y0087742D01*
X0109416Y0088018D01*
X0109633Y0088289D01*
X0109856Y0088555D01*
X0110085Y0088815D01*
X0110321Y0089070D01*
X0110563Y0089318D01*
X0110810Y0089561D01*
X0111064Y0089798D01*
X0111323Y0090028D01*
X0111588Y0090252D01*
X0111858Y0090469D01*
X0112134Y0090680D01*
X0112415Y0090884D01*
X0112700Y0091081D01*
X0112990Y0091271D01*
X0113285Y0091454D01*
X0113584Y0091629D01*
X0113888Y0091797D01*
X0114195Y0091958D01*
X0114506Y0092111D01*
X0114821Y0092257D01*
X0115139Y0092395D01*
X0115461Y0092525D01*
X0115786Y0092647D01*
X0116113Y0092761D01*
X0116443Y0092867D01*
X0116776Y0092965D01*
X0117111Y0093055D01*
X0117448Y0093136D01*
X0117787Y0093210D01*
X0118128Y0093275D01*
X0118470Y0093331D01*
X0118814Y0093380D01*
X0119158Y0093420D01*
X0119504Y0093451D01*
X0119850Y0093474D01*
X0120196Y0093489D01*
X0120543Y0093495D01*
X0120890Y0093492D01*
X0121237Y0093482D01*
X0121583Y0093462D01*
X0121929Y0093434D01*
X0122274Y0093398D01*
X0122618Y0093354D01*
X0122961Y0093301D01*
X0123302Y0093239D01*
X0123642Y0093169D01*
X0123980Y0093091D01*
X0124316Y0093005D01*
X0124649Y0092911D01*
X0124981Y0092808D01*
X0125310Y0092698D01*
X0125635Y0092579D01*
X0125958Y0092453D01*
X0126278Y0092318D01*
X0126595Y0092176D01*
X0126907Y0092026D01*
X0127217Y0091869D01*
X0127522Y0091704D01*
X0127823Y0091531D01*
X0128119Y0091352D01*
X0128412Y0091165D01*
X0128699Y0090971D01*
X0128982Y0090770D01*
X0129260Y0090562D01*
X0129532Y0090348D01*
X0129800Y0090127D01*
X0130061Y0089899D01*
X0130317Y0089665D01*
X0130568Y0089425D01*
X0130812Y0089179D01*
X0131051Y0088927D01*
X0131283Y0088669D01*
X0131508Y0088406D01*
X0131728Y0088137D01*
X0131940Y0087863D01*
X0132146Y0087584D01*
X0132345Y0087300D01*
X0132537Y0087011D01*
X0132722Y0086717D01*
X0132900Y0086419D01*
X0133070Y0086117D01*
X0133233Y0085811D01*
X0133388Y0085501D01*
X0133536Y0085187D01*
X0133676Y0084870D01*
X0133808Y0084549D01*
X0133932Y0084225D01*
X0134049Y0083898D01*
X0134157Y0083569D01*
X0134257Y0083237D01*
X0134349Y0082902D01*
X0134433Y0082566D01*
X0134509Y0082227D01*
X0134576Y0081887D01*
X0134635Y0081545D01*
X0134686Y0081202D01*
X0134728Y0080858D01*
X0134762Y0080513D01*
X0134788Y0080167D01*
X0134804Y0079820D01*
X0134813Y0079473D01*
X0134813Y0079127D01*
X0134804Y0078780D01*
X0134788Y0078433D01*
X0134762Y0078087D01*
X0134728Y0077742D01*
X0134686Y0077398D01*
X0134635Y0077055D01*
X0134576Y0076713D01*
X0134509Y0076373D01*
X0134433Y0076034D01*
X0134349Y0075698D01*
X0134257Y0075363D01*
X0134157Y0075031D01*
X0134049Y0074702D01*
X0133932Y0074375D01*
X0133808Y0074051D01*
X0133676Y0073730D01*
X0133536Y0073413D01*
X0133388Y0073099D01*
X0133233Y0072789D01*
X0133070Y0072483D01*
X0132900Y0072181D01*
X0132722Y0071883D01*
X0132537Y0071589D01*
X0132345Y0071300D01*
X0132146Y0071016D01*
X0131940Y0070737D01*
X0131728Y0070463D01*
X0131508Y0070194D01*
X0131283Y0069931D01*
X0131051Y0069673D01*
X0130812Y0069421D01*
X0130568Y0069175D01*
X0130317Y0068935D01*
X0130061Y0068701D01*
X0129800Y0068473D01*
X0129532Y0068252D01*
X0129260Y0068038D01*
X0128982Y0067830D01*
X0128699Y0067629D01*
X0128412Y0067435D01*
X0128119Y0067248D01*
X0127823Y0067069D01*
X0127522Y0066896D01*
X0127217Y0066731D01*
X0126907Y0066574D01*
X0126595Y0066424D01*
X0126278Y0066282D01*
X0125958Y0066147D01*
X0125635Y0066021D01*
X0125310Y0065902D01*
X0124981Y0065792D01*
X0124649Y0065689D01*
X0124316Y0065595D01*
X0123980Y0065509D01*
X0123642Y0065431D01*
X0123302Y0065361D01*
X0122961Y0065299D01*
X0122618Y0065246D01*
X0122274Y0065202D01*
X0121929Y0065166D01*
X0121583Y0065138D01*
X0121237Y0065118D01*
X0120890Y0065108D01*
X0120543Y0065105D01*
X0120196Y0065111D01*
X0119850Y0065126D01*
X0119504Y0065149D01*
X0119158Y0065180D01*
X0118814Y0065220D01*
X0118470Y0065269D01*
X0118128Y0065325D01*
X0117787Y0065390D01*
X0117448Y0065464D01*
X0117111Y0065545D01*
X0116776Y0065635D01*
X0116443Y0065733D01*
X0116113Y0065839D01*
X0115786Y0065953D01*
X0115461Y0066075D01*
X0115139Y0066205D01*
X0114821Y0066343D01*
X0114506Y0066489D01*
X0114195Y0066642D01*
X0113888Y0066803D01*
X0113584Y0066971D01*
X0113285Y0067146D01*
X0112990Y0067329D01*
X0112700Y0067519D01*
X0112415Y0067716D01*
X0112134Y0067920D01*
X0111858Y0068131D01*
X0111588Y0068348D01*
X0111323Y0068572D01*
X0111064Y0068802D01*
X0110810Y0069039D01*
X0110563Y0069282D01*
X0110321Y0069530D01*
X0110085Y0069785D01*
X0109856Y0070045D01*
X0109633Y0070311D01*
X0109416Y0070582D01*
X0109207Y0070858D01*
X0109004Y0071140D01*
X0108808Y0071426D01*
D18*
X0069623Y0076795D03*
X0063923Y0076795D03*
X0063923Y0046795D03*
X0069623Y0046795D03*
D19*
X0073467Y0046250D02*
X0075402Y0046250D01*
X0074435Y0046250D02*
X0074435Y0049152D01*
X0073467Y0048185D01*
X0076414Y0048669D02*
X0076414Y0046734D01*
X0078349Y0048669D01*
X0078349Y0046734D01*
X0077865Y0046250D01*
X0076898Y0046250D01*
X0076414Y0046734D01*
X0076414Y0048669D02*
X0076898Y0049152D01*
X0077865Y0049152D01*
X0078349Y0048669D01*
X0079360Y0048669D02*
X0079844Y0049152D01*
X0080812Y0049152D01*
X0081295Y0048669D01*
X0079360Y0046734D01*
X0079844Y0046250D01*
X0080812Y0046250D01*
X0081295Y0046734D01*
X0081295Y0048669D01*
X0082307Y0048185D02*
X0083758Y0048185D01*
X0084242Y0047701D01*
X0084242Y0046734D01*
X0083758Y0046250D01*
X0082307Y0046250D01*
X0082307Y0045283D02*
X0082307Y0048185D01*
X0085253Y0047701D02*
X0086221Y0047701D01*
X0085253Y0046250D02*
X0085253Y0049152D01*
X0087188Y0049152D01*
X0079360Y0048669D02*
X0079360Y0046734D01*
X0082307Y0075283D02*
X0082307Y0078185D01*
X0083758Y0078185D01*
X0084242Y0077701D01*
X0084242Y0076734D01*
X0083758Y0076250D01*
X0082307Y0076250D01*
X0081295Y0076734D02*
X0080812Y0076250D01*
X0079844Y0076250D01*
X0079360Y0076734D01*
X0081295Y0078669D01*
X0081295Y0076734D01*
X0079360Y0076734D02*
X0079360Y0078669D01*
X0079844Y0079152D01*
X0080812Y0079152D01*
X0081295Y0078669D01*
X0078349Y0078669D02*
X0078349Y0076734D01*
X0077865Y0076250D01*
X0076898Y0076250D01*
X0076414Y0076734D01*
X0078349Y0078669D01*
X0077865Y0079152D01*
X0076898Y0079152D01*
X0076414Y0078669D01*
X0076414Y0076734D01*
X0075402Y0076250D02*
X0073467Y0076250D01*
X0074435Y0076250D02*
X0074435Y0079152D01*
X0073467Y0078185D01*
X0085253Y0077701D02*
X0086221Y0077701D01*
X0085253Y0076250D02*
X0085253Y0079152D01*
X0087188Y0079152D01*
M02*
