G75*
%MOIN*%
%OFA0B0*%
%FSLAX25Y25*%
%IPPOS*%
%LPD*%
%AMOC8*
5,1,8,0,0,1.08239X$1,22.5*
%
%ADD10C,0.03100*%
%ADD11R,0.05906X0.05118*%
%ADD12R,0.09843X0.07874*%
%ADD13R,0.12992X0.07874*%
%ADD14R,0.12205X0.01969*%
%ADD15R,0.06299X0.07874*%
%ADD16R,0.06299X0.07087*%
%ADD17R,0.01969X0.05906*%
%ADD18R,0.05906X0.01969*%
%ADD19R,0.07087X0.06299*%
%ADD20R,0.05118X0.06299*%
%ADD21R,0.11811X0.09843*%
%ADD22R,0.04724X0.04724*%
%ADD23R,0.05118X0.05906*%
%ADD24R,0.15024X0.15024*%
%ADD25R,0.07087X0.07087*%
%ADD26R,0.04724X0.02165*%
%ADD27C,0.04134*%
%ADD28R,0.06000X0.06000*%
%ADD29C,0.06000*%
%ADD30R,0.04800X0.08800*%
%ADD31R,0.14173X0.08661*%
%ADD32C,0.05118*%
%ADD33R,0.03937X0.05512*%
%ADD34R,0.04724X0.05512*%
%ADD35R,0.05512X0.04724*%
%ADD36C,0.07400*%
%ADD37R,0.05906X0.05906*%
%ADD38C,0.05700*%
%ADD39R,0.06299X0.05118*%
%ADD40OC8,0.04800*%
%ADD41C,0.05400*%
%ADD42OC8,0.05400*%
%ADD43C,0.01600*%
%ADD44R,0.02400X0.02400*%
D10*
X0110500Y0151800D03*
X0110500Y0156800D03*
X0115500Y0156800D03*
X0120500Y0156800D03*
X0120500Y0151800D03*
X0115500Y0151800D03*
D11*
X0088000Y0198060D03*
X0088000Y0205540D03*
X0213000Y0253060D03*
X0213000Y0260540D03*
X0283000Y0258060D03*
X0283000Y0265540D03*
X0318000Y0270560D03*
X0318000Y0278040D03*
X0248000Y0145540D03*
X0248000Y0138060D03*
X0248000Y0088040D03*
X0248000Y0080560D03*
X0258000Y0080560D03*
X0258000Y0088040D03*
X0238000Y0088040D03*
X0238000Y0080560D03*
D12*
X0384811Y0154280D03*
X0384811Y0189320D03*
D13*
X0361583Y0189320D03*
X0361583Y0154280D03*
D14*
X0361189Y0165501D03*
X0361189Y0168650D03*
X0361189Y0171800D03*
X0361189Y0174950D03*
X0361189Y0178099D03*
D15*
X0338512Y0181800D03*
X0327488Y0181800D03*
X0327488Y0164300D03*
X0338512Y0164300D03*
D16*
X0196012Y0176800D03*
X0184988Y0176800D03*
X0184988Y0189300D03*
X0196012Y0189300D03*
D17*
X0163748Y0178965D03*
X0160598Y0178965D03*
X0157449Y0178965D03*
X0154299Y0178965D03*
X0151150Y0178965D03*
X0148000Y0178965D03*
X0144850Y0178965D03*
X0141701Y0178965D03*
X0138551Y0178965D03*
X0135402Y0178965D03*
X0132252Y0178965D03*
X0132252Y0224635D03*
X0135402Y0224635D03*
X0138551Y0224635D03*
X0141701Y0224635D03*
X0144850Y0224635D03*
X0148000Y0224635D03*
X0151150Y0224635D03*
X0154299Y0224635D03*
X0157449Y0224635D03*
X0160598Y0224635D03*
X0163748Y0224635D03*
D18*
X0170835Y0217548D03*
X0170835Y0214398D03*
X0170835Y0211249D03*
X0170835Y0208099D03*
X0170835Y0204950D03*
X0170835Y0201800D03*
X0170835Y0198650D03*
X0170835Y0195501D03*
X0170835Y0192351D03*
X0170835Y0189202D03*
X0170835Y0186052D03*
X0125165Y0186052D03*
X0125165Y0189202D03*
X0125165Y0192351D03*
X0125165Y0195501D03*
X0125165Y0198650D03*
X0125165Y0201800D03*
X0125165Y0204950D03*
X0125165Y0208099D03*
X0125165Y0211249D03*
X0125165Y0214398D03*
X0125165Y0217548D03*
D19*
X0073000Y0217312D03*
X0073000Y0206288D03*
X0073000Y0197312D03*
X0073000Y0186288D03*
X0144250Y0162312D03*
X0144250Y0151288D03*
D20*
X0181760Y0224300D03*
X0189240Y0224300D03*
D21*
X0103000Y0211898D03*
X0103000Y0191308D03*
D22*
X0211366Y0184300D03*
X0219634Y0184300D03*
X0258000Y0145934D03*
X0258000Y0137666D03*
X0247134Y0241800D03*
X0238866Y0241800D03*
X0238866Y0254300D03*
X0247134Y0254300D03*
D23*
X0256760Y0254300D03*
X0264240Y0254300D03*
X0264240Y0241800D03*
X0256760Y0241800D03*
X0296760Y0246800D03*
X0304240Y0246800D03*
X0304240Y0276800D03*
X0296760Y0276800D03*
X0219240Y0193000D03*
X0211760Y0193000D03*
X0249260Y0166800D03*
X0256740Y0166800D03*
X0256740Y0156800D03*
X0249260Y0156800D03*
X0266760Y0166800D03*
X0274240Y0166800D03*
X0209240Y0104300D03*
X0201760Y0104300D03*
X0201760Y0094300D03*
X0209240Y0094300D03*
X0101740Y0244300D03*
X0094260Y0244300D03*
X0094260Y0256800D03*
X0101740Y0256800D03*
D24*
X0337528Y0076406D03*
X0337528Y0027194D03*
D25*
X0365087Y0041957D03*
X0365087Y0061643D03*
X0308000Y0061643D03*
X0308000Y0051800D03*
X0308000Y0041957D03*
D26*
X0305619Y0258060D03*
X0295381Y0258060D03*
X0295381Y0261800D03*
X0295381Y0265540D03*
X0305619Y0265540D03*
D27*
X0260067Y0057611D02*
X0255933Y0057611D01*
X0255933Y0051987D02*
X0260067Y0051987D01*
X0260067Y0046363D02*
X0255933Y0046363D01*
X0255933Y0040739D02*
X0260067Y0040739D01*
D28*
X0072016Y0272824D03*
D29*
X0082016Y0272824D03*
X0092016Y0272824D03*
X0102016Y0272824D03*
X0112016Y0272824D03*
X0122016Y0272824D03*
X0132016Y0272824D03*
X0142016Y0272824D03*
X0152016Y0272824D03*
X0162016Y0272824D03*
X0172016Y0272824D03*
X0182016Y0272824D03*
X0192016Y0272824D03*
X0202016Y0272824D03*
X0212016Y0272824D03*
X0222016Y0272824D03*
D30*
X0298900Y0202100D03*
X0308000Y0202100D03*
X0317100Y0202100D03*
X0267100Y0179600D03*
X0258000Y0179600D03*
X0248900Y0179600D03*
D31*
X0258000Y0204001D03*
X0308000Y0226501D03*
D32*
X0353945Y0229831D03*
X0353945Y0221800D03*
X0363945Y0225737D03*
X0363945Y0233769D03*
X0363945Y0241800D03*
X0353945Y0237863D03*
D33*
X0293000Y0186131D03*
X0289260Y0177469D03*
X0296740Y0177469D03*
D34*
X0298906Y0161800D03*
X0287094Y0161800D03*
D35*
X0318000Y0240894D03*
X0318000Y0252706D03*
X0330500Y0252706D03*
X0330500Y0240894D03*
X0330500Y0268394D03*
X0330500Y0280206D03*
D36*
X0180500Y0111800D03*
X0170500Y0111800D03*
D37*
X0083000Y0041300D03*
X0083000Y0049300D03*
X0083000Y0057300D03*
D38*
X0253000Y0267863D03*
X0253000Y0275737D03*
D39*
X0098000Y0178040D03*
X0098000Y0170560D03*
D40*
X0170500Y0099300D03*
X0180500Y0099300D03*
D41*
X0020500Y0191800D03*
D42*
X0030500Y0191800D03*
X0030500Y0201800D03*
X0020500Y0201800D03*
X0020500Y0211800D03*
X0030500Y0211800D03*
D43*
X0030500Y0201800D02*
X0038000Y0201800D01*
X0038000Y0166800D01*
X0085500Y0166800D01*
X0098000Y0170560D02*
X0050500Y0170560D01*
X0050500Y0224300D01*
X0065500Y0216800D02*
X0073000Y0216800D01*
X0073000Y0217312D01*
X0073000Y0224300D01*
X0065500Y0216800D02*
X0065500Y0186288D01*
X0073000Y0186288D01*
X0073000Y0178040D02*
X0098000Y0178040D01*
X0116150Y0178040D01*
X0116150Y0192351D01*
X0125165Y0192351D01*
X0125165Y0189202D02*
X0119300Y0189202D01*
X0119300Y0170560D01*
X0098000Y0170560D01*
X0098000Y0144300D01*
X0110500Y0144300D01*
X0110500Y0151800D01*
X0110500Y0156800D02*
X0110500Y0162100D01*
X0109600Y0163000D01*
X0115500Y0166250D02*
X0115500Y0156800D01*
X0120500Y0156800D02*
X0120500Y0161800D01*
X0128000Y0161800D01*
X0135402Y0164300D02*
X0135402Y0178965D01*
X0138551Y0178965D02*
X0138551Y0143650D01*
X0115500Y0143650D01*
X0115500Y0126800D01*
X0013000Y0126800D01*
X0013000Y0201800D01*
X0020500Y0201800D01*
X0020500Y0191800D02*
X0020500Y0130500D01*
X0110500Y0130500D01*
X0110500Y0139300D01*
X0115500Y0143650D02*
X0115500Y0151800D01*
X0120500Y0151800D02*
X0120500Y0146800D01*
X0123000Y0146800D01*
X0132252Y0146800D01*
X0132252Y0178965D01*
X0125165Y0186050D02*
X0141500Y0186050D01*
X0141500Y0200825D01*
X0152450Y0200825D01*
X0159400Y0204300D02*
X0125165Y0204950D01*
X0125165Y0208099D02*
X0155700Y0208099D01*
X0155600Y0209300D01*
X0159400Y0204950D02*
X0159400Y0204300D01*
X0170835Y0204950D02*
X0233000Y0204950D01*
X0233000Y0093100D01*
X0238000Y0093100D01*
X0238000Y0088040D01*
X0238000Y0080560D02*
X0238000Y0040739D01*
X0258000Y0040739D01*
X0258000Y0046363D02*
X0248000Y0046363D01*
X0248000Y0080560D01*
X0248000Y0088040D02*
X0248000Y0096800D01*
X0236900Y0096800D01*
X0236900Y0208099D01*
X0170835Y0208099D01*
X0170835Y0211249D02*
X0240500Y0211249D01*
X0240500Y0100500D01*
X0258000Y0100500D01*
X0258000Y0088040D01*
X0258000Y0080560D02*
X0258000Y0057611D01*
X0229300Y0094300D02*
X0209240Y0094300D01*
X0201760Y0094300D02*
X0188000Y0094300D01*
X0188000Y0099300D01*
X0180500Y0099300D01*
X0193000Y0104300D02*
X0193000Y0111800D01*
X0180500Y0111800D01*
X0193000Y0104300D02*
X0201760Y0104300D01*
X0209240Y0104300D02*
X0225500Y0104300D01*
X0225500Y0198650D01*
X0170835Y0198650D01*
X0170835Y0198800D01*
X0170835Y0201800D02*
X0229300Y0201800D01*
X0229300Y0094300D01*
X0220500Y0124000D02*
X0154450Y0124000D01*
X0154450Y0178965D01*
X0154299Y0178965D01*
X0151150Y0178965D02*
X0151150Y0151288D01*
X0144250Y0151288D01*
X0144250Y0162312D02*
X0148000Y0162312D01*
X0148000Y0178965D01*
X0144850Y0178965D02*
X0144850Y0186800D01*
X0160500Y0186800D01*
X0160500Y0178965D01*
X0160500Y0131800D01*
X0220500Y0131800D01*
X0220500Y0127900D02*
X0157700Y0127900D01*
X0157700Y0178965D01*
X0157449Y0178965D01*
X0160500Y0178965D02*
X0160598Y0178965D01*
X0163748Y0178965D02*
X0164250Y0178965D01*
X0164250Y0169300D01*
X0181500Y0169300D01*
X0181500Y0141550D01*
X0184988Y0176800D02*
X0170500Y0176800D01*
X0170500Y0186052D01*
X0170835Y0186052D01*
X0163650Y0186052D01*
X0163650Y0214300D01*
X0145600Y0214300D01*
X0145600Y0217450D01*
X0135500Y0217450D01*
X0135500Y0224635D01*
X0135402Y0224635D01*
X0132350Y0224635D02*
X0132350Y0231900D01*
X0112016Y0231900D01*
X0112016Y0244300D01*
X0112016Y0272824D01*
X0122016Y0272824D02*
X0122016Y0258050D01*
X0141750Y0258050D01*
X0141750Y0224635D01*
X0141701Y0224635D01*
X0144850Y0224635D02*
X0144850Y0258050D01*
X0171750Y0258050D01*
X0171750Y0272824D01*
X0172016Y0272824D01*
X0181750Y0272824D02*
X0181750Y0254300D01*
X0148000Y0254300D01*
X0148000Y0224635D01*
X0151150Y0224635D02*
X0151150Y0250550D01*
X0191750Y0250550D01*
X0191750Y0272824D01*
X0192016Y0272824D01*
X0201750Y0272824D02*
X0201750Y0246800D01*
X0154299Y0246800D01*
X0154299Y0224635D01*
X0157449Y0224635D02*
X0157500Y0224635D01*
X0157500Y0217550D01*
X0148850Y0217550D01*
X0142450Y0214300D02*
X0125165Y0214398D01*
X0125165Y0211249D02*
X0137250Y0211249D01*
X0137250Y0211300D01*
X0125165Y0201800D02*
X0113000Y0201800D01*
X0113000Y0211800D01*
X0103000Y0211800D01*
X0103000Y0211898D01*
X0088000Y0211898D01*
X0088000Y0205540D01*
X0073000Y0205540D01*
X0073000Y0206288D01*
X0073000Y0197312D02*
X0088000Y0197312D01*
X0088000Y0198060D01*
X0088000Y0191800D01*
X0103000Y0191800D01*
X0113000Y0191800D01*
X0113000Y0198650D01*
X0125165Y0198650D01*
X0125165Y0195501D02*
X0118050Y0195501D01*
X0118050Y0195500D01*
X0125165Y0186052D02*
X0125165Y0186050D01*
X0103000Y0191308D02*
X0103000Y0191800D01*
X0132252Y0224635D02*
X0132350Y0224635D01*
X0138551Y0224635D02*
X0138551Y0254300D01*
X0117175Y0254300D01*
X0117175Y0279300D01*
X0101750Y0279300D01*
X0101750Y0272824D01*
X0102016Y0272824D01*
X0092016Y0272824D02*
X0092000Y0272824D01*
X0092000Y0256800D01*
X0094260Y0256800D01*
X0094260Y0244300D01*
X0101740Y0244300D02*
X0112016Y0244300D01*
X0108000Y0256800D02*
X0101740Y0256800D01*
X0082016Y0272824D02*
X0082016Y0281800D01*
X0038000Y0281800D01*
X0038000Y0201800D01*
X0030500Y0191800D02*
X0025500Y0191800D01*
X0025500Y0266800D01*
X0033000Y0266800D01*
X0033000Y0286800D01*
X0330500Y0286800D01*
X0330500Y0280206D01*
X0330500Y0268394D02*
X0330500Y0252706D01*
X0340500Y0248000D02*
X0340500Y0240894D01*
X0330500Y0240894D01*
X0340500Y0248000D02*
X0385500Y0248000D01*
X0385500Y0196800D01*
X0350500Y0196800D01*
X0350500Y0189300D01*
X0350500Y0178099D01*
X0361189Y0178099D01*
X0361189Y0174950D02*
X0346700Y0174950D01*
X0346700Y0181800D01*
X0338512Y0181800D01*
X0327488Y0181800D02*
X0311750Y0181800D01*
X0311750Y0127900D01*
X0245450Y0127900D01*
X0245450Y0124000D02*
X0315500Y0124000D01*
X0315500Y0164300D01*
X0325500Y0164300D01*
X0325500Y0161800D01*
X0325500Y0164300D02*
X0328000Y0164300D01*
X0338512Y0164300D02*
X0346700Y0164300D01*
X0346700Y0171800D01*
X0361189Y0171800D01*
X0361189Y0165501D02*
X0350500Y0165501D01*
X0350500Y0161800D01*
X0350500Y0189300D02*
X0308000Y0189300D01*
X0308000Y0131800D01*
X0245450Y0131800D01*
X0248000Y0138060D02*
X0258000Y0138060D01*
X0258000Y0137666D01*
X0258000Y0145934D02*
X0258000Y0151800D01*
X0260500Y0151800D01*
X0258000Y0151800D02*
X0258000Y0156800D01*
X0256740Y0156800D01*
X0256740Y0166800D01*
X0266760Y0166800D01*
X0274240Y0166800D02*
X0275500Y0166800D01*
X0275500Y0177469D01*
X0267100Y0177469D01*
X0267100Y0179600D01*
X0268000Y0179600D01*
X0275500Y0177469D02*
X0287094Y0177469D01*
X0287094Y0161800D01*
X0298906Y0161800D02*
X0298906Y0177469D01*
X0296740Y0177469D01*
X0298900Y0177469D01*
X0298900Y0202100D01*
X0293000Y0202100D01*
X0293000Y0234300D01*
X0238866Y0234300D01*
X0238866Y0241800D01*
X0247134Y0241800D02*
X0256760Y0241800D01*
X0264240Y0241800D02*
X0291150Y0241800D01*
X0291150Y0258060D01*
X0295381Y0258060D01*
X0298000Y0254300D02*
X0300500Y0254300D01*
X0300500Y0261800D01*
X0300500Y0269300D01*
X0296760Y0269300D01*
X0296760Y0276800D01*
X0290500Y0276800D01*
X0296760Y0276800D02*
X0296760Y0283650D01*
X0318000Y0283650D01*
X0318000Y0278040D01*
X0318000Y0270560D02*
X0318000Y0252706D01*
X0305619Y0258060D02*
X0304240Y0258060D01*
X0304240Y0246800D01*
X0298000Y0246800D02*
X0298000Y0254300D01*
X0298000Y0246800D02*
X0296760Y0246800D01*
X0288000Y0258060D02*
X0283000Y0258060D01*
X0275500Y0258060D01*
X0275500Y0266800D01*
X0253000Y0266800D01*
X0253000Y0267863D01*
X0253000Y0266800D02*
X0235500Y0266800D01*
X0235500Y0254300D01*
X0238866Y0254300D01*
X0247134Y0254300D02*
X0256760Y0254300D01*
X0264240Y0254300D02*
X0264240Y0241800D01*
X0288000Y0258060D02*
X0288000Y0261800D01*
X0295381Y0261800D01*
X0300500Y0261800D01*
X0295381Y0265540D02*
X0283000Y0265540D01*
X0283000Y0275737D01*
X0253000Y0275737D01*
X0230500Y0275737D01*
X0230500Y0214300D01*
X0288000Y0214300D01*
X0288000Y0186131D01*
X0293000Y0186131D01*
X0289260Y0177469D02*
X0287094Y0177469D01*
X0308000Y0194300D02*
X0308000Y0202100D01*
X0317100Y0202100D02*
X0330500Y0202100D01*
X0330500Y0221800D01*
X0353945Y0221800D01*
X0345500Y0234300D02*
X0345500Y0237863D01*
X0353945Y0237863D01*
X0345500Y0234300D02*
X0318000Y0234300D01*
X0318000Y0240894D01*
X0310500Y0234300D02*
X0310500Y0265540D01*
X0318000Y0265540D01*
X0318000Y0270560D01*
X0318000Y0265540D02*
X0330500Y0265540D01*
X0330500Y0268394D01*
X0310500Y0265540D02*
X0305619Y0265540D01*
X0305619Y0276800D01*
X0304240Y0276800D01*
X0310500Y0234300D02*
X0293000Y0234300D01*
X0258000Y0179600D02*
X0258000Y0166800D01*
X0256740Y0166800D01*
X0249260Y0166800D02*
X0249260Y0156800D01*
X0248000Y0156800D01*
X0248000Y0145540D01*
X0248900Y0166800D02*
X0249260Y0166800D01*
X0248900Y0166800D02*
X0248900Y0179600D01*
X0219634Y0184300D02*
X0219240Y0184300D01*
X0219240Y0193000D01*
X0211760Y0193000D02*
X0206750Y0193000D01*
X0206750Y0195550D01*
X0170835Y0195550D01*
X0170835Y0195501D01*
X0170835Y0192351D02*
X0184988Y0192351D01*
X0184988Y0189300D01*
X0178000Y0189202D02*
X0178000Y0183050D01*
X0196012Y0183050D01*
X0205500Y0183050D01*
X0205500Y0184300D01*
X0211366Y0184300D01*
X0196012Y0183050D02*
X0196012Y0176800D01*
X0196012Y0183050D02*
X0196012Y0189300D01*
X0196012Y0189202D01*
X0178000Y0189202D02*
X0170835Y0189202D01*
X0163650Y0214300D02*
X0163650Y0217548D01*
X0170835Y0217548D01*
X0170835Y0214398D02*
X0189240Y0214398D01*
X0189240Y0224300D01*
X0181760Y0224300D02*
X0181760Y0224635D01*
X0163748Y0224635D01*
X0160598Y0224635D02*
X0160500Y0224635D01*
X0160500Y0241800D01*
X0181750Y0272824D02*
X0182016Y0272824D01*
X0201750Y0272824D02*
X0202016Y0272824D01*
X0212016Y0272824D02*
X0212016Y0258040D01*
X0213000Y0260540D01*
X0213000Y0253060D02*
X0213000Y0244300D01*
X0363945Y0233769D02*
X0363945Y0233675D01*
X0365087Y0061643D02*
X0365087Y0060560D01*
X0103000Y0134300D02*
X0030500Y0134300D01*
X0030500Y0191800D01*
D44*
X0050500Y0224300D03*
X0073000Y0224300D03*
X0108000Y0256800D03*
X0160500Y0241800D03*
X0148850Y0217550D03*
X0142450Y0214300D03*
X0137250Y0211300D03*
X0152450Y0200825D03*
X0159400Y0204950D03*
X0155600Y0209300D03*
X0189240Y0214398D03*
X0213000Y0244300D03*
X0290500Y0276800D03*
X0308000Y0194300D03*
X0350500Y0161800D03*
X0260500Y0151800D03*
X0245450Y0131800D03*
X0245450Y0127900D03*
X0245450Y0124000D03*
X0220500Y0124000D03*
X0220500Y0127900D03*
X0220500Y0131800D03*
X0181500Y0141550D03*
X0135500Y0166250D03*
X0128000Y0161800D03*
X0115500Y0166250D03*
X0109600Y0163000D03*
X0123000Y0146800D03*
X0110500Y0139300D03*
X0103000Y0134300D03*
X0085500Y0166800D03*
X0073000Y0178040D03*
X0118050Y0195500D03*
X0205500Y0184300D03*
M02*
