%
M48
M72
T01C0.01200
T02C0.02756
T03C0.03150
T04C0.03200
T05C0.03500
T06C0.03543
T07C0.03600
T08C0.03937
T09C0.04000
T10C0.04724
T11C0.09291
T12C0.11024
T13C0.12598
%
T01
X103000Y134300
X110500Y139300
X123000Y146800
X128000Y161800
X135500Y166250
X115500Y166250
X109600Y163000
X85500Y166800
X73000Y178040
X118050Y195500
X137250Y211300
X142450Y214300
X148850Y217550
X155600Y209300
X159400Y204950
X152450Y200825
X189240Y214398
X160500Y241800
X213000Y244300
X290500Y276800
X308000Y194300
X350500Y161800
X260500Y151800
X245450Y131800
X245450Y127900
X245450Y124000
X220500Y124000
X220500Y127900
X220500Y131800
X181500Y141550
X205500Y184300
X108000Y256800
X73000Y224300
X50500Y224300
T02
X253000Y267863
X253000Y275737
X258000Y57611
X258000Y51987
X258000Y46363
X258000Y40739
T03
X353945Y221800
X353945Y229831
X353945Y237863
X363945Y241800
X363945Y233769
X363945Y225737
T04
X180500Y111800
X170500Y111800
X170500Y99300
X180500Y99300
T05
X125500Y154300
X105500Y150300
X105500Y158300
T06
X373000Y163139
X373000Y180461
T07
X30500Y191800
X20500Y191800
X20500Y201800
X30500Y201800
X30500Y211800
X20500Y211800
T08
X83000Y57300
X83000Y49300
X83000Y41300
T09
X82016Y272824
X72016Y272824
X92016Y272824
X102016Y272824
X112016Y272824
X122016Y272824
X132016Y272824
X142016Y272824
X152016Y272824
X162016Y272824
X172016Y272824
X182016Y272824
X192016Y272824
X202016Y272824
X212016Y272824
X222016Y272824
T10
X308000Y61643
X308000Y51800
X308000Y41957
X365087Y41957
X365087Y61643
T11
X373000Y208178
X373000Y255422
T12
X337528Y76406
X337528Y27194
T13
X18000Y16800
X49969Y150776
X49969Y272824
X18000Y276800
X346031Y272824
X378000Y276800
X346031Y150776
X378000Y16800
M30
