G75*
%MOIN*%
%OFA0B0*%
%FSLAX25Y25*%
%IPPOS*%
%LPD*%
%AMOC8*
5,1,8,0,0,1.08239X$1,22.5*
%
%ADD10C,0.00000*%
%ADD11C,0.01600*%
D10*
X0011701Y0016800D02*
X0011703Y0016958D01*
X0011709Y0017116D01*
X0011719Y0017274D01*
X0011733Y0017432D01*
X0011751Y0017589D01*
X0011772Y0017746D01*
X0011798Y0017902D01*
X0011828Y0018058D01*
X0011861Y0018213D01*
X0011899Y0018366D01*
X0011940Y0018519D01*
X0011985Y0018671D01*
X0012034Y0018822D01*
X0012087Y0018971D01*
X0012143Y0019119D01*
X0012203Y0019265D01*
X0012267Y0019410D01*
X0012335Y0019553D01*
X0012406Y0019695D01*
X0012480Y0019835D01*
X0012558Y0019972D01*
X0012640Y0020108D01*
X0012724Y0020242D01*
X0012813Y0020373D01*
X0012904Y0020502D01*
X0012999Y0020629D01*
X0013096Y0020754D01*
X0013197Y0020876D01*
X0013301Y0020995D01*
X0013408Y0021112D01*
X0013518Y0021226D01*
X0013631Y0021337D01*
X0013746Y0021446D01*
X0013864Y0021551D01*
X0013985Y0021653D01*
X0014108Y0021753D01*
X0014234Y0021849D01*
X0014362Y0021942D01*
X0014492Y0022032D01*
X0014625Y0022118D01*
X0014760Y0022202D01*
X0014896Y0022281D01*
X0015035Y0022358D01*
X0015176Y0022430D01*
X0015318Y0022500D01*
X0015462Y0022565D01*
X0015608Y0022627D01*
X0015755Y0022685D01*
X0015904Y0022740D01*
X0016054Y0022791D01*
X0016205Y0022838D01*
X0016357Y0022881D01*
X0016510Y0022920D01*
X0016665Y0022956D01*
X0016820Y0022987D01*
X0016976Y0023015D01*
X0017132Y0023039D01*
X0017289Y0023059D01*
X0017447Y0023075D01*
X0017604Y0023087D01*
X0017763Y0023095D01*
X0017921Y0023099D01*
X0018079Y0023099D01*
X0018237Y0023095D01*
X0018396Y0023087D01*
X0018553Y0023075D01*
X0018711Y0023059D01*
X0018868Y0023039D01*
X0019024Y0023015D01*
X0019180Y0022987D01*
X0019335Y0022956D01*
X0019490Y0022920D01*
X0019643Y0022881D01*
X0019795Y0022838D01*
X0019946Y0022791D01*
X0020096Y0022740D01*
X0020245Y0022685D01*
X0020392Y0022627D01*
X0020538Y0022565D01*
X0020682Y0022500D01*
X0020824Y0022430D01*
X0020965Y0022358D01*
X0021104Y0022281D01*
X0021240Y0022202D01*
X0021375Y0022118D01*
X0021508Y0022032D01*
X0021638Y0021942D01*
X0021766Y0021849D01*
X0021892Y0021753D01*
X0022015Y0021653D01*
X0022136Y0021551D01*
X0022254Y0021446D01*
X0022369Y0021337D01*
X0022482Y0021226D01*
X0022592Y0021112D01*
X0022699Y0020995D01*
X0022803Y0020876D01*
X0022904Y0020754D01*
X0023001Y0020629D01*
X0023096Y0020502D01*
X0023187Y0020373D01*
X0023276Y0020242D01*
X0023360Y0020108D01*
X0023442Y0019972D01*
X0023520Y0019835D01*
X0023594Y0019695D01*
X0023665Y0019553D01*
X0023733Y0019410D01*
X0023797Y0019265D01*
X0023857Y0019119D01*
X0023913Y0018971D01*
X0023966Y0018822D01*
X0024015Y0018671D01*
X0024060Y0018519D01*
X0024101Y0018366D01*
X0024139Y0018213D01*
X0024172Y0018058D01*
X0024202Y0017902D01*
X0024228Y0017746D01*
X0024249Y0017589D01*
X0024267Y0017432D01*
X0024281Y0017274D01*
X0024291Y0017116D01*
X0024297Y0016958D01*
X0024299Y0016800D01*
X0024297Y0016642D01*
X0024291Y0016484D01*
X0024281Y0016326D01*
X0024267Y0016168D01*
X0024249Y0016011D01*
X0024228Y0015854D01*
X0024202Y0015698D01*
X0024172Y0015542D01*
X0024139Y0015387D01*
X0024101Y0015234D01*
X0024060Y0015081D01*
X0024015Y0014929D01*
X0023966Y0014778D01*
X0023913Y0014629D01*
X0023857Y0014481D01*
X0023797Y0014335D01*
X0023733Y0014190D01*
X0023665Y0014047D01*
X0023594Y0013905D01*
X0023520Y0013765D01*
X0023442Y0013628D01*
X0023360Y0013492D01*
X0023276Y0013358D01*
X0023187Y0013227D01*
X0023096Y0013098D01*
X0023001Y0012971D01*
X0022904Y0012846D01*
X0022803Y0012724D01*
X0022699Y0012605D01*
X0022592Y0012488D01*
X0022482Y0012374D01*
X0022369Y0012263D01*
X0022254Y0012154D01*
X0022136Y0012049D01*
X0022015Y0011947D01*
X0021892Y0011847D01*
X0021766Y0011751D01*
X0021638Y0011658D01*
X0021508Y0011568D01*
X0021375Y0011482D01*
X0021240Y0011398D01*
X0021104Y0011319D01*
X0020965Y0011242D01*
X0020824Y0011170D01*
X0020682Y0011100D01*
X0020538Y0011035D01*
X0020392Y0010973D01*
X0020245Y0010915D01*
X0020096Y0010860D01*
X0019946Y0010809D01*
X0019795Y0010762D01*
X0019643Y0010719D01*
X0019490Y0010680D01*
X0019335Y0010644D01*
X0019180Y0010613D01*
X0019024Y0010585D01*
X0018868Y0010561D01*
X0018711Y0010541D01*
X0018553Y0010525D01*
X0018396Y0010513D01*
X0018237Y0010505D01*
X0018079Y0010501D01*
X0017921Y0010501D01*
X0017763Y0010505D01*
X0017604Y0010513D01*
X0017447Y0010525D01*
X0017289Y0010541D01*
X0017132Y0010561D01*
X0016976Y0010585D01*
X0016820Y0010613D01*
X0016665Y0010644D01*
X0016510Y0010680D01*
X0016357Y0010719D01*
X0016205Y0010762D01*
X0016054Y0010809D01*
X0015904Y0010860D01*
X0015755Y0010915D01*
X0015608Y0010973D01*
X0015462Y0011035D01*
X0015318Y0011100D01*
X0015176Y0011170D01*
X0015035Y0011242D01*
X0014896Y0011319D01*
X0014760Y0011398D01*
X0014625Y0011482D01*
X0014492Y0011568D01*
X0014362Y0011658D01*
X0014234Y0011751D01*
X0014108Y0011847D01*
X0013985Y0011947D01*
X0013864Y0012049D01*
X0013746Y0012154D01*
X0013631Y0012263D01*
X0013518Y0012374D01*
X0013408Y0012488D01*
X0013301Y0012605D01*
X0013197Y0012724D01*
X0013096Y0012846D01*
X0012999Y0012971D01*
X0012904Y0013098D01*
X0012813Y0013227D01*
X0012724Y0013358D01*
X0012640Y0013492D01*
X0012558Y0013628D01*
X0012480Y0013765D01*
X0012406Y0013905D01*
X0012335Y0014047D01*
X0012267Y0014190D01*
X0012203Y0014335D01*
X0012143Y0014481D01*
X0012087Y0014629D01*
X0012034Y0014778D01*
X0011985Y0014929D01*
X0011940Y0015081D01*
X0011899Y0015234D01*
X0011861Y0015387D01*
X0011828Y0015542D01*
X0011798Y0015698D01*
X0011772Y0015854D01*
X0011751Y0016011D01*
X0011733Y0016168D01*
X0011719Y0016326D01*
X0011709Y0016484D01*
X0011703Y0016642D01*
X0011701Y0016800D01*
X0043670Y0150776D02*
X0043672Y0150934D01*
X0043678Y0151092D01*
X0043688Y0151250D01*
X0043702Y0151408D01*
X0043720Y0151565D01*
X0043741Y0151722D01*
X0043767Y0151878D01*
X0043797Y0152034D01*
X0043830Y0152189D01*
X0043868Y0152342D01*
X0043909Y0152495D01*
X0043954Y0152647D01*
X0044003Y0152798D01*
X0044056Y0152947D01*
X0044112Y0153095D01*
X0044172Y0153241D01*
X0044236Y0153386D01*
X0044304Y0153529D01*
X0044375Y0153671D01*
X0044449Y0153811D01*
X0044527Y0153948D01*
X0044609Y0154084D01*
X0044693Y0154218D01*
X0044782Y0154349D01*
X0044873Y0154478D01*
X0044968Y0154605D01*
X0045065Y0154730D01*
X0045166Y0154852D01*
X0045270Y0154971D01*
X0045377Y0155088D01*
X0045487Y0155202D01*
X0045600Y0155313D01*
X0045715Y0155422D01*
X0045833Y0155527D01*
X0045954Y0155629D01*
X0046077Y0155729D01*
X0046203Y0155825D01*
X0046331Y0155918D01*
X0046461Y0156008D01*
X0046594Y0156094D01*
X0046729Y0156178D01*
X0046865Y0156257D01*
X0047004Y0156334D01*
X0047145Y0156406D01*
X0047287Y0156476D01*
X0047431Y0156541D01*
X0047577Y0156603D01*
X0047724Y0156661D01*
X0047873Y0156716D01*
X0048023Y0156767D01*
X0048174Y0156814D01*
X0048326Y0156857D01*
X0048479Y0156896D01*
X0048634Y0156932D01*
X0048789Y0156963D01*
X0048945Y0156991D01*
X0049101Y0157015D01*
X0049258Y0157035D01*
X0049416Y0157051D01*
X0049573Y0157063D01*
X0049732Y0157071D01*
X0049890Y0157075D01*
X0050048Y0157075D01*
X0050206Y0157071D01*
X0050365Y0157063D01*
X0050522Y0157051D01*
X0050680Y0157035D01*
X0050837Y0157015D01*
X0050993Y0156991D01*
X0051149Y0156963D01*
X0051304Y0156932D01*
X0051459Y0156896D01*
X0051612Y0156857D01*
X0051764Y0156814D01*
X0051915Y0156767D01*
X0052065Y0156716D01*
X0052214Y0156661D01*
X0052361Y0156603D01*
X0052507Y0156541D01*
X0052651Y0156476D01*
X0052793Y0156406D01*
X0052934Y0156334D01*
X0053073Y0156257D01*
X0053209Y0156178D01*
X0053344Y0156094D01*
X0053477Y0156008D01*
X0053607Y0155918D01*
X0053735Y0155825D01*
X0053861Y0155729D01*
X0053984Y0155629D01*
X0054105Y0155527D01*
X0054223Y0155422D01*
X0054338Y0155313D01*
X0054451Y0155202D01*
X0054561Y0155088D01*
X0054668Y0154971D01*
X0054772Y0154852D01*
X0054873Y0154730D01*
X0054970Y0154605D01*
X0055065Y0154478D01*
X0055156Y0154349D01*
X0055245Y0154218D01*
X0055329Y0154084D01*
X0055411Y0153948D01*
X0055489Y0153811D01*
X0055563Y0153671D01*
X0055634Y0153529D01*
X0055702Y0153386D01*
X0055766Y0153241D01*
X0055826Y0153095D01*
X0055882Y0152947D01*
X0055935Y0152798D01*
X0055984Y0152647D01*
X0056029Y0152495D01*
X0056070Y0152342D01*
X0056108Y0152189D01*
X0056141Y0152034D01*
X0056171Y0151878D01*
X0056197Y0151722D01*
X0056218Y0151565D01*
X0056236Y0151408D01*
X0056250Y0151250D01*
X0056260Y0151092D01*
X0056266Y0150934D01*
X0056268Y0150776D01*
X0056266Y0150618D01*
X0056260Y0150460D01*
X0056250Y0150302D01*
X0056236Y0150144D01*
X0056218Y0149987D01*
X0056197Y0149830D01*
X0056171Y0149674D01*
X0056141Y0149518D01*
X0056108Y0149363D01*
X0056070Y0149210D01*
X0056029Y0149057D01*
X0055984Y0148905D01*
X0055935Y0148754D01*
X0055882Y0148605D01*
X0055826Y0148457D01*
X0055766Y0148311D01*
X0055702Y0148166D01*
X0055634Y0148023D01*
X0055563Y0147881D01*
X0055489Y0147741D01*
X0055411Y0147604D01*
X0055329Y0147468D01*
X0055245Y0147334D01*
X0055156Y0147203D01*
X0055065Y0147074D01*
X0054970Y0146947D01*
X0054873Y0146822D01*
X0054772Y0146700D01*
X0054668Y0146581D01*
X0054561Y0146464D01*
X0054451Y0146350D01*
X0054338Y0146239D01*
X0054223Y0146130D01*
X0054105Y0146025D01*
X0053984Y0145923D01*
X0053861Y0145823D01*
X0053735Y0145727D01*
X0053607Y0145634D01*
X0053477Y0145544D01*
X0053344Y0145458D01*
X0053209Y0145374D01*
X0053073Y0145295D01*
X0052934Y0145218D01*
X0052793Y0145146D01*
X0052651Y0145076D01*
X0052507Y0145011D01*
X0052361Y0144949D01*
X0052214Y0144891D01*
X0052065Y0144836D01*
X0051915Y0144785D01*
X0051764Y0144738D01*
X0051612Y0144695D01*
X0051459Y0144656D01*
X0051304Y0144620D01*
X0051149Y0144589D01*
X0050993Y0144561D01*
X0050837Y0144537D01*
X0050680Y0144517D01*
X0050522Y0144501D01*
X0050365Y0144489D01*
X0050206Y0144481D01*
X0050048Y0144477D01*
X0049890Y0144477D01*
X0049732Y0144481D01*
X0049573Y0144489D01*
X0049416Y0144501D01*
X0049258Y0144517D01*
X0049101Y0144537D01*
X0048945Y0144561D01*
X0048789Y0144589D01*
X0048634Y0144620D01*
X0048479Y0144656D01*
X0048326Y0144695D01*
X0048174Y0144738D01*
X0048023Y0144785D01*
X0047873Y0144836D01*
X0047724Y0144891D01*
X0047577Y0144949D01*
X0047431Y0145011D01*
X0047287Y0145076D01*
X0047145Y0145146D01*
X0047004Y0145218D01*
X0046865Y0145295D01*
X0046729Y0145374D01*
X0046594Y0145458D01*
X0046461Y0145544D01*
X0046331Y0145634D01*
X0046203Y0145727D01*
X0046077Y0145823D01*
X0045954Y0145923D01*
X0045833Y0146025D01*
X0045715Y0146130D01*
X0045600Y0146239D01*
X0045487Y0146350D01*
X0045377Y0146464D01*
X0045270Y0146581D01*
X0045166Y0146700D01*
X0045065Y0146822D01*
X0044968Y0146947D01*
X0044873Y0147074D01*
X0044782Y0147203D01*
X0044693Y0147334D01*
X0044609Y0147468D01*
X0044527Y0147604D01*
X0044449Y0147741D01*
X0044375Y0147881D01*
X0044304Y0148023D01*
X0044236Y0148166D01*
X0044172Y0148311D01*
X0044112Y0148457D01*
X0044056Y0148605D01*
X0044003Y0148754D01*
X0043954Y0148905D01*
X0043909Y0149057D01*
X0043868Y0149210D01*
X0043830Y0149363D01*
X0043797Y0149518D01*
X0043767Y0149674D01*
X0043741Y0149830D01*
X0043720Y0149987D01*
X0043702Y0150144D01*
X0043688Y0150302D01*
X0043678Y0150460D01*
X0043672Y0150618D01*
X0043670Y0150776D01*
X0064358Y0178589D02*
X0064355Y0178745D01*
X0103750Y0158300D02*
X0103752Y0158383D01*
X0103758Y0158466D01*
X0103768Y0158549D01*
X0103782Y0158631D01*
X0103799Y0158713D01*
X0103821Y0158793D01*
X0103846Y0158872D01*
X0103875Y0158950D01*
X0103908Y0159027D01*
X0103945Y0159102D01*
X0103984Y0159175D01*
X0104028Y0159246D01*
X0104074Y0159315D01*
X0104124Y0159382D01*
X0104177Y0159446D01*
X0104233Y0159508D01*
X0104292Y0159567D01*
X0104354Y0159623D01*
X0104418Y0159676D01*
X0104485Y0159726D01*
X0104554Y0159772D01*
X0104625Y0159816D01*
X0104698Y0159855D01*
X0104773Y0159892D01*
X0104850Y0159925D01*
X0104928Y0159954D01*
X0105007Y0159979D01*
X0105087Y0160001D01*
X0105169Y0160018D01*
X0105251Y0160032D01*
X0105334Y0160042D01*
X0105417Y0160048D01*
X0105500Y0160050D01*
X0105583Y0160048D01*
X0105666Y0160042D01*
X0105749Y0160032D01*
X0105831Y0160018D01*
X0105913Y0160001D01*
X0105993Y0159979D01*
X0106072Y0159954D01*
X0106150Y0159925D01*
X0106227Y0159892D01*
X0106302Y0159855D01*
X0106375Y0159816D01*
X0106446Y0159772D01*
X0106515Y0159726D01*
X0106582Y0159676D01*
X0106646Y0159623D01*
X0106708Y0159567D01*
X0106767Y0159508D01*
X0106823Y0159446D01*
X0106876Y0159382D01*
X0106926Y0159315D01*
X0106972Y0159246D01*
X0107016Y0159175D01*
X0107055Y0159102D01*
X0107092Y0159027D01*
X0107125Y0158950D01*
X0107154Y0158872D01*
X0107179Y0158793D01*
X0107201Y0158713D01*
X0107218Y0158631D01*
X0107232Y0158549D01*
X0107242Y0158466D01*
X0107248Y0158383D01*
X0107250Y0158300D01*
X0107248Y0158217D01*
X0107242Y0158134D01*
X0107232Y0158051D01*
X0107218Y0157969D01*
X0107201Y0157887D01*
X0107179Y0157807D01*
X0107154Y0157728D01*
X0107125Y0157650D01*
X0107092Y0157573D01*
X0107055Y0157498D01*
X0107016Y0157425D01*
X0106972Y0157354D01*
X0106926Y0157285D01*
X0106876Y0157218D01*
X0106823Y0157154D01*
X0106767Y0157092D01*
X0106708Y0157033D01*
X0106646Y0156977D01*
X0106582Y0156924D01*
X0106515Y0156874D01*
X0106446Y0156828D01*
X0106375Y0156784D01*
X0106302Y0156745D01*
X0106227Y0156708D01*
X0106150Y0156675D01*
X0106072Y0156646D01*
X0105993Y0156621D01*
X0105913Y0156599D01*
X0105831Y0156582D01*
X0105749Y0156568D01*
X0105666Y0156558D01*
X0105583Y0156552D01*
X0105500Y0156550D01*
X0105417Y0156552D01*
X0105334Y0156558D01*
X0105251Y0156568D01*
X0105169Y0156582D01*
X0105087Y0156599D01*
X0105007Y0156621D01*
X0104928Y0156646D01*
X0104850Y0156675D01*
X0104773Y0156708D01*
X0104698Y0156745D01*
X0104625Y0156784D01*
X0104554Y0156828D01*
X0104485Y0156874D01*
X0104418Y0156924D01*
X0104354Y0156977D01*
X0104292Y0157033D01*
X0104233Y0157092D01*
X0104177Y0157154D01*
X0104124Y0157218D01*
X0104074Y0157285D01*
X0104028Y0157354D01*
X0103984Y0157425D01*
X0103945Y0157498D01*
X0103908Y0157573D01*
X0103875Y0157650D01*
X0103846Y0157728D01*
X0103821Y0157807D01*
X0103799Y0157887D01*
X0103782Y0157969D01*
X0103768Y0158051D01*
X0103758Y0158134D01*
X0103752Y0158217D01*
X0103750Y0158300D01*
X0103750Y0150300D02*
X0103752Y0150383D01*
X0103758Y0150466D01*
X0103768Y0150549D01*
X0103782Y0150631D01*
X0103799Y0150713D01*
X0103821Y0150793D01*
X0103846Y0150872D01*
X0103875Y0150950D01*
X0103908Y0151027D01*
X0103945Y0151102D01*
X0103984Y0151175D01*
X0104028Y0151246D01*
X0104074Y0151315D01*
X0104124Y0151382D01*
X0104177Y0151446D01*
X0104233Y0151508D01*
X0104292Y0151567D01*
X0104354Y0151623D01*
X0104418Y0151676D01*
X0104485Y0151726D01*
X0104554Y0151772D01*
X0104625Y0151816D01*
X0104698Y0151855D01*
X0104773Y0151892D01*
X0104850Y0151925D01*
X0104928Y0151954D01*
X0105007Y0151979D01*
X0105087Y0152001D01*
X0105169Y0152018D01*
X0105251Y0152032D01*
X0105334Y0152042D01*
X0105417Y0152048D01*
X0105500Y0152050D01*
X0105583Y0152048D01*
X0105666Y0152042D01*
X0105749Y0152032D01*
X0105831Y0152018D01*
X0105913Y0152001D01*
X0105993Y0151979D01*
X0106072Y0151954D01*
X0106150Y0151925D01*
X0106227Y0151892D01*
X0106302Y0151855D01*
X0106375Y0151816D01*
X0106446Y0151772D01*
X0106515Y0151726D01*
X0106582Y0151676D01*
X0106646Y0151623D01*
X0106708Y0151567D01*
X0106767Y0151508D01*
X0106823Y0151446D01*
X0106876Y0151382D01*
X0106926Y0151315D01*
X0106972Y0151246D01*
X0107016Y0151175D01*
X0107055Y0151102D01*
X0107092Y0151027D01*
X0107125Y0150950D01*
X0107154Y0150872D01*
X0107179Y0150793D01*
X0107201Y0150713D01*
X0107218Y0150631D01*
X0107232Y0150549D01*
X0107242Y0150466D01*
X0107248Y0150383D01*
X0107250Y0150300D01*
X0107248Y0150217D01*
X0107242Y0150134D01*
X0107232Y0150051D01*
X0107218Y0149969D01*
X0107201Y0149887D01*
X0107179Y0149807D01*
X0107154Y0149728D01*
X0107125Y0149650D01*
X0107092Y0149573D01*
X0107055Y0149498D01*
X0107016Y0149425D01*
X0106972Y0149354D01*
X0106926Y0149285D01*
X0106876Y0149218D01*
X0106823Y0149154D01*
X0106767Y0149092D01*
X0106708Y0149033D01*
X0106646Y0148977D01*
X0106582Y0148924D01*
X0106515Y0148874D01*
X0106446Y0148828D01*
X0106375Y0148784D01*
X0106302Y0148745D01*
X0106227Y0148708D01*
X0106150Y0148675D01*
X0106072Y0148646D01*
X0105993Y0148621D01*
X0105913Y0148599D01*
X0105831Y0148582D01*
X0105749Y0148568D01*
X0105666Y0148558D01*
X0105583Y0148552D01*
X0105500Y0148550D01*
X0105417Y0148552D01*
X0105334Y0148558D01*
X0105251Y0148568D01*
X0105169Y0148582D01*
X0105087Y0148599D01*
X0105007Y0148621D01*
X0104928Y0148646D01*
X0104850Y0148675D01*
X0104773Y0148708D01*
X0104698Y0148745D01*
X0104625Y0148784D01*
X0104554Y0148828D01*
X0104485Y0148874D01*
X0104418Y0148924D01*
X0104354Y0148977D01*
X0104292Y0149033D01*
X0104233Y0149092D01*
X0104177Y0149154D01*
X0104124Y0149218D01*
X0104074Y0149285D01*
X0104028Y0149354D01*
X0103984Y0149425D01*
X0103945Y0149498D01*
X0103908Y0149573D01*
X0103875Y0149650D01*
X0103846Y0149728D01*
X0103821Y0149807D01*
X0103799Y0149887D01*
X0103782Y0149969D01*
X0103768Y0150051D01*
X0103758Y0150134D01*
X0103752Y0150217D01*
X0103750Y0150300D01*
X0123750Y0154300D02*
X0123752Y0154383D01*
X0123758Y0154466D01*
X0123768Y0154549D01*
X0123782Y0154631D01*
X0123799Y0154713D01*
X0123821Y0154793D01*
X0123846Y0154872D01*
X0123875Y0154950D01*
X0123908Y0155027D01*
X0123945Y0155102D01*
X0123984Y0155175D01*
X0124028Y0155246D01*
X0124074Y0155315D01*
X0124124Y0155382D01*
X0124177Y0155446D01*
X0124233Y0155508D01*
X0124292Y0155567D01*
X0124354Y0155623D01*
X0124418Y0155676D01*
X0124485Y0155726D01*
X0124554Y0155772D01*
X0124625Y0155816D01*
X0124698Y0155855D01*
X0124773Y0155892D01*
X0124850Y0155925D01*
X0124928Y0155954D01*
X0125007Y0155979D01*
X0125087Y0156001D01*
X0125169Y0156018D01*
X0125251Y0156032D01*
X0125334Y0156042D01*
X0125417Y0156048D01*
X0125500Y0156050D01*
X0125583Y0156048D01*
X0125666Y0156042D01*
X0125749Y0156032D01*
X0125831Y0156018D01*
X0125913Y0156001D01*
X0125993Y0155979D01*
X0126072Y0155954D01*
X0126150Y0155925D01*
X0126227Y0155892D01*
X0126302Y0155855D01*
X0126375Y0155816D01*
X0126446Y0155772D01*
X0126515Y0155726D01*
X0126582Y0155676D01*
X0126646Y0155623D01*
X0126708Y0155567D01*
X0126767Y0155508D01*
X0126823Y0155446D01*
X0126876Y0155382D01*
X0126926Y0155315D01*
X0126972Y0155246D01*
X0127016Y0155175D01*
X0127055Y0155102D01*
X0127092Y0155027D01*
X0127125Y0154950D01*
X0127154Y0154872D01*
X0127179Y0154793D01*
X0127201Y0154713D01*
X0127218Y0154631D01*
X0127232Y0154549D01*
X0127242Y0154466D01*
X0127248Y0154383D01*
X0127250Y0154300D01*
X0127248Y0154217D01*
X0127242Y0154134D01*
X0127232Y0154051D01*
X0127218Y0153969D01*
X0127201Y0153887D01*
X0127179Y0153807D01*
X0127154Y0153728D01*
X0127125Y0153650D01*
X0127092Y0153573D01*
X0127055Y0153498D01*
X0127016Y0153425D01*
X0126972Y0153354D01*
X0126926Y0153285D01*
X0126876Y0153218D01*
X0126823Y0153154D01*
X0126767Y0153092D01*
X0126708Y0153033D01*
X0126646Y0152977D01*
X0126582Y0152924D01*
X0126515Y0152874D01*
X0126446Y0152828D01*
X0126375Y0152784D01*
X0126302Y0152745D01*
X0126227Y0152708D01*
X0126150Y0152675D01*
X0126072Y0152646D01*
X0125993Y0152621D01*
X0125913Y0152599D01*
X0125831Y0152582D01*
X0125749Y0152568D01*
X0125666Y0152558D01*
X0125583Y0152552D01*
X0125500Y0152550D01*
X0125417Y0152552D01*
X0125334Y0152558D01*
X0125251Y0152568D01*
X0125169Y0152582D01*
X0125087Y0152599D01*
X0125007Y0152621D01*
X0124928Y0152646D01*
X0124850Y0152675D01*
X0124773Y0152708D01*
X0124698Y0152745D01*
X0124625Y0152784D01*
X0124554Y0152828D01*
X0124485Y0152874D01*
X0124418Y0152924D01*
X0124354Y0152977D01*
X0124292Y0153033D01*
X0124233Y0153092D01*
X0124177Y0153154D01*
X0124124Y0153218D01*
X0124074Y0153285D01*
X0124028Y0153354D01*
X0123984Y0153425D01*
X0123945Y0153498D01*
X0123908Y0153573D01*
X0123875Y0153650D01*
X0123846Y0153728D01*
X0123821Y0153807D01*
X0123799Y0153887D01*
X0123782Y0153969D01*
X0123768Y0154051D01*
X0123758Y0154134D01*
X0123752Y0154217D01*
X0123750Y0154300D01*
X0043670Y0272824D02*
X0043672Y0272982D01*
X0043678Y0273140D01*
X0043688Y0273298D01*
X0043702Y0273456D01*
X0043720Y0273613D01*
X0043741Y0273770D01*
X0043767Y0273926D01*
X0043797Y0274082D01*
X0043830Y0274237D01*
X0043868Y0274390D01*
X0043909Y0274543D01*
X0043954Y0274695D01*
X0044003Y0274846D01*
X0044056Y0274995D01*
X0044112Y0275143D01*
X0044172Y0275289D01*
X0044236Y0275434D01*
X0044304Y0275577D01*
X0044375Y0275719D01*
X0044449Y0275859D01*
X0044527Y0275996D01*
X0044609Y0276132D01*
X0044693Y0276266D01*
X0044782Y0276397D01*
X0044873Y0276526D01*
X0044968Y0276653D01*
X0045065Y0276778D01*
X0045166Y0276900D01*
X0045270Y0277019D01*
X0045377Y0277136D01*
X0045487Y0277250D01*
X0045600Y0277361D01*
X0045715Y0277470D01*
X0045833Y0277575D01*
X0045954Y0277677D01*
X0046077Y0277777D01*
X0046203Y0277873D01*
X0046331Y0277966D01*
X0046461Y0278056D01*
X0046594Y0278142D01*
X0046729Y0278226D01*
X0046865Y0278305D01*
X0047004Y0278382D01*
X0047145Y0278454D01*
X0047287Y0278524D01*
X0047431Y0278589D01*
X0047577Y0278651D01*
X0047724Y0278709D01*
X0047873Y0278764D01*
X0048023Y0278815D01*
X0048174Y0278862D01*
X0048326Y0278905D01*
X0048479Y0278944D01*
X0048634Y0278980D01*
X0048789Y0279011D01*
X0048945Y0279039D01*
X0049101Y0279063D01*
X0049258Y0279083D01*
X0049416Y0279099D01*
X0049573Y0279111D01*
X0049732Y0279119D01*
X0049890Y0279123D01*
X0050048Y0279123D01*
X0050206Y0279119D01*
X0050365Y0279111D01*
X0050522Y0279099D01*
X0050680Y0279083D01*
X0050837Y0279063D01*
X0050993Y0279039D01*
X0051149Y0279011D01*
X0051304Y0278980D01*
X0051459Y0278944D01*
X0051612Y0278905D01*
X0051764Y0278862D01*
X0051915Y0278815D01*
X0052065Y0278764D01*
X0052214Y0278709D01*
X0052361Y0278651D01*
X0052507Y0278589D01*
X0052651Y0278524D01*
X0052793Y0278454D01*
X0052934Y0278382D01*
X0053073Y0278305D01*
X0053209Y0278226D01*
X0053344Y0278142D01*
X0053477Y0278056D01*
X0053607Y0277966D01*
X0053735Y0277873D01*
X0053861Y0277777D01*
X0053984Y0277677D01*
X0054105Y0277575D01*
X0054223Y0277470D01*
X0054338Y0277361D01*
X0054451Y0277250D01*
X0054561Y0277136D01*
X0054668Y0277019D01*
X0054772Y0276900D01*
X0054873Y0276778D01*
X0054970Y0276653D01*
X0055065Y0276526D01*
X0055156Y0276397D01*
X0055245Y0276266D01*
X0055329Y0276132D01*
X0055411Y0275996D01*
X0055489Y0275859D01*
X0055563Y0275719D01*
X0055634Y0275577D01*
X0055702Y0275434D01*
X0055766Y0275289D01*
X0055826Y0275143D01*
X0055882Y0274995D01*
X0055935Y0274846D01*
X0055984Y0274695D01*
X0056029Y0274543D01*
X0056070Y0274390D01*
X0056108Y0274237D01*
X0056141Y0274082D01*
X0056171Y0273926D01*
X0056197Y0273770D01*
X0056218Y0273613D01*
X0056236Y0273456D01*
X0056250Y0273298D01*
X0056260Y0273140D01*
X0056266Y0272982D01*
X0056268Y0272824D01*
X0056266Y0272666D01*
X0056260Y0272508D01*
X0056250Y0272350D01*
X0056236Y0272192D01*
X0056218Y0272035D01*
X0056197Y0271878D01*
X0056171Y0271722D01*
X0056141Y0271566D01*
X0056108Y0271411D01*
X0056070Y0271258D01*
X0056029Y0271105D01*
X0055984Y0270953D01*
X0055935Y0270802D01*
X0055882Y0270653D01*
X0055826Y0270505D01*
X0055766Y0270359D01*
X0055702Y0270214D01*
X0055634Y0270071D01*
X0055563Y0269929D01*
X0055489Y0269789D01*
X0055411Y0269652D01*
X0055329Y0269516D01*
X0055245Y0269382D01*
X0055156Y0269251D01*
X0055065Y0269122D01*
X0054970Y0268995D01*
X0054873Y0268870D01*
X0054772Y0268748D01*
X0054668Y0268629D01*
X0054561Y0268512D01*
X0054451Y0268398D01*
X0054338Y0268287D01*
X0054223Y0268178D01*
X0054105Y0268073D01*
X0053984Y0267971D01*
X0053861Y0267871D01*
X0053735Y0267775D01*
X0053607Y0267682D01*
X0053477Y0267592D01*
X0053344Y0267506D01*
X0053209Y0267422D01*
X0053073Y0267343D01*
X0052934Y0267266D01*
X0052793Y0267194D01*
X0052651Y0267124D01*
X0052507Y0267059D01*
X0052361Y0266997D01*
X0052214Y0266939D01*
X0052065Y0266884D01*
X0051915Y0266833D01*
X0051764Y0266786D01*
X0051612Y0266743D01*
X0051459Y0266704D01*
X0051304Y0266668D01*
X0051149Y0266637D01*
X0050993Y0266609D01*
X0050837Y0266585D01*
X0050680Y0266565D01*
X0050522Y0266549D01*
X0050365Y0266537D01*
X0050206Y0266529D01*
X0050048Y0266525D01*
X0049890Y0266525D01*
X0049732Y0266529D01*
X0049573Y0266537D01*
X0049416Y0266549D01*
X0049258Y0266565D01*
X0049101Y0266585D01*
X0048945Y0266609D01*
X0048789Y0266637D01*
X0048634Y0266668D01*
X0048479Y0266704D01*
X0048326Y0266743D01*
X0048174Y0266786D01*
X0048023Y0266833D01*
X0047873Y0266884D01*
X0047724Y0266939D01*
X0047577Y0266997D01*
X0047431Y0267059D01*
X0047287Y0267124D01*
X0047145Y0267194D01*
X0047004Y0267266D01*
X0046865Y0267343D01*
X0046729Y0267422D01*
X0046594Y0267506D01*
X0046461Y0267592D01*
X0046331Y0267682D01*
X0046203Y0267775D01*
X0046077Y0267871D01*
X0045954Y0267971D01*
X0045833Y0268073D01*
X0045715Y0268178D01*
X0045600Y0268287D01*
X0045487Y0268398D01*
X0045377Y0268512D01*
X0045270Y0268629D01*
X0045166Y0268748D01*
X0045065Y0268870D01*
X0044968Y0268995D01*
X0044873Y0269122D01*
X0044782Y0269251D01*
X0044693Y0269382D01*
X0044609Y0269516D01*
X0044527Y0269652D01*
X0044449Y0269789D01*
X0044375Y0269929D01*
X0044304Y0270071D01*
X0044236Y0270214D01*
X0044172Y0270359D01*
X0044112Y0270505D01*
X0044056Y0270653D01*
X0044003Y0270802D01*
X0043954Y0270953D01*
X0043909Y0271105D01*
X0043868Y0271258D01*
X0043830Y0271411D01*
X0043797Y0271566D01*
X0043767Y0271722D01*
X0043741Y0271878D01*
X0043720Y0272035D01*
X0043702Y0272192D01*
X0043688Y0272350D01*
X0043678Y0272508D01*
X0043672Y0272666D01*
X0043670Y0272824D01*
X0011701Y0276800D02*
X0011703Y0276958D01*
X0011709Y0277116D01*
X0011719Y0277274D01*
X0011733Y0277432D01*
X0011751Y0277589D01*
X0011772Y0277746D01*
X0011798Y0277902D01*
X0011828Y0278058D01*
X0011861Y0278213D01*
X0011899Y0278366D01*
X0011940Y0278519D01*
X0011985Y0278671D01*
X0012034Y0278822D01*
X0012087Y0278971D01*
X0012143Y0279119D01*
X0012203Y0279265D01*
X0012267Y0279410D01*
X0012335Y0279553D01*
X0012406Y0279695D01*
X0012480Y0279835D01*
X0012558Y0279972D01*
X0012640Y0280108D01*
X0012724Y0280242D01*
X0012813Y0280373D01*
X0012904Y0280502D01*
X0012999Y0280629D01*
X0013096Y0280754D01*
X0013197Y0280876D01*
X0013301Y0280995D01*
X0013408Y0281112D01*
X0013518Y0281226D01*
X0013631Y0281337D01*
X0013746Y0281446D01*
X0013864Y0281551D01*
X0013985Y0281653D01*
X0014108Y0281753D01*
X0014234Y0281849D01*
X0014362Y0281942D01*
X0014492Y0282032D01*
X0014625Y0282118D01*
X0014760Y0282202D01*
X0014896Y0282281D01*
X0015035Y0282358D01*
X0015176Y0282430D01*
X0015318Y0282500D01*
X0015462Y0282565D01*
X0015608Y0282627D01*
X0015755Y0282685D01*
X0015904Y0282740D01*
X0016054Y0282791D01*
X0016205Y0282838D01*
X0016357Y0282881D01*
X0016510Y0282920D01*
X0016665Y0282956D01*
X0016820Y0282987D01*
X0016976Y0283015D01*
X0017132Y0283039D01*
X0017289Y0283059D01*
X0017447Y0283075D01*
X0017604Y0283087D01*
X0017763Y0283095D01*
X0017921Y0283099D01*
X0018079Y0283099D01*
X0018237Y0283095D01*
X0018396Y0283087D01*
X0018553Y0283075D01*
X0018711Y0283059D01*
X0018868Y0283039D01*
X0019024Y0283015D01*
X0019180Y0282987D01*
X0019335Y0282956D01*
X0019490Y0282920D01*
X0019643Y0282881D01*
X0019795Y0282838D01*
X0019946Y0282791D01*
X0020096Y0282740D01*
X0020245Y0282685D01*
X0020392Y0282627D01*
X0020538Y0282565D01*
X0020682Y0282500D01*
X0020824Y0282430D01*
X0020965Y0282358D01*
X0021104Y0282281D01*
X0021240Y0282202D01*
X0021375Y0282118D01*
X0021508Y0282032D01*
X0021638Y0281942D01*
X0021766Y0281849D01*
X0021892Y0281753D01*
X0022015Y0281653D01*
X0022136Y0281551D01*
X0022254Y0281446D01*
X0022369Y0281337D01*
X0022482Y0281226D01*
X0022592Y0281112D01*
X0022699Y0280995D01*
X0022803Y0280876D01*
X0022904Y0280754D01*
X0023001Y0280629D01*
X0023096Y0280502D01*
X0023187Y0280373D01*
X0023276Y0280242D01*
X0023360Y0280108D01*
X0023442Y0279972D01*
X0023520Y0279835D01*
X0023594Y0279695D01*
X0023665Y0279553D01*
X0023733Y0279410D01*
X0023797Y0279265D01*
X0023857Y0279119D01*
X0023913Y0278971D01*
X0023966Y0278822D01*
X0024015Y0278671D01*
X0024060Y0278519D01*
X0024101Y0278366D01*
X0024139Y0278213D01*
X0024172Y0278058D01*
X0024202Y0277902D01*
X0024228Y0277746D01*
X0024249Y0277589D01*
X0024267Y0277432D01*
X0024281Y0277274D01*
X0024291Y0277116D01*
X0024297Y0276958D01*
X0024299Y0276800D01*
X0024297Y0276642D01*
X0024291Y0276484D01*
X0024281Y0276326D01*
X0024267Y0276168D01*
X0024249Y0276011D01*
X0024228Y0275854D01*
X0024202Y0275698D01*
X0024172Y0275542D01*
X0024139Y0275387D01*
X0024101Y0275234D01*
X0024060Y0275081D01*
X0024015Y0274929D01*
X0023966Y0274778D01*
X0023913Y0274629D01*
X0023857Y0274481D01*
X0023797Y0274335D01*
X0023733Y0274190D01*
X0023665Y0274047D01*
X0023594Y0273905D01*
X0023520Y0273765D01*
X0023442Y0273628D01*
X0023360Y0273492D01*
X0023276Y0273358D01*
X0023187Y0273227D01*
X0023096Y0273098D01*
X0023001Y0272971D01*
X0022904Y0272846D01*
X0022803Y0272724D01*
X0022699Y0272605D01*
X0022592Y0272488D01*
X0022482Y0272374D01*
X0022369Y0272263D01*
X0022254Y0272154D01*
X0022136Y0272049D01*
X0022015Y0271947D01*
X0021892Y0271847D01*
X0021766Y0271751D01*
X0021638Y0271658D01*
X0021508Y0271568D01*
X0021375Y0271482D01*
X0021240Y0271398D01*
X0021104Y0271319D01*
X0020965Y0271242D01*
X0020824Y0271170D01*
X0020682Y0271100D01*
X0020538Y0271035D01*
X0020392Y0270973D01*
X0020245Y0270915D01*
X0020096Y0270860D01*
X0019946Y0270809D01*
X0019795Y0270762D01*
X0019643Y0270719D01*
X0019490Y0270680D01*
X0019335Y0270644D01*
X0019180Y0270613D01*
X0019024Y0270585D01*
X0018868Y0270561D01*
X0018711Y0270541D01*
X0018553Y0270525D01*
X0018396Y0270513D01*
X0018237Y0270505D01*
X0018079Y0270501D01*
X0017921Y0270501D01*
X0017763Y0270505D01*
X0017604Y0270513D01*
X0017447Y0270525D01*
X0017289Y0270541D01*
X0017132Y0270561D01*
X0016976Y0270585D01*
X0016820Y0270613D01*
X0016665Y0270644D01*
X0016510Y0270680D01*
X0016357Y0270719D01*
X0016205Y0270762D01*
X0016054Y0270809D01*
X0015904Y0270860D01*
X0015755Y0270915D01*
X0015608Y0270973D01*
X0015462Y0271035D01*
X0015318Y0271100D01*
X0015176Y0271170D01*
X0015035Y0271242D01*
X0014896Y0271319D01*
X0014760Y0271398D01*
X0014625Y0271482D01*
X0014492Y0271568D01*
X0014362Y0271658D01*
X0014234Y0271751D01*
X0014108Y0271847D01*
X0013985Y0271947D01*
X0013864Y0272049D01*
X0013746Y0272154D01*
X0013631Y0272263D01*
X0013518Y0272374D01*
X0013408Y0272488D01*
X0013301Y0272605D01*
X0013197Y0272724D01*
X0013096Y0272846D01*
X0012999Y0272971D01*
X0012904Y0273098D01*
X0012813Y0273227D01*
X0012724Y0273358D01*
X0012640Y0273492D01*
X0012558Y0273628D01*
X0012480Y0273765D01*
X0012406Y0273905D01*
X0012335Y0274047D01*
X0012267Y0274190D01*
X0012203Y0274335D01*
X0012143Y0274481D01*
X0012087Y0274629D01*
X0012034Y0274778D01*
X0011985Y0274929D01*
X0011940Y0275081D01*
X0011899Y0275234D01*
X0011861Y0275387D01*
X0011828Y0275542D01*
X0011798Y0275698D01*
X0011772Y0275854D01*
X0011751Y0276011D01*
X0011733Y0276168D01*
X0011719Y0276326D01*
X0011709Y0276484D01*
X0011703Y0276642D01*
X0011701Y0276800D01*
X0339732Y0272824D02*
X0339734Y0272982D01*
X0339740Y0273140D01*
X0339750Y0273298D01*
X0339764Y0273456D01*
X0339782Y0273613D01*
X0339803Y0273770D01*
X0339829Y0273926D01*
X0339859Y0274082D01*
X0339892Y0274237D01*
X0339930Y0274390D01*
X0339971Y0274543D01*
X0340016Y0274695D01*
X0340065Y0274846D01*
X0340118Y0274995D01*
X0340174Y0275143D01*
X0340234Y0275289D01*
X0340298Y0275434D01*
X0340366Y0275577D01*
X0340437Y0275719D01*
X0340511Y0275859D01*
X0340589Y0275996D01*
X0340671Y0276132D01*
X0340755Y0276266D01*
X0340844Y0276397D01*
X0340935Y0276526D01*
X0341030Y0276653D01*
X0341127Y0276778D01*
X0341228Y0276900D01*
X0341332Y0277019D01*
X0341439Y0277136D01*
X0341549Y0277250D01*
X0341662Y0277361D01*
X0341777Y0277470D01*
X0341895Y0277575D01*
X0342016Y0277677D01*
X0342139Y0277777D01*
X0342265Y0277873D01*
X0342393Y0277966D01*
X0342523Y0278056D01*
X0342656Y0278142D01*
X0342791Y0278226D01*
X0342927Y0278305D01*
X0343066Y0278382D01*
X0343207Y0278454D01*
X0343349Y0278524D01*
X0343493Y0278589D01*
X0343639Y0278651D01*
X0343786Y0278709D01*
X0343935Y0278764D01*
X0344085Y0278815D01*
X0344236Y0278862D01*
X0344388Y0278905D01*
X0344541Y0278944D01*
X0344696Y0278980D01*
X0344851Y0279011D01*
X0345007Y0279039D01*
X0345163Y0279063D01*
X0345320Y0279083D01*
X0345478Y0279099D01*
X0345635Y0279111D01*
X0345794Y0279119D01*
X0345952Y0279123D01*
X0346110Y0279123D01*
X0346268Y0279119D01*
X0346427Y0279111D01*
X0346584Y0279099D01*
X0346742Y0279083D01*
X0346899Y0279063D01*
X0347055Y0279039D01*
X0347211Y0279011D01*
X0347366Y0278980D01*
X0347521Y0278944D01*
X0347674Y0278905D01*
X0347826Y0278862D01*
X0347977Y0278815D01*
X0348127Y0278764D01*
X0348276Y0278709D01*
X0348423Y0278651D01*
X0348569Y0278589D01*
X0348713Y0278524D01*
X0348855Y0278454D01*
X0348996Y0278382D01*
X0349135Y0278305D01*
X0349271Y0278226D01*
X0349406Y0278142D01*
X0349539Y0278056D01*
X0349669Y0277966D01*
X0349797Y0277873D01*
X0349923Y0277777D01*
X0350046Y0277677D01*
X0350167Y0277575D01*
X0350285Y0277470D01*
X0350400Y0277361D01*
X0350513Y0277250D01*
X0350623Y0277136D01*
X0350730Y0277019D01*
X0350834Y0276900D01*
X0350935Y0276778D01*
X0351032Y0276653D01*
X0351127Y0276526D01*
X0351218Y0276397D01*
X0351307Y0276266D01*
X0351391Y0276132D01*
X0351473Y0275996D01*
X0351551Y0275859D01*
X0351625Y0275719D01*
X0351696Y0275577D01*
X0351764Y0275434D01*
X0351828Y0275289D01*
X0351888Y0275143D01*
X0351944Y0274995D01*
X0351997Y0274846D01*
X0352046Y0274695D01*
X0352091Y0274543D01*
X0352132Y0274390D01*
X0352170Y0274237D01*
X0352203Y0274082D01*
X0352233Y0273926D01*
X0352259Y0273770D01*
X0352280Y0273613D01*
X0352298Y0273456D01*
X0352312Y0273298D01*
X0352322Y0273140D01*
X0352328Y0272982D01*
X0352330Y0272824D01*
X0352328Y0272666D01*
X0352322Y0272508D01*
X0352312Y0272350D01*
X0352298Y0272192D01*
X0352280Y0272035D01*
X0352259Y0271878D01*
X0352233Y0271722D01*
X0352203Y0271566D01*
X0352170Y0271411D01*
X0352132Y0271258D01*
X0352091Y0271105D01*
X0352046Y0270953D01*
X0351997Y0270802D01*
X0351944Y0270653D01*
X0351888Y0270505D01*
X0351828Y0270359D01*
X0351764Y0270214D01*
X0351696Y0270071D01*
X0351625Y0269929D01*
X0351551Y0269789D01*
X0351473Y0269652D01*
X0351391Y0269516D01*
X0351307Y0269382D01*
X0351218Y0269251D01*
X0351127Y0269122D01*
X0351032Y0268995D01*
X0350935Y0268870D01*
X0350834Y0268748D01*
X0350730Y0268629D01*
X0350623Y0268512D01*
X0350513Y0268398D01*
X0350400Y0268287D01*
X0350285Y0268178D01*
X0350167Y0268073D01*
X0350046Y0267971D01*
X0349923Y0267871D01*
X0349797Y0267775D01*
X0349669Y0267682D01*
X0349539Y0267592D01*
X0349406Y0267506D01*
X0349271Y0267422D01*
X0349135Y0267343D01*
X0348996Y0267266D01*
X0348855Y0267194D01*
X0348713Y0267124D01*
X0348569Y0267059D01*
X0348423Y0266997D01*
X0348276Y0266939D01*
X0348127Y0266884D01*
X0347977Y0266833D01*
X0347826Y0266786D01*
X0347674Y0266743D01*
X0347521Y0266704D01*
X0347366Y0266668D01*
X0347211Y0266637D01*
X0347055Y0266609D01*
X0346899Y0266585D01*
X0346742Y0266565D01*
X0346584Y0266549D01*
X0346427Y0266537D01*
X0346268Y0266529D01*
X0346110Y0266525D01*
X0345952Y0266525D01*
X0345794Y0266529D01*
X0345635Y0266537D01*
X0345478Y0266549D01*
X0345320Y0266565D01*
X0345163Y0266585D01*
X0345007Y0266609D01*
X0344851Y0266637D01*
X0344696Y0266668D01*
X0344541Y0266704D01*
X0344388Y0266743D01*
X0344236Y0266786D01*
X0344085Y0266833D01*
X0343935Y0266884D01*
X0343786Y0266939D01*
X0343639Y0266997D01*
X0343493Y0267059D01*
X0343349Y0267124D01*
X0343207Y0267194D01*
X0343066Y0267266D01*
X0342927Y0267343D01*
X0342791Y0267422D01*
X0342656Y0267506D01*
X0342523Y0267592D01*
X0342393Y0267682D01*
X0342265Y0267775D01*
X0342139Y0267871D01*
X0342016Y0267971D01*
X0341895Y0268073D01*
X0341777Y0268178D01*
X0341662Y0268287D01*
X0341549Y0268398D01*
X0341439Y0268512D01*
X0341332Y0268629D01*
X0341228Y0268748D01*
X0341127Y0268870D01*
X0341030Y0268995D01*
X0340935Y0269122D01*
X0340844Y0269251D01*
X0340755Y0269382D01*
X0340671Y0269516D01*
X0340589Y0269652D01*
X0340511Y0269789D01*
X0340437Y0269929D01*
X0340366Y0270071D01*
X0340298Y0270214D01*
X0340234Y0270359D01*
X0340174Y0270505D01*
X0340118Y0270653D01*
X0340065Y0270802D01*
X0340016Y0270953D01*
X0339971Y0271105D01*
X0339930Y0271258D01*
X0339892Y0271411D01*
X0339859Y0271566D01*
X0339829Y0271722D01*
X0339803Y0271878D01*
X0339782Y0272035D01*
X0339764Y0272192D01*
X0339750Y0272350D01*
X0339740Y0272508D01*
X0339734Y0272666D01*
X0339732Y0272824D01*
X0368354Y0255422D02*
X0368356Y0255558D01*
X0368362Y0255693D01*
X0368372Y0255829D01*
X0368386Y0255964D01*
X0368404Y0256098D01*
X0368425Y0256232D01*
X0368451Y0256366D01*
X0368480Y0256498D01*
X0368514Y0256630D01*
X0368551Y0256761D01*
X0368592Y0256890D01*
X0368637Y0257018D01*
X0368685Y0257145D01*
X0368737Y0257270D01*
X0368793Y0257394D01*
X0368853Y0257516D01*
X0368916Y0257636D01*
X0368982Y0257755D01*
X0369052Y0257871D01*
X0369125Y0257986D01*
X0369202Y0258098D01*
X0369282Y0258207D01*
X0369365Y0258315D01*
X0369451Y0258420D01*
X0369540Y0258522D01*
X0369632Y0258622D01*
X0369727Y0258719D01*
X0369825Y0258813D01*
X0369925Y0258905D01*
X0370028Y0258993D01*
X0370134Y0259078D01*
X0370242Y0259161D01*
X0370352Y0259240D01*
X0370465Y0259315D01*
X0370580Y0259388D01*
X0370697Y0259457D01*
X0370816Y0259522D01*
X0370936Y0259584D01*
X0371059Y0259643D01*
X0371183Y0259698D01*
X0371309Y0259749D01*
X0371436Y0259797D01*
X0371564Y0259841D01*
X0371694Y0259881D01*
X0371825Y0259917D01*
X0371957Y0259949D01*
X0372089Y0259978D01*
X0372223Y0260003D01*
X0372357Y0260023D01*
X0372492Y0260040D01*
X0372627Y0260053D01*
X0372762Y0260062D01*
X0372898Y0260067D01*
X0373034Y0260068D01*
X0373170Y0260065D01*
X0373305Y0260058D01*
X0373441Y0260047D01*
X0373576Y0260032D01*
X0373710Y0260013D01*
X0373844Y0259991D01*
X0373977Y0259964D01*
X0374109Y0259934D01*
X0374241Y0259899D01*
X0374371Y0259861D01*
X0374500Y0259819D01*
X0374628Y0259773D01*
X0374754Y0259724D01*
X0374879Y0259671D01*
X0375003Y0259614D01*
X0375124Y0259554D01*
X0375244Y0259490D01*
X0375362Y0259423D01*
X0375478Y0259352D01*
X0375592Y0259278D01*
X0375703Y0259201D01*
X0375813Y0259120D01*
X0375919Y0259036D01*
X0376024Y0258949D01*
X0376126Y0258859D01*
X0376225Y0258767D01*
X0376321Y0258671D01*
X0376415Y0258573D01*
X0376505Y0258471D01*
X0376593Y0258368D01*
X0376677Y0258262D01*
X0376759Y0258153D01*
X0376837Y0258042D01*
X0376912Y0257929D01*
X0376983Y0257813D01*
X0377052Y0257696D01*
X0377116Y0257576D01*
X0377177Y0257455D01*
X0377235Y0257332D01*
X0377289Y0257208D01*
X0377339Y0257082D01*
X0377386Y0256954D01*
X0377429Y0256825D01*
X0377468Y0256695D01*
X0377503Y0256564D01*
X0377535Y0256432D01*
X0377562Y0256299D01*
X0377586Y0256166D01*
X0377606Y0256031D01*
X0377622Y0255896D01*
X0377634Y0255761D01*
X0377642Y0255626D01*
X0377646Y0255490D01*
X0377646Y0255354D01*
X0377642Y0255218D01*
X0377634Y0255083D01*
X0377622Y0254948D01*
X0377606Y0254813D01*
X0377586Y0254678D01*
X0377562Y0254545D01*
X0377535Y0254412D01*
X0377503Y0254280D01*
X0377468Y0254149D01*
X0377429Y0254019D01*
X0377386Y0253890D01*
X0377339Y0253762D01*
X0377289Y0253636D01*
X0377235Y0253512D01*
X0377177Y0253389D01*
X0377116Y0253268D01*
X0377052Y0253148D01*
X0376983Y0253031D01*
X0376912Y0252915D01*
X0376837Y0252802D01*
X0376759Y0252691D01*
X0376677Y0252582D01*
X0376593Y0252476D01*
X0376505Y0252373D01*
X0376415Y0252271D01*
X0376321Y0252173D01*
X0376225Y0252077D01*
X0376126Y0251985D01*
X0376024Y0251895D01*
X0375919Y0251808D01*
X0375813Y0251724D01*
X0375703Y0251643D01*
X0375592Y0251566D01*
X0375478Y0251492D01*
X0375362Y0251421D01*
X0375244Y0251354D01*
X0375124Y0251290D01*
X0375003Y0251230D01*
X0374879Y0251173D01*
X0374754Y0251120D01*
X0374628Y0251071D01*
X0374500Y0251025D01*
X0374371Y0250983D01*
X0374241Y0250945D01*
X0374109Y0250910D01*
X0373977Y0250880D01*
X0373844Y0250853D01*
X0373710Y0250831D01*
X0373576Y0250812D01*
X0373441Y0250797D01*
X0373305Y0250786D01*
X0373170Y0250779D01*
X0373034Y0250776D01*
X0372898Y0250777D01*
X0372762Y0250782D01*
X0372627Y0250791D01*
X0372492Y0250804D01*
X0372357Y0250821D01*
X0372223Y0250841D01*
X0372089Y0250866D01*
X0371957Y0250895D01*
X0371825Y0250927D01*
X0371694Y0250963D01*
X0371564Y0251003D01*
X0371436Y0251047D01*
X0371309Y0251095D01*
X0371183Y0251146D01*
X0371059Y0251201D01*
X0370936Y0251260D01*
X0370816Y0251322D01*
X0370697Y0251387D01*
X0370580Y0251456D01*
X0370465Y0251529D01*
X0370352Y0251604D01*
X0370242Y0251683D01*
X0370134Y0251766D01*
X0370028Y0251851D01*
X0369925Y0251939D01*
X0369825Y0252031D01*
X0369727Y0252125D01*
X0369632Y0252222D01*
X0369540Y0252322D01*
X0369451Y0252424D01*
X0369365Y0252529D01*
X0369282Y0252637D01*
X0369202Y0252746D01*
X0369125Y0252858D01*
X0369052Y0252973D01*
X0368982Y0253089D01*
X0368916Y0253208D01*
X0368853Y0253328D01*
X0368793Y0253450D01*
X0368737Y0253574D01*
X0368685Y0253699D01*
X0368637Y0253826D01*
X0368592Y0253954D01*
X0368551Y0254083D01*
X0368514Y0254214D01*
X0368480Y0254346D01*
X0368451Y0254478D01*
X0368425Y0254612D01*
X0368404Y0254746D01*
X0368386Y0254880D01*
X0368372Y0255015D01*
X0368362Y0255151D01*
X0368356Y0255286D01*
X0368354Y0255422D01*
X0371701Y0276800D02*
X0371703Y0276958D01*
X0371709Y0277116D01*
X0371719Y0277274D01*
X0371733Y0277432D01*
X0371751Y0277589D01*
X0371772Y0277746D01*
X0371798Y0277902D01*
X0371828Y0278058D01*
X0371861Y0278213D01*
X0371899Y0278366D01*
X0371940Y0278519D01*
X0371985Y0278671D01*
X0372034Y0278822D01*
X0372087Y0278971D01*
X0372143Y0279119D01*
X0372203Y0279265D01*
X0372267Y0279410D01*
X0372335Y0279553D01*
X0372406Y0279695D01*
X0372480Y0279835D01*
X0372558Y0279972D01*
X0372640Y0280108D01*
X0372724Y0280242D01*
X0372813Y0280373D01*
X0372904Y0280502D01*
X0372999Y0280629D01*
X0373096Y0280754D01*
X0373197Y0280876D01*
X0373301Y0280995D01*
X0373408Y0281112D01*
X0373518Y0281226D01*
X0373631Y0281337D01*
X0373746Y0281446D01*
X0373864Y0281551D01*
X0373985Y0281653D01*
X0374108Y0281753D01*
X0374234Y0281849D01*
X0374362Y0281942D01*
X0374492Y0282032D01*
X0374625Y0282118D01*
X0374760Y0282202D01*
X0374896Y0282281D01*
X0375035Y0282358D01*
X0375176Y0282430D01*
X0375318Y0282500D01*
X0375462Y0282565D01*
X0375608Y0282627D01*
X0375755Y0282685D01*
X0375904Y0282740D01*
X0376054Y0282791D01*
X0376205Y0282838D01*
X0376357Y0282881D01*
X0376510Y0282920D01*
X0376665Y0282956D01*
X0376820Y0282987D01*
X0376976Y0283015D01*
X0377132Y0283039D01*
X0377289Y0283059D01*
X0377447Y0283075D01*
X0377604Y0283087D01*
X0377763Y0283095D01*
X0377921Y0283099D01*
X0378079Y0283099D01*
X0378237Y0283095D01*
X0378396Y0283087D01*
X0378553Y0283075D01*
X0378711Y0283059D01*
X0378868Y0283039D01*
X0379024Y0283015D01*
X0379180Y0282987D01*
X0379335Y0282956D01*
X0379490Y0282920D01*
X0379643Y0282881D01*
X0379795Y0282838D01*
X0379946Y0282791D01*
X0380096Y0282740D01*
X0380245Y0282685D01*
X0380392Y0282627D01*
X0380538Y0282565D01*
X0380682Y0282500D01*
X0380824Y0282430D01*
X0380965Y0282358D01*
X0381104Y0282281D01*
X0381240Y0282202D01*
X0381375Y0282118D01*
X0381508Y0282032D01*
X0381638Y0281942D01*
X0381766Y0281849D01*
X0381892Y0281753D01*
X0382015Y0281653D01*
X0382136Y0281551D01*
X0382254Y0281446D01*
X0382369Y0281337D01*
X0382482Y0281226D01*
X0382592Y0281112D01*
X0382699Y0280995D01*
X0382803Y0280876D01*
X0382904Y0280754D01*
X0383001Y0280629D01*
X0383096Y0280502D01*
X0383187Y0280373D01*
X0383276Y0280242D01*
X0383360Y0280108D01*
X0383442Y0279972D01*
X0383520Y0279835D01*
X0383594Y0279695D01*
X0383665Y0279553D01*
X0383733Y0279410D01*
X0383797Y0279265D01*
X0383857Y0279119D01*
X0383913Y0278971D01*
X0383966Y0278822D01*
X0384015Y0278671D01*
X0384060Y0278519D01*
X0384101Y0278366D01*
X0384139Y0278213D01*
X0384172Y0278058D01*
X0384202Y0277902D01*
X0384228Y0277746D01*
X0384249Y0277589D01*
X0384267Y0277432D01*
X0384281Y0277274D01*
X0384291Y0277116D01*
X0384297Y0276958D01*
X0384299Y0276800D01*
X0384297Y0276642D01*
X0384291Y0276484D01*
X0384281Y0276326D01*
X0384267Y0276168D01*
X0384249Y0276011D01*
X0384228Y0275854D01*
X0384202Y0275698D01*
X0384172Y0275542D01*
X0384139Y0275387D01*
X0384101Y0275234D01*
X0384060Y0275081D01*
X0384015Y0274929D01*
X0383966Y0274778D01*
X0383913Y0274629D01*
X0383857Y0274481D01*
X0383797Y0274335D01*
X0383733Y0274190D01*
X0383665Y0274047D01*
X0383594Y0273905D01*
X0383520Y0273765D01*
X0383442Y0273628D01*
X0383360Y0273492D01*
X0383276Y0273358D01*
X0383187Y0273227D01*
X0383096Y0273098D01*
X0383001Y0272971D01*
X0382904Y0272846D01*
X0382803Y0272724D01*
X0382699Y0272605D01*
X0382592Y0272488D01*
X0382482Y0272374D01*
X0382369Y0272263D01*
X0382254Y0272154D01*
X0382136Y0272049D01*
X0382015Y0271947D01*
X0381892Y0271847D01*
X0381766Y0271751D01*
X0381638Y0271658D01*
X0381508Y0271568D01*
X0381375Y0271482D01*
X0381240Y0271398D01*
X0381104Y0271319D01*
X0380965Y0271242D01*
X0380824Y0271170D01*
X0380682Y0271100D01*
X0380538Y0271035D01*
X0380392Y0270973D01*
X0380245Y0270915D01*
X0380096Y0270860D01*
X0379946Y0270809D01*
X0379795Y0270762D01*
X0379643Y0270719D01*
X0379490Y0270680D01*
X0379335Y0270644D01*
X0379180Y0270613D01*
X0379024Y0270585D01*
X0378868Y0270561D01*
X0378711Y0270541D01*
X0378553Y0270525D01*
X0378396Y0270513D01*
X0378237Y0270505D01*
X0378079Y0270501D01*
X0377921Y0270501D01*
X0377763Y0270505D01*
X0377604Y0270513D01*
X0377447Y0270525D01*
X0377289Y0270541D01*
X0377132Y0270561D01*
X0376976Y0270585D01*
X0376820Y0270613D01*
X0376665Y0270644D01*
X0376510Y0270680D01*
X0376357Y0270719D01*
X0376205Y0270762D01*
X0376054Y0270809D01*
X0375904Y0270860D01*
X0375755Y0270915D01*
X0375608Y0270973D01*
X0375462Y0271035D01*
X0375318Y0271100D01*
X0375176Y0271170D01*
X0375035Y0271242D01*
X0374896Y0271319D01*
X0374760Y0271398D01*
X0374625Y0271482D01*
X0374492Y0271568D01*
X0374362Y0271658D01*
X0374234Y0271751D01*
X0374108Y0271847D01*
X0373985Y0271947D01*
X0373864Y0272049D01*
X0373746Y0272154D01*
X0373631Y0272263D01*
X0373518Y0272374D01*
X0373408Y0272488D01*
X0373301Y0272605D01*
X0373197Y0272724D01*
X0373096Y0272846D01*
X0372999Y0272971D01*
X0372904Y0273098D01*
X0372813Y0273227D01*
X0372724Y0273358D01*
X0372640Y0273492D01*
X0372558Y0273628D01*
X0372480Y0273765D01*
X0372406Y0273905D01*
X0372335Y0274047D01*
X0372267Y0274190D01*
X0372203Y0274335D01*
X0372143Y0274481D01*
X0372087Y0274629D01*
X0372034Y0274778D01*
X0371985Y0274929D01*
X0371940Y0275081D01*
X0371899Y0275234D01*
X0371861Y0275387D01*
X0371828Y0275542D01*
X0371798Y0275698D01*
X0371772Y0275854D01*
X0371751Y0276011D01*
X0371733Y0276168D01*
X0371719Y0276326D01*
X0371709Y0276484D01*
X0371703Y0276642D01*
X0371701Y0276800D01*
X0368354Y0208178D02*
X0368356Y0208314D01*
X0368362Y0208449D01*
X0368372Y0208585D01*
X0368386Y0208720D01*
X0368404Y0208854D01*
X0368425Y0208988D01*
X0368451Y0209122D01*
X0368480Y0209254D01*
X0368514Y0209386D01*
X0368551Y0209517D01*
X0368592Y0209646D01*
X0368637Y0209774D01*
X0368685Y0209901D01*
X0368737Y0210026D01*
X0368793Y0210150D01*
X0368853Y0210272D01*
X0368916Y0210392D01*
X0368982Y0210511D01*
X0369052Y0210627D01*
X0369125Y0210742D01*
X0369202Y0210854D01*
X0369282Y0210963D01*
X0369365Y0211071D01*
X0369451Y0211176D01*
X0369540Y0211278D01*
X0369632Y0211378D01*
X0369727Y0211475D01*
X0369825Y0211569D01*
X0369925Y0211661D01*
X0370028Y0211749D01*
X0370134Y0211834D01*
X0370242Y0211917D01*
X0370352Y0211996D01*
X0370465Y0212071D01*
X0370580Y0212144D01*
X0370697Y0212213D01*
X0370816Y0212278D01*
X0370936Y0212340D01*
X0371059Y0212399D01*
X0371183Y0212454D01*
X0371309Y0212505D01*
X0371436Y0212553D01*
X0371564Y0212597D01*
X0371694Y0212637D01*
X0371825Y0212673D01*
X0371957Y0212705D01*
X0372089Y0212734D01*
X0372223Y0212759D01*
X0372357Y0212779D01*
X0372492Y0212796D01*
X0372627Y0212809D01*
X0372762Y0212818D01*
X0372898Y0212823D01*
X0373034Y0212824D01*
X0373170Y0212821D01*
X0373305Y0212814D01*
X0373441Y0212803D01*
X0373576Y0212788D01*
X0373710Y0212769D01*
X0373844Y0212747D01*
X0373977Y0212720D01*
X0374109Y0212690D01*
X0374241Y0212655D01*
X0374371Y0212617D01*
X0374500Y0212575D01*
X0374628Y0212529D01*
X0374754Y0212480D01*
X0374879Y0212427D01*
X0375003Y0212370D01*
X0375124Y0212310D01*
X0375244Y0212246D01*
X0375362Y0212179D01*
X0375478Y0212108D01*
X0375592Y0212034D01*
X0375703Y0211957D01*
X0375813Y0211876D01*
X0375919Y0211792D01*
X0376024Y0211705D01*
X0376126Y0211615D01*
X0376225Y0211523D01*
X0376321Y0211427D01*
X0376415Y0211329D01*
X0376505Y0211227D01*
X0376593Y0211124D01*
X0376677Y0211018D01*
X0376759Y0210909D01*
X0376837Y0210798D01*
X0376912Y0210685D01*
X0376983Y0210569D01*
X0377052Y0210452D01*
X0377116Y0210332D01*
X0377177Y0210211D01*
X0377235Y0210088D01*
X0377289Y0209964D01*
X0377339Y0209838D01*
X0377386Y0209710D01*
X0377429Y0209581D01*
X0377468Y0209451D01*
X0377503Y0209320D01*
X0377535Y0209188D01*
X0377562Y0209055D01*
X0377586Y0208922D01*
X0377606Y0208787D01*
X0377622Y0208652D01*
X0377634Y0208517D01*
X0377642Y0208382D01*
X0377646Y0208246D01*
X0377646Y0208110D01*
X0377642Y0207974D01*
X0377634Y0207839D01*
X0377622Y0207704D01*
X0377606Y0207569D01*
X0377586Y0207434D01*
X0377562Y0207301D01*
X0377535Y0207168D01*
X0377503Y0207036D01*
X0377468Y0206905D01*
X0377429Y0206775D01*
X0377386Y0206646D01*
X0377339Y0206518D01*
X0377289Y0206392D01*
X0377235Y0206268D01*
X0377177Y0206145D01*
X0377116Y0206024D01*
X0377052Y0205904D01*
X0376983Y0205787D01*
X0376912Y0205671D01*
X0376837Y0205558D01*
X0376759Y0205447D01*
X0376677Y0205338D01*
X0376593Y0205232D01*
X0376505Y0205129D01*
X0376415Y0205027D01*
X0376321Y0204929D01*
X0376225Y0204833D01*
X0376126Y0204741D01*
X0376024Y0204651D01*
X0375919Y0204564D01*
X0375813Y0204480D01*
X0375703Y0204399D01*
X0375592Y0204322D01*
X0375478Y0204248D01*
X0375362Y0204177D01*
X0375244Y0204110D01*
X0375124Y0204046D01*
X0375003Y0203986D01*
X0374879Y0203929D01*
X0374754Y0203876D01*
X0374628Y0203827D01*
X0374500Y0203781D01*
X0374371Y0203739D01*
X0374241Y0203701D01*
X0374109Y0203666D01*
X0373977Y0203636D01*
X0373844Y0203609D01*
X0373710Y0203587D01*
X0373576Y0203568D01*
X0373441Y0203553D01*
X0373305Y0203542D01*
X0373170Y0203535D01*
X0373034Y0203532D01*
X0372898Y0203533D01*
X0372762Y0203538D01*
X0372627Y0203547D01*
X0372492Y0203560D01*
X0372357Y0203577D01*
X0372223Y0203597D01*
X0372089Y0203622D01*
X0371957Y0203651D01*
X0371825Y0203683D01*
X0371694Y0203719D01*
X0371564Y0203759D01*
X0371436Y0203803D01*
X0371309Y0203851D01*
X0371183Y0203902D01*
X0371059Y0203957D01*
X0370936Y0204016D01*
X0370816Y0204078D01*
X0370697Y0204143D01*
X0370580Y0204212D01*
X0370465Y0204285D01*
X0370352Y0204360D01*
X0370242Y0204439D01*
X0370134Y0204522D01*
X0370028Y0204607D01*
X0369925Y0204695D01*
X0369825Y0204787D01*
X0369727Y0204881D01*
X0369632Y0204978D01*
X0369540Y0205078D01*
X0369451Y0205180D01*
X0369365Y0205285D01*
X0369282Y0205393D01*
X0369202Y0205502D01*
X0369125Y0205614D01*
X0369052Y0205729D01*
X0368982Y0205845D01*
X0368916Y0205964D01*
X0368853Y0206084D01*
X0368793Y0206206D01*
X0368737Y0206330D01*
X0368685Y0206455D01*
X0368637Y0206582D01*
X0368592Y0206710D01*
X0368551Y0206839D01*
X0368514Y0206970D01*
X0368480Y0207102D01*
X0368451Y0207234D01*
X0368425Y0207368D01*
X0368404Y0207502D01*
X0368386Y0207636D01*
X0368372Y0207771D01*
X0368362Y0207907D01*
X0368356Y0208042D01*
X0368354Y0208178D01*
X0371228Y0180461D02*
X0371230Y0180545D01*
X0371236Y0180628D01*
X0371246Y0180711D01*
X0371260Y0180794D01*
X0371277Y0180876D01*
X0371299Y0180957D01*
X0371324Y0181036D01*
X0371353Y0181115D01*
X0371386Y0181192D01*
X0371422Y0181267D01*
X0371462Y0181341D01*
X0371505Y0181413D01*
X0371552Y0181482D01*
X0371602Y0181549D01*
X0371655Y0181614D01*
X0371711Y0181676D01*
X0371769Y0181736D01*
X0371831Y0181793D01*
X0371895Y0181846D01*
X0371962Y0181897D01*
X0372031Y0181944D01*
X0372102Y0181989D01*
X0372175Y0182029D01*
X0372250Y0182066D01*
X0372327Y0182100D01*
X0372405Y0182130D01*
X0372484Y0182156D01*
X0372565Y0182179D01*
X0372647Y0182197D01*
X0372729Y0182212D01*
X0372812Y0182223D01*
X0372895Y0182230D01*
X0372979Y0182233D01*
X0373063Y0182232D01*
X0373146Y0182227D01*
X0373230Y0182218D01*
X0373312Y0182205D01*
X0373394Y0182189D01*
X0373475Y0182168D01*
X0373556Y0182144D01*
X0373634Y0182116D01*
X0373712Y0182084D01*
X0373788Y0182048D01*
X0373862Y0182009D01*
X0373934Y0181967D01*
X0374004Y0181921D01*
X0374072Y0181872D01*
X0374137Y0181820D01*
X0374200Y0181765D01*
X0374260Y0181707D01*
X0374318Y0181646D01*
X0374372Y0181582D01*
X0374424Y0181516D01*
X0374472Y0181448D01*
X0374517Y0181377D01*
X0374558Y0181304D01*
X0374597Y0181230D01*
X0374631Y0181154D01*
X0374662Y0181076D01*
X0374689Y0180997D01*
X0374713Y0180916D01*
X0374732Y0180835D01*
X0374748Y0180753D01*
X0374760Y0180670D01*
X0374768Y0180586D01*
X0374772Y0180503D01*
X0374772Y0180419D01*
X0374768Y0180336D01*
X0374760Y0180252D01*
X0374748Y0180169D01*
X0374732Y0180087D01*
X0374713Y0180006D01*
X0374689Y0179925D01*
X0374662Y0179846D01*
X0374631Y0179768D01*
X0374597Y0179692D01*
X0374558Y0179618D01*
X0374517Y0179545D01*
X0374472Y0179474D01*
X0374424Y0179406D01*
X0374372Y0179340D01*
X0374318Y0179276D01*
X0374260Y0179215D01*
X0374200Y0179157D01*
X0374137Y0179102D01*
X0374072Y0179050D01*
X0374004Y0179001D01*
X0373934Y0178955D01*
X0373862Y0178913D01*
X0373788Y0178874D01*
X0373712Y0178838D01*
X0373634Y0178806D01*
X0373556Y0178778D01*
X0373475Y0178754D01*
X0373394Y0178733D01*
X0373312Y0178717D01*
X0373230Y0178704D01*
X0373146Y0178695D01*
X0373063Y0178690D01*
X0372979Y0178689D01*
X0372895Y0178692D01*
X0372812Y0178699D01*
X0372729Y0178710D01*
X0372647Y0178725D01*
X0372565Y0178743D01*
X0372484Y0178766D01*
X0372405Y0178792D01*
X0372327Y0178822D01*
X0372250Y0178856D01*
X0372175Y0178893D01*
X0372102Y0178933D01*
X0372031Y0178978D01*
X0371962Y0179025D01*
X0371895Y0179076D01*
X0371831Y0179129D01*
X0371769Y0179186D01*
X0371711Y0179246D01*
X0371655Y0179308D01*
X0371602Y0179373D01*
X0371552Y0179440D01*
X0371505Y0179509D01*
X0371462Y0179581D01*
X0371422Y0179655D01*
X0371386Y0179730D01*
X0371353Y0179807D01*
X0371324Y0179886D01*
X0371299Y0179965D01*
X0371277Y0180046D01*
X0371260Y0180128D01*
X0371246Y0180211D01*
X0371236Y0180294D01*
X0371230Y0180377D01*
X0371228Y0180461D01*
X0371228Y0163139D02*
X0371230Y0163223D01*
X0371236Y0163306D01*
X0371246Y0163389D01*
X0371260Y0163472D01*
X0371277Y0163554D01*
X0371299Y0163635D01*
X0371324Y0163714D01*
X0371353Y0163793D01*
X0371386Y0163870D01*
X0371422Y0163945D01*
X0371462Y0164019D01*
X0371505Y0164091D01*
X0371552Y0164160D01*
X0371602Y0164227D01*
X0371655Y0164292D01*
X0371711Y0164354D01*
X0371769Y0164414D01*
X0371831Y0164471D01*
X0371895Y0164524D01*
X0371962Y0164575D01*
X0372031Y0164622D01*
X0372102Y0164667D01*
X0372175Y0164707D01*
X0372250Y0164744D01*
X0372327Y0164778D01*
X0372405Y0164808D01*
X0372484Y0164834D01*
X0372565Y0164857D01*
X0372647Y0164875D01*
X0372729Y0164890D01*
X0372812Y0164901D01*
X0372895Y0164908D01*
X0372979Y0164911D01*
X0373063Y0164910D01*
X0373146Y0164905D01*
X0373230Y0164896D01*
X0373312Y0164883D01*
X0373394Y0164867D01*
X0373475Y0164846D01*
X0373556Y0164822D01*
X0373634Y0164794D01*
X0373712Y0164762D01*
X0373788Y0164726D01*
X0373862Y0164687D01*
X0373934Y0164645D01*
X0374004Y0164599D01*
X0374072Y0164550D01*
X0374137Y0164498D01*
X0374200Y0164443D01*
X0374260Y0164385D01*
X0374318Y0164324D01*
X0374372Y0164260D01*
X0374424Y0164194D01*
X0374472Y0164126D01*
X0374517Y0164055D01*
X0374558Y0163982D01*
X0374597Y0163908D01*
X0374631Y0163832D01*
X0374662Y0163754D01*
X0374689Y0163675D01*
X0374713Y0163594D01*
X0374732Y0163513D01*
X0374748Y0163431D01*
X0374760Y0163348D01*
X0374768Y0163264D01*
X0374772Y0163181D01*
X0374772Y0163097D01*
X0374768Y0163014D01*
X0374760Y0162930D01*
X0374748Y0162847D01*
X0374732Y0162765D01*
X0374713Y0162684D01*
X0374689Y0162603D01*
X0374662Y0162524D01*
X0374631Y0162446D01*
X0374597Y0162370D01*
X0374558Y0162296D01*
X0374517Y0162223D01*
X0374472Y0162152D01*
X0374424Y0162084D01*
X0374372Y0162018D01*
X0374318Y0161954D01*
X0374260Y0161893D01*
X0374200Y0161835D01*
X0374137Y0161780D01*
X0374072Y0161728D01*
X0374004Y0161679D01*
X0373934Y0161633D01*
X0373862Y0161591D01*
X0373788Y0161552D01*
X0373712Y0161516D01*
X0373634Y0161484D01*
X0373556Y0161456D01*
X0373475Y0161432D01*
X0373394Y0161411D01*
X0373312Y0161395D01*
X0373230Y0161382D01*
X0373146Y0161373D01*
X0373063Y0161368D01*
X0372979Y0161367D01*
X0372895Y0161370D01*
X0372812Y0161377D01*
X0372729Y0161388D01*
X0372647Y0161403D01*
X0372565Y0161421D01*
X0372484Y0161444D01*
X0372405Y0161470D01*
X0372327Y0161500D01*
X0372250Y0161534D01*
X0372175Y0161571D01*
X0372102Y0161611D01*
X0372031Y0161656D01*
X0371962Y0161703D01*
X0371895Y0161754D01*
X0371831Y0161807D01*
X0371769Y0161864D01*
X0371711Y0161924D01*
X0371655Y0161986D01*
X0371602Y0162051D01*
X0371552Y0162118D01*
X0371505Y0162187D01*
X0371462Y0162259D01*
X0371422Y0162333D01*
X0371386Y0162408D01*
X0371353Y0162485D01*
X0371324Y0162564D01*
X0371299Y0162643D01*
X0371277Y0162724D01*
X0371260Y0162806D01*
X0371246Y0162889D01*
X0371236Y0162972D01*
X0371230Y0163055D01*
X0371228Y0163139D01*
X0339732Y0150776D02*
X0339734Y0150934D01*
X0339740Y0151092D01*
X0339750Y0151250D01*
X0339764Y0151408D01*
X0339782Y0151565D01*
X0339803Y0151722D01*
X0339829Y0151878D01*
X0339859Y0152034D01*
X0339892Y0152189D01*
X0339930Y0152342D01*
X0339971Y0152495D01*
X0340016Y0152647D01*
X0340065Y0152798D01*
X0340118Y0152947D01*
X0340174Y0153095D01*
X0340234Y0153241D01*
X0340298Y0153386D01*
X0340366Y0153529D01*
X0340437Y0153671D01*
X0340511Y0153811D01*
X0340589Y0153948D01*
X0340671Y0154084D01*
X0340755Y0154218D01*
X0340844Y0154349D01*
X0340935Y0154478D01*
X0341030Y0154605D01*
X0341127Y0154730D01*
X0341228Y0154852D01*
X0341332Y0154971D01*
X0341439Y0155088D01*
X0341549Y0155202D01*
X0341662Y0155313D01*
X0341777Y0155422D01*
X0341895Y0155527D01*
X0342016Y0155629D01*
X0342139Y0155729D01*
X0342265Y0155825D01*
X0342393Y0155918D01*
X0342523Y0156008D01*
X0342656Y0156094D01*
X0342791Y0156178D01*
X0342927Y0156257D01*
X0343066Y0156334D01*
X0343207Y0156406D01*
X0343349Y0156476D01*
X0343493Y0156541D01*
X0343639Y0156603D01*
X0343786Y0156661D01*
X0343935Y0156716D01*
X0344085Y0156767D01*
X0344236Y0156814D01*
X0344388Y0156857D01*
X0344541Y0156896D01*
X0344696Y0156932D01*
X0344851Y0156963D01*
X0345007Y0156991D01*
X0345163Y0157015D01*
X0345320Y0157035D01*
X0345478Y0157051D01*
X0345635Y0157063D01*
X0345794Y0157071D01*
X0345952Y0157075D01*
X0346110Y0157075D01*
X0346268Y0157071D01*
X0346427Y0157063D01*
X0346584Y0157051D01*
X0346742Y0157035D01*
X0346899Y0157015D01*
X0347055Y0156991D01*
X0347211Y0156963D01*
X0347366Y0156932D01*
X0347521Y0156896D01*
X0347674Y0156857D01*
X0347826Y0156814D01*
X0347977Y0156767D01*
X0348127Y0156716D01*
X0348276Y0156661D01*
X0348423Y0156603D01*
X0348569Y0156541D01*
X0348713Y0156476D01*
X0348855Y0156406D01*
X0348996Y0156334D01*
X0349135Y0156257D01*
X0349271Y0156178D01*
X0349406Y0156094D01*
X0349539Y0156008D01*
X0349669Y0155918D01*
X0349797Y0155825D01*
X0349923Y0155729D01*
X0350046Y0155629D01*
X0350167Y0155527D01*
X0350285Y0155422D01*
X0350400Y0155313D01*
X0350513Y0155202D01*
X0350623Y0155088D01*
X0350730Y0154971D01*
X0350834Y0154852D01*
X0350935Y0154730D01*
X0351032Y0154605D01*
X0351127Y0154478D01*
X0351218Y0154349D01*
X0351307Y0154218D01*
X0351391Y0154084D01*
X0351473Y0153948D01*
X0351551Y0153811D01*
X0351625Y0153671D01*
X0351696Y0153529D01*
X0351764Y0153386D01*
X0351828Y0153241D01*
X0351888Y0153095D01*
X0351944Y0152947D01*
X0351997Y0152798D01*
X0352046Y0152647D01*
X0352091Y0152495D01*
X0352132Y0152342D01*
X0352170Y0152189D01*
X0352203Y0152034D01*
X0352233Y0151878D01*
X0352259Y0151722D01*
X0352280Y0151565D01*
X0352298Y0151408D01*
X0352312Y0151250D01*
X0352322Y0151092D01*
X0352328Y0150934D01*
X0352330Y0150776D01*
X0352328Y0150618D01*
X0352322Y0150460D01*
X0352312Y0150302D01*
X0352298Y0150144D01*
X0352280Y0149987D01*
X0352259Y0149830D01*
X0352233Y0149674D01*
X0352203Y0149518D01*
X0352170Y0149363D01*
X0352132Y0149210D01*
X0352091Y0149057D01*
X0352046Y0148905D01*
X0351997Y0148754D01*
X0351944Y0148605D01*
X0351888Y0148457D01*
X0351828Y0148311D01*
X0351764Y0148166D01*
X0351696Y0148023D01*
X0351625Y0147881D01*
X0351551Y0147741D01*
X0351473Y0147604D01*
X0351391Y0147468D01*
X0351307Y0147334D01*
X0351218Y0147203D01*
X0351127Y0147074D01*
X0351032Y0146947D01*
X0350935Y0146822D01*
X0350834Y0146700D01*
X0350730Y0146581D01*
X0350623Y0146464D01*
X0350513Y0146350D01*
X0350400Y0146239D01*
X0350285Y0146130D01*
X0350167Y0146025D01*
X0350046Y0145923D01*
X0349923Y0145823D01*
X0349797Y0145727D01*
X0349669Y0145634D01*
X0349539Y0145544D01*
X0349406Y0145458D01*
X0349271Y0145374D01*
X0349135Y0145295D01*
X0348996Y0145218D01*
X0348855Y0145146D01*
X0348713Y0145076D01*
X0348569Y0145011D01*
X0348423Y0144949D01*
X0348276Y0144891D01*
X0348127Y0144836D01*
X0347977Y0144785D01*
X0347826Y0144738D01*
X0347674Y0144695D01*
X0347521Y0144656D01*
X0347366Y0144620D01*
X0347211Y0144589D01*
X0347055Y0144561D01*
X0346899Y0144537D01*
X0346742Y0144517D01*
X0346584Y0144501D01*
X0346427Y0144489D01*
X0346268Y0144481D01*
X0346110Y0144477D01*
X0345952Y0144477D01*
X0345794Y0144481D01*
X0345635Y0144489D01*
X0345478Y0144501D01*
X0345320Y0144517D01*
X0345163Y0144537D01*
X0345007Y0144561D01*
X0344851Y0144589D01*
X0344696Y0144620D01*
X0344541Y0144656D01*
X0344388Y0144695D01*
X0344236Y0144738D01*
X0344085Y0144785D01*
X0343935Y0144836D01*
X0343786Y0144891D01*
X0343639Y0144949D01*
X0343493Y0145011D01*
X0343349Y0145076D01*
X0343207Y0145146D01*
X0343066Y0145218D01*
X0342927Y0145295D01*
X0342791Y0145374D01*
X0342656Y0145458D01*
X0342523Y0145544D01*
X0342393Y0145634D01*
X0342265Y0145727D01*
X0342139Y0145823D01*
X0342016Y0145923D01*
X0341895Y0146025D01*
X0341777Y0146130D01*
X0341662Y0146239D01*
X0341549Y0146350D01*
X0341439Y0146464D01*
X0341332Y0146581D01*
X0341228Y0146700D01*
X0341127Y0146822D01*
X0341030Y0146947D01*
X0340935Y0147074D01*
X0340844Y0147203D01*
X0340755Y0147334D01*
X0340671Y0147468D01*
X0340589Y0147604D01*
X0340511Y0147741D01*
X0340437Y0147881D01*
X0340366Y0148023D01*
X0340298Y0148166D01*
X0340234Y0148311D01*
X0340174Y0148457D01*
X0340118Y0148605D01*
X0340065Y0148754D01*
X0340016Y0148905D01*
X0339971Y0149057D01*
X0339930Y0149210D01*
X0339892Y0149363D01*
X0339859Y0149518D01*
X0339829Y0149674D01*
X0339803Y0149830D01*
X0339782Y0149987D01*
X0339764Y0150144D01*
X0339750Y0150302D01*
X0339740Y0150460D01*
X0339734Y0150618D01*
X0339732Y0150776D01*
X0371701Y0016800D02*
X0371703Y0016958D01*
X0371709Y0017116D01*
X0371719Y0017274D01*
X0371733Y0017432D01*
X0371751Y0017589D01*
X0371772Y0017746D01*
X0371798Y0017902D01*
X0371828Y0018058D01*
X0371861Y0018213D01*
X0371899Y0018366D01*
X0371940Y0018519D01*
X0371985Y0018671D01*
X0372034Y0018822D01*
X0372087Y0018971D01*
X0372143Y0019119D01*
X0372203Y0019265D01*
X0372267Y0019410D01*
X0372335Y0019553D01*
X0372406Y0019695D01*
X0372480Y0019835D01*
X0372558Y0019972D01*
X0372640Y0020108D01*
X0372724Y0020242D01*
X0372813Y0020373D01*
X0372904Y0020502D01*
X0372999Y0020629D01*
X0373096Y0020754D01*
X0373197Y0020876D01*
X0373301Y0020995D01*
X0373408Y0021112D01*
X0373518Y0021226D01*
X0373631Y0021337D01*
X0373746Y0021446D01*
X0373864Y0021551D01*
X0373985Y0021653D01*
X0374108Y0021753D01*
X0374234Y0021849D01*
X0374362Y0021942D01*
X0374492Y0022032D01*
X0374625Y0022118D01*
X0374760Y0022202D01*
X0374896Y0022281D01*
X0375035Y0022358D01*
X0375176Y0022430D01*
X0375318Y0022500D01*
X0375462Y0022565D01*
X0375608Y0022627D01*
X0375755Y0022685D01*
X0375904Y0022740D01*
X0376054Y0022791D01*
X0376205Y0022838D01*
X0376357Y0022881D01*
X0376510Y0022920D01*
X0376665Y0022956D01*
X0376820Y0022987D01*
X0376976Y0023015D01*
X0377132Y0023039D01*
X0377289Y0023059D01*
X0377447Y0023075D01*
X0377604Y0023087D01*
X0377763Y0023095D01*
X0377921Y0023099D01*
X0378079Y0023099D01*
X0378237Y0023095D01*
X0378396Y0023087D01*
X0378553Y0023075D01*
X0378711Y0023059D01*
X0378868Y0023039D01*
X0379024Y0023015D01*
X0379180Y0022987D01*
X0379335Y0022956D01*
X0379490Y0022920D01*
X0379643Y0022881D01*
X0379795Y0022838D01*
X0379946Y0022791D01*
X0380096Y0022740D01*
X0380245Y0022685D01*
X0380392Y0022627D01*
X0380538Y0022565D01*
X0380682Y0022500D01*
X0380824Y0022430D01*
X0380965Y0022358D01*
X0381104Y0022281D01*
X0381240Y0022202D01*
X0381375Y0022118D01*
X0381508Y0022032D01*
X0381638Y0021942D01*
X0381766Y0021849D01*
X0381892Y0021753D01*
X0382015Y0021653D01*
X0382136Y0021551D01*
X0382254Y0021446D01*
X0382369Y0021337D01*
X0382482Y0021226D01*
X0382592Y0021112D01*
X0382699Y0020995D01*
X0382803Y0020876D01*
X0382904Y0020754D01*
X0383001Y0020629D01*
X0383096Y0020502D01*
X0383187Y0020373D01*
X0383276Y0020242D01*
X0383360Y0020108D01*
X0383442Y0019972D01*
X0383520Y0019835D01*
X0383594Y0019695D01*
X0383665Y0019553D01*
X0383733Y0019410D01*
X0383797Y0019265D01*
X0383857Y0019119D01*
X0383913Y0018971D01*
X0383966Y0018822D01*
X0384015Y0018671D01*
X0384060Y0018519D01*
X0384101Y0018366D01*
X0384139Y0018213D01*
X0384172Y0018058D01*
X0384202Y0017902D01*
X0384228Y0017746D01*
X0384249Y0017589D01*
X0384267Y0017432D01*
X0384281Y0017274D01*
X0384291Y0017116D01*
X0384297Y0016958D01*
X0384299Y0016800D01*
X0384297Y0016642D01*
X0384291Y0016484D01*
X0384281Y0016326D01*
X0384267Y0016168D01*
X0384249Y0016011D01*
X0384228Y0015854D01*
X0384202Y0015698D01*
X0384172Y0015542D01*
X0384139Y0015387D01*
X0384101Y0015234D01*
X0384060Y0015081D01*
X0384015Y0014929D01*
X0383966Y0014778D01*
X0383913Y0014629D01*
X0383857Y0014481D01*
X0383797Y0014335D01*
X0383733Y0014190D01*
X0383665Y0014047D01*
X0383594Y0013905D01*
X0383520Y0013765D01*
X0383442Y0013628D01*
X0383360Y0013492D01*
X0383276Y0013358D01*
X0383187Y0013227D01*
X0383096Y0013098D01*
X0383001Y0012971D01*
X0382904Y0012846D01*
X0382803Y0012724D01*
X0382699Y0012605D01*
X0382592Y0012488D01*
X0382482Y0012374D01*
X0382369Y0012263D01*
X0382254Y0012154D01*
X0382136Y0012049D01*
X0382015Y0011947D01*
X0381892Y0011847D01*
X0381766Y0011751D01*
X0381638Y0011658D01*
X0381508Y0011568D01*
X0381375Y0011482D01*
X0381240Y0011398D01*
X0381104Y0011319D01*
X0380965Y0011242D01*
X0380824Y0011170D01*
X0380682Y0011100D01*
X0380538Y0011035D01*
X0380392Y0010973D01*
X0380245Y0010915D01*
X0380096Y0010860D01*
X0379946Y0010809D01*
X0379795Y0010762D01*
X0379643Y0010719D01*
X0379490Y0010680D01*
X0379335Y0010644D01*
X0379180Y0010613D01*
X0379024Y0010585D01*
X0378868Y0010561D01*
X0378711Y0010541D01*
X0378553Y0010525D01*
X0378396Y0010513D01*
X0378237Y0010505D01*
X0378079Y0010501D01*
X0377921Y0010501D01*
X0377763Y0010505D01*
X0377604Y0010513D01*
X0377447Y0010525D01*
X0377289Y0010541D01*
X0377132Y0010561D01*
X0376976Y0010585D01*
X0376820Y0010613D01*
X0376665Y0010644D01*
X0376510Y0010680D01*
X0376357Y0010719D01*
X0376205Y0010762D01*
X0376054Y0010809D01*
X0375904Y0010860D01*
X0375755Y0010915D01*
X0375608Y0010973D01*
X0375462Y0011035D01*
X0375318Y0011100D01*
X0375176Y0011170D01*
X0375035Y0011242D01*
X0374896Y0011319D01*
X0374760Y0011398D01*
X0374625Y0011482D01*
X0374492Y0011568D01*
X0374362Y0011658D01*
X0374234Y0011751D01*
X0374108Y0011847D01*
X0373985Y0011947D01*
X0373864Y0012049D01*
X0373746Y0012154D01*
X0373631Y0012263D01*
X0373518Y0012374D01*
X0373408Y0012488D01*
X0373301Y0012605D01*
X0373197Y0012724D01*
X0373096Y0012846D01*
X0372999Y0012971D01*
X0372904Y0013098D01*
X0372813Y0013227D01*
X0372724Y0013358D01*
X0372640Y0013492D01*
X0372558Y0013628D01*
X0372480Y0013765D01*
X0372406Y0013905D01*
X0372335Y0014047D01*
X0372267Y0014190D01*
X0372203Y0014335D01*
X0372143Y0014481D01*
X0372087Y0014629D01*
X0372034Y0014778D01*
X0371985Y0014929D01*
X0371940Y0015081D01*
X0371899Y0015234D01*
X0371861Y0015387D01*
X0371828Y0015542D01*
X0371798Y0015698D01*
X0371772Y0015854D01*
X0371751Y0016011D01*
X0371733Y0016168D01*
X0371719Y0016326D01*
X0371709Y0016484D01*
X0371703Y0016642D01*
X0371701Y0016800D01*
D11*
X0393000Y0001800D02*
X0003000Y0001800D01*
X0003000Y0291800D01*
X0393000Y0291800D01*
X0393000Y0001800D01*
X0208000Y0016800D02*
X0143000Y0016800D01*
X0143000Y0081800D01*
X0208000Y0081800D01*
X0208000Y0016800D01*
M02*
