G75*
%MOIN*%
%OFA0B0*%
%FSLAX25Y25*%
%IPPOS*%
%LPD*%
%AMOC8*
5,1,8,0,0,1.08239X$1,22.5*
%
%ADD10C,0.00000*%
%ADD11C,0.01600*%
%ADD12R,0.15024X0.15024*%
%ADD13R,0.07087X0.07087*%
%ADD14C,0.04134*%
%ADD15R,0.06000X0.06000*%
%ADD16C,0.06000*%
%ADD17C,0.05118*%
%ADD18C,0.07400*%
%ADD19R,0.05906X0.05906*%
%ADD20C,0.05700*%
%ADD21OC8,0.04800*%
%ADD22C,0.05400*%
%ADD23OC8,0.05400*%
%ADD24R,0.02400X0.02400*%
D10*
X0011701Y0016800D02*
X0011703Y0016958D01*
X0011709Y0017116D01*
X0011719Y0017274D01*
X0011733Y0017432D01*
X0011751Y0017589D01*
X0011772Y0017746D01*
X0011798Y0017902D01*
X0011828Y0018058D01*
X0011861Y0018213D01*
X0011899Y0018366D01*
X0011940Y0018519D01*
X0011985Y0018671D01*
X0012034Y0018822D01*
X0012087Y0018971D01*
X0012143Y0019119D01*
X0012203Y0019265D01*
X0012267Y0019410D01*
X0012335Y0019553D01*
X0012406Y0019695D01*
X0012480Y0019835D01*
X0012558Y0019972D01*
X0012640Y0020108D01*
X0012724Y0020242D01*
X0012813Y0020373D01*
X0012904Y0020502D01*
X0012999Y0020629D01*
X0013096Y0020754D01*
X0013197Y0020876D01*
X0013301Y0020995D01*
X0013408Y0021112D01*
X0013518Y0021226D01*
X0013631Y0021337D01*
X0013746Y0021446D01*
X0013864Y0021551D01*
X0013985Y0021653D01*
X0014108Y0021753D01*
X0014234Y0021849D01*
X0014362Y0021942D01*
X0014492Y0022032D01*
X0014625Y0022118D01*
X0014760Y0022202D01*
X0014896Y0022281D01*
X0015035Y0022358D01*
X0015176Y0022430D01*
X0015318Y0022500D01*
X0015462Y0022565D01*
X0015608Y0022627D01*
X0015755Y0022685D01*
X0015904Y0022740D01*
X0016054Y0022791D01*
X0016205Y0022838D01*
X0016357Y0022881D01*
X0016510Y0022920D01*
X0016665Y0022956D01*
X0016820Y0022987D01*
X0016976Y0023015D01*
X0017132Y0023039D01*
X0017289Y0023059D01*
X0017447Y0023075D01*
X0017604Y0023087D01*
X0017763Y0023095D01*
X0017921Y0023099D01*
X0018079Y0023099D01*
X0018237Y0023095D01*
X0018396Y0023087D01*
X0018553Y0023075D01*
X0018711Y0023059D01*
X0018868Y0023039D01*
X0019024Y0023015D01*
X0019180Y0022987D01*
X0019335Y0022956D01*
X0019490Y0022920D01*
X0019643Y0022881D01*
X0019795Y0022838D01*
X0019946Y0022791D01*
X0020096Y0022740D01*
X0020245Y0022685D01*
X0020392Y0022627D01*
X0020538Y0022565D01*
X0020682Y0022500D01*
X0020824Y0022430D01*
X0020965Y0022358D01*
X0021104Y0022281D01*
X0021240Y0022202D01*
X0021375Y0022118D01*
X0021508Y0022032D01*
X0021638Y0021942D01*
X0021766Y0021849D01*
X0021892Y0021753D01*
X0022015Y0021653D01*
X0022136Y0021551D01*
X0022254Y0021446D01*
X0022369Y0021337D01*
X0022482Y0021226D01*
X0022592Y0021112D01*
X0022699Y0020995D01*
X0022803Y0020876D01*
X0022904Y0020754D01*
X0023001Y0020629D01*
X0023096Y0020502D01*
X0023187Y0020373D01*
X0023276Y0020242D01*
X0023360Y0020108D01*
X0023442Y0019972D01*
X0023520Y0019835D01*
X0023594Y0019695D01*
X0023665Y0019553D01*
X0023733Y0019410D01*
X0023797Y0019265D01*
X0023857Y0019119D01*
X0023913Y0018971D01*
X0023966Y0018822D01*
X0024015Y0018671D01*
X0024060Y0018519D01*
X0024101Y0018366D01*
X0024139Y0018213D01*
X0024172Y0018058D01*
X0024202Y0017902D01*
X0024228Y0017746D01*
X0024249Y0017589D01*
X0024267Y0017432D01*
X0024281Y0017274D01*
X0024291Y0017116D01*
X0024297Y0016958D01*
X0024299Y0016800D01*
X0024297Y0016642D01*
X0024291Y0016484D01*
X0024281Y0016326D01*
X0024267Y0016168D01*
X0024249Y0016011D01*
X0024228Y0015854D01*
X0024202Y0015698D01*
X0024172Y0015542D01*
X0024139Y0015387D01*
X0024101Y0015234D01*
X0024060Y0015081D01*
X0024015Y0014929D01*
X0023966Y0014778D01*
X0023913Y0014629D01*
X0023857Y0014481D01*
X0023797Y0014335D01*
X0023733Y0014190D01*
X0023665Y0014047D01*
X0023594Y0013905D01*
X0023520Y0013765D01*
X0023442Y0013628D01*
X0023360Y0013492D01*
X0023276Y0013358D01*
X0023187Y0013227D01*
X0023096Y0013098D01*
X0023001Y0012971D01*
X0022904Y0012846D01*
X0022803Y0012724D01*
X0022699Y0012605D01*
X0022592Y0012488D01*
X0022482Y0012374D01*
X0022369Y0012263D01*
X0022254Y0012154D01*
X0022136Y0012049D01*
X0022015Y0011947D01*
X0021892Y0011847D01*
X0021766Y0011751D01*
X0021638Y0011658D01*
X0021508Y0011568D01*
X0021375Y0011482D01*
X0021240Y0011398D01*
X0021104Y0011319D01*
X0020965Y0011242D01*
X0020824Y0011170D01*
X0020682Y0011100D01*
X0020538Y0011035D01*
X0020392Y0010973D01*
X0020245Y0010915D01*
X0020096Y0010860D01*
X0019946Y0010809D01*
X0019795Y0010762D01*
X0019643Y0010719D01*
X0019490Y0010680D01*
X0019335Y0010644D01*
X0019180Y0010613D01*
X0019024Y0010585D01*
X0018868Y0010561D01*
X0018711Y0010541D01*
X0018553Y0010525D01*
X0018396Y0010513D01*
X0018237Y0010505D01*
X0018079Y0010501D01*
X0017921Y0010501D01*
X0017763Y0010505D01*
X0017604Y0010513D01*
X0017447Y0010525D01*
X0017289Y0010541D01*
X0017132Y0010561D01*
X0016976Y0010585D01*
X0016820Y0010613D01*
X0016665Y0010644D01*
X0016510Y0010680D01*
X0016357Y0010719D01*
X0016205Y0010762D01*
X0016054Y0010809D01*
X0015904Y0010860D01*
X0015755Y0010915D01*
X0015608Y0010973D01*
X0015462Y0011035D01*
X0015318Y0011100D01*
X0015176Y0011170D01*
X0015035Y0011242D01*
X0014896Y0011319D01*
X0014760Y0011398D01*
X0014625Y0011482D01*
X0014492Y0011568D01*
X0014362Y0011658D01*
X0014234Y0011751D01*
X0014108Y0011847D01*
X0013985Y0011947D01*
X0013864Y0012049D01*
X0013746Y0012154D01*
X0013631Y0012263D01*
X0013518Y0012374D01*
X0013408Y0012488D01*
X0013301Y0012605D01*
X0013197Y0012724D01*
X0013096Y0012846D01*
X0012999Y0012971D01*
X0012904Y0013098D01*
X0012813Y0013227D01*
X0012724Y0013358D01*
X0012640Y0013492D01*
X0012558Y0013628D01*
X0012480Y0013765D01*
X0012406Y0013905D01*
X0012335Y0014047D01*
X0012267Y0014190D01*
X0012203Y0014335D01*
X0012143Y0014481D01*
X0012087Y0014629D01*
X0012034Y0014778D01*
X0011985Y0014929D01*
X0011940Y0015081D01*
X0011899Y0015234D01*
X0011861Y0015387D01*
X0011828Y0015542D01*
X0011798Y0015698D01*
X0011772Y0015854D01*
X0011751Y0016011D01*
X0011733Y0016168D01*
X0011719Y0016326D01*
X0011709Y0016484D01*
X0011703Y0016642D01*
X0011701Y0016800D01*
X0043670Y0150776D02*
X0043672Y0150934D01*
X0043678Y0151092D01*
X0043688Y0151250D01*
X0043702Y0151408D01*
X0043720Y0151565D01*
X0043741Y0151722D01*
X0043767Y0151878D01*
X0043797Y0152034D01*
X0043830Y0152189D01*
X0043868Y0152342D01*
X0043909Y0152495D01*
X0043954Y0152647D01*
X0044003Y0152798D01*
X0044056Y0152947D01*
X0044112Y0153095D01*
X0044172Y0153241D01*
X0044236Y0153386D01*
X0044304Y0153529D01*
X0044375Y0153671D01*
X0044449Y0153811D01*
X0044527Y0153948D01*
X0044609Y0154084D01*
X0044693Y0154218D01*
X0044782Y0154349D01*
X0044873Y0154478D01*
X0044968Y0154605D01*
X0045065Y0154730D01*
X0045166Y0154852D01*
X0045270Y0154971D01*
X0045377Y0155088D01*
X0045487Y0155202D01*
X0045600Y0155313D01*
X0045715Y0155422D01*
X0045833Y0155527D01*
X0045954Y0155629D01*
X0046077Y0155729D01*
X0046203Y0155825D01*
X0046331Y0155918D01*
X0046461Y0156008D01*
X0046594Y0156094D01*
X0046729Y0156178D01*
X0046865Y0156257D01*
X0047004Y0156334D01*
X0047145Y0156406D01*
X0047287Y0156476D01*
X0047431Y0156541D01*
X0047577Y0156603D01*
X0047724Y0156661D01*
X0047873Y0156716D01*
X0048023Y0156767D01*
X0048174Y0156814D01*
X0048326Y0156857D01*
X0048479Y0156896D01*
X0048634Y0156932D01*
X0048789Y0156963D01*
X0048945Y0156991D01*
X0049101Y0157015D01*
X0049258Y0157035D01*
X0049416Y0157051D01*
X0049573Y0157063D01*
X0049732Y0157071D01*
X0049890Y0157075D01*
X0050048Y0157075D01*
X0050206Y0157071D01*
X0050365Y0157063D01*
X0050522Y0157051D01*
X0050680Y0157035D01*
X0050837Y0157015D01*
X0050993Y0156991D01*
X0051149Y0156963D01*
X0051304Y0156932D01*
X0051459Y0156896D01*
X0051612Y0156857D01*
X0051764Y0156814D01*
X0051915Y0156767D01*
X0052065Y0156716D01*
X0052214Y0156661D01*
X0052361Y0156603D01*
X0052507Y0156541D01*
X0052651Y0156476D01*
X0052793Y0156406D01*
X0052934Y0156334D01*
X0053073Y0156257D01*
X0053209Y0156178D01*
X0053344Y0156094D01*
X0053477Y0156008D01*
X0053607Y0155918D01*
X0053735Y0155825D01*
X0053861Y0155729D01*
X0053984Y0155629D01*
X0054105Y0155527D01*
X0054223Y0155422D01*
X0054338Y0155313D01*
X0054451Y0155202D01*
X0054561Y0155088D01*
X0054668Y0154971D01*
X0054772Y0154852D01*
X0054873Y0154730D01*
X0054970Y0154605D01*
X0055065Y0154478D01*
X0055156Y0154349D01*
X0055245Y0154218D01*
X0055329Y0154084D01*
X0055411Y0153948D01*
X0055489Y0153811D01*
X0055563Y0153671D01*
X0055634Y0153529D01*
X0055702Y0153386D01*
X0055766Y0153241D01*
X0055826Y0153095D01*
X0055882Y0152947D01*
X0055935Y0152798D01*
X0055984Y0152647D01*
X0056029Y0152495D01*
X0056070Y0152342D01*
X0056108Y0152189D01*
X0056141Y0152034D01*
X0056171Y0151878D01*
X0056197Y0151722D01*
X0056218Y0151565D01*
X0056236Y0151408D01*
X0056250Y0151250D01*
X0056260Y0151092D01*
X0056266Y0150934D01*
X0056268Y0150776D01*
X0056266Y0150618D01*
X0056260Y0150460D01*
X0056250Y0150302D01*
X0056236Y0150144D01*
X0056218Y0149987D01*
X0056197Y0149830D01*
X0056171Y0149674D01*
X0056141Y0149518D01*
X0056108Y0149363D01*
X0056070Y0149210D01*
X0056029Y0149057D01*
X0055984Y0148905D01*
X0055935Y0148754D01*
X0055882Y0148605D01*
X0055826Y0148457D01*
X0055766Y0148311D01*
X0055702Y0148166D01*
X0055634Y0148023D01*
X0055563Y0147881D01*
X0055489Y0147741D01*
X0055411Y0147604D01*
X0055329Y0147468D01*
X0055245Y0147334D01*
X0055156Y0147203D01*
X0055065Y0147074D01*
X0054970Y0146947D01*
X0054873Y0146822D01*
X0054772Y0146700D01*
X0054668Y0146581D01*
X0054561Y0146464D01*
X0054451Y0146350D01*
X0054338Y0146239D01*
X0054223Y0146130D01*
X0054105Y0146025D01*
X0053984Y0145923D01*
X0053861Y0145823D01*
X0053735Y0145727D01*
X0053607Y0145634D01*
X0053477Y0145544D01*
X0053344Y0145458D01*
X0053209Y0145374D01*
X0053073Y0145295D01*
X0052934Y0145218D01*
X0052793Y0145146D01*
X0052651Y0145076D01*
X0052507Y0145011D01*
X0052361Y0144949D01*
X0052214Y0144891D01*
X0052065Y0144836D01*
X0051915Y0144785D01*
X0051764Y0144738D01*
X0051612Y0144695D01*
X0051459Y0144656D01*
X0051304Y0144620D01*
X0051149Y0144589D01*
X0050993Y0144561D01*
X0050837Y0144537D01*
X0050680Y0144517D01*
X0050522Y0144501D01*
X0050365Y0144489D01*
X0050206Y0144481D01*
X0050048Y0144477D01*
X0049890Y0144477D01*
X0049732Y0144481D01*
X0049573Y0144489D01*
X0049416Y0144501D01*
X0049258Y0144517D01*
X0049101Y0144537D01*
X0048945Y0144561D01*
X0048789Y0144589D01*
X0048634Y0144620D01*
X0048479Y0144656D01*
X0048326Y0144695D01*
X0048174Y0144738D01*
X0048023Y0144785D01*
X0047873Y0144836D01*
X0047724Y0144891D01*
X0047577Y0144949D01*
X0047431Y0145011D01*
X0047287Y0145076D01*
X0047145Y0145146D01*
X0047004Y0145218D01*
X0046865Y0145295D01*
X0046729Y0145374D01*
X0046594Y0145458D01*
X0046461Y0145544D01*
X0046331Y0145634D01*
X0046203Y0145727D01*
X0046077Y0145823D01*
X0045954Y0145923D01*
X0045833Y0146025D01*
X0045715Y0146130D01*
X0045600Y0146239D01*
X0045487Y0146350D01*
X0045377Y0146464D01*
X0045270Y0146581D01*
X0045166Y0146700D01*
X0045065Y0146822D01*
X0044968Y0146947D01*
X0044873Y0147074D01*
X0044782Y0147203D01*
X0044693Y0147334D01*
X0044609Y0147468D01*
X0044527Y0147604D01*
X0044449Y0147741D01*
X0044375Y0147881D01*
X0044304Y0148023D01*
X0044236Y0148166D01*
X0044172Y0148311D01*
X0044112Y0148457D01*
X0044056Y0148605D01*
X0044003Y0148754D01*
X0043954Y0148905D01*
X0043909Y0149057D01*
X0043868Y0149210D01*
X0043830Y0149363D01*
X0043797Y0149518D01*
X0043767Y0149674D01*
X0043741Y0149830D01*
X0043720Y0149987D01*
X0043702Y0150144D01*
X0043688Y0150302D01*
X0043678Y0150460D01*
X0043672Y0150618D01*
X0043670Y0150776D01*
X0064358Y0178589D02*
X0064355Y0178745D01*
X0103750Y0158300D02*
X0103752Y0158383D01*
X0103758Y0158466D01*
X0103768Y0158549D01*
X0103782Y0158631D01*
X0103799Y0158713D01*
X0103821Y0158793D01*
X0103846Y0158872D01*
X0103875Y0158950D01*
X0103908Y0159027D01*
X0103945Y0159102D01*
X0103984Y0159175D01*
X0104028Y0159246D01*
X0104074Y0159315D01*
X0104124Y0159382D01*
X0104177Y0159446D01*
X0104233Y0159508D01*
X0104292Y0159567D01*
X0104354Y0159623D01*
X0104418Y0159676D01*
X0104485Y0159726D01*
X0104554Y0159772D01*
X0104625Y0159816D01*
X0104698Y0159855D01*
X0104773Y0159892D01*
X0104850Y0159925D01*
X0104928Y0159954D01*
X0105007Y0159979D01*
X0105087Y0160001D01*
X0105169Y0160018D01*
X0105251Y0160032D01*
X0105334Y0160042D01*
X0105417Y0160048D01*
X0105500Y0160050D01*
X0105583Y0160048D01*
X0105666Y0160042D01*
X0105749Y0160032D01*
X0105831Y0160018D01*
X0105913Y0160001D01*
X0105993Y0159979D01*
X0106072Y0159954D01*
X0106150Y0159925D01*
X0106227Y0159892D01*
X0106302Y0159855D01*
X0106375Y0159816D01*
X0106446Y0159772D01*
X0106515Y0159726D01*
X0106582Y0159676D01*
X0106646Y0159623D01*
X0106708Y0159567D01*
X0106767Y0159508D01*
X0106823Y0159446D01*
X0106876Y0159382D01*
X0106926Y0159315D01*
X0106972Y0159246D01*
X0107016Y0159175D01*
X0107055Y0159102D01*
X0107092Y0159027D01*
X0107125Y0158950D01*
X0107154Y0158872D01*
X0107179Y0158793D01*
X0107201Y0158713D01*
X0107218Y0158631D01*
X0107232Y0158549D01*
X0107242Y0158466D01*
X0107248Y0158383D01*
X0107250Y0158300D01*
X0107248Y0158217D01*
X0107242Y0158134D01*
X0107232Y0158051D01*
X0107218Y0157969D01*
X0107201Y0157887D01*
X0107179Y0157807D01*
X0107154Y0157728D01*
X0107125Y0157650D01*
X0107092Y0157573D01*
X0107055Y0157498D01*
X0107016Y0157425D01*
X0106972Y0157354D01*
X0106926Y0157285D01*
X0106876Y0157218D01*
X0106823Y0157154D01*
X0106767Y0157092D01*
X0106708Y0157033D01*
X0106646Y0156977D01*
X0106582Y0156924D01*
X0106515Y0156874D01*
X0106446Y0156828D01*
X0106375Y0156784D01*
X0106302Y0156745D01*
X0106227Y0156708D01*
X0106150Y0156675D01*
X0106072Y0156646D01*
X0105993Y0156621D01*
X0105913Y0156599D01*
X0105831Y0156582D01*
X0105749Y0156568D01*
X0105666Y0156558D01*
X0105583Y0156552D01*
X0105500Y0156550D01*
X0105417Y0156552D01*
X0105334Y0156558D01*
X0105251Y0156568D01*
X0105169Y0156582D01*
X0105087Y0156599D01*
X0105007Y0156621D01*
X0104928Y0156646D01*
X0104850Y0156675D01*
X0104773Y0156708D01*
X0104698Y0156745D01*
X0104625Y0156784D01*
X0104554Y0156828D01*
X0104485Y0156874D01*
X0104418Y0156924D01*
X0104354Y0156977D01*
X0104292Y0157033D01*
X0104233Y0157092D01*
X0104177Y0157154D01*
X0104124Y0157218D01*
X0104074Y0157285D01*
X0104028Y0157354D01*
X0103984Y0157425D01*
X0103945Y0157498D01*
X0103908Y0157573D01*
X0103875Y0157650D01*
X0103846Y0157728D01*
X0103821Y0157807D01*
X0103799Y0157887D01*
X0103782Y0157969D01*
X0103768Y0158051D01*
X0103758Y0158134D01*
X0103752Y0158217D01*
X0103750Y0158300D01*
X0103750Y0150300D02*
X0103752Y0150383D01*
X0103758Y0150466D01*
X0103768Y0150549D01*
X0103782Y0150631D01*
X0103799Y0150713D01*
X0103821Y0150793D01*
X0103846Y0150872D01*
X0103875Y0150950D01*
X0103908Y0151027D01*
X0103945Y0151102D01*
X0103984Y0151175D01*
X0104028Y0151246D01*
X0104074Y0151315D01*
X0104124Y0151382D01*
X0104177Y0151446D01*
X0104233Y0151508D01*
X0104292Y0151567D01*
X0104354Y0151623D01*
X0104418Y0151676D01*
X0104485Y0151726D01*
X0104554Y0151772D01*
X0104625Y0151816D01*
X0104698Y0151855D01*
X0104773Y0151892D01*
X0104850Y0151925D01*
X0104928Y0151954D01*
X0105007Y0151979D01*
X0105087Y0152001D01*
X0105169Y0152018D01*
X0105251Y0152032D01*
X0105334Y0152042D01*
X0105417Y0152048D01*
X0105500Y0152050D01*
X0105583Y0152048D01*
X0105666Y0152042D01*
X0105749Y0152032D01*
X0105831Y0152018D01*
X0105913Y0152001D01*
X0105993Y0151979D01*
X0106072Y0151954D01*
X0106150Y0151925D01*
X0106227Y0151892D01*
X0106302Y0151855D01*
X0106375Y0151816D01*
X0106446Y0151772D01*
X0106515Y0151726D01*
X0106582Y0151676D01*
X0106646Y0151623D01*
X0106708Y0151567D01*
X0106767Y0151508D01*
X0106823Y0151446D01*
X0106876Y0151382D01*
X0106926Y0151315D01*
X0106972Y0151246D01*
X0107016Y0151175D01*
X0107055Y0151102D01*
X0107092Y0151027D01*
X0107125Y0150950D01*
X0107154Y0150872D01*
X0107179Y0150793D01*
X0107201Y0150713D01*
X0107218Y0150631D01*
X0107232Y0150549D01*
X0107242Y0150466D01*
X0107248Y0150383D01*
X0107250Y0150300D01*
X0107248Y0150217D01*
X0107242Y0150134D01*
X0107232Y0150051D01*
X0107218Y0149969D01*
X0107201Y0149887D01*
X0107179Y0149807D01*
X0107154Y0149728D01*
X0107125Y0149650D01*
X0107092Y0149573D01*
X0107055Y0149498D01*
X0107016Y0149425D01*
X0106972Y0149354D01*
X0106926Y0149285D01*
X0106876Y0149218D01*
X0106823Y0149154D01*
X0106767Y0149092D01*
X0106708Y0149033D01*
X0106646Y0148977D01*
X0106582Y0148924D01*
X0106515Y0148874D01*
X0106446Y0148828D01*
X0106375Y0148784D01*
X0106302Y0148745D01*
X0106227Y0148708D01*
X0106150Y0148675D01*
X0106072Y0148646D01*
X0105993Y0148621D01*
X0105913Y0148599D01*
X0105831Y0148582D01*
X0105749Y0148568D01*
X0105666Y0148558D01*
X0105583Y0148552D01*
X0105500Y0148550D01*
X0105417Y0148552D01*
X0105334Y0148558D01*
X0105251Y0148568D01*
X0105169Y0148582D01*
X0105087Y0148599D01*
X0105007Y0148621D01*
X0104928Y0148646D01*
X0104850Y0148675D01*
X0104773Y0148708D01*
X0104698Y0148745D01*
X0104625Y0148784D01*
X0104554Y0148828D01*
X0104485Y0148874D01*
X0104418Y0148924D01*
X0104354Y0148977D01*
X0104292Y0149033D01*
X0104233Y0149092D01*
X0104177Y0149154D01*
X0104124Y0149218D01*
X0104074Y0149285D01*
X0104028Y0149354D01*
X0103984Y0149425D01*
X0103945Y0149498D01*
X0103908Y0149573D01*
X0103875Y0149650D01*
X0103846Y0149728D01*
X0103821Y0149807D01*
X0103799Y0149887D01*
X0103782Y0149969D01*
X0103768Y0150051D01*
X0103758Y0150134D01*
X0103752Y0150217D01*
X0103750Y0150300D01*
X0123750Y0154300D02*
X0123752Y0154383D01*
X0123758Y0154466D01*
X0123768Y0154549D01*
X0123782Y0154631D01*
X0123799Y0154713D01*
X0123821Y0154793D01*
X0123846Y0154872D01*
X0123875Y0154950D01*
X0123908Y0155027D01*
X0123945Y0155102D01*
X0123984Y0155175D01*
X0124028Y0155246D01*
X0124074Y0155315D01*
X0124124Y0155382D01*
X0124177Y0155446D01*
X0124233Y0155508D01*
X0124292Y0155567D01*
X0124354Y0155623D01*
X0124418Y0155676D01*
X0124485Y0155726D01*
X0124554Y0155772D01*
X0124625Y0155816D01*
X0124698Y0155855D01*
X0124773Y0155892D01*
X0124850Y0155925D01*
X0124928Y0155954D01*
X0125007Y0155979D01*
X0125087Y0156001D01*
X0125169Y0156018D01*
X0125251Y0156032D01*
X0125334Y0156042D01*
X0125417Y0156048D01*
X0125500Y0156050D01*
X0125583Y0156048D01*
X0125666Y0156042D01*
X0125749Y0156032D01*
X0125831Y0156018D01*
X0125913Y0156001D01*
X0125993Y0155979D01*
X0126072Y0155954D01*
X0126150Y0155925D01*
X0126227Y0155892D01*
X0126302Y0155855D01*
X0126375Y0155816D01*
X0126446Y0155772D01*
X0126515Y0155726D01*
X0126582Y0155676D01*
X0126646Y0155623D01*
X0126708Y0155567D01*
X0126767Y0155508D01*
X0126823Y0155446D01*
X0126876Y0155382D01*
X0126926Y0155315D01*
X0126972Y0155246D01*
X0127016Y0155175D01*
X0127055Y0155102D01*
X0127092Y0155027D01*
X0127125Y0154950D01*
X0127154Y0154872D01*
X0127179Y0154793D01*
X0127201Y0154713D01*
X0127218Y0154631D01*
X0127232Y0154549D01*
X0127242Y0154466D01*
X0127248Y0154383D01*
X0127250Y0154300D01*
X0127248Y0154217D01*
X0127242Y0154134D01*
X0127232Y0154051D01*
X0127218Y0153969D01*
X0127201Y0153887D01*
X0127179Y0153807D01*
X0127154Y0153728D01*
X0127125Y0153650D01*
X0127092Y0153573D01*
X0127055Y0153498D01*
X0127016Y0153425D01*
X0126972Y0153354D01*
X0126926Y0153285D01*
X0126876Y0153218D01*
X0126823Y0153154D01*
X0126767Y0153092D01*
X0126708Y0153033D01*
X0126646Y0152977D01*
X0126582Y0152924D01*
X0126515Y0152874D01*
X0126446Y0152828D01*
X0126375Y0152784D01*
X0126302Y0152745D01*
X0126227Y0152708D01*
X0126150Y0152675D01*
X0126072Y0152646D01*
X0125993Y0152621D01*
X0125913Y0152599D01*
X0125831Y0152582D01*
X0125749Y0152568D01*
X0125666Y0152558D01*
X0125583Y0152552D01*
X0125500Y0152550D01*
X0125417Y0152552D01*
X0125334Y0152558D01*
X0125251Y0152568D01*
X0125169Y0152582D01*
X0125087Y0152599D01*
X0125007Y0152621D01*
X0124928Y0152646D01*
X0124850Y0152675D01*
X0124773Y0152708D01*
X0124698Y0152745D01*
X0124625Y0152784D01*
X0124554Y0152828D01*
X0124485Y0152874D01*
X0124418Y0152924D01*
X0124354Y0152977D01*
X0124292Y0153033D01*
X0124233Y0153092D01*
X0124177Y0153154D01*
X0124124Y0153218D01*
X0124074Y0153285D01*
X0124028Y0153354D01*
X0123984Y0153425D01*
X0123945Y0153498D01*
X0123908Y0153573D01*
X0123875Y0153650D01*
X0123846Y0153728D01*
X0123821Y0153807D01*
X0123799Y0153887D01*
X0123782Y0153969D01*
X0123768Y0154051D01*
X0123758Y0154134D01*
X0123752Y0154217D01*
X0123750Y0154300D01*
X0043670Y0272824D02*
X0043672Y0272982D01*
X0043678Y0273140D01*
X0043688Y0273298D01*
X0043702Y0273456D01*
X0043720Y0273613D01*
X0043741Y0273770D01*
X0043767Y0273926D01*
X0043797Y0274082D01*
X0043830Y0274237D01*
X0043868Y0274390D01*
X0043909Y0274543D01*
X0043954Y0274695D01*
X0044003Y0274846D01*
X0044056Y0274995D01*
X0044112Y0275143D01*
X0044172Y0275289D01*
X0044236Y0275434D01*
X0044304Y0275577D01*
X0044375Y0275719D01*
X0044449Y0275859D01*
X0044527Y0275996D01*
X0044609Y0276132D01*
X0044693Y0276266D01*
X0044782Y0276397D01*
X0044873Y0276526D01*
X0044968Y0276653D01*
X0045065Y0276778D01*
X0045166Y0276900D01*
X0045270Y0277019D01*
X0045377Y0277136D01*
X0045487Y0277250D01*
X0045600Y0277361D01*
X0045715Y0277470D01*
X0045833Y0277575D01*
X0045954Y0277677D01*
X0046077Y0277777D01*
X0046203Y0277873D01*
X0046331Y0277966D01*
X0046461Y0278056D01*
X0046594Y0278142D01*
X0046729Y0278226D01*
X0046865Y0278305D01*
X0047004Y0278382D01*
X0047145Y0278454D01*
X0047287Y0278524D01*
X0047431Y0278589D01*
X0047577Y0278651D01*
X0047724Y0278709D01*
X0047873Y0278764D01*
X0048023Y0278815D01*
X0048174Y0278862D01*
X0048326Y0278905D01*
X0048479Y0278944D01*
X0048634Y0278980D01*
X0048789Y0279011D01*
X0048945Y0279039D01*
X0049101Y0279063D01*
X0049258Y0279083D01*
X0049416Y0279099D01*
X0049573Y0279111D01*
X0049732Y0279119D01*
X0049890Y0279123D01*
X0050048Y0279123D01*
X0050206Y0279119D01*
X0050365Y0279111D01*
X0050522Y0279099D01*
X0050680Y0279083D01*
X0050837Y0279063D01*
X0050993Y0279039D01*
X0051149Y0279011D01*
X0051304Y0278980D01*
X0051459Y0278944D01*
X0051612Y0278905D01*
X0051764Y0278862D01*
X0051915Y0278815D01*
X0052065Y0278764D01*
X0052214Y0278709D01*
X0052361Y0278651D01*
X0052507Y0278589D01*
X0052651Y0278524D01*
X0052793Y0278454D01*
X0052934Y0278382D01*
X0053073Y0278305D01*
X0053209Y0278226D01*
X0053344Y0278142D01*
X0053477Y0278056D01*
X0053607Y0277966D01*
X0053735Y0277873D01*
X0053861Y0277777D01*
X0053984Y0277677D01*
X0054105Y0277575D01*
X0054223Y0277470D01*
X0054338Y0277361D01*
X0054451Y0277250D01*
X0054561Y0277136D01*
X0054668Y0277019D01*
X0054772Y0276900D01*
X0054873Y0276778D01*
X0054970Y0276653D01*
X0055065Y0276526D01*
X0055156Y0276397D01*
X0055245Y0276266D01*
X0055329Y0276132D01*
X0055411Y0275996D01*
X0055489Y0275859D01*
X0055563Y0275719D01*
X0055634Y0275577D01*
X0055702Y0275434D01*
X0055766Y0275289D01*
X0055826Y0275143D01*
X0055882Y0274995D01*
X0055935Y0274846D01*
X0055984Y0274695D01*
X0056029Y0274543D01*
X0056070Y0274390D01*
X0056108Y0274237D01*
X0056141Y0274082D01*
X0056171Y0273926D01*
X0056197Y0273770D01*
X0056218Y0273613D01*
X0056236Y0273456D01*
X0056250Y0273298D01*
X0056260Y0273140D01*
X0056266Y0272982D01*
X0056268Y0272824D01*
X0056266Y0272666D01*
X0056260Y0272508D01*
X0056250Y0272350D01*
X0056236Y0272192D01*
X0056218Y0272035D01*
X0056197Y0271878D01*
X0056171Y0271722D01*
X0056141Y0271566D01*
X0056108Y0271411D01*
X0056070Y0271258D01*
X0056029Y0271105D01*
X0055984Y0270953D01*
X0055935Y0270802D01*
X0055882Y0270653D01*
X0055826Y0270505D01*
X0055766Y0270359D01*
X0055702Y0270214D01*
X0055634Y0270071D01*
X0055563Y0269929D01*
X0055489Y0269789D01*
X0055411Y0269652D01*
X0055329Y0269516D01*
X0055245Y0269382D01*
X0055156Y0269251D01*
X0055065Y0269122D01*
X0054970Y0268995D01*
X0054873Y0268870D01*
X0054772Y0268748D01*
X0054668Y0268629D01*
X0054561Y0268512D01*
X0054451Y0268398D01*
X0054338Y0268287D01*
X0054223Y0268178D01*
X0054105Y0268073D01*
X0053984Y0267971D01*
X0053861Y0267871D01*
X0053735Y0267775D01*
X0053607Y0267682D01*
X0053477Y0267592D01*
X0053344Y0267506D01*
X0053209Y0267422D01*
X0053073Y0267343D01*
X0052934Y0267266D01*
X0052793Y0267194D01*
X0052651Y0267124D01*
X0052507Y0267059D01*
X0052361Y0266997D01*
X0052214Y0266939D01*
X0052065Y0266884D01*
X0051915Y0266833D01*
X0051764Y0266786D01*
X0051612Y0266743D01*
X0051459Y0266704D01*
X0051304Y0266668D01*
X0051149Y0266637D01*
X0050993Y0266609D01*
X0050837Y0266585D01*
X0050680Y0266565D01*
X0050522Y0266549D01*
X0050365Y0266537D01*
X0050206Y0266529D01*
X0050048Y0266525D01*
X0049890Y0266525D01*
X0049732Y0266529D01*
X0049573Y0266537D01*
X0049416Y0266549D01*
X0049258Y0266565D01*
X0049101Y0266585D01*
X0048945Y0266609D01*
X0048789Y0266637D01*
X0048634Y0266668D01*
X0048479Y0266704D01*
X0048326Y0266743D01*
X0048174Y0266786D01*
X0048023Y0266833D01*
X0047873Y0266884D01*
X0047724Y0266939D01*
X0047577Y0266997D01*
X0047431Y0267059D01*
X0047287Y0267124D01*
X0047145Y0267194D01*
X0047004Y0267266D01*
X0046865Y0267343D01*
X0046729Y0267422D01*
X0046594Y0267506D01*
X0046461Y0267592D01*
X0046331Y0267682D01*
X0046203Y0267775D01*
X0046077Y0267871D01*
X0045954Y0267971D01*
X0045833Y0268073D01*
X0045715Y0268178D01*
X0045600Y0268287D01*
X0045487Y0268398D01*
X0045377Y0268512D01*
X0045270Y0268629D01*
X0045166Y0268748D01*
X0045065Y0268870D01*
X0044968Y0268995D01*
X0044873Y0269122D01*
X0044782Y0269251D01*
X0044693Y0269382D01*
X0044609Y0269516D01*
X0044527Y0269652D01*
X0044449Y0269789D01*
X0044375Y0269929D01*
X0044304Y0270071D01*
X0044236Y0270214D01*
X0044172Y0270359D01*
X0044112Y0270505D01*
X0044056Y0270653D01*
X0044003Y0270802D01*
X0043954Y0270953D01*
X0043909Y0271105D01*
X0043868Y0271258D01*
X0043830Y0271411D01*
X0043797Y0271566D01*
X0043767Y0271722D01*
X0043741Y0271878D01*
X0043720Y0272035D01*
X0043702Y0272192D01*
X0043688Y0272350D01*
X0043678Y0272508D01*
X0043672Y0272666D01*
X0043670Y0272824D01*
X0011701Y0276800D02*
X0011703Y0276958D01*
X0011709Y0277116D01*
X0011719Y0277274D01*
X0011733Y0277432D01*
X0011751Y0277589D01*
X0011772Y0277746D01*
X0011798Y0277902D01*
X0011828Y0278058D01*
X0011861Y0278213D01*
X0011899Y0278366D01*
X0011940Y0278519D01*
X0011985Y0278671D01*
X0012034Y0278822D01*
X0012087Y0278971D01*
X0012143Y0279119D01*
X0012203Y0279265D01*
X0012267Y0279410D01*
X0012335Y0279553D01*
X0012406Y0279695D01*
X0012480Y0279835D01*
X0012558Y0279972D01*
X0012640Y0280108D01*
X0012724Y0280242D01*
X0012813Y0280373D01*
X0012904Y0280502D01*
X0012999Y0280629D01*
X0013096Y0280754D01*
X0013197Y0280876D01*
X0013301Y0280995D01*
X0013408Y0281112D01*
X0013518Y0281226D01*
X0013631Y0281337D01*
X0013746Y0281446D01*
X0013864Y0281551D01*
X0013985Y0281653D01*
X0014108Y0281753D01*
X0014234Y0281849D01*
X0014362Y0281942D01*
X0014492Y0282032D01*
X0014625Y0282118D01*
X0014760Y0282202D01*
X0014896Y0282281D01*
X0015035Y0282358D01*
X0015176Y0282430D01*
X0015318Y0282500D01*
X0015462Y0282565D01*
X0015608Y0282627D01*
X0015755Y0282685D01*
X0015904Y0282740D01*
X0016054Y0282791D01*
X0016205Y0282838D01*
X0016357Y0282881D01*
X0016510Y0282920D01*
X0016665Y0282956D01*
X0016820Y0282987D01*
X0016976Y0283015D01*
X0017132Y0283039D01*
X0017289Y0283059D01*
X0017447Y0283075D01*
X0017604Y0283087D01*
X0017763Y0283095D01*
X0017921Y0283099D01*
X0018079Y0283099D01*
X0018237Y0283095D01*
X0018396Y0283087D01*
X0018553Y0283075D01*
X0018711Y0283059D01*
X0018868Y0283039D01*
X0019024Y0283015D01*
X0019180Y0282987D01*
X0019335Y0282956D01*
X0019490Y0282920D01*
X0019643Y0282881D01*
X0019795Y0282838D01*
X0019946Y0282791D01*
X0020096Y0282740D01*
X0020245Y0282685D01*
X0020392Y0282627D01*
X0020538Y0282565D01*
X0020682Y0282500D01*
X0020824Y0282430D01*
X0020965Y0282358D01*
X0021104Y0282281D01*
X0021240Y0282202D01*
X0021375Y0282118D01*
X0021508Y0282032D01*
X0021638Y0281942D01*
X0021766Y0281849D01*
X0021892Y0281753D01*
X0022015Y0281653D01*
X0022136Y0281551D01*
X0022254Y0281446D01*
X0022369Y0281337D01*
X0022482Y0281226D01*
X0022592Y0281112D01*
X0022699Y0280995D01*
X0022803Y0280876D01*
X0022904Y0280754D01*
X0023001Y0280629D01*
X0023096Y0280502D01*
X0023187Y0280373D01*
X0023276Y0280242D01*
X0023360Y0280108D01*
X0023442Y0279972D01*
X0023520Y0279835D01*
X0023594Y0279695D01*
X0023665Y0279553D01*
X0023733Y0279410D01*
X0023797Y0279265D01*
X0023857Y0279119D01*
X0023913Y0278971D01*
X0023966Y0278822D01*
X0024015Y0278671D01*
X0024060Y0278519D01*
X0024101Y0278366D01*
X0024139Y0278213D01*
X0024172Y0278058D01*
X0024202Y0277902D01*
X0024228Y0277746D01*
X0024249Y0277589D01*
X0024267Y0277432D01*
X0024281Y0277274D01*
X0024291Y0277116D01*
X0024297Y0276958D01*
X0024299Y0276800D01*
X0024297Y0276642D01*
X0024291Y0276484D01*
X0024281Y0276326D01*
X0024267Y0276168D01*
X0024249Y0276011D01*
X0024228Y0275854D01*
X0024202Y0275698D01*
X0024172Y0275542D01*
X0024139Y0275387D01*
X0024101Y0275234D01*
X0024060Y0275081D01*
X0024015Y0274929D01*
X0023966Y0274778D01*
X0023913Y0274629D01*
X0023857Y0274481D01*
X0023797Y0274335D01*
X0023733Y0274190D01*
X0023665Y0274047D01*
X0023594Y0273905D01*
X0023520Y0273765D01*
X0023442Y0273628D01*
X0023360Y0273492D01*
X0023276Y0273358D01*
X0023187Y0273227D01*
X0023096Y0273098D01*
X0023001Y0272971D01*
X0022904Y0272846D01*
X0022803Y0272724D01*
X0022699Y0272605D01*
X0022592Y0272488D01*
X0022482Y0272374D01*
X0022369Y0272263D01*
X0022254Y0272154D01*
X0022136Y0272049D01*
X0022015Y0271947D01*
X0021892Y0271847D01*
X0021766Y0271751D01*
X0021638Y0271658D01*
X0021508Y0271568D01*
X0021375Y0271482D01*
X0021240Y0271398D01*
X0021104Y0271319D01*
X0020965Y0271242D01*
X0020824Y0271170D01*
X0020682Y0271100D01*
X0020538Y0271035D01*
X0020392Y0270973D01*
X0020245Y0270915D01*
X0020096Y0270860D01*
X0019946Y0270809D01*
X0019795Y0270762D01*
X0019643Y0270719D01*
X0019490Y0270680D01*
X0019335Y0270644D01*
X0019180Y0270613D01*
X0019024Y0270585D01*
X0018868Y0270561D01*
X0018711Y0270541D01*
X0018553Y0270525D01*
X0018396Y0270513D01*
X0018237Y0270505D01*
X0018079Y0270501D01*
X0017921Y0270501D01*
X0017763Y0270505D01*
X0017604Y0270513D01*
X0017447Y0270525D01*
X0017289Y0270541D01*
X0017132Y0270561D01*
X0016976Y0270585D01*
X0016820Y0270613D01*
X0016665Y0270644D01*
X0016510Y0270680D01*
X0016357Y0270719D01*
X0016205Y0270762D01*
X0016054Y0270809D01*
X0015904Y0270860D01*
X0015755Y0270915D01*
X0015608Y0270973D01*
X0015462Y0271035D01*
X0015318Y0271100D01*
X0015176Y0271170D01*
X0015035Y0271242D01*
X0014896Y0271319D01*
X0014760Y0271398D01*
X0014625Y0271482D01*
X0014492Y0271568D01*
X0014362Y0271658D01*
X0014234Y0271751D01*
X0014108Y0271847D01*
X0013985Y0271947D01*
X0013864Y0272049D01*
X0013746Y0272154D01*
X0013631Y0272263D01*
X0013518Y0272374D01*
X0013408Y0272488D01*
X0013301Y0272605D01*
X0013197Y0272724D01*
X0013096Y0272846D01*
X0012999Y0272971D01*
X0012904Y0273098D01*
X0012813Y0273227D01*
X0012724Y0273358D01*
X0012640Y0273492D01*
X0012558Y0273628D01*
X0012480Y0273765D01*
X0012406Y0273905D01*
X0012335Y0274047D01*
X0012267Y0274190D01*
X0012203Y0274335D01*
X0012143Y0274481D01*
X0012087Y0274629D01*
X0012034Y0274778D01*
X0011985Y0274929D01*
X0011940Y0275081D01*
X0011899Y0275234D01*
X0011861Y0275387D01*
X0011828Y0275542D01*
X0011798Y0275698D01*
X0011772Y0275854D01*
X0011751Y0276011D01*
X0011733Y0276168D01*
X0011719Y0276326D01*
X0011709Y0276484D01*
X0011703Y0276642D01*
X0011701Y0276800D01*
X0339732Y0272824D02*
X0339734Y0272982D01*
X0339740Y0273140D01*
X0339750Y0273298D01*
X0339764Y0273456D01*
X0339782Y0273613D01*
X0339803Y0273770D01*
X0339829Y0273926D01*
X0339859Y0274082D01*
X0339892Y0274237D01*
X0339930Y0274390D01*
X0339971Y0274543D01*
X0340016Y0274695D01*
X0340065Y0274846D01*
X0340118Y0274995D01*
X0340174Y0275143D01*
X0340234Y0275289D01*
X0340298Y0275434D01*
X0340366Y0275577D01*
X0340437Y0275719D01*
X0340511Y0275859D01*
X0340589Y0275996D01*
X0340671Y0276132D01*
X0340755Y0276266D01*
X0340844Y0276397D01*
X0340935Y0276526D01*
X0341030Y0276653D01*
X0341127Y0276778D01*
X0341228Y0276900D01*
X0341332Y0277019D01*
X0341439Y0277136D01*
X0341549Y0277250D01*
X0341662Y0277361D01*
X0341777Y0277470D01*
X0341895Y0277575D01*
X0342016Y0277677D01*
X0342139Y0277777D01*
X0342265Y0277873D01*
X0342393Y0277966D01*
X0342523Y0278056D01*
X0342656Y0278142D01*
X0342791Y0278226D01*
X0342927Y0278305D01*
X0343066Y0278382D01*
X0343207Y0278454D01*
X0343349Y0278524D01*
X0343493Y0278589D01*
X0343639Y0278651D01*
X0343786Y0278709D01*
X0343935Y0278764D01*
X0344085Y0278815D01*
X0344236Y0278862D01*
X0344388Y0278905D01*
X0344541Y0278944D01*
X0344696Y0278980D01*
X0344851Y0279011D01*
X0345007Y0279039D01*
X0345163Y0279063D01*
X0345320Y0279083D01*
X0345478Y0279099D01*
X0345635Y0279111D01*
X0345794Y0279119D01*
X0345952Y0279123D01*
X0346110Y0279123D01*
X0346268Y0279119D01*
X0346427Y0279111D01*
X0346584Y0279099D01*
X0346742Y0279083D01*
X0346899Y0279063D01*
X0347055Y0279039D01*
X0347211Y0279011D01*
X0347366Y0278980D01*
X0347521Y0278944D01*
X0347674Y0278905D01*
X0347826Y0278862D01*
X0347977Y0278815D01*
X0348127Y0278764D01*
X0348276Y0278709D01*
X0348423Y0278651D01*
X0348569Y0278589D01*
X0348713Y0278524D01*
X0348855Y0278454D01*
X0348996Y0278382D01*
X0349135Y0278305D01*
X0349271Y0278226D01*
X0349406Y0278142D01*
X0349539Y0278056D01*
X0349669Y0277966D01*
X0349797Y0277873D01*
X0349923Y0277777D01*
X0350046Y0277677D01*
X0350167Y0277575D01*
X0350285Y0277470D01*
X0350400Y0277361D01*
X0350513Y0277250D01*
X0350623Y0277136D01*
X0350730Y0277019D01*
X0350834Y0276900D01*
X0350935Y0276778D01*
X0351032Y0276653D01*
X0351127Y0276526D01*
X0351218Y0276397D01*
X0351307Y0276266D01*
X0351391Y0276132D01*
X0351473Y0275996D01*
X0351551Y0275859D01*
X0351625Y0275719D01*
X0351696Y0275577D01*
X0351764Y0275434D01*
X0351828Y0275289D01*
X0351888Y0275143D01*
X0351944Y0274995D01*
X0351997Y0274846D01*
X0352046Y0274695D01*
X0352091Y0274543D01*
X0352132Y0274390D01*
X0352170Y0274237D01*
X0352203Y0274082D01*
X0352233Y0273926D01*
X0352259Y0273770D01*
X0352280Y0273613D01*
X0352298Y0273456D01*
X0352312Y0273298D01*
X0352322Y0273140D01*
X0352328Y0272982D01*
X0352330Y0272824D01*
X0352328Y0272666D01*
X0352322Y0272508D01*
X0352312Y0272350D01*
X0352298Y0272192D01*
X0352280Y0272035D01*
X0352259Y0271878D01*
X0352233Y0271722D01*
X0352203Y0271566D01*
X0352170Y0271411D01*
X0352132Y0271258D01*
X0352091Y0271105D01*
X0352046Y0270953D01*
X0351997Y0270802D01*
X0351944Y0270653D01*
X0351888Y0270505D01*
X0351828Y0270359D01*
X0351764Y0270214D01*
X0351696Y0270071D01*
X0351625Y0269929D01*
X0351551Y0269789D01*
X0351473Y0269652D01*
X0351391Y0269516D01*
X0351307Y0269382D01*
X0351218Y0269251D01*
X0351127Y0269122D01*
X0351032Y0268995D01*
X0350935Y0268870D01*
X0350834Y0268748D01*
X0350730Y0268629D01*
X0350623Y0268512D01*
X0350513Y0268398D01*
X0350400Y0268287D01*
X0350285Y0268178D01*
X0350167Y0268073D01*
X0350046Y0267971D01*
X0349923Y0267871D01*
X0349797Y0267775D01*
X0349669Y0267682D01*
X0349539Y0267592D01*
X0349406Y0267506D01*
X0349271Y0267422D01*
X0349135Y0267343D01*
X0348996Y0267266D01*
X0348855Y0267194D01*
X0348713Y0267124D01*
X0348569Y0267059D01*
X0348423Y0266997D01*
X0348276Y0266939D01*
X0348127Y0266884D01*
X0347977Y0266833D01*
X0347826Y0266786D01*
X0347674Y0266743D01*
X0347521Y0266704D01*
X0347366Y0266668D01*
X0347211Y0266637D01*
X0347055Y0266609D01*
X0346899Y0266585D01*
X0346742Y0266565D01*
X0346584Y0266549D01*
X0346427Y0266537D01*
X0346268Y0266529D01*
X0346110Y0266525D01*
X0345952Y0266525D01*
X0345794Y0266529D01*
X0345635Y0266537D01*
X0345478Y0266549D01*
X0345320Y0266565D01*
X0345163Y0266585D01*
X0345007Y0266609D01*
X0344851Y0266637D01*
X0344696Y0266668D01*
X0344541Y0266704D01*
X0344388Y0266743D01*
X0344236Y0266786D01*
X0344085Y0266833D01*
X0343935Y0266884D01*
X0343786Y0266939D01*
X0343639Y0266997D01*
X0343493Y0267059D01*
X0343349Y0267124D01*
X0343207Y0267194D01*
X0343066Y0267266D01*
X0342927Y0267343D01*
X0342791Y0267422D01*
X0342656Y0267506D01*
X0342523Y0267592D01*
X0342393Y0267682D01*
X0342265Y0267775D01*
X0342139Y0267871D01*
X0342016Y0267971D01*
X0341895Y0268073D01*
X0341777Y0268178D01*
X0341662Y0268287D01*
X0341549Y0268398D01*
X0341439Y0268512D01*
X0341332Y0268629D01*
X0341228Y0268748D01*
X0341127Y0268870D01*
X0341030Y0268995D01*
X0340935Y0269122D01*
X0340844Y0269251D01*
X0340755Y0269382D01*
X0340671Y0269516D01*
X0340589Y0269652D01*
X0340511Y0269789D01*
X0340437Y0269929D01*
X0340366Y0270071D01*
X0340298Y0270214D01*
X0340234Y0270359D01*
X0340174Y0270505D01*
X0340118Y0270653D01*
X0340065Y0270802D01*
X0340016Y0270953D01*
X0339971Y0271105D01*
X0339930Y0271258D01*
X0339892Y0271411D01*
X0339859Y0271566D01*
X0339829Y0271722D01*
X0339803Y0271878D01*
X0339782Y0272035D01*
X0339764Y0272192D01*
X0339750Y0272350D01*
X0339740Y0272508D01*
X0339734Y0272666D01*
X0339732Y0272824D01*
X0368354Y0255422D02*
X0368356Y0255558D01*
X0368362Y0255693D01*
X0368372Y0255829D01*
X0368386Y0255964D01*
X0368404Y0256098D01*
X0368425Y0256232D01*
X0368451Y0256366D01*
X0368480Y0256498D01*
X0368514Y0256630D01*
X0368551Y0256761D01*
X0368592Y0256890D01*
X0368637Y0257018D01*
X0368685Y0257145D01*
X0368737Y0257270D01*
X0368793Y0257394D01*
X0368853Y0257516D01*
X0368916Y0257636D01*
X0368982Y0257755D01*
X0369052Y0257871D01*
X0369125Y0257986D01*
X0369202Y0258098D01*
X0369282Y0258207D01*
X0369365Y0258315D01*
X0369451Y0258420D01*
X0369540Y0258522D01*
X0369632Y0258622D01*
X0369727Y0258719D01*
X0369825Y0258813D01*
X0369925Y0258905D01*
X0370028Y0258993D01*
X0370134Y0259078D01*
X0370242Y0259161D01*
X0370352Y0259240D01*
X0370465Y0259315D01*
X0370580Y0259388D01*
X0370697Y0259457D01*
X0370816Y0259522D01*
X0370936Y0259584D01*
X0371059Y0259643D01*
X0371183Y0259698D01*
X0371309Y0259749D01*
X0371436Y0259797D01*
X0371564Y0259841D01*
X0371694Y0259881D01*
X0371825Y0259917D01*
X0371957Y0259949D01*
X0372089Y0259978D01*
X0372223Y0260003D01*
X0372357Y0260023D01*
X0372492Y0260040D01*
X0372627Y0260053D01*
X0372762Y0260062D01*
X0372898Y0260067D01*
X0373034Y0260068D01*
X0373170Y0260065D01*
X0373305Y0260058D01*
X0373441Y0260047D01*
X0373576Y0260032D01*
X0373710Y0260013D01*
X0373844Y0259991D01*
X0373977Y0259964D01*
X0374109Y0259934D01*
X0374241Y0259899D01*
X0374371Y0259861D01*
X0374500Y0259819D01*
X0374628Y0259773D01*
X0374754Y0259724D01*
X0374879Y0259671D01*
X0375003Y0259614D01*
X0375124Y0259554D01*
X0375244Y0259490D01*
X0375362Y0259423D01*
X0375478Y0259352D01*
X0375592Y0259278D01*
X0375703Y0259201D01*
X0375813Y0259120D01*
X0375919Y0259036D01*
X0376024Y0258949D01*
X0376126Y0258859D01*
X0376225Y0258767D01*
X0376321Y0258671D01*
X0376415Y0258573D01*
X0376505Y0258471D01*
X0376593Y0258368D01*
X0376677Y0258262D01*
X0376759Y0258153D01*
X0376837Y0258042D01*
X0376912Y0257929D01*
X0376983Y0257813D01*
X0377052Y0257696D01*
X0377116Y0257576D01*
X0377177Y0257455D01*
X0377235Y0257332D01*
X0377289Y0257208D01*
X0377339Y0257082D01*
X0377386Y0256954D01*
X0377429Y0256825D01*
X0377468Y0256695D01*
X0377503Y0256564D01*
X0377535Y0256432D01*
X0377562Y0256299D01*
X0377586Y0256166D01*
X0377606Y0256031D01*
X0377622Y0255896D01*
X0377634Y0255761D01*
X0377642Y0255626D01*
X0377646Y0255490D01*
X0377646Y0255354D01*
X0377642Y0255218D01*
X0377634Y0255083D01*
X0377622Y0254948D01*
X0377606Y0254813D01*
X0377586Y0254678D01*
X0377562Y0254545D01*
X0377535Y0254412D01*
X0377503Y0254280D01*
X0377468Y0254149D01*
X0377429Y0254019D01*
X0377386Y0253890D01*
X0377339Y0253762D01*
X0377289Y0253636D01*
X0377235Y0253512D01*
X0377177Y0253389D01*
X0377116Y0253268D01*
X0377052Y0253148D01*
X0376983Y0253031D01*
X0376912Y0252915D01*
X0376837Y0252802D01*
X0376759Y0252691D01*
X0376677Y0252582D01*
X0376593Y0252476D01*
X0376505Y0252373D01*
X0376415Y0252271D01*
X0376321Y0252173D01*
X0376225Y0252077D01*
X0376126Y0251985D01*
X0376024Y0251895D01*
X0375919Y0251808D01*
X0375813Y0251724D01*
X0375703Y0251643D01*
X0375592Y0251566D01*
X0375478Y0251492D01*
X0375362Y0251421D01*
X0375244Y0251354D01*
X0375124Y0251290D01*
X0375003Y0251230D01*
X0374879Y0251173D01*
X0374754Y0251120D01*
X0374628Y0251071D01*
X0374500Y0251025D01*
X0374371Y0250983D01*
X0374241Y0250945D01*
X0374109Y0250910D01*
X0373977Y0250880D01*
X0373844Y0250853D01*
X0373710Y0250831D01*
X0373576Y0250812D01*
X0373441Y0250797D01*
X0373305Y0250786D01*
X0373170Y0250779D01*
X0373034Y0250776D01*
X0372898Y0250777D01*
X0372762Y0250782D01*
X0372627Y0250791D01*
X0372492Y0250804D01*
X0372357Y0250821D01*
X0372223Y0250841D01*
X0372089Y0250866D01*
X0371957Y0250895D01*
X0371825Y0250927D01*
X0371694Y0250963D01*
X0371564Y0251003D01*
X0371436Y0251047D01*
X0371309Y0251095D01*
X0371183Y0251146D01*
X0371059Y0251201D01*
X0370936Y0251260D01*
X0370816Y0251322D01*
X0370697Y0251387D01*
X0370580Y0251456D01*
X0370465Y0251529D01*
X0370352Y0251604D01*
X0370242Y0251683D01*
X0370134Y0251766D01*
X0370028Y0251851D01*
X0369925Y0251939D01*
X0369825Y0252031D01*
X0369727Y0252125D01*
X0369632Y0252222D01*
X0369540Y0252322D01*
X0369451Y0252424D01*
X0369365Y0252529D01*
X0369282Y0252637D01*
X0369202Y0252746D01*
X0369125Y0252858D01*
X0369052Y0252973D01*
X0368982Y0253089D01*
X0368916Y0253208D01*
X0368853Y0253328D01*
X0368793Y0253450D01*
X0368737Y0253574D01*
X0368685Y0253699D01*
X0368637Y0253826D01*
X0368592Y0253954D01*
X0368551Y0254083D01*
X0368514Y0254214D01*
X0368480Y0254346D01*
X0368451Y0254478D01*
X0368425Y0254612D01*
X0368404Y0254746D01*
X0368386Y0254880D01*
X0368372Y0255015D01*
X0368362Y0255151D01*
X0368356Y0255286D01*
X0368354Y0255422D01*
X0371701Y0276800D02*
X0371703Y0276958D01*
X0371709Y0277116D01*
X0371719Y0277274D01*
X0371733Y0277432D01*
X0371751Y0277589D01*
X0371772Y0277746D01*
X0371798Y0277902D01*
X0371828Y0278058D01*
X0371861Y0278213D01*
X0371899Y0278366D01*
X0371940Y0278519D01*
X0371985Y0278671D01*
X0372034Y0278822D01*
X0372087Y0278971D01*
X0372143Y0279119D01*
X0372203Y0279265D01*
X0372267Y0279410D01*
X0372335Y0279553D01*
X0372406Y0279695D01*
X0372480Y0279835D01*
X0372558Y0279972D01*
X0372640Y0280108D01*
X0372724Y0280242D01*
X0372813Y0280373D01*
X0372904Y0280502D01*
X0372999Y0280629D01*
X0373096Y0280754D01*
X0373197Y0280876D01*
X0373301Y0280995D01*
X0373408Y0281112D01*
X0373518Y0281226D01*
X0373631Y0281337D01*
X0373746Y0281446D01*
X0373864Y0281551D01*
X0373985Y0281653D01*
X0374108Y0281753D01*
X0374234Y0281849D01*
X0374362Y0281942D01*
X0374492Y0282032D01*
X0374625Y0282118D01*
X0374760Y0282202D01*
X0374896Y0282281D01*
X0375035Y0282358D01*
X0375176Y0282430D01*
X0375318Y0282500D01*
X0375462Y0282565D01*
X0375608Y0282627D01*
X0375755Y0282685D01*
X0375904Y0282740D01*
X0376054Y0282791D01*
X0376205Y0282838D01*
X0376357Y0282881D01*
X0376510Y0282920D01*
X0376665Y0282956D01*
X0376820Y0282987D01*
X0376976Y0283015D01*
X0377132Y0283039D01*
X0377289Y0283059D01*
X0377447Y0283075D01*
X0377604Y0283087D01*
X0377763Y0283095D01*
X0377921Y0283099D01*
X0378079Y0283099D01*
X0378237Y0283095D01*
X0378396Y0283087D01*
X0378553Y0283075D01*
X0378711Y0283059D01*
X0378868Y0283039D01*
X0379024Y0283015D01*
X0379180Y0282987D01*
X0379335Y0282956D01*
X0379490Y0282920D01*
X0379643Y0282881D01*
X0379795Y0282838D01*
X0379946Y0282791D01*
X0380096Y0282740D01*
X0380245Y0282685D01*
X0380392Y0282627D01*
X0380538Y0282565D01*
X0380682Y0282500D01*
X0380824Y0282430D01*
X0380965Y0282358D01*
X0381104Y0282281D01*
X0381240Y0282202D01*
X0381375Y0282118D01*
X0381508Y0282032D01*
X0381638Y0281942D01*
X0381766Y0281849D01*
X0381892Y0281753D01*
X0382015Y0281653D01*
X0382136Y0281551D01*
X0382254Y0281446D01*
X0382369Y0281337D01*
X0382482Y0281226D01*
X0382592Y0281112D01*
X0382699Y0280995D01*
X0382803Y0280876D01*
X0382904Y0280754D01*
X0383001Y0280629D01*
X0383096Y0280502D01*
X0383187Y0280373D01*
X0383276Y0280242D01*
X0383360Y0280108D01*
X0383442Y0279972D01*
X0383520Y0279835D01*
X0383594Y0279695D01*
X0383665Y0279553D01*
X0383733Y0279410D01*
X0383797Y0279265D01*
X0383857Y0279119D01*
X0383913Y0278971D01*
X0383966Y0278822D01*
X0384015Y0278671D01*
X0384060Y0278519D01*
X0384101Y0278366D01*
X0384139Y0278213D01*
X0384172Y0278058D01*
X0384202Y0277902D01*
X0384228Y0277746D01*
X0384249Y0277589D01*
X0384267Y0277432D01*
X0384281Y0277274D01*
X0384291Y0277116D01*
X0384297Y0276958D01*
X0384299Y0276800D01*
X0384297Y0276642D01*
X0384291Y0276484D01*
X0384281Y0276326D01*
X0384267Y0276168D01*
X0384249Y0276011D01*
X0384228Y0275854D01*
X0384202Y0275698D01*
X0384172Y0275542D01*
X0384139Y0275387D01*
X0384101Y0275234D01*
X0384060Y0275081D01*
X0384015Y0274929D01*
X0383966Y0274778D01*
X0383913Y0274629D01*
X0383857Y0274481D01*
X0383797Y0274335D01*
X0383733Y0274190D01*
X0383665Y0274047D01*
X0383594Y0273905D01*
X0383520Y0273765D01*
X0383442Y0273628D01*
X0383360Y0273492D01*
X0383276Y0273358D01*
X0383187Y0273227D01*
X0383096Y0273098D01*
X0383001Y0272971D01*
X0382904Y0272846D01*
X0382803Y0272724D01*
X0382699Y0272605D01*
X0382592Y0272488D01*
X0382482Y0272374D01*
X0382369Y0272263D01*
X0382254Y0272154D01*
X0382136Y0272049D01*
X0382015Y0271947D01*
X0381892Y0271847D01*
X0381766Y0271751D01*
X0381638Y0271658D01*
X0381508Y0271568D01*
X0381375Y0271482D01*
X0381240Y0271398D01*
X0381104Y0271319D01*
X0380965Y0271242D01*
X0380824Y0271170D01*
X0380682Y0271100D01*
X0380538Y0271035D01*
X0380392Y0270973D01*
X0380245Y0270915D01*
X0380096Y0270860D01*
X0379946Y0270809D01*
X0379795Y0270762D01*
X0379643Y0270719D01*
X0379490Y0270680D01*
X0379335Y0270644D01*
X0379180Y0270613D01*
X0379024Y0270585D01*
X0378868Y0270561D01*
X0378711Y0270541D01*
X0378553Y0270525D01*
X0378396Y0270513D01*
X0378237Y0270505D01*
X0378079Y0270501D01*
X0377921Y0270501D01*
X0377763Y0270505D01*
X0377604Y0270513D01*
X0377447Y0270525D01*
X0377289Y0270541D01*
X0377132Y0270561D01*
X0376976Y0270585D01*
X0376820Y0270613D01*
X0376665Y0270644D01*
X0376510Y0270680D01*
X0376357Y0270719D01*
X0376205Y0270762D01*
X0376054Y0270809D01*
X0375904Y0270860D01*
X0375755Y0270915D01*
X0375608Y0270973D01*
X0375462Y0271035D01*
X0375318Y0271100D01*
X0375176Y0271170D01*
X0375035Y0271242D01*
X0374896Y0271319D01*
X0374760Y0271398D01*
X0374625Y0271482D01*
X0374492Y0271568D01*
X0374362Y0271658D01*
X0374234Y0271751D01*
X0374108Y0271847D01*
X0373985Y0271947D01*
X0373864Y0272049D01*
X0373746Y0272154D01*
X0373631Y0272263D01*
X0373518Y0272374D01*
X0373408Y0272488D01*
X0373301Y0272605D01*
X0373197Y0272724D01*
X0373096Y0272846D01*
X0372999Y0272971D01*
X0372904Y0273098D01*
X0372813Y0273227D01*
X0372724Y0273358D01*
X0372640Y0273492D01*
X0372558Y0273628D01*
X0372480Y0273765D01*
X0372406Y0273905D01*
X0372335Y0274047D01*
X0372267Y0274190D01*
X0372203Y0274335D01*
X0372143Y0274481D01*
X0372087Y0274629D01*
X0372034Y0274778D01*
X0371985Y0274929D01*
X0371940Y0275081D01*
X0371899Y0275234D01*
X0371861Y0275387D01*
X0371828Y0275542D01*
X0371798Y0275698D01*
X0371772Y0275854D01*
X0371751Y0276011D01*
X0371733Y0276168D01*
X0371719Y0276326D01*
X0371709Y0276484D01*
X0371703Y0276642D01*
X0371701Y0276800D01*
X0368354Y0208178D02*
X0368356Y0208314D01*
X0368362Y0208449D01*
X0368372Y0208585D01*
X0368386Y0208720D01*
X0368404Y0208854D01*
X0368425Y0208988D01*
X0368451Y0209122D01*
X0368480Y0209254D01*
X0368514Y0209386D01*
X0368551Y0209517D01*
X0368592Y0209646D01*
X0368637Y0209774D01*
X0368685Y0209901D01*
X0368737Y0210026D01*
X0368793Y0210150D01*
X0368853Y0210272D01*
X0368916Y0210392D01*
X0368982Y0210511D01*
X0369052Y0210627D01*
X0369125Y0210742D01*
X0369202Y0210854D01*
X0369282Y0210963D01*
X0369365Y0211071D01*
X0369451Y0211176D01*
X0369540Y0211278D01*
X0369632Y0211378D01*
X0369727Y0211475D01*
X0369825Y0211569D01*
X0369925Y0211661D01*
X0370028Y0211749D01*
X0370134Y0211834D01*
X0370242Y0211917D01*
X0370352Y0211996D01*
X0370465Y0212071D01*
X0370580Y0212144D01*
X0370697Y0212213D01*
X0370816Y0212278D01*
X0370936Y0212340D01*
X0371059Y0212399D01*
X0371183Y0212454D01*
X0371309Y0212505D01*
X0371436Y0212553D01*
X0371564Y0212597D01*
X0371694Y0212637D01*
X0371825Y0212673D01*
X0371957Y0212705D01*
X0372089Y0212734D01*
X0372223Y0212759D01*
X0372357Y0212779D01*
X0372492Y0212796D01*
X0372627Y0212809D01*
X0372762Y0212818D01*
X0372898Y0212823D01*
X0373034Y0212824D01*
X0373170Y0212821D01*
X0373305Y0212814D01*
X0373441Y0212803D01*
X0373576Y0212788D01*
X0373710Y0212769D01*
X0373844Y0212747D01*
X0373977Y0212720D01*
X0374109Y0212690D01*
X0374241Y0212655D01*
X0374371Y0212617D01*
X0374500Y0212575D01*
X0374628Y0212529D01*
X0374754Y0212480D01*
X0374879Y0212427D01*
X0375003Y0212370D01*
X0375124Y0212310D01*
X0375244Y0212246D01*
X0375362Y0212179D01*
X0375478Y0212108D01*
X0375592Y0212034D01*
X0375703Y0211957D01*
X0375813Y0211876D01*
X0375919Y0211792D01*
X0376024Y0211705D01*
X0376126Y0211615D01*
X0376225Y0211523D01*
X0376321Y0211427D01*
X0376415Y0211329D01*
X0376505Y0211227D01*
X0376593Y0211124D01*
X0376677Y0211018D01*
X0376759Y0210909D01*
X0376837Y0210798D01*
X0376912Y0210685D01*
X0376983Y0210569D01*
X0377052Y0210452D01*
X0377116Y0210332D01*
X0377177Y0210211D01*
X0377235Y0210088D01*
X0377289Y0209964D01*
X0377339Y0209838D01*
X0377386Y0209710D01*
X0377429Y0209581D01*
X0377468Y0209451D01*
X0377503Y0209320D01*
X0377535Y0209188D01*
X0377562Y0209055D01*
X0377586Y0208922D01*
X0377606Y0208787D01*
X0377622Y0208652D01*
X0377634Y0208517D01*
X0377642Y0208382D01*
X0377646Y0208246D01*
X0377646Y0208110D01*
X0377642Y0207974D01*
X0377634Y0207839D01*
X0377622Y0207704D01*
X0377606Y0207569D01*
X0377586Y0207434D01*
X0377562Y0207301D01*
X0377535Y0207168D01*
X0377503Y0207036D01*
X0377468Y0206905D01*
X0377429Y0206775D01*
X0377386Y0206646D01*
X0377339Y0206518D01*
X0377289Y0206392D01*
X0377235Y0206268D01*
X0377177Y0206145D01*
X0377116Y0206024D01*
X0377052Y0205904D01*
X0376983Y0205787D01*
X0376912Y0205671D01*
X0376837Y0205558D01*
X0376759Y0205447D01*
X0376677Y0205338D01*
X0376593Y0205232D01*
X0376505Y0205129D01*
X0376415Y0205027D01*
X0376321Y0204929D01*
X0376225Y0204833D01*
X0376126Y0204741D01*
X0376024Y0204651D01*
X0375919Y0204564D01*
X0375813Y0204480D01*
X0375703Y0204399D01*
X0375592Y0204322D01*
X0375478Y0204248D01*
X0375362Y0204177D01*
X0375244Y0204110D01*
X0375124Y0204046D01*
X0375003Y0203986D01*
X0374879Y0203929D01*
X0374754Y0203876D01*
X0374628Y0203827D01*
X0374500Y0203781D01*
X0374371Y0203739D01*
X0374241Y0203701D01*
X0374109Y0203666D01*
X0373977Y0203636D01*
X0373844Y0203609D01*
X0373710Y0203587D01*
X0373576Y0203568D01*
X0373441Y0203553D01*
X0373305Y0203542D01*
X0373170Y0203535D01*
X0373034Y0203532D01*
X0372898Y0203533D01*
X0372762Y0203538D01*
X0372627Y0203547D01*
X0372492Y0203560D01*
X0372357Y0203577D01*
X0372223Y0203597D01*
X0372089Y0203622D01*
X0371957Y0203651D01*
X0371825Y0203683D01*
X0371694Y0203719D01*
X0371564Y0203759D01*
X0371436Y0203803D01*
X0371309Y0203851D01*
X0371183Y0203902D01*
X0371059Y0203957D01*
X0370936Y0204016D01*
X0370816Y0204078D01*
X0370697Y0204143D01*
X0370580Y0204212D01*
X0370465Y0204285D01*
X0370352Y0204360D01*
X0370242Y0204439D01*
X0370134Y0204522D01*
X0370028Y0204607D01*
X0369925Y0204695D01*
X0369825Y0204787D01*
X0369727Y0204881D01*
X0369632Y0204978D01*
X0369540Y0205078D01*
X0369451Y0205180D01*
X0369365Y0205285D01*
X0369282Y0205393D01*
X0369202Y0205502D01*
X0369125Y0205614D01*
X0369052Y0205729D01*
X0368982Y0205845D01*
X0368916Y0205964D01*
X0368853Y0206084D01*
X0368793Y0206206D01*
X0368737Y0206330D01*
X0368685Y0206455D01*
X0368637Y0206582D01*
X0368592Y0206710D01*
X0368551Y0206839D01*
X0368514Y0206970D01*
X0368480Y0207102D01*
X0368451Y0207234D01*
X0368425Y0207368D01*
X0368404Y0207502D01*
X0368386Y0207636D01*
X0368372Y0207771D01*
X0368362Y0207907D01*
X0368356Y0208042D01*
X0368354Y0208178D01*
X0371228Y0180461D02*
X0371230Y0180545D01*
X0371236Y0180628D01*
X0371246Y0180711D01*
X0371260Y0180794D01*
X0371277Y0180876D01*
X0371299Y0180957D01*
X0371324Y0181036D01*
X0371353Y0181115D01*
X0371386Y0181192D01*
X0371422Y0181267D01*
X0371462Y0181341D01*
X0371505Y0181413D01*
X0371552Y0181482D01*
X0371602Y0181549D01*
X0371655Y0181614D01*
X0371711Y0181676D01*
X0371769Y0181736D01*
X0371831Y0181793D01*
X0371895Y0181846D01*
X0371962Y0181897D01*
X0372031Y0181944D01*
X0372102Y0181989D01*
X0372175Y0182029D01*
X0372250Y0182066D01*
X0372327Y0182100D01*
X0372405Y0182130D01*
X0372484Y0182156D01*
X0372565Y0182179D01*
X0372647Y0182197D01*
X0372729Y0182212D01*
X0372812Y0182223D01*
X0372895Y0182230D01*
X0372979Y0182233D01*
X0373063Y0182232D01*
X0373146Y0182227D01*
X0373230Y0182218D01*
X0373312Y0182205D01*
X0373394Y0182189D01*
X0373475Y0182168D01*
X0373556Y0182144D01*
X0373634Y0182116D01*
X0373712Y0182084D01*
X0373788Y0182048D01*
X0373862Y0182009D01*
X0373934Y0181967D01*
X0374004Y0181921D01*
X0374072Y0181872D01*
X0374137Y0181820D01*
X0374200Y0181765D01*
X0374260Y0181707D01*
X0374318Y0181646D01*
X0374372Y0181582D01*
X0374424Y0181516D01*
X0374472Y0181448D01*
X0374517Y0181377D01*
X0374558Y0181304D01*
X0374597Y0181230D01*
X0374631Y0181154D01*
X0374662Y0181076D01*
X0374689Y0180997D01*
X0374713Y0180916D01*
X0374732Y0180835D01*
X0374748Y0180753D01*
X0374760Y0180670D01*
X0374768Y0180586D01*
X0374772Y0180503D01*
X0374772Y0180419D01*
X0374768Y0180336D01*
X0374760Y0180252D01*
X0374748Y0180169D01*
X0374732Y0180087D01*
X0374713Y0180006D01*
X0374689Y0179925D01*
X0374662Y0179846D01*
X0374631Y0179768D01*
X0374597Y0179692D01*
X0374558Y0179618D01*
X0374517Y0179545D01*
X0374472Y0179474D01*
X0374424Y0179406D01*
X0374372Y0179340D01*
X0374318Y0179276D01*
X0374260Y0179215D01*
X0374200Y0179157D01*
X0374137Y0179102D01*
X0374072Y0179050D01*
X0374004Y0179001D01*
X0373934Y0178955D01*
X0373862Y0178913D01*
X0373788Y0178874D01*
X0373712Y0178838D01*
X0373634Y0178806D01*
X0373556Y0178778D01*
X0373475Y0178754D01*
X0373394Y0178733D01*
X0373312Y0178717D01*
X0373230Y0178704D01*
X0373146Y0178695D01*
X0373063Y0178690D01*
X0372979Y0178689D01*
X0372895Y0178692D01*
X0372812Y0178699D01*
X0372729Y0178710D01*
X0372647Y0178725D01*
X0372565Y0178743D01*
X0372484Y0178766D01*
X0372405Y0178792D01*
X0372327Y0178822D01*
X0372250Y0178856D01*
X0372175Y0178893D01*
X0372102Y0178933D01*
X0372031Y0178978D01*
X0371962Y0179025D01*
X0371895Y0179076D01*
X0371831Y0179129D01*
X0371769Y0179186D01*
X0371711Y0179246D01*
X0371655Y0179308D01*
X0371602Y0179373D01*
X0371552Y0179440D01*
X0371505Y0179509D01*
X0371462Y0179581D01*
X0371422Y0179655D01*
X0371386Y0179730D01*
X0371353Y0179807D01*
X0371324Y0179886D01*
X0371299Y0179965D01*
X0371277Y0180046D01*
X0371260Y0180128D01*
X0371246Y0180211D01*
X0371236Y0180294D01*
X0371230Y0180377D01*
X0371228Y0180461D01*
X0371228Y0163139D02*
X0371230Y0163223D01*
X0371236Y0163306D01*
X0371246Y0163389D01*
X0371260Y0163472D01*
X0371277Y0163554D01*
X0371299Y0163635D01*
X0371324Y0163714D01*
X0371353Y0163793D01*
X0371386Y0163870D01*
X0371422Y0163945D01*
X0371462Y0164019D01*
X0371505Y0164091D01*
X0371552Y0164160D01*
X0371602Y0164227D01*
X0371655Y0164292D01*
X0371711Y0164354D01*
X0371769Y0164414D01*
X0371831Y0164471D01*
X0371895Y0164524D01*
X0371962Y0164575D01*
X0372031Y0164622D01*
X0372102Y0164667D01*
X0372175Y0164707D01*
X0372250Y0164744D01*
X0372327Y0164778D01*
X0372405Y0164808D01*
X0372484Y0164834D01*
X0372565Y0164857D01*
X0372647Y0164875D01*
X0372729Y0164890D01*
X0372812Y0164901D01*
X0372895Y0164908D01*
X0372979Y0164911D01*
X0373063Y0164910D01*
X0373146Y0164905D01*
X0373230Y0164896D01*
X0373312Y0164883D01*
X0373394Y0164867D01*
X0373475Y0164846D01*
X0373556Y0164822D01*
X0373634Y0164794D01*
X0373712Y0164762D01*
X0373788Y0164726D01*
X0373862Y0164687D01*
X0373934Y0164645D01*
X0374004Y0164599D01*
X0374072Y0164550D01*
X0374137Y0164498D01*
X0374200Y0164443D01*
X0374260Y0164385D01*
X0374318Y0164324D01*
X0374372Y0164260D01*
X0374424Y0164194D01*
X0374472Y0164126D01*
X0374517Y0164055D01*
X0374558Y0163982D01*
X0374597Y0163908D01*
X0374631Y0163832D01*
X0374662Y0163754D01*
X0374689Y0163675D01*
X0374713Y0163594D01*
X0374732Y0163513D01*
X0374748Y0163431D01*
X0374760Y0163348D01*
X0374768Y0163264D01*
X0374772Y0163181D01*
X0374772Y0163097D01*
X0374768Y0163014D01*
X0374760Y0162930D01*
X0374748Y0162847D01*
X0374732Y0162765D01*
X0374713Y0162684D01*
X0374689Y0162603D01*
X0374662Y0162524D01*
X0374631Y0162446D01*
X0374597Y0162370D01*
X0374558Y0162296D01*
X0374517Y0162223D01*
X0374472Y0162152D01*
X0374424Y0162084D01*
X0374372Y0162018D01*
X0374318Y0161954D01*
X0374260Y0161893D01*
X0374200Y0161835D01*
X0374137Y0161780D01*
X0374072Y0161728D01*
X0374004Y0161679D01*
X0373934Y0161633D01*
X0373862Y0161591D01*
X0373788Y0161552D01*
X0373712Y0161516D01*
X0373634Y0161484D01*
X0373556Y0161456D01*
X0373475Y0161432D01*
X0373394Y0161411D01*
X0373312Y0161395D01*
X0373230Y0161382D01*
X0373146Y0161373D01*
X0373063Y0161368D01*
X0372979Y0161367D01*
X0372895Y0161370D01*
X0372812Y0161377D01*
X0372729Y0161388D01*
X0372647Y0161403D01*
X0372565Y0161421D01*
X0372484Y0161444D01*
X0372405Y0161470D01*
X0372327Y0161500D01*
X0372250Y0161534D01*
X0372175Y0161571D01*
X0372102Y0161611D01*
X0372031Y0161656D01*
X0371962Y0161703D01*
X0371895Y0161754D01*
X0371831Y0161807D01*
X0371769Y0161864D01*
X0371711Y0161924D01*
X0371655Y0161986D01*
X0371602Y0162051D01*
X0371552Y0162118D01*
X0371505Y0162187D01*
X0371462Y0162259D01*
X0371422Y0162333D01*
X0371386Y0162408D01*
X0371353Y0162485D01*
X0371324Y0162564D01*
X0371299Y0162643D01*
X0371277Y0162724D01*
X0371260Y0162806D01*
X0371246Y0162889D01*
X0371236Y0162972D01*
X0371230Y0163055D01*
X0371228Y0163139D01*
X0339732Y0150776D02*
X0339734Y0150934D01*
X0339740Y0151092D01*
X0339750Y0151250D01*
X0339764Y0151408D01*
X0339782Y0151565D01*
X0339803Y0151722D01*
X0339829Y0151878D01*
X0339859Y0152034D01*
X0339892Y0152189D01*
X0339930Y0152342D01*
X0339971Y0152495D01*
X0340016Y0152647D01*
X0340065Y0152798D01*
X0340118Y0152947D01*
X0340174Y0153095D01*
X0340234Y0153241D01*
X0340298Y0153386D01*
X0340366Y0153529D01*
X0340437Y0153671D01*
X0340511Y0153811D01*
X0340589Y0153948D01*
X0340671Y0154084D01*
X0340755Y0154218D01*
X0340844Y0154349D01*
X0340935Y0154478D01*
X0341030Y0154605D01*
X0341127Y0154730D01*
X0341228Y0154852D01*
X0341332Y0154971D01*
X0341439Y0155088D01*
X0341549Y0155202D01*
X0341662Y0155313D01*
X0341777Y0155422D01*
X0341895Y0155527D01*
X0342016Y0155629D01*
X0342139Y0155729D01*
X0342265Y0155825D01*
X0342393Y0155918D01*
X0342523Y0156008D01*
X0342656Y0156094D01*
X0342791Y0156178D01*
X0342927Y0156257D01*
X0343066Y0156334D01*
X0343207Y0156406D01*
X0343349Y0156476D01*
X0343493Y0156541D01*
X0343639Y0156603D01*
X0343786Y0156661D01*
X0343935Y0156716D01*
X0344085Y0156767D01*
X0344236Y0156814D01*
X0344388Y0156857D01*
X0344541Y0156896D01*
X0344696Y0156932D01*
X0344851Y0156963D01*
X0345007Y0156991D01*
X0345163Y0157015D01*
X0345320Y0157035D01*
X0345478Y0157051D01*
X0345635Y0157063D01*
X0345794Y0157071D01*
X0345952Y0157075D01*
X0346110Y0157075D01*
X0346268Y0157071D01*
X0346427Y0157063D01*
X0346584Y0157051D01*
X0346742Y0157035D01*
X0346899Y0157015D01*
X0347055Y0156991D01*
X0347211Y0156963D01*
X0347366Y0156932D01*
X0347521Y0156896D01*
X0347674Y0156857D01*
X0347826Y0156814D01*
X0347977Y0156767D01*
X0348127Y0156716D01*
X0348276Y0156661D01*
X0348423Y0156603D01*
X0348569Y0156541D01*
X0348713Y0156476D01*
X0348855Y0156406D01*
X0348996Y0156334D01*
X0349135Y0156257D01*
X0349271Y0156178D01*
X0349406Y0156094D01*
X0349539Y0156008D01*
X0349669Y0155918D01*
X0349797Y0155825D01*
X0349923Y0155729D01*
X0350046Y0155629D01*
X0350167Y0155527D01*
X0350285Y0155422D01*
X0350400Y0155313D01*
X0350513Y0155202D01*
X0350623Y0155088D01*
X0350730Y0154971D01*
X0350834Y0154852D01*
X0350935Y0154730D01*
X0351032Y0154605D01*
X0351127Y0154478D01*
X0351218Y0154349D01*
X0351307Y0154218D01*
X0351391Y0154084D01*
X0351473Y0153948D01*
X0351551Y0153811D01*
X0351625Y0153671D01*
X0351696Y0153529D01*
X0351764Y0153386D01*
X0351828Y0153241D01*
X0351888Y0153095D01*
X0351944Y0152947D01*
X0351997Y0152798D01*
X0352046Y0152647D01*
X0352091Y0152495D01*
X0352132Y0152342D01*
X0352170Y0152189D01*
X0352203Y0152034D01*
X0352233Y0151878D01*
X0352259Y0151722D01*
X0352280Y0151565D01*
X0352298Y0151408D01*
X0352312Y0151250D01*
X0352322Y0151092D01*
X0352328Y0150934D01*
X0352330Y0150776D01*
X0352328Y0150618D01*
X0352322Y0150460D01*
X0352312Y0150302D01*
X0352298Y0150144D01*
X0352280Y0149987D01*
X0352259Y0149830D01*
X0352233Y0149674D01*
X0352203Y0149518D01*
X0352170Y0149363D01*
X0352132Y0149210D01*
X0352091Y0149057D01*
X0352046Y0148905D01*
X0351997Y0148754D01*
X0351944Y0148605D01*
X0351888Y0148457D01*
X0351828Y0148311D01*
X0351764Y0148166D01*
X0351696Y0148023D01*
X0351625Y0147881D01*
X0351551Y0147741D01*
X0351473Y0147604D01*
X0351391Y0147468D01*
X0351307Y0147334D01*
X0351218Y0147203D01*
X0351127Y0147074D01*
X0351032Y0146947D01*
X0350935Y0146822D01*
X0350834Y0146700D01*
X0350730Y0146581D01*
X0350623Y0146464D01*
X0350513Y0146350D01*
X0350400Y0146239D01*
X0350285Y0146130D01*
X0350167Y0146025D01*
X0350046Y0145923D01*
X0349923Y0145823D01*
X0349797Y0145727D01*
X0349669Y0145634D01*
X0349539Y0145544D01*
X0349406Y0145458D01*
X0349271Y0145374D01*
X0349135Y0145295D01*
X0348996Y0145218D01*
X0348855Y0145146D01*
X0348713Y0145076D01*
X0348569Y0145011D01*
X0348423Y0144949D01*
X0348276Y0144891D01*
X0348127Y0144836D01*
X0347977Y0144785D01*
X0347826Y0144738D01*
X0347674Y0144695D01*
X0347521Y0144656D01*
X0347366Y0144620D01*
X0347211Y0144589D01*
X0347055Y0144561D01*
X0346899Y0144537D01*
X0346742Y0144517D01*
X0346584Y0144501D01*
X0346427Y0144489D01*
X0346268Y0144481D01*
X0346110Y0144477D01*
X0345952Y0144477D01*
X0345794Y0144481D01*
X0345635Y0144489D01*
X0345478Y0144501D01*
X0345320Y0144517D01*
X0345163Y0144537D01*
X0345007Y0144561D01*
X0344851Y0144589D01*
X0344696Y0144620D01*
X0344541Y0144656D01*
X0344388Y0144695D01*
X0344236Y0144738D01*
X0344085Y0144785D01*
X0343935Y0144836D01*
X0343786Y0144891D01*
X0343639Y0144949D01*
X0343493Y0145011D01*
X0343349Y0145076D01*
X0343207Y0145146D01*
X0343066Y0145218D01*
X0342927Y0145295D01*
X0342791Y0145374D01*
X0342656Y0145458D01*
X0342523Y0145544D01*
X0342393Y0145634D01*
X0342265Y0145727D01*
X0342139Y0145823D01*
X0342016Y0145923D01*
X0341895Y0146025D01*
X0341777Y0146130D01*
X0341662Y0146239D01*
X0341549Y0146350D01*
X0341439Y0146464D01*
X0341332Y0146581D01*
X0341228Y0146700D01*
X0341127Y0146822D01*
X0341030Y0146947D01*
X0340935Y0147074D01*
X0340844Y0147203D01*
X0340755Y0147334D01*
X0340671Y0147468D01*
X0340589Y0147604D01*
X0340511Y0147741D01*
X0340437Y0147881D01*
X0340366Y0148023D01*
X0340298Y0148166D01*
X0340234Y0148311D01*
X0340174Y0148457D01*
X0340118Y0148605D01*
X0340065Y0148754D01*
X0340016Y0148905D01*
X0339971Y0149057D01*
X0339930Y0149210D01*
X0339892Y0149363D01*
X0339859Y0149518D01*
X0339829Y0149674D01*
X0339803Y0149830D01*
X0339782Y0149987D01*
X0339764Y0150144D01*
X0339750Y0150302D01*
X0339740Y0150460D01*
X0339734Y0150618D01*
X0339732Y0150776D01*
X0371701Y0016800D02*
X0371703Y0016958D01*
X0371709Y0017116D01*
X0371719Y0017274D01*
X0371733Y0017432D01*
X0371751Y0017589D01*
X0371772Y0017746D01*
X0371798Y0017902D01*
X0371828Y0018058D01*
X0371861Y0018213D01*
X0371899Y0018366D01*
X0371940Y0018519D01*
X0371985Y0018671D01*
X0372034Y0018822D01*
X0372087Y0018971D01*
X0372143Y0019119D01*
X0372203Y0019265D01*
X0372267Y0019410D01*
X0372335Y0019553D01*
X0372406Y0019695D01*
X0372480Y0019835D01*
X0372558Y0019972D01*
X0372640Y0020108D01*
X0372724Y0020242D01*
X0372813Y0020373D01*
X0372904Y0020502D01*
X0372999Y0020629D01*
X0373096Y0020754D01*
X0373197Y0020876D01*
X0373301Y0020995D01*
X0373408Y0021112D01*
X0373518Y0021226D01*
X0373631Y0021337D01*
X0373746Y0021446D01*
X0373864Y0021551D01*
X0373985Y0021653D01*
X0374108Y0021753D01*
X0374234Y0021849D01*
X0374362Y0021942D01*
X0374492Y0022032D01*
X0374625Y0022118D01*
X0374760Y0022202D01*
X0374896Y0022281D01*
X0375035Y0022358D01*
X0375176Y0022430D01*
X0375318Y0022500D01*
X0375462Y0022565D01*
X0375608Y0022627D01*
X0375755Y0022685D01*
X0375904Y0022740D01*
X0376054Y0022791D01*
X0376205Y0022838D01*
X0376357Y0022881D01*
X0376510Y0022920D01*
X0376665Y0022956D01*
X0376820Y0022987D01*
X0376976Y0023015D01*
X0377132Y0023039D01*
X0377289Y0023059D01*
X0377447Y0023075D01*
X0377604Y0023087D01*
X0377763Y0023095D01*
X0377921Y0023099D01*
X0378079Y0023099D01*
X0378237Y0023095D01*
X0378396Y0023087D01*
X0378553Y0023075D01*
X0378711Y0023059D01*
X0378868Y0023039D01*
X0379024Y0023015D01*
X0379180Y0022987D01*
X0379335Y0022956D01*
X0379490Y0022920D01*
X0379643Y0022881D01*
X0379795Y0022838D01*
X0379946Y0022791D01*
X0380096Y0022740D01*
X0380245Y0022685D01*
X0380392Y0022627D01*
X0380538Y0022565D01*
X0380682Y0022500D01*
X0380824Y0022430D01*
X0380965Y0022358D01*
X0381104Y0022281D01*
X0381240Y0022202D01*
X0381375Y0022118D01*
X0381508Y0022032D01*
X0381638Y0021942D01*
X0381766Y0021849D01*
X0381892Y0021753D01*
X0382015Y0021653D01*
X0382136Y0021551D01*
X0382254Y0021446D01*
X0382369Y0021337D01*
X0382482Y0021226D01*
X0382592Y0021112D01*
X0382699Y0020995D01*
X0382803Y0020876D01*
X0382904Y0020754D01*
X0383001Y0020629D01*
X0383096Y0020502D01*
X0383187Y0020373D01*
X0383276Y0020242D01*
X0383360Y0020108D01*
X0383442Y0019972D01*
X0383520Y0019835D01*
X0383594Y0019695D01*
X0383665Y0019553D01*
X0383733Y0019410D01*
X0383797Y0019265D01*
X0383857Y0019119D01*
X0383913Y0018971D01*
X0383966Y0018822D01*
X0384015Y0018671D01*
X0384060Y0018519D01*
X0384101Y0018366D01*
X0384139Y0018213D01*
X0384172Y0018058D01*
X0384202Y0017902D01*
X0384228Y0017746D01*
X0384249Y0017589D01*
X0384267Y0017432D01*
X0384281Y0017274D01*
X0384291Y0017116D01*
X0384297Y0016958D01*
X0384299Y0016800D01*
X0384297Y0016642D01*
X0384291Y0016484D01*
X0384281Y0016326D01*
X0384267Y0016168D01*
X0384249Y0016011D01*
X0384228Y0015854D01*
X0384202Y0015698D01*
X0384172Y0015542D01*
X0384139Y0015387D01*
X0384101Y0015234D01*
X0384060Y0015081D01*
X0384015Y0014929D01*
X0383966Y0014778D01*
X0383913Y0014629D01*
X0383857Y0014481D01*
X0383797Y0014335D01*
X0383733Y0014190D01*
X0383665Y0014047D01*
X0383594Y0013905D01*
X0383520Y0013765D01*
X0383442Y0013628D01*
X0383360Y0013492D01*
X0383276Y0013358D01*
X0383187Y0013227D01*
X0383096Y0013098D01*
X0383001Y0012971D01*
X0382904Y0012846D01*
X0382803Y0012724D01*
X0382699Y0012605D01*
X0382592Y0012488D01*
X0382482Y0012374D01*
X0382369Y0012263D01*
X0382254Y0012154D01*
X0382136Y0012049D01*
X0382015Y0011947D01*
X0381892Y0011847D01*
X0381766Y0011751D01*
X0381638Y0011658D01*
X0381508Y0011568D01*
X0381375Y0011482D01*
X0381240Y0011398D01*
X0381104Y0011319D01*
X0380965Y0011242D01*
X0380824Y0011170D01*
X0380682Y0011100D01*
X0380538Y0011035D01*
X0380392Y0010973D01*
X0380245Y0010915D01*
X0380096Y0010860D01*
X0379946Y0010809D01*
X0379795Y0010762D01*
X0379643Y0010719D01*
X0379490Y0010680D01*
X0379335Y0010644D01*
X0379180Y0010613D01*
X0379024Y0010585D01*
X0378868Y0010561D01*
X0378711Y0010541D01*
X0378553Y0010525D01*
X0378396Y0010513D01*
X0378237Y0010505D01*
X0378079Y0010501D01*
X0377921Y0010501D01*
X0377763Y0010505D01*
X0377604Y0010513D01*
X0377447Y0010525D01*
X0377289Y0010541D01*
X0377132Y0010561D01*
X0376976Y0010585D01*
X0376820Y0010613D01*
X0376665Y0010644D01*
X0376510Y0010680D01*
X0376357Y0010719D01*
X0376205Y0010762D01*
X0376054Y0010809D01*
X0375904Y0010860D01*
X0375755Y0010915D01*
X0375608Y0010973D01*
X0375462Y0011035D01*
X0375318Y0011100D01*
X0375176Y0011170D01*
X0375035Y0011242D01*
X0374896Y0011319D01*
X0374760Y0011398D01*
X0374625Y0011482D01*
X0374492Y0011568D01*
X0374362Y0011658D01*
X0374234Y0011751D01*
X0374108Y0011847D01*
X0373985Y0011947D01*
X0373864Y0012049D01*
X0373746Y0012154D01*
X0373631Y0012263D01*
X0373518Y0012374D01*
X0373408Y0012488D01*
X0373301Y0012605D01*
X0373197Y0012724D01*
X0373096Y0012846D01*
X0372999Y0012971D01*
X0372904Y0013098D01*
X0372813Y0013227D01*
X0372724Y0013358D01*
X0372640Y0013492D01*
X0372558Y0013628D01*
X0372480Y0013765D01*
X0372406Y0013905D01*
X0372335Y0014047D01*
X0372267Y0014190D01*
X0372203Y0014335D01*
X0372143Y0014481D01*
X0372087Y0014629D01*
X0372034Y0014778D01*
X0371985Y0014929D01*
X0371940Y0015081D01*
X0371899Y0015234D01*
X0371861Y0015387D01*
X0371828Y0015542D01*
X0371798Y0015698D01*
X0371772Y0015854D01*
X0371751Y0016011D01*
X0371733Y0016168D01*
X0371719Y0016326D01*
X0371709Y0016484D01*
X0371703Y0016642D01*
X0371701Y0016800D01*
D11*
X0393000Y0001800D02*
X0003000Y0001800D01*
X0003000Y0291800D01*
X0393000Y0291800D01*
X0393000Y0001800D01*
X0390400Y0004400D02*
X0005600Y0004400D01*
X0005600Y0289200D01*
X0390400Y0289200D01*
X0390400Y0004400D01*
X0390400Y0004997D02*
X0005600Y0004997D01*
X0005600Y0006596D02*
X0390400Y0006596D01*
X0390400Y0008194D02*
X0005600Y0008194D01*
X0005600Y0009793D02*
X0013753Y0009793D01*
X0013412Y0009934D02*
X0016389Y0008701D01*
X0019611Y0008701D01*
X0022588Y0009934D01*
X0024866Y0012212D01*
X0026099Y0015189D01*
X0026099Y0018411D01*
X0024866Y0021388D01*
X0022588Y0023666D01*
X0019611Y0024899D01*
X0016389Y0024899D01*
X0013412Y0023666D01*
X0011134Y0021388D01*
X0009901Y0018411D01*
X0009901Y0015189D01*
X0011134Y0012212D01*
X0013412Y0009934D01*
X0011955Y0011391D02*
X0005600Y0011391D01*
X0005600Y0012990D02*
X0010812Y0012990D01*
X0010150Y0014588D02*
X0005600Y0014588D01*
X0005600Y0016187D02*
X0009901Y0016187D01*
X0009901Y0017785D02*
X0005600Y0017785D01*
X0005600Y0019384D02*
X0010304Y0019384D01*
X0010966Y0020982D02*
X0005600Y0020982D01*
X0005600Y0022581D02*
X0012327Y0022581D01*
X0014651Y0024179D02*
X0005600Y0024179D01*
X0005600Y0025778D02*
X0140400Y0025778D01*
X0140400Y0027376D02*
X0005600Y0027376D01*
X0005600Y0028975D02*
X0140400Y0028975D01*
X0140400Y0030573D02*
X0005600Y0030573D01*
X0005600Y0032172D02*
X0140400Y0032172D01*
X0140400Y0033770D02*
X0005600Y0033770D01*
X0005600Y0035369D02*
X0140400Y0035369D01*
X0140400Y0036967D02*
X0087096Y0036967D01*
X0086692Y0036563D02*
X0087737Y0037608D01*
X0087737Y0038716D01*
X0098514Y0038716D01*
X0099464Y0039109D01*
X0100191Y0039836D01*
X0100584Y0040786D01*
X0100584Y0082814D01*
X0100191Y0083764D01*
X0099464Y0084491D01*
X0098514Y0084884D01*
X0080584Y0084884D01*
X0080584Y0214966D01*
X0139466Y0214966D01*
X0139466Y0214008D01*
X0139189Y0214284D01*
X0135311Y0214284D01*
X0134266Y0213239D01*
X0134266Y0209361D01*
X0135311Y0208316D01*
X0136716Y0208316D01*
X0136716Y0169234D01*
X0133561Y0169234D01*
X0133161Y0168834D01*
X0117839Y0168834D01*
X0117439Y0169234D01*
X0113561Y0169234D01*
X0113161Y0168834D01*
X0088389Y0168834D01*
X0087439Y0169784D01*
X0083561Y0169784D01*
X0082516Y0168739D01*
X0082516Y0164861D01*
X0083561Y0163816D01*
X0084624Y0163816D01*
X0084986Y0163666D01*
X0113161Y0163666D01*
X0113561Y0163266D01*
X0117439Y0163266D01*
X0117839Y0163666D01*
X0125016Y0163666D01*
X0125016Y0159861D01*
X0126061Y0158816D01*
X0127916Y0158816D01*
X0127916Y0156905D01*
X0127511Y0157310D01*
X0126206Y0157850D01*
X0124794Y0157850D01*
X0123489Y0157310D01*
X0122490Y0156311D01*
X0121950Y0155006D01*
X0121950Y0153594D01*
X0122490Y0152289D01*
X0123489Y0151290D01*
X0124794Y0150750D01*
X0126206Y0150750D01*
X0127511Y0151290D01*
X0127916Y0151695D01*
X0127916Y0136884D01*
X0123921Y0136884D01*
X0124464Y0137109D01*
X0125191Y0137836D01*
X0125584Y0138786D01*
X0125584Y0144461D01*
X0125984Y0144861D01*
X0125984Y0148739D01*
X0124939Y0149784D01*
X0121061Y0149784D01*
X0120016Y0148739D01*
X0120016Y0144861D01*
X0120416Y0144461D01*
X0120416Y0141884D01*
X0112839Y0141884D01*
X0112439Y0142284D01*
X0108561Y0142284D01*
X0107516Y0141239D01*
X0107516Y0137361D01*
X0107992Y0136884D01*
X0105339Y0136884D01*
X0104939Y0137284D01*
X0101061Y0137284D01*
X0100016Y0136239D01*
X0100016Y0132361D01*
X0101061Y0131316D01*
X0104939Y0131316D01*
X0105339Y0131716D01*
X0131014Y0131716D01*
X0131964Y0132109D01*
X0132691Y0132836D01*
X0133084Y0133786D01*
X0133084Y0162314D01*
X0132691Y0163264D01*
X0132289Y0163666D01*
X0133161Y0163666D01*
X0133561Y0163266D01*
X0136716Y0163266D01*
X0136716Y0133236D01*
X0137109Y0132286D01*
X0137836Y0131559D01*
X0138786Y0131166D01*
X0201716Y0131166D01*
X0201716Y0106286D01*
X0202109Y0105336D01*
X0202836Y0104609D01*
X0203786Y0104216D01*
X0297916Y0104216D01*
X0297916Y0051286D01*
X0298309Y0050336D01*
X0299036Y0049609D01*
X0299986Y0049216D01*
X0302672Y0049216D01*
X0302672Y0047518D01*
X0303300Y0046890D01*
X0303016Y0046606D01*
X0302779Y0046196D01*
X0302657Y0045738D01*
X0302657Y0042339D01*
X0307619Y0042339D01*
X0307619Y0041576D01*
X0308381Y0041576D01*
X0308381Y0036614D01*
X0311780Y0036614D01*
X0312238Y0036737D01*
X0312649Y0036974D01*
X0312984Y0037309D01*
X0313221Y0037719D01*
X0313343Y0038177D01*
X0313343Y0041576D01*
X0308381Y0041576D01*
X0308381Y0042339D01*
X0313343Y0042339D01*
X0313343Y0045738D01*
X0313221Y0046196D01*
X0312984Y0046606D01*
X0312700Y0046890D01*
X0313328Y0047518D01*
X0313328Y0056082D01*
X0312689Y0056721D01*
X0313328Y0057360D01*
X0313328Y0060160D01*
X0314036Y0059452D01*
X0314986Y0059058D01*
X0359759Y0059058D01*
X0359759Y0057360D01*
X0360804Y0056315D01*
X0369369Y0056315D01*
X0370414Y0057360D01*
X0370414Y0065925D01*
X0369369Y0066970D01*
X0360804Y0066970D01*
X0359759Y0065925D01*
X0359759Y0064227D01*
X0318084Y0064227D01*
X0318084Y0114814D01*
X0317691Y0115764D01*
X0316964Y0116491D01*
X0316014Y0116884D01*
X0214934Y0116884D01*
X0214934Y0141114D01*
X0214541Y0142064D01*
X0213814Y0142791D01*
X0212864Y0143184D01*
X0184484Y0143184D01*
X0184484Y0143489D01*
X0183439Y0144534D01*
X0179561Y0144534D01*
X0178516Y0143489D01*
X0178516Y0139611D01*
X0178742Y0139384D01*
X0145034Y0139384D01*
X0145034Y0211961D01*
X0145434Y0212361D01*
X0145434Y0214966D01*
X0146511Y0214966D01*
X0146911Y0214566D01*
X0149866Y0214566D01*
X0149866Y0203164D01*
X0149466Y0202764D01*
X0149466Y0198886D01*
X0150511Y0197841D01*
X0154389Y0197841D01*
X0155434Y0198886D01*
X0155434Y0202764D01*
X0155034Y0203164D01*
X0155034Y0206316D01*
X0156416Y0206316D01*
X0156416Y0203011D01*
X0157461Y0201966D01*
X0161339Y0201966D01*
X0162384Y0203011D01*
X0162384Y0206889D01*
X0161984Y0207289D01*
X0161984Y0224216D01*
X0342916Y0224216D01*
X0342916Y0213786D01*
X0343309Y0212836D01*
X0344036Y0212109D01*
X0344986Y0211716D01*
X0364459Y0211716D01*
X0364700Y0211816D01*
X0364700Y0198969D01*
X0365169Y0198500D01*
X0380831Y0198500D01*
X0381300Y0198969D01*
X0381300Y0214631D01*
X0380831Y0215100D01*
X0366529Y0215100D01*
X0366529Y0222179D01*
X0367627Y0223277D01*
X0368288Y0224873D01*
X0368288Y0226601D01*
X0367627Y0228197D01*
X0366405Y0229419D01*
X0365636Y0229738D01*
X0366230Y0230040D01*
X0366785Y0230444D01*
X0367270Y0230929D01*
X0367673Y0231484D01*
X0367985Y0232095D01*
X0368197Y0232748D01*
X0368304Y0233425D01*
X0368304Y0233768D01*
X0363945Y0233768D01*
X0363945Y0233769D01*
X0363945Y0233769D01*
X0363945Y0241800D01*
X0368304Y0241800D01*
X0368304Y0242143D01*
X0368197Y0242821D01*
X0367985Y0243473D01*
X0367673Y0244085D01*
X0367270Y0244640D01*
X0366785Y0245125D01*
X0366230Y0245528D01*
X0365618Y0245840D01*
X0364966Y0246052D01*
X0364288Y0246159D01*
X0363945Y0246159D01*
X0363945Y0241800D01*
X0363945Y0241800D01*
X0368304Y0241800D01*
X0368304Y0241457D01*
X0368197Y0240779D01*
X0367985Y0240127D01*
X0367673Y0239515D01*
X0367270Y0238960D01*
X0366785Y0238475D01*
X0366230Y0238072D01*
X0365665Y0237784D01*
X0366230Y0237497D01*
X0366785Y0237093D01*
X0367270Y0236608D01*
X0367673Y0236053D01*
X0367985Y0235442D01*
X0368197Y0234789D01*
X0368304Y0234112D01*
X0368304Y0233769D01*
X0363945Y0233769D01*
X0363945Y0237441D01*
X0363945Y0241800D01*
X0363945Y0241800D01*
X0363945Y0241800D01*
X0363945Y0246159D01*
X0363602Y0246159D01*
X0362924Y0246052D01*
X0362272Y0245840D01*
X0361660Y0245528D01*
X0361105Y0245125D01*
X0360620Y0244640D01*
X0360217Y0244085D01*
X0359905Y0243473D01*
X0359693Y0242821D01*
X0359586Y0242143D01*
X0359586Y0241800D01*
X0363945Y0241800D01*
X0359586Y0241800D01*
X0359586Y0241457D01*
X0359693Y0240779D01*
X0359905Y0240127D01*
X0360217Y0239515D01*
X0360620Y0238960D01*
X0361105Y0238475D01*
X0361660Y0238072D01*
X0362225Y0237784D01*
X0361660Y0237497D01*
X0361105Y0237093D01*
X0360620Y0236608D01*
X0360217Y0236053D01*
X0359905Y0235442D01*
X0359693Y0234789D01*
X0359586Y0234112D01*
X0359586Y0233769D01*
X0363945Y0233769D01*
X0363945Y0233768D01*
X0359586Y0233768D01*
X0359586Y0233425D01*
X0359693Y0232748D01*
X0359905Y0232095D01*
X0360217Y0231484D01*
X0360620Y0230929D01*
X0361105Y0230444D01*
X0361660Y0230040D01*
X0362254Y0229738D01*
X0361485Y0229419D01*
X0360263Y0228197D01*
X0359602Y0226601D01*
X0359602Y0224873D01*
X0360263Y0223277D01*
X0361361Y0222179D01*
X0361361Y0216884D01*
X0348084Y0216884D01*
X0348084Y0227247D01*
X0350387Y0227247D01*
X0351485Y0226149D01*
X0352290Y0225816D01*
X0351485Y0225482D01*
X0350263Y0224260D01*
X0349602Y0222664D01*
X0349602Y0220936D01*
X0350263Y0219340D01*
X0351485Y0218118D01*
X0353081Y0217457D01*
X0354809Y0217457D01*
X0356405Y0218118D01*
X0357627Y0219340D01*
X0358288Y0220936D01*
X0358288Y0222664D01*
X0357627Y0224260D01*
X0356405Y0225482D01*
X0355600Y0225816D01*
X0356405Y0226149D01*
X0357627Y0227371D01*
X0358288Y0228968D01*
X0358288Y0230695D01*
X0357627Y0232292D01*
X0356405Y0233514D01*
X0355600Y0233847D01*
X0356405Y0234181D01*
X0357627Y0235403D01*
X0358288Y0236999D01*
X0358288Y0238727D01*
X0357627Y0240323D01*
X0356405Y0241545D01*
X0354809Y0242206D01*
X0353081Y0242206D01*
X0351485Y0241545D01*
X0350263Y0240323D01*
X0349602Y0238727D01*
X0349602Y0236999D01*
X0350263Y0235403D01*
X0351485Y0234181D01*
X0352290Y0233847D01*
X0351485Y0233514D01*
X0350387Y0232416D01*
X0214770Y0232416D01*
X0215191Y0232836D01*
X0215584Y0233786D01*
X0215584Y0241961D01*
X0215984Y0242361D01*
X0215984Y0246239D01*
X0214939Y0247284D01*
X0211061Y0247284D01*
X0210016Y0246239D01*
X0210016Y0242361D01*
X0210416Y0241961D01*
X0210416Y0236884D01*
X0151936Y0236884D01*
X0150986Y0236491D01*
X0150259Y0235764D01*
X0149866Y0234814D01*
X0149866Y0220534D01*
X0146911Y0220534D01*
X0146511Y0220134D01*
X0077486Y0220134D01*
X0076536Y0219741D01*
X0075809Y0219014D01*
X0075416Y0218064D01*
X0075416Y0180548D01*
X0074939Y0181024D01*
X0071061Y0181024D01*
X0070016Y0179979D01*
X0070016Y0176101D01*
X0070416Y0175701D01*
X0070416Y0073786D01*
X0070809Y0072836D01*
X0071536Y0072109D01*
X0072486Y0071716D01*
X0090416Y0071716D01*
X0090416Y0051884D01*
X0087737Y0051884D01*
X0087737Y0052992D01*
X0087427Y0053301D01*
X0087630Y0053652D01*
X0087753Y0054110D01*
X0087753Y0057116D01*
X0083184Y0057116D01*
X0083184Y0057484D01*
X0082816Y0057484D01*
X0082816Y0057116D01*
X0078247Y0057116D01*
X0078247Y0054110D01*
X0078370Y0053652D01*
X0078573Y0053301D01*
X0078263Y0052992D01*
X0078263Y0045608D01*
X0078571Y0045300D01*
X0078263Y0044992D01*
X0078263Y0037608D01*
X0079308Y0036563D01*
X0086692Y0036563D01*
X0087737Y0038566D02*
X0140400Y0038566D01*
X0140400Y0040164D02*
X0100327Y0040164D01*
X0100584Y0041763D02*
X0140400Y0041763D01*
X0140400Y0043361D02*
X0100584Y0043361D01*
X0100584Y0044960D02*
X0140400Y0044960D01*
X0140400Y0046558D02*
X0100584Y0046558D01*
X0100584Y0048157D02*
X0140400Y0048157D01*
X0140400Y0049755D02*
X0100584Y0049755D01*
X0100584Y0051354D02*
X0140400Y0051354D01*
X0140400Y0052952D02*
X0100584Y0052952D01*
X0100584Y0054551D02*
X0140400Y0054551D01*
X0140400Y0056149D02*
X0100584Y0056149D01*
X0100584Y0057748D02*
X0140400Y0057748D01*
X0140400Y0059346D02*
X0100584Y0059346D01*
X0100584Y0060945D02*
X0140400Y0060945D01*
X0140400Y0062543D02*
X0100584Y0062543D01*
X0100584Y0064142D02*
X0140400Y0064142D01*
X0140400Y0065740D02*
X0100584Y0065740D01*
X0100584Y0067339D02*
X0140400Y0067339D01*
X0140400Y0068937D02*
X0100584Y0068937D01*
X0100584Y0070536D02*
X0140400Y0070536D01*
X0140400Y0072134D02*
X0100584Y0072134D01*
X0100584Y0073733D02*
X0140400Y0073733D01*
X0140400Y0075332D02*
X0100584Y0075332D01*
X0100584Y0076930D02*
X0140400Y0076930D01*
X0140400Y0078529D02*
X0100584Y0078529D01*
X0100584Y0080127D02*
X0140400Y0080127D01*
X0140400Y0081726D02*
X0100584Y0081726D01*
X0100373Y0083324D02*
X0140847Y0083324D01*
X0140796Y0083273D02*
X0140400Y0082317D01*
X0140400Y0016283D01*
X0140796Y0015327D01*
X0141527Y0014596D01*
X0142483Y0014200D01*
X0143517Y0014200D01*
X0208517Y0014200D01*
X0209473Y0014596D01*
X0210204Y0015327D01*
X0210600Y0016283D01*
X0210600Y0082317D01*
X0210204Y0083273D01*
X0209473Y0084004D01*
X0208517Y0084400D01*
X0142483Y0084400D01*
X0141527Y0084004D01*
X0140796Y0083273D01*
X0143000Y0081800D02*
X0143000Y0016800D01*
X0208000Y0016800D01*
X0208000Y0081800D01*
X0143000Y0081800D01*
X0166300Y0097560D02*
X0168760Y0095100D01*
X0170500Y0095100D01*
X0172240Y0095100D01*
X0174700Y0097560D01*
X0174700Y0099300D01*
X0174700Y0101040D01*
X0172240Y0103500D01*
X0170500Y0103500D01*
X0170500Y0099300D01*
X0174700Y0099300D01*
X0170500Y0099300D01*
X0170500Y0099300D01*
X0170500Y0099300D01*
X0170500Y0095100D01*
X0170500Y0099300D01*
X0170500Y0099300D01*
X0170500Y0099300D01*
X0166300Y0099300D01*
X0166300Y0101040D01*
X0168760Y0103500D01*
X0170500Y0103500D01*
X0170500Y0099300D01*
X0166300Y0099300D01*
X0166300Y0097560D01*
X0166300Y0097711D02*
X0080584Y0097711D01*
X0080584Y0099309D02*
X0166300Y0099309D01*
X0166300Y0100908D02*
X0080584Y0100908D01*
X0080584Y0102506D02*
X0167767Y0102506D01*
X0170500Y0102506D02*
X0170500Y0102506D01*
X0170500Y0100908D02*
X0170500Y0100908D01*
X0170500Y0099309D02*
X0170500Y0099309D01*
X0170500Y0097711D02*
X0170500Y0097711D01*
X0170500Y0096112D02*
X0170500Y0096112D01*
X0173252Y0096112D02*
X0177770Y0096112D01*
X0178767Y0095116D02*
X0182233Y0095116D01*
X0184684Y0097567D01*
X0184684Y0101033D01*
X0182233Y0103484D01*
X0178767Y0103484D01*
X0176316Y0101033D01*
X0176316Y0097567D01*
X0178767Y0095116D01*
X0176316Y0097711D02*
X0174700Y0097711D01*
X0174700Y0099309D02*
X0176316Y0099309D01*
X0176316Y0100908D02*
X0174700Y0100908D01*
X0173233Y0102506D02*
X0177789Y0102506D01*
X0179409Y0106316D02*
X0177393Y0107151D01*
X0175851Y0108693D01*
X0175510Y0109517D01*
X0175204Y0108917D01*
X0174695Y0108217D01*
X0174083Y0107605D01*
X0173383Y0107096D01*
X0172611Y0106703D01*
X0171788Y0106435D01*
X0170933Y0106300D01*
X0170500Y0106300D01*
X0170500Y0111800D01*
X0170500Y0111800D01*
X0170500Y0117300D01*
X0170933Y0117300D01*
X0171788Y0117165D01*
X0172611Y0116897D01*
X0173383Y0116504D01*
X0174083Y0115995D01*
X0174695Y0115383D01*
X0175204Y0114683D01*
X0175510Y0114083D01*
X0175851Y0114907D01*
X0177393Y0116449D01*
X0179409Y0117284D01*
X0181591Y0117284D01*
X0183607Y0116449D01*
X0185149Y0114907D01*
X0185984Y0112891D01*
X0185984Y0110709D01*
X0185149Y0108693D01*
X0183607Y0107151D01*
X0181591Y0106316D01*
X0179409Y0106316D01*
X0177242Y0107302D02*
X0173666Y0107302D01*
X0175192Y0108900D02*
X0175765Y0108900D01*
X0170500Y0108900D02*
X0170500Y0108900D01*
X0170500Y0107302D02*
X0170500Y0107302D01*
X0170500Y0106300D02*
X0170500Y0111800D01*
X0170500Y0117300D01*
X0170067Y0117300D01*
X0169212Y0117165D01*
X0168389Y0116897D01*
X0167617Y0116504D01*
X0166917Y0115995D01*
X0166305Y0115383D01*
X0165796Y0114683D01*
X0165403Y0113911D01*
X0165135Y0113088D01*
X0165000Y0112233D01*
X0165000Y0111800D01*
X0170500Y0111800D01*
X0170500Y0111800D01*
X0170500Y0111800D01*
X0165000Y0111800D01*
X0165000Y0111367D01*
X0165135Y0110512D01*
X0165403Y0109689D01*
X0165796Y0108917D01*
X0166305Y0108217D01*
X0166917Y0107605D01*
X0167617Y0107096D01*
X0168389Y0106703D01*
X0169212Y0106435D01*
X0170067Y0106300D01*
X0170500Y0106300D01*
X0167334Y0107302D02*
X0080584Y0107302D01*
X0080584Y0108900D02*
X0165808Y0108900D01*
X0165140Y0110499D02*
X0080584Y0110499D01*
X0080584Y0112097D02*
X0165000Y0112097D01*
X0165333Y0113696D02*
X0080584Y0113696D01*
X0080584Y0115294D02*
X0166240Y0115294D01*
X0168380Y0116893D02*
X0080584Y0116893D01*
X0080584Y0118491D02*
X0201716Y0118491D01*
X0201716Y0116893D02*
X0182536Y0116893D01*
X0184762Y0115294D02*
X0201716Y0115294D01*
X0201716Y0113696D02*
X0185651Y0113696D01*
X0185984Y0112097D02*
X0201716Y0112097D01*
X0201716Y0110499D02*
X0185897Y0110499D01*
X0185235Y0108900D02*
X0201716Y0108900D01*
X0201716Y0107302D02*
X0183758Y0107302D01*
X0183211Y0102506D02*
X0297916Y0102506D01*
X0297916Y0100908D02*
X0184684Y0100908D01*
X0184684Y0099309D02*
X0297916Y0099309D01*
X0297916Y0097711D02*
X0184684Y0097711D01*
X0183230Y0096112D02*
X0297916Y0096112D01*
X0297916Y0094514D02*
X0080584Y0094514D01*
X0080584Y0096112D02*
X0167748Y0096112D01*
X0170500Y0110499D02*
X0170500Y0110499D01*
X0170500Y0112097D02*
X0170500Y0112097D01*
X0170500Y0113696D02*
X0170500Y0113696D01*
X0170500Y0115294D02*
X0170500Y0115294D01*
X0170500Y0116893D02*
X0170500Y0116893D01*
X0172620Y0116893D02*
X0178464Y0116893D01*
X0176238Y0115294D02*
X0174760Y0115294D01*
X0201716Y0120090D02*
X0080584Y0120090D01*
X0080584Y0121688D02*
X0201716Y0121688D01*
X0201716Y0123287D02*
X0080584Y0123287D01*
X0080584Y0124885D02*
X0201716Y0124885D01*
X0201716Y0126484D02*
X0080584Y0126484D01*
X0080584Y0128082D02*
X0201716Y0128082D01*
X0201716Y0129681D02*
X0080584Y0129681D01*
X0080584Y0131279D02*
X0138512Y0131279D01*
X0136864Y0132878D02*
X0132708Y0132878D01*
X0133084Y0134476D02*
X0136716Y0134476D01*
X0136716Y0136075D02*
X0133084Y0136075D01*
X0133084Y0137673D02*
X0136716Y0137673D01*
X0136716Y0139272D02*
X0133084Y0139272D01*
X0133084Y0140870D02*
X0136716Y0140870D01*
X0136716Y0142469D02*
X0133084Y0142469D01*
X0133084Y0144068D02*
X0136716Y0144068D01*
X0136716Y0145666D02*
X0133084Y0145666D01*
X0133084Y0147265D02*
X0136716Y0147265D01*
X0136716Y0148863D02*
X0133084Y0148863D01*
X0133084Y0150462D02*
X0136716Y0150462D01*
X0136716Y0152060D02*
X0133084Y0152060D01*
X0133084Y0153659D02*
X0136716Y0153659D01*
X0136716Y0155257D02*
X0133084Y0155257D01*
X0133084Y0156856D02*
X0136716Y0156856D01*
X0136716Y0158454D02*
X0133084Y0158454D01*
X0133084Y0160053D02*
X0136716Y0160053D01*
X0136716Y0161651D02*
X0133084Y0161651D01*
X0132697Y0163250D02*
X0136716Y0163250D01*
X0135500Y0166250D02*
X0115500Y0166250D01*
X0085500Y0166250D01*
X0085500Y0166800D01*
X0082516Y0166447D02*
X0080584Y0166447D01*
X0080584Y0168045D02*
X0082516Y0168045D01*
X0083420Y0169644D02*
X0080584Y0169644D01*
X0080584Y0171242D02*
X0136716Y0171242D01*
X0136716Y0169644D02*
X0087580Y0169644D01*
X0082529Y0164848D02*
X0080584Y0164848D01*
X0080584Y0163250D02*
X0125016Y0163250D01*
X0125016Y0161651D02*
X0106686Y0161651D01*
X0106206Y0161850D02*
X0104794Y0161850D01*
X0103489Y0161310D01*
X0102490Y0160311D01*
X0101950Y0159006D01*
X0101950Y0157594D01*
X0102490Y0156289D01*
X0103489Y0155290D01*
X0104794Y0154750D01*
X0106206Y0154750D01*
X0107511Y0155290D01*
X0108510Y0156289D01*
X0109050Y0157594D01*
X0109050Y0159006D01*
X0108510Y0160311D01*
X0107511Y0161310D01*
X0106206Y0161850D01*
X0104314Y0161651D02*
X0080584Y0161651D01*
X0080584Y0160053D02*
X0102383Y0160053D01*
X0101950Y0158454D02*
X0080584Y0158454D01*
X0080584Y0156856D02*
X0102256Y0156856D01*
X0103570Y0155257D02*
X0080584Y0155257D01*
X0080584Y0153659D02*
X0104332Y0153659D01*
X0104794Y0153850D02*
X0103489Y0153310D01*
X0102490Y0152311D01*
X0101950Y0151006D01*
X0101950Y0149594D01*
X0102490Y0148289D01*
X0103489Y0147290D01*
X0104794Y0146750D01*
X0106206Y0146750D01*
X0107511Y0147290D01*
X0108510Y0148289D01*
X0109050Y0149594D01*
X0109050Y0151006D01*
X0108510Y0152311D01*
X0107511Y0153310D01*
X0106206Y0153850D01*
X0104794Y0153850D01*
X0106668Y0153659D02*
X0121950Y0153659D01*
X0122054Y0155257D02*
X0107430Y0155257D01*
X0108744Y0156856D02*
X0123035Y0156856D01*
X0125016Y0160053D02*
X0108617Y0160053D01*
X0109050Y0158454D02*
X0127916Y0158454D01*
X0128000Y0161800D02*
X0130500Y0161800D01*
X0130500Y0134300D01*
X0103000Y0134300D01*
X0100016Y0134476D02*
X0080584Y0134476D01*
X0080584Y0132878D02*
X0100016Y0132878D01*
X0100016Y0136075D02*
X0080584Y0136075D01*
X0080584Y0137673D02*
X0107516Y0137673D01*
X0107516Y0139272D02*
X0080584Y0139272D01*
X0080584Y0140870D02*
X0107516Y0140870D01*
X0110500Y0139300D02*
X0123000Y0139300D01*
X0123000Y0146800D01*
X0125984Y0147265D02*
X0127916Y0147265D01*
X0127916Y0148863D02*
X0125860Y0148863D01*
X0127916Y0150462D02*
X0109050Y0150462D01*
X0108747Y0148863D02*
X0120140Y0148863D01*
X0120016Y0147265D02*
X0107448Y0147265D01*
X0103552Y0147265D02*
X0080584Y0147265D01*
X0080584Y0148863D02*
X0102253Y0148863D01*
X0101950Y0150462D02*
X0080584Y0150462D01*
X0080584Y0152060D02*
X0102387Y0152060D01*
X0108613Y0152060D02*
X0122719Y0152060D01*
X0120016Y0145666D02*
X0080584Y0145666D01*
X0080584Y0144068D02*
X0120416Y0144068D01*
X0120416Y0142469D02*
X0080584Y0142469D01*
X0070416Y0142469D02*
X0005600Y0142469D01*
X0005600Y0140870D02*
X0070416Y0140870D01*
X0070416Y0139272D02*
X0005600Y0139272D01*
X0005600Y0137673D02*
X0070416Y0137673D01*
X0070416Y0136075D02*
X0005600Y0136075D01*
X0005600Y0134476D02*
X0070416Y0134476D01*
X0070416Y0132878D02*
X0005600Y0132878D01*
X0005600Y0131279D02*
X0070416Y0131279D01*
X0070416Y0129681D02*
X0005600Y0129681D01*
X0005600Y0128082D02*
X0070416Y0128082D01*
X0070416Y0126484D02*
X0005600Y0126484D01*
X0005600Y0124885D02*
X0070416Y0124885D01*
X0070416Y0123287D02*
X0005600Y0123287D01*
X0005600Y0121688D02*
X0070416Y0121688D01*
X0070416Y0120090D02*
X0005600Y0120090D01*
X0005600Y0118491D02*
X0070416Y0118491D01*
X0070416Y0116893D02*
X0005600Y0116893D01*
X0005600Y0115294D02*
X0070416Y0115294D01*
X0070416Y0113696D02*
X0005600Y0113696D01*
X0005600Y0112097D02*
X0070416Y0112097D01*
X0070416Y0110499D02*
X0005600Y0110499D01*
X0005600Y0108900D02*
X0070416Y0108900D01*
X0070416Y0107302D02*
X0005600Y0107302D01*
X0005600Y0105703D02*
X0070416Y0105703D01*
X0070416Y0104105D02*
X0005600Y0104105D01*
X0005600Y0102506D02*
X0070416Y0102506D01*
X0070416Y0100908D02*
X0005600Y0100908D01*
X0005600Y0099309D02*
X0070416Y0099309D01*
X0070416Y0097711D02*
X0005600Y0097711D01*
X0005600Y0096112D02*
X0070416Y0096112D01*
X0070416Y0094514D02*
X0005600Y0094514D01*
X0005600Y0092915D02*
X0070416Y0092915D01*
X0070416Y0091317D02*
X0005600Y0091317D01*
X0005600Y0089718D02*
X0070416Y0089718D01*
X0070416Y0088120D02*
X0005600Y0088120D01*
X0005600Y0086521D02*
X0070416Y0086521D01*
X0070416Y0084923D02*
X0005600Y0084923D01*
X0005600Y0083324D02*
X0070416Y0083324D01*
X0070416Y0081726D02*
X0005600Y0081726D01*
X0005600Y0080127D02*
X0070416Y0080127D01*
X0070416Y0078529D02*
X0005600Y0078529D01*
X0005600Y0076930D02*
X0070416Y0076930D01*
X0070416Y0075332D02*
X0005600Y0075332D01*
X0005600Y0073733D02*
X0070438Y0073733D01*
X0071511Y0072134D02*
X0005600Y0072134D01*
X0005600Y0070536D02*
X0090416Y0070536D01*
X0090416Y0068937D02*
X0005600Y0068937D01*
X0005600Y0067339D02*
X0090416Y0067339D01*
X0090416Y0065740D02*
X0005600Y0065740D01*
X0005600Y0064142D02*
X0090416Y0064142D01*
X0090416Y0062543D02*
X0005600Y0062543D01*
X0005600Y0060945D02*
X0078369Y0060945D01*
X0078370Y0060948D02*
X0078247Y0060490D01*
X0078247Y0057484D01*
X0082816Y0057484D01*
X0082816Y0062053D01*
X0079810Y0062053D01*
X0079352Y0061930D01*
X0078942Y0061693D01*
X0078607Y0061358D01*
X0078370Y0060948D01*
X0078247Y0059346D02*
X0005600Y0059346D01*
X0005600Y0057748D02*
X0078247Y0057748D01*
X0078247Y0056149D02*
X0005600Y0056149D01*
X0005600Y0054551D02*
X0078247Y0054551D01*
X0078263Y0052952D02*
X0005600Y0052952D01*
X0005600Y0051354D02*
X0078263Y0051354D01*
X0078263Y0049755D02*
X0005600Y0049755D01*
X0005600Y0048157D02*
X0078263Y0048157D01*
X0078263Y0046558D02*
X0005600Y0046558D01*
X0005600Y0044960D02*
X0078263Y0044960D01*
X0078263Y0043361D02*
X0005600Y0043361D01*
X0005600Y0041763D02*
X0078263Y0041763D01*
X0078263Y0040164D02*
X0005600Y0040164D01*
X0005600Y0038566D02*
X0078263Y0038566D01*
X0078904Y0036967D02*
X0005600Y0036967D01*
X0021349Y0024179D02*
X0140400Y0024179D01*
X0140400Y0022581D02*
X0023673Y0022581D01*
X0025034Y0020982D02*
X0140400Y0020982D01*
X0140400Y0019384D02*
X0025696Y0019384D01*
X0026099Y0017785D02*
X0140400Y0017785D01*
X0140440Y0016187D02*
X0026099Y0016187D01*
X0025850Y0014588D02*
X0141546Y0014588D01*
X0098000Y0041300D02*
X0083000Y0041300D01*
X0083000Y0049300D02*
X0093000Y0049300D01*
X0093000Y0074300D01*
X0073000Y0074300D01*
X0073000Y0178040D01*
X0070016Y0177636D02*
X0065939Y0177636D01*
X0066173Y0177880D02*
X0066139Y0179527D01*
X0065063Y0180560D01*
X0063573Y0180529D01*
X0062540Y0179453D01*
X0062574Y0177806D01*
X0063649Y0176774D01*
X0065140Y0176804D01*
X0066173Y0177880D01*
X0066145Y0179235D02*
X0070016Y0179235D01*
X0070870Y0180833D02*
X0005600Y0180833D01*
X0005600Y0179235D02*
X0062544Y0179235D01*
X0062751Y0177636D02*
X0005600Y0177636D01*
X0005600Y0176038D02*
X0070079Y0176038D01*
X0070416Y0174439D02*
X0005600Y0174439D01*
X0005600Y0172841D02*
X0070416Y0172841D01*
X0070416Y0171242D02*
X0005600Y0171242D01*
X0005600Y0169644D02*
X0070416Y0169644D01*
X0070416Y0168045D02*
X0005600Y0168045D01*
X0005600Y0166447D02*
X0070416Y0166447D01*
X0070416Y0164848D02*
X0005600Y0164848D01*
X0005600Y0163250D02*
X0070416Y0163250D01*
X0070416Y0161651D02*
X0005600Y0161651D01*
X0005600Y0160053D02*
X0070416Y0160053D01*
X0070416Y0158454D02*
X0052597Y0158454D01*
X0051580Y0158876D02*
X0054556Y0157643D01*
X0056835Y0155364D01*
X0058068Y0152387D01*
X0058068Y0149165D01*
X0056835Y0146189D01*
X0054556Y0143910D01*
X0051580Y0142677D01*
X0048357Y0142677D01*
X0045381Y0143910D01*
X0043102Y0146189D01*
X0041869Y0149165D01*
X0041869Y0152387D01*
X0043102Y0155364D01*
X0045381Y0157643D01*
X0048357Y0158876D01*
X0051580Y0158876D01*
X0047340Y0158454D02*
X0005600Y0158454D01*
X0005600Y0156856D02*
X0044594Y0156856D01*
X0043058Y0155257D02*
X0005600Y0155257D01*
X0005600Y0153659D02*
X0042396Y0153659D01*
X0041869Y0152060D02*
X0005600Y0152060D01*
X0005600Y0150462D02*
X0041869Y0150462D01*
X0041995Y0148863D02*
X0005600Y0148863D01*
X0005600Y0147265D02*
X0042657Y0147265D01*
X0043625Y0145666D02*
X0005600Y0145666D01*
X0005600Y0144068D02*
X0045223Y0144068D01*
X0054714Y0144068D02*
X0070416Y0144068D01*
X0070416Y0145666D02*
X0056312Y0145666D01*
X0057280Y0147265D02*
X0070416Y0147265D01*
X0070416Y0148863D02*
X0057942Y0148863D01*
X0058068Y0150462D02*
X0070416Y0150462D01*
X0070416Y0152060D02*
X0058068Y0152060D01*
X0057541Y0153659D02*
X0070416Y0153659D01*
X0070416Y0155257D02*
X0056879Y0155257D01*
X0055343Y0156856D02*
X0070416Y0156856D01*
X0080584Y0172841D02*
X0136716Y0172841D01*
X0136716Y0174439D02*
X0080584Y0174439D01*
X0080584Y0176038D02*
X0136716Y0176038D01*
X0136716Y0177636D02*
X0080584Y0177636D01*
X0080584Y0179235D02*
X0136716Y0179235D01*
X0136716Y0180833D02*
X0080584Y0180833D01*
X0080584Y0182432D02*
X0136716Y0182432D01*
X0136716Y0184030D02*
X0080584Y0184030D01*
X0080584Y0185629D02*
X0136716Y0185629D01*
X0136716Y0187227D02*
X0080584Y0187227D01*
X0080584Y0188826D02*
X0136716Y0188826D01*
X0136716Y0190424D02*
X0080584Y0190424D01*
X0080584Y0192023D02*
X0136716Y0192023D01*
X0136716Y0193621D02*
X0080584Y0193621D01*
X0080584Y0195220D02*
X0136716Y0195220D01*
X0136716Y0196818D02*
X0080584Y0196818D01*
X0080584Y0198417D02*
X0136716Y0198417D01*
X0136716Y0200015D02*
X0080584Y0200015D01*
X0080584Y0201614D02*
X0136716Y0201614D01*
X0136716Y0203212D02*
X0080584Y0203212D01*
X0080584Y0204811D02*
X0136716Y0204811D01*
X0136716Y0206409D02*
X0080584Y0206409D01*
X0080584Y0208008D02*
X0136716Y0208008D01*
X0134266Y0209606D02*
X0080584Y0209606D01*
X0080584Y0211205D02*
X0134266Y0211205D01*
X0134266Y0212803D02*
X0080584Y0212803D01*
X0080584Y0214402D02*
X0139466Y0214402D01*
X0142450Y0214300D02*
X0142450Y0136800D01*
X0208000Y0136800D01*
X0208000Y0110600D01*
X0308000Y0110600D01*
X0308000Y0061643D01*
X0313328Y0059346D02*
X0314290Y0059346D01*
X0313328Y0057748D02*
X0359759Y0057748D01*
X0365087Y0061643D02*
X0315500Y0061643D01*
X0315500Y0114300D01*
X0212350Y0114300D01*
X0212350Y0140600D01*
X0181500Y0140600D01*
X0181500Y0141550D01*
X0178516Y0140870D02*
X0145034Y0140870D01*
X0145034Y0142469D02*
X0178516Y0142469D01*
X0179094Y0144068D02*
X0145034Y0144068D01*
X0145034Y0145666D02*
X0339688Y0145666D01*
X0339165Y0146189D02*
X0341444Y0143910D01*
X0344420Y0142677D01*
X0347643Y0142677D01*
X0350619Y0143910D01*
X0352898Y0146189D01*
X0354131Y0149165D01*
X0354131Y0152387D01*
X0352898Y0155364D01*
X0350619Y0157643D01*
X0347643Y0158876D01*
X0344420Y0158876D01*
X0341444Y0157643D01*
X0339165Y0155364D01*
X0337932Y0152387D01*
X0337932Y0149165D01*
X0339165Y0146189D01*
X0338720Y0147265D02*
X0145034Y0147265D01*
X0145034Y0148863D02*
X0338057Y0148863D01*
X0337932Y0150462D02*
X0145034Y0150462D01*
X0145034Y0152060D02*
X0337932Y0152060D01*
X0338459Y0153659D02*
X0145034Y0153659D01*
X0145034Y0155257D02*
X0339121Y0155257D01*
X0340657Y0156856D02*
X0145034Y0156856D01*
X0145034Y0158454D02*
X0343403Y0158454D01*
X0348660Y0158454D02*
X0390400Y0158454D01*
X0390400Y0156856D02*
X0351406Y0156856D01*
X0352942Y0155257D02*
X0390400Y0155257D01*
X0390400Y0153659D02*
X0353604Y0153659D01*
X0354131Y0152060D02*
X0390400Y0152060D01*
X0390400Y0150462D02*
X0354131Y0150462D01*
X0354005Y0148863D02*
X0390400Y0148863D01*
X0390400Y0147265D02*
X0353343Y0147265D01*
X0352375Y0145666D02*
X0390400Y0145666D01*
X0390400Y0144068D02*
X0350777Y0144068D01*
X0341286Y0144068D02*
X0183906Y0144068D01*
X0204300Y0133750D02*
X0204300Y0106800D01*
X0300500Y0106800D01*
X0300500Y0051800D01*
X0308000Y0051800D01*
X0313328Y0051354D02*
X0390400Y0051354D01*
X0390400Y0052952D02*
X0313328Y0052952D01*
X0313328Y0054551D02*
X0390400Y0054551D01*
X0390400Y0056149D02*
X0313261Y0056149D01*
X0313328Y0049755D02*
X0390400Y0049755D01*
X0390400Y0048157D02*
X0313328Y0048157D01*
X0313011Y0046558D02*
X0360075Y0046558D01*
X0360103Y0046606D02*
X0359866Y0046196D01*
X0359743Y0045738D01*
X0359743Y0042339D01*
X0364705Y0042339D01*
X0364705Y0041576D01*
X0359743Y0041576D01*
X0359743Y0038177D01*
X0359866Y0037719D01*
X0360103Y0037309D01*
X0360438Y0036974D01*
X0360849Y0036737D01*
X0361306Y0036614D01*
X0364705Y0036614D01*
X0364705Y0041576D01*
X0365468Y0041576D01*
X0365468Y0036614D01*
X0368867Y0036614D01*
X0369325Y0036737D01*
X0369735Y0036974D01*
X0370070Y0037309D01*
X0370307Y0037719D01*
X0370430Y0038177D01*
X0370430Y0041576D01*
X0365468Y0041576D01*
X0365468Y0042339D01*
X0364705Y0042339D01*
X0364705Y0047301D01*
X0361306Y0047301D01*
X0360849Y0047178D01*
X0360438Y0046941D01*
X0360103Y0046606D01*
X0359743Y0044960D02*
X0313343Y0044960D01*
X0313343Y0043361D02*
X0359743Y0043361D01*
X0359743Y0040164D02*
X0313343Y0040164D01*
X0313343Y0038566D02*
X0359743Y0038566D01*
X0360449Y0036967D02*
X0312637Y0036967D01*
X0308381Y0036967D02*
X0307619Y0036967D01*
X0307619Y0036614D02*
X0307619Y0041576D01*
X0302657Y0041576D01*
X0302657Y0038177D01*
X0302779Y0037719D01*
X0303016Y0037309D01*
X0303351Y0036974D01*
X0303762Y0036737D01*
X0304220Y0036614D01*
X0307619Y0036614D01*
X0307619Y0038566D02*
X0308381Y0038566D01*
X0308381Y0040164D02*
X0307619Y0040164D01*
X0307619Y0041763D02*
X0263811Y0041763D01*
X0263918Y0041505D02*
X0263332Y0042920D01*
X0262701Y0043551D01*
X0263332Y0044181D01*
X0263918Y0045597D01*
X0263918Y0047129D01*
X0263332Y0048545D01*
X0262248Y0049628D01*
X0260833Y0050214D01*
X0255167Y0050214D01*
X0253752Y0049628D01*
X0252668Y0048545D01*
X0252082Y0047129D01*
X0252082Y0045597D01*
X0252668Y0044181D01*
X0253299Y0043551D01*
X0252668Y0042920D01*
X0252082Y0041505D01*
X0252082Y0039973D01*
X0252668Y0038557D01*
X0253752Y0037474D01*
X0255167Y0036888D01*
X0260833Y0036888D01*
X0262248Y0037474D01*
X0263332Y0038557D01*
X0263918Y0039973D01*
X0263918Y0041505D01*
X0263918Y0040164D02*
X0302657Y0040164D01*
X0302657Y0038566D02*
X0263335Y0038566D01*
X0261025Y0036967D02*
X0303363Y0036967D01*
X0302657Y0043361D02*
X0262891Y0043361D01*
X0263654Y0044960D02*
X0302657Y0044960D01*
X0302989Y0046558D02*
X0263918Y0046558D01*
X0263492Y0048157D02*
X0302672Y0048157D01*
X0298890Y0049755D02*
X0261941Y0049755D01*
X0260833Y0053760D02*
X0255167Y0053760D01*
X0253752Y0054346D01*
X0252668Y0055430D01*
X0252082Y0056845D01*
X0252082Y0058377D01*
X0252668Y0059793D01*
X0253752Y0060876D01*
X0255167Y0061462D01*
X0260833Y0061462D01*
X0262248Y0060876D01*
X0263332Y0059793D01*
X0263918Y0058377D01*
X0263918Y0056845D01*
X0263332Y0055430D01*
X0262248Y0054346D01*
X0260833Y0053760D01*
X0262453Y0054551D02*
X0297916Y0054551D01*
X0297916Y0056149D02*
X0263630Y0056149D01*
X0263918Y0057748D02*
X0297916Y0057748D01*
X0297916Y0059346D02*
X0263517Y0059346D01*
X0262082Y0060945D02*
X0297916Y0060945D01*
X0297916Y0062543D02*
X0210600Y0062543D01*
X0210600Y0060945D02*
X0253918Y0060945D01*
X0252483Y0059346D02*
X0210600Y0059346D01*
X0210600Y0057748D02*
X0252082Y0057748D01*
X0252370Y0056149D02*
X0210600Y0056149D01*
X0210600Y0054551D02*
X0253547Y0054551D01*
X0254059Y0049755D02*
X0210600Y0049755D01*
X0210600Y0048157D02*
X0252508Y0048157D01*
X0252082Y0046558D02*
X0210600Y0046558D01*
X0210600Y0044960D02*
X0252346Y0044960D01*
X0253109Y0043361D02*
X0210600Y0043361D01*
X0210600Y0041763D02*
X0252189Y0041763D01*
X0252082Y0040164D02*
X0210600Y0040164D01*
X0210600Y0038566D02*
X0252665Y0038566D01*
X0254975Y0036967D02*
X0210600Y0036967D01*
X0210600Y0035369D02*
X0328231Y0035369D01*
X0328231Y0035445D02*
X0328231Y0018943D01*
X0329277Y0017898D01*
X0345778Y0017898D01*
X0346824Y0018943D01*
X0346824Y0035445D01*
X0345778Y0036490D01*
X0329277Y0036490D01*
X0328231Y0035445D01*
X0328231Y0033770D02*
X0210600Y0033770D01*
X0210600Y0032172D02*
X0328231Y0032172D01*
X0328231Y0030573D02*
X0210600Y0030573D01*
X0210600Y0028975D02*
X0328231Y0028975D01*
X0328231Y0027376D02*
X0210600Y0027376D01*
X0210600Y0025778D02*
X0328231Y0025778D01*
X0328231Y0024179D02*
X0210600Y0024179D01*
X0210600Y0022581D02*
X0328231Y0022581D01*
X0328231Y0020982D02*
X0210600Y0020982D01*
X0210600Y0019384D02*
X0328231Y0019384D01*
X0346824Y0019384D02*
X0370304Y0019384D01*
X0369901Y0018411D02*
X0369901Y0015189D01*
X0371134Y0012212D01*
X0373412Y0009934D01*
X0376389Y0008701D01*
X0379611Y0008701D01*
X0382588Y0009934D01*
X0384866Y0012212D01*
X0386099Y0015189D01*
X0386099Y0018411D01*
X0384866Y0021388D01*
X0382588Y0023666D01*
X0379611Y0024899D01*
X0376389Y0024899D01*
X0373412Y0023666D01*
X0371134Y0021388D01*
X0369901Y0018411D01*
X0369901Y0017785D02*
X0210600Y0017785D01*
X0210560Y0016187D02*
X0369901Y0016187D01*
X0370150Y0014588D02*
X0209454Y0014588D01*
X0210600Y0051354D02*
X0297916Y0051354D01*
X0297916Y0052952D02*
X0210600Y0052952D01*
X0210600Y0064142D02*
X0297916Y0064142D01*
X0297916Y0065740D02*
X0210600Y0065740D01*
X0210600Y0067339D02*
X0297916Y0067339D01*
X0297916Y0068937D02*
X0210600Y0068937D01*
X0210600Y0070536D02*
X0297916Y0070536D01*
X0297916Y0072134D02*
X0210600Y0072134D01*
X0210600Y0073733D02*
X0297916Y0073733D01*
X0297916Y0075332D02*
X0210600Y0075332D01*
X0210600Y0076930D02*
X0297916Y0076930D01*
X0297916Y0078529D02*
X0210600Y0078529D01*
X0210600Y0080127D02*
X0297916Y0080127D01*
X0297916Y0081726D02*
X0210600Y0081726D01*
X0210153Y0083324D02*
X0297916Y0083324D01*
X0297916Y0084923D02*
X0080584Y0084923D01*
X0080584Y0086521D02*
X0297916Y0086521D01*
X0297916Y0088120D02*
X0080584Y0088120D01*
X0080584Y0089718D02*
X0297916Y0089718D01*
X0297916Y0091317D02*
X0080584Y0091317D01*
X0080584Y0092915D02*
X0297916Y0092915D01*
X0297916Y0104105D02*
X0080584Y0104105D01*
X0080584Y0105703D02*
X0201957Y0105703D01*
X0214934Y0116893D02*
X0390400Y0116893D01*
X0390400Y0118491D02*
X0214934Y0118491D01*
X0214934Y0120090D02*
X0390400Y0120090D01*
X0390400Y0121688D02*
X0248062Y0121688D01*
X0248434Y0122061D02*
X0248434Y0125939D01*
X0248423Y0125950D01*
X0248434Y0125961D01*
X0248434Y0129839D01*
X0248423Y0129850D01*
X0248434Y0129861D01*
X0248434Y0133739D01*
X0247389Y0134784D01*
X0243511Y0134784D01*
X0243111Y0134384D01*
X0222839Y0134384D01*
X0222439Y0134784D01*
X0218561Y0134784D01*
X0217516Y0133739D01*
X0217516Y0129861D01*
X0217527Y0129850D01*
X0217516Y0129839D01*
X0217516Y0125961D01*
X0217527Y0125950D01*
X0217516Y0125939D01*
X0217516Y0122061D01*
X0218561Y0121016D01*
X0222439Y0121016D01*
X0222839Y0121416D01*
X0243111Y0121416D01*
X0243511Y0121016D01*
X0247389Y0121016D01*
X0248434Y0122061D01*
X0248434Y0123287D02*
X0390400Y0123287D01*
X0390400Y0124885D02*
X0248434Y0124885D01*
X0248434Y0126484D02*
X0390400Y0126484D01*
X0390400Y0128082D02*
X0248434Y0128082D01*
X0248434Y0129681D02*
X0390400Y0129681D01*
X0390400Y0131279D02*
X0248434Y0131279D01*
X0248434Y0132878D02*
X0390400Y0132878D01*
X0390400Y0134476D02*
X0247697Y0134476D01*
X0245450Y0131800D02*
X0220500Y0131800D01*
X0217516Y0131279D02*
X0214934Y0131279D01*
X0214934Y0129681D02*
X0217516Y0129681D01*
X0217516Y0128082D02*
X0214934Y0128082D01*
X0214934Y0126484D02*
X0217516Y0126484D01*
X0217516Y0124885D02*
X0214934Y0124885D01*
X0214934Y0123287D02*
X0217516Y0123287D01*
X0217888Y0121688D02*
X0214934Y0121688D01*
X0220500Y0124000D02*
X0245450Y0124000D01*
X0245450Y0127900D02*
X0220500Y0127900D01*
X0217516Y0132878D02*
X0214934Y0132878D01*
X0214934Y0134476D02*
X0218253Y0134476D01*
X0214934Y0136075D02*
X0390400Y0136075D01*
X0390400Y0137673D02*
X0214934Y0137673D01*
X0214934Y0139272D02*
X0390400Y0139272D01*
X0390400Y0140870D02*
X0214934Y0140870D01*
X0214136Y0142469D02*
X0390400Y0142469D01*
X0390400Y0160053D02*
X0374883Y0160053D01*
X0375023Y0160111D02*
X0376028Y0161115D01*
X0376572Y0162428D01*
X0376572Y0163849D01*
X0376028Y0165162D01*
X0375023Y0166166D01*
X0373710Y0166710D01*
X0372290Y0166710D01*
X0370977Y0166166D01*
X0369972Y0165162D01*
X0369428Y0163849D01*
X0369428Y0162428D01*
X0369972Y0161115D01*
X0370977Y0160111D01*
X0372290Y0159567D01*
X0373710Y0159567D01*
X0375023Y0160111D01*
X0376250Y0161651D02*
X0390400Y0161651D01*
X0390400Y0163250D02*
X0376572Y0163250D01*
X0376158Y0164848D02*
X0390400Y0164848D01*
X0390400Y0166447D02*
X0374347Y0166447D01*
X0371653Y0166447D02*
X0145034Y0166447D01*
X0145034Y0168045D02*
X0390400Y0168045D01*
X0390400Y0169644D02*
X0145034Y0169644D01*
X0145034Y0171242D02*
X0390400Y0171242D01*
X0390400Y0172841D02*
X0145034Y0172841D01*
X0145034Y0174439D02*
X0390400Y0174439D01*
X0390400Y0176038D02*
X0145034Y0176038D01*
X0145034Y0177636D02*
X0370774Y0177636D01*
X0370977Y0177434D02*
X0372290Y0176890D01*
X0373710Y0176890D01*
X0375023Y0177434D01*
X0376028Y0178438D01*
X0376572Y0179751D01*
X0376572Y0181172D01*
X0376028Y0182485D01*
X0375023Y0183489D01*
X0373710Y0184033D01*
X0372290Y0184033D01*
X0370977Y0183489D01*
X0369972Y0182485D01*
X0369428Y0181172D01*
X0369428Y0179751D01*
X0369972Y0178438D01*
X0370977Y0177434D01*
X0369642Y0179235D02*
X0145034Y0179235D01*
X0145034Y0180833D02*
X0369428Y0180833D01*
X0369950Y0182432D02*
X0145034Y0182432D01*
X0145034Y0184030D02*
X0372283Y0184030D01*
X0373717Y0184030D02*
X0390400Y0184030D01*
X0390400Y0182432D02*
X0376050Y0182432D01*
X0376572Y0180833D02*
X0390400Y0180833D01*
X0390400Y0179235D02*
X0376358Y0179235D01*
X0375226Y0177636D02*
X0390400Y0177636D01*
X0390400Y0185629D02*
X0145034Y0185629D01*
X0145034Y0187227D02*
X0390400Y0187227D01*
X0390400Y0188826D02*
X0145034Y0188826D01*
X0145034Y0190424D02*
X0390400Y0190424D01*
X0390400Y0192023D02*
X0145034Y0192023D01*
X0145034Y0193621D02*
X0390400Y0193621D01*
X0390400Y0195220D02*
X0145034Y0195220D01*
X0145034Y0196818D02*
X0390400Y0196818D01*
X0390400Y0198417D02*
X0154965Y0198417D01*
X0155434Y0200015D02*
X0364700Y0200015D01*
X0364700Y0201614D02*
X0155434Y0201614D01*
X0155034Y0203212D02*
X0156416Y0203212D01*
X0156416Y0204811D02*
X0155034Y0204811D01*
X0152450Y0200825D02*
X0152450Y0234300D01*
X0213000Y0234300D01*
X0213000Y0244300D01*
X0215984Y0244774D02*
X0360754Y0244774D01*
X0359808Y0243175D02*
X0215984Y0243175D01*
X0215584Y0241577D02*
X0351561Y0241577D01*
X0350120Y0239978D02*
X0215584Y0239978D01*
X0215584Y0238380D02*
X0349602Y0238380D01*
X0349692Y0236781D02*
X0215584Y0236781D01*
X0215584Y0235183D02*
X0350483Y0235183D01*
X0351655Y0233584D02*
X0215501Y0233584D01*
X0210416Y0238380D02*
X0005600Y0238380D01*
X0005600Y0239978D02*
X0157516Y0239978D01*
X0157516Y0239861D02*
X0158561Y0238816D01*
X0162439Y0238816D01*
X0163484Y0239861D01*
X0163484Y0243739D01*
X0163084Y0244139D01*
X0163084Y0257314D01*
X0162691Y0258264D01*
X0161964Y0258991D01*
X0161014Y0259384D01*
X0110339Y0259384D01*
X0109939Y0259784D01*
X0106061Y0259784D01*
X0105016Y0258739D01*
X0105016Y0254861D01*
X0106061Y0253816D01*
X0109939Y0253816D01*
X0110339Y0254216D01*
X0157916Y0254216D01*
X0157916Y0244139D01*
X0157516Y0243739D01*
X0157516Y0239861D01*
X0157516Y0241577D02*
X0005600Y0241577D01*
X0005600Y0243175D02*
X0157516Y0243175D01*
X0157916Y0244774D02*
X0005600Y0244774D01*
X0005600Y0246372D02*
X0157916Y0246372D01*
X0157916Y0247971D02*
X0005600Y0247971D01*
X0005600Y0249569D02*
X0157916Y0249569D01*
X0157916Y0251168D02*
X0005600Y0251168D01*
X0005600Y0252766D02*
X0157916Y0252766D01*
X0160500Y0256800D02*
X0108000Y0256800D01*
X0105016Y0257562D02*
X0005600Y0257562D01*
X0005600Y0259160D02*
X0105437Y0259160D01*
X0105016Y0255963D02*
X0005600Y0255963D01*
X0005600Y0254365D02*
X0105512Y0254365D01*
X0102967Y0268039D02*
X0104726Y0268768D01*
X0106072Y0270114D01*
X0106800Y0271872D01*
X0106800Y0273775D01*
X0106072Y0275534D01*
X0104726Y0276880D01*
X0102967Y0277608D01*
X0101064Y0277608D01*
X0099306Y0276880D01*
X0097960Y0275534D01*
X0097231Y0273775D01*
X0097231Y0271872D01*
X0097960Y0270114D01*
X0099306Y0268768D01*
X0101064Y0268039D01*
X0102967Y0268039D01*
X0104686Y0268751D02*
X0109454Y0268751D01*
X0109500Y0268718D02*
X0110173Y0268375D01*
X0110892Y0268142D01*
X0111638Y0268024D01*
X0111816Y0268024D01*
X0111816Y0272624D01*
X0107216Y0272624D01*
X0107216Y0272446D01*
X0107334Y0271700D01*
X0107567Y0270981D01*
X0107910Y0270308D01*
X0108355Y0269697D01*
X0108889Y0269162D01*
X0109500Y0268718D01*
X0107889Y0270350D02*
X0106170Y0270350D01*
X0106800Y0271948D02*
X0107295Y0271948D01*
X0107216Y0273024D02*
X0111816Y0273024D01*
X0111816Y0277624D01*
X0111638Y0277624D01*
X0110892Y0277505D01*
X0110173Y0277272D01*
X0109500Y0276929D01*
X0108889Y0276485D01*
X0108355Y0275951D01*
X0107910Y0275339D01*
X0107567Y0274666D01*
X0107334Y0273948D01*
X0107216Y0273201D01*
X0107216Y0273024D01*
X0107270Y0273547D02*
X0106800Y0273547D01*
X0106232Y0275145D02*
X0107812Y0275145D01*
X0109245Y0276744D02*
X0104861Y0276744D01*
X0099170Y0276744D02*
X0094861Y0276744D01*
X0094726Y0276880D02*
X0092967Y0277608D01*
X0091064Y0277608D01*
X0089306Y0276880D01*
X0087960Y0275534D01*
X0087231Y0273775D01*
X0087231Y0271872D01*
X0087960Y0270114D01*
X0089306Y0268768D01*
X0091064Y0268039D01*
X0092967Y0268039D01*
X0094726Y0268768D01*
X0096072Y0270114D01*
X0096800Y0271872D01*
X0096800Y0273775D01*
X0096072Y0275534D01*
X0094726Y0276880D01*
X0096232Y0275145D02*
X0097799Y0275145D01*
X0097231Y0273547D02*
X0096800Y0273547D01*
X0096800Y0271948D02*
X0097231Y0271948D01*
X0097862Y0270350D02*
X0096170Y0270350D01*
X0094686Y0268751D02*
X0099345Y0268751D01*
X0089345Y0268751D02*
X0084686Y0268751D01*
X0084726Y0268768D02*
X0086072Y0270114D01*
X0086800Y0271872D01*
X0086800Y0273775D01*
X0086072Y0275534D01*
X0084726Y0276880D01*
X0082967Y0277608D01*
X0081064Y0277608D01*
X0079306Y0276880D01*
X0077960Y0275534D01*
X0077231Y0273775D01*
X0077231Y0271872D01*
X0077960Y0270114D01*
X0079306Y0268768D01*
X0081064Y0268039D01*
X0082967Y0268039D01*
X0084726Y0268768D01*
X0086170Y0270350D02*
X0087862Y0270350D01*
X0087231Y0271948D02*
X0086800Y0271948D01*
X0086800Y0273547D02*
X0087231Y0273547D01*
X0087799Y0275145D02*
X0086232Y0275145D01*
X0084861Y0276744D02*
X0089170Y0276744D01*
X0079170Y0276744D02*
X0076563Y0276744D01*
X0076456Y0276929D02*
X0076121Y0277264D01*
X0075711Y0277501D01*
X0075253Y0277624D01*
X0072216Y0277624D01*
X0072216Y0273024D01*
X0071816Y0273024D01*
X0071816Y0277624D01*
X0068779Y0277624D01*
X0068321Y0277501D01*
X0067911Y0277264D01*
X0067575Y0276929D01*
X0067338Y0276518D01*
X0067216Y0276061D01*
X0067216Y0273024D01*
X0071816Y0273024D01*
X0071816Y0272624D01*
X0067216Y0272624D01*
X0067216Y0269587D01*
X0067338Y0269129D01*
X0067575Y0268718D01*
X0067911Y0268383D01*
X0068321Y0268146D01*
X0068779Y0268024D01*
X0071816Y0268024D01*
X0071816Y0272624D01*
X0072216Y0272624D01*
X0072216Y0273024D01*
X0076816Y0273024D01*
X0076816Y0276061D01*
X0076693Y0276518D01*
X0076456Y0276929D01*
X0076816Y0275145D02*
X0077799Y0275145D01*
X0077231Y0273547D02*
X0076816Y0273547D01*
X0076816Y0272624D02*
X0072216Y0272624D01*
X0072216Y0268024D01*
X0075253Y0268024D01*
X0075711Y0268146D01*
X0076121Y0268383D01*
X0076456Y0268718D01*
X0076693Y0269129D01*
X0076816Y0269587D01*
X0076816Y0272624D01*
X0076816Y0271948D02*
X0077231Y0271948D01*
X0076816Y0270350D02*
X0077862Y0270350D01*
X0076475Y0268751D02*
X0079345Y0268751D01*
X0072216Y0268751D02*
X0071816Y0268751D01*
X0071816Y0270350D02*
X0072216Y0270350D01*
X0072216Y0271948D02*
X0071816Y0271948D01*
X0072000Y0272824D02*
X0072000Y0279050D01*
X0112016Y0279050D01*
X0112016Y0272824D01*
X0112216Y0273024D02*
X0116816Y0273024D01*
X0116816Y0273201D01*
X0116698Y0273948D01*
X0116464Y0274666D01*
X0116121Y0275339D01*
X0115677Y0275951D01*
X0115143Y0276485D01*
X0114531Y0276929D01*
X0113858Y0277272D01*
X0113140Y0277505D01*
X0112394Y0277624D01*
X0112216Y0277624D01*
X0112216Y0273024D01*
X0111816Y0273024D01*
X0111816Y0272624D01*
X0112216Y0272624D01*
X0112216Y0273024D01*
X0112216Y0272624D02*
X0116816Y0272624D01*
X0116816Y0272446D01*
X0116698Y0271700D01*
X0116464Y0270981D01*
X0116121Y0270308D01*
X0115677Y0269697D01*
X0115143Y0269162D01*
X0114531Y0268718D01*
X0113858Y0268375D01*
X0113140Y0268142D01*
X0112394Y0268024D01*
X0112216Y0268024D01*
X0112216Y0272624D01*
X0112216Y0271948D02*
X0111816Y0271948D01*
X0111816Y0270350D02*
X0112216Y0270350D01*
X0112216Y0268751D02*
X0111816Y0268751D01*
X0114577Y0268751D02*
X0119345Y0268751D01*
X0119306Y0268768D02*
X0121064Y0268039D01*
X0122967Y0268039D01*
X0124726Y0268768D01*
X0126072Y0270114D01*
X0126800Y0271872D01*
X0126800Y0273775D01*
X0126072Y0275534D01*
X0124726Y0276880D01*
X0122967Y0277608D01*
X0121064Y0277608D01*
X0119306Y0276880D01*
X0117960Y0275534D01*
X0117231Y0273775D01*
X0117231Y0271872D01*
X0117960Y0270114D01*
X0119306Y0268768D01*
X0117862Y0270350D02*
X0116142Y0270350D01*
X0116737Y0271948D02*
X0117231Y0271948D01*
X0117231Y0273547D02*
X0116761Y0273547D01*
X0116220Y0275145D02*
X0117799Y0275145D01*
X0119170Y0276744D02*
X0114786Y0276744D01*
X0112216Y0276744D02*
X0111816Y0276744D01*
X0111816Y0275145D02*
X0112216Y0275145D01*
X0112216Y0273547D02*
X0111816Y0273547D01*
X0124861Y0276744D02*
X0129170Y0276744D01*
X0129306Y0276880D02*
X0127960Y0275534D01*
X0127231Y0273775D01*
X0127231Y0271872D01*
X0127960Y0270114D01*
X0129306Y0268768D01*
X0131064Y0268039D01*
X0132967Y0268039D01*
X0134726Y0268768D01*
X0136072Y0270114D01*
X0136800Y0271872D01*
X0136800Y0273775D01*
X0136072Y0275534D01*
X0134726Y0276880D01*
X0132967Y0277608D01*
X0131064Y0277608D01*
X0129306Y0276880D01*
X0127799Y0275145D02*
X0126232Y0275145D01*
X0126800Y0273547D02*
X0127231Y0273547D01*
X0127231Y0271948D02*
X0126800Y0271948D01*
X0126170Y0270350D02*
X0127862Y0270350D01*
X0129345Y0268751D02*
X0124686Y0268751D01*
X0134686Y0268751D02*
X0139345Y0268751D01*
X0139306Y0268768D02*
X0141064Y0268039D01*
X0142967Y0268039D01*
X0144726Y0268768D01*
X0146072Y0270114D01*
X0146800Y0271872D01*
X0146800Y0273775D01*
X0146072Y0275534D01*
X0144726Y0276880D01*
X0142967Y0277608D01*
X0141064Y0277608D01*
X0139306Y0276880D01*
X0137960Y0275534D01*
X0137231Y0273775D01*
X0137231Y0271872D01*
X0137960Y0270114D01*
X0139306Y0268768D01*
X0137862Y0270350D02*
X0136170Y0270350D01*
X0136800Y0271948D02*
X0137231Y0271948D01*
X0137231Y0273547D02*
X0136800Y0273547D01*
X0136232Y0275145D02*
X0137799Y0275145D01*
X0139170Y0276744D02*
X0134861Y0276744D01*
X0144861Y0276744D02*
X0149170Y0276744D01*
X0149306Y0276880D02*
X0147960Y0275534D01*
X0147231Y0273775D01*
X0147231Y0271872D01*
X0147960Y0270114D01*
X0149306Y0268768D01*
X0151064Y0268039D01*
X0152967Y0268039D01*
X0154726Y0268768D01*
X0156072Y0270114D01*
X0156800Y0271872D01*
X0156800Y0273775D01*
X0156072Y0275534D01*
X0154726Y0276880D01*
X0152967Y0277608D01*
X0151064Y0277608D01*
X0149306Y0276880D01*
X0147799Y0275145D02*
X0146232Y0275145D01*
X0146800Y0273547D02*
X0147231Y0273547D01*
X0147231Y0271948D02*
X0146800Y0271948D01*
X0146170Y0270350D02*
X0147862Y0270350D01*
X0149345Y0268751D02*
X0144686Y0268751D01*
X0154686Y0268751D02*
X0159345Y0268751D01*
X0159306Y0268768D02*
X0161064Y0268039D01*
X0162967Y0268039D01*
X0164726Y0268768D01*
X0166072Y0270114D01*
X0166800Y0271872D01*
X0166800Y0273775D01*
X0166072Y0275534D01*
X0164726Y0276880D01*
X0162967Y0277608D01*
X0161064Y0277608D01*
X0159306Y0276880D01*
X0157960Y0275534D01*
X0157231Y0273775D01*
X0157231Y0271872D01*
X0157960Y0270114D01*
X0159306Y0268768D01*
X0157862Y0270350D02*
X0156170Y0270350D01*
X0156800Y0271948D02*
X0157231Y0271948D01*
X0157231Y0273547D02*
X0156800Y0273547D01*
X0156232Y0275145D02*
X0157799Y0275145D01*
X0159170Y0276744D02*
X0154861Y0276744D01*
X0164861Y0276744D02*
X0169170Y0276744D01*
X0169306Y0276880D02*
X0167960Y0275534D01*
X0167231Y0273775D01*
X0167231Y0271872D01*
X0167960Y0270114D01*
X0169306Y0268768D01*
X0171064Y0268039D01*
X0172967Y0268039D01*
X0174726Y0268768D01*
X0176072Y0270114D01*
X0176800Y0271872D01*
X0176800Y0273775D01*
X0176072Y0275534D01*
X0174726Y0276880D01*
X0172967Y0277608D01*
X0171064Y0277608D01*
X0169306Y0276880D01*
X0167799Y0275145D02*
X0166232Y0275145D01*
X0166800Y0273547D02*
X0167231Y0273547D01*
X0167231Y0271948D02*
X0166800Y0271948D01*
X0166170Y0270350D02*
X0167862Y0270350D01*
X0169345Y0268751D02*
X0164686Y0268751D01*
X0174686Y0268751D02*
X0179345Y0268751D01*
X0179306Y0268768D02*
X0181064Y0268039D01*
X0182967Y0268039D01*
X0184726Y0268768D01*
X0186072Y0270114D01*
X0186800Y0271872D01*
X0186800Y0273775D01*
X0186072Y0275534D01*
X0184726Y0276880D01*
X0182967Y0277608D01*
X0181064Y0277608D01*
X0179306Y0276880D01*
X0177960Y0275534D01*
X0177231Y0273775D01*
X0177231Y0271872D01*
X0177960Y0270114D01*
X0179306Y0268768D01*
X0177862Y0270350D02*
X0176170Y0270350D01*
X0176800Y0271948D02*
X0177231Y0271948D01*
X0177231Y0273547D02*
X0176800Y0273547D01*
X0176232Y0275145D02*
X0177799Y0275145D01*
X0179170Y0276744D02*
X0174861Y0276744D01*
X0184861Y0276744D02*
X0189170Y0276744D01*
X0189306Y0276880D02*
X0187960Y0275534D01*
X0187231Y0273775D01*
X0187231Y0271872D01*
X0187960Y0270114D01*
X0189306Y0268768D01*
X0191064Y0268039D01*
X0192967Y0268039D01*
X0194726Y0268768D01*
X0196072Y0270114D01*
X0196800Y0271872D01*
X0196800Y0273775D01*
X0196072Y0275534D01*
X0194726Y0276880D01*
X0192967Y0277608D01*
X0191064Y0277608D01*
X0189306Y0276880D01*
X0187799Y0275145D02*
X0186232Y0275145D01*
X0186800Y0273547D02*
X0187231Y0273547D01*
X0187231Y0271948D02*
X0186800Y0271948D01*
X0186170Y0270350D02*
X0187862Y0270350D01*
X0189345Y0268751D02*
X0184686Y0268751D01*
X0194686Y0268751D02*
X0199345Y0268751D01*
X0199306Y0268768D02*
X0201064Y0268039D01*
X0202967Y0268039D01*
X0204726Y0268768D01*
X0206072Y0270114D01*
X0206800Y0271872D01*
X0206800Y0273775D01*
X0206072Y0275534D01*
X0204726Y0276880D01*
X0202967Y0277608D01*
X0201064Y0277608D01*
X0199306Y0276880D01*
X0197960Y0275534D01*
X0197231Y0273775D01*
X0197231Y0271872D01*
X0197960Y0270114D01*
X0199306Y0268768D01*
X0197862Y0270350D02*
X0196170Y0270350D01*
X0196800Y0271948D02*
X0197231Y0271948D01*
X0197231Y0273547D02*
X0196800Y0273547D01*
X0196232Y0275145D02*
X0197799Y0275145D01*
X0199170Y0276744D02*
X0194861Y0276744D01*
X0204861Y0276744D02*
X0209170Y0276744D01*
X0209306Y0276880D02*
X0207960Y0275534D01*
X0207231Y0273775D01*
X0207231Y0271872D01*
X0207960Y0270114D01*
X0209306Y0268768D01*
X0211064Y0268039D01*
X0212967Y0268039D01*
X0214726Y0268768D01*
X0216072Y0270114D01*
X0216800Y0271872D01*
X0216800Y0273775D01*
X0216072Y0275534D01*
X0214726Y0276880D01*
X0212967Y0277608D01*
X0211064Y0277608D01*
X0209306Y0276880D01*
X0207799Y0275145D02*
X0206232Y0275145D01*
X0206800Y0273547D02*
X0207231Y0273547D01*
X0207231Y0271948D02*
X0206800Y0271948D01*
X0206170Y0270350D02*
X0207862Y0270350D01*
X0209345Y0268751D02*
X0204686Y0268751D01*
X0214686Y0268751D02*
X0219454Y0268751D01*
X0219500Y0268718D02*
X0220173Y0268375D01*
X0220892Y0268142D01*
X0221638Y0268024D01*
X0221816Y0268024D01*
X0221816Y0272624D01*
X0217216Y0272624D01*
X0217216Y0272446D01*
X0217334Y0271700D01*
X0217567Y0270981D01*
X0217910Y0270308D01*
X0218355Y0269697D01*
X0218889Y0269162D01*
X0219500Y0268718D01*
X0217889Y0270350D02*
X0216170Y0270350D01*
X0216800Y0271948D02*
X0217295Y0271948D01*
X0217216Y0273024D02*
X0221816Y0273024D01*
X0221816Y0277624D01*
X0221638Y0277624D01*
X0220892Y0277505D01*
X0220173Y0277272D01*
X0219500Y0276929D01*
X0218889Y0276485D01*
X0218355Y0275951D01*
X0217910Y0275339D01*
X0217567Y0274666D01*
X0217334Y0273948D01*
X0217216Y0273201D01*
X0217216Y0273024D01*
X0217270Y0273547D02*
X0216800Y0273547D01*
X0216232Y0275145D02*
X0217812Y0275145D01*
X0219245Y0276744D02*
X0214861Y0276744D01*
X0221816Y0276744D02*
X0222216Y0276744D01*
X0222216Y0277624D02*
X0222394Y0277624D01*
X0223140Y0277505D01*
X0223858Y0277272D01*
X0224531Y0276929D01*
X0225143Y0276485D01*
X0225677Y0275951D01*
X0226121Y0275339D01*
X0226464Y0274666D01*
X0226698Y0273948D01*
X0226816Y0273201D01*
X0226816Y0273024D01*
X0222216Y0273024D01*
X0221816Y0273024D01*
X0221816Y0272624D01*
X0222216Y0272624D01*
X0222216Y0273024D01*
X0222216Y0277624D01*
X0222216Y0275145D02*
X0221816Y0275145D01*
X0221816Y0273547D02*
X0222216Y0273547D01*
X0222216Y0272624D02*
X0226816Y0272624D01*
X0226816Y0272446D01*
X0226698Y0271700D01*
X0226464Y0270981D01*
X0226121Y0270308D01*
X0225677Y0269697D01*
X0225143Y0269162D01*
X0224531Y0268718D01*
X0223858Y0268375D01*
X0223140Y0268142D01*
X0222394Y0268024D01*
X0222216Y0268024D01*
X0222216Y0272624D01*
X0222216Y0271948D02*
X0221816Y0271948D01*
X0221816Y0270350D02*
X0222216Y0270350D01*
X0222216Y0268751D02*
X0221816Y0268751D01*
X0224577Y0268751D02*
X0248433Y0268751D01*
X0248464Y0268952D02*
X0248350Y0268229D01*
X0248350Y0267863D01*
X0253000Y0267863D01*
X0257650Y0267863D01*
X0257650Y0268229D01*
X0257535Y0268952D01*
X0257309Y0269648D01*
X0256977Y0270300D01*
X0256547Y0270892D01*
X0256029Y0271410D01*
X0255533Y0271770D01*
X0255625Y0271808D01*
X0256929Y0273112D01*
X0257634Y0274815D01*
X0257634Y0276659D01*
X0256929Y0278362D01*
X0255625Y0279666D01*
X0253922Y0280371D01*
X0252078Y0280371D01*
X0250375Y0279666D01*
X0249071Y0278362D01*
X0248366Y0276659D01*
X0248366Y0274815D01*
X0249071Y0273112D01*
X0250375Y0271808D01*
X0250467Y0271770D01*
X0249971Y0271410D01*
X0249453Y0270892D01*
X0249023Y0270300D01*
X0248691Y0269648D01*
X0248464Y0268952D01*
X0248350Y0267863D02*
X0248350Y0267497D01*
X0248464Y0266774D01*
X0248691Y0266078D01*
X0249023Y0265426D01*
X0249453Y0264834D01*
X0249971Y0264316D01*
X0250563Y0263886D01*
X0251215Y0263554D01*
X0251911Y0263327D01*
X0252634Y0263213D01*
X0253000Y0263213D01*
X0253366Y0263213D01*
X0254089Y0263327D01*
X0254785Y0263554D01*
X0255437Y0263886D01*
X0256029Y0264316D01*
X0256547Y0264834D01*
X0256977Y0265426D01*
X0257309Y0266078D01*
X0257535Y0266774D01*
X0257650Y0267497D01*
X0257650Y0267863D01*
X0253000Y0267863D01*
X0253000Y0267863D01*
X0253000Y0267863D01*
X0253000Y0263213D01*
X0253000Y0267863D01*
X0253000Y0267863D01*
X0248350Y0267863D01*
X0248405Y0267153D02*
X0055752Y0267153D01*
X0056835Y0268236D02*
X0058068Y0271213D01*
X0058068Y0274435D01*
X0056835Y0277411D01*
X0054556Y0279690D01*
X0051580Y0280923D01*
X0048357Y0280923D01*
X0045381Y0279690D01*
X0043102Y0277411D01*
X0041869Y0274435D01*
X0041869Y0271213D01*
X0043102Y0268236D01*
X0045381Y0265957D01*
X0048357Y0264724D01*
X0051580Y0264724D01*
X0054556Y0265957D01*
X0056835Y0268236D01*
X0057048Y0268751D02*
X0067556Y0268751D01*
X0067216Y0270350D02*
X0057710Y0270350D01*
X0058068Y0271948D02*
X0067216Y0271948D01*
X0067216Y0273547D02*
X0058068Y0273547D01*
X0057773Y0275145D02*
X0067216Y0275145D01*
X0067469Y0276744D02*
X0057111Y0276744D01*
X0055904Y0278342D02*
X0249063Y0278342D01*
X0248401Y0276744D02*
X0224786Y0276744D01*
X0226220Y0275145D02*
X0248366Y0275145D01*
X0248891Y0273547D02*
X0226761Y0273547D01*
X0226737Y0271948D02*
X0250235Y0271948D01*
X0249059Y0270350D02*
X0226142Y0270350D01*
X0248957Y0265554D02*
X0053583Y0265554D01*
X0046354Y0265554D02*
X0005600Y0265554D01*
X0005600Y0263956D02*
X0250467Y0263956D01*
X0253000Y0263956D02*
X0253000Y0263956D01*
X0253000Y0265554D02*
X0253000Y0265554D01*
X0253000Y0267153D02*
X0253000Y0267153D01*
X0255533Y0263956D02*
X0364700Y0263956D01*
X0364700Y0264631D02*
X0364700Y0248969D01*
X0365169Y0248500D01*
X0380831Y0248500D01*
X0381300Y0248969D01*
X0381300Y0264631D01*
X0380831Y0265100D01*
X0365169Y0265100D01*
X0364700Y0264631D01*
X0364700Y0262357D02*
X0005600Y0262357D01*
X0005600Y0260759D02*
X0364700Y0260759D01*
X0364700Y0259160D02*
X0161555Y0259160D01*
X0162982Y0257562D02*
X0364700Y0257562D01*
X0364700Y0255963D02*
X0163084Y0255963D01*
X0163084Y0254365D02*
X0364700Y0254365D01*
X0364700Y0252766D02*
X0163084Y0252766D01*
X0163084Y0251168D02*
X0364700Y0251168D01*
X0364700Y0249569D02*
X0163084Y0249569D01*
X0163084Y0247971D02*
X0390400Y0247971D01*
X0390400Y0249569D02*
X0381300Y0249569D01*
X0381300Y0251168D02*
X0390400Y0251168D01*
X0390400Y0252766D02*
X0381300Y0252766D01*
X0381300Y0254365D02*
X0390400Y0254365D01*
X0390400Y0255963D02*
X0381300Y0255963D01*
X0381300Y0257562D02*
X0390400Y0257562D01*
X0390400Y0259160D02*
X0381300Y0259160D01*
X0381300Y0260759D02*
X0390400Y0260759D01*
X0390400Y0262357D02*
X0381300Y0262357D01*
X0381300Y0263956D02*
X0390400Y0263956D01*
X0390400Y0265554D02*
X0349646Y0265554D01*
X0350619Y0265957D02*
X0347643Y0264724D01*
X0344420Y0264724D01*
X0341444Y0265957D01*
X0339165Y0268236D01*
X0337932Y0271213D01*
X0337932Y0274435D01*
X0339165Y0277411D01*
X0341444Y0279690D01*
X0344420Y0280923D01*
X0347643Y0280923D01*
X0350619Y0279690D01*
X0352898Y0277411D01*
X0354131Y0274435D01*
X0354131Y0271213D01*
X0352898Y0268236D01*
X0350619Y0265957D01*
X0351815Y0267153D02*
X0390400Y0267153D01*
X0390400Y0268751D02*
X0379733Y0268751D01*
X0379611Y0268701D02*
X0382588Y0269934D01*
X0384866Y0272212D01*
X0386099Y0275189D01*
X0386099Y0278411D01*
X0384866Y0281388D01*
X0382588Y0283666D01*
X0379611Y0284899D01*
X0376389Y0284899D01*
X0373412Y0283666D01*
X0371134Y0281388D01*
X0369901Y0278411D01*
X0369901Y0275189D01*
X0371134Y0272212D01*
X0373412Y0269934D01*
X0376389Y0268701D01*
X0379611Y0268701D01*
X0376267Y0268751D02*
X0353111Y0268751D01*
X0353773Y0270350D02*
X0372996Y0270350D01*
X0371398Y0271948D02*
X0354131Y0271948D01*
X0354131Y0273547D02*
X0370581Y0273547D01*
X0369919Y0275145D02*
X0353836Y0275145D01*
X0353174Y0276744D02*
X0369901Y0276744D01*
X0369901Y0278342D02*
X0351967Y0278342D01*
X0350013Y0279941D02*
X0370535Y0279941D01*
X0371285Y0281539D02*
X0024715Y0281539D01*
X0024866Y0281388D02*
X0022588Y0283666D01*
X0019611Y0284899D01*
X0016389Y0284899D01*
X0013412Y0283666D01*
X0011134Y0281388D01*
X0009901Y0278411D01*
X0009901Y0275189D01*
X0011134Y0272212D01*
X0013412Y0269934D01*
X0016389Y0268701D01*
X0019611Y0268701D01*
X0022588Y0269934D01*
X0024866Y0272212D01*
X0026099Y0275189D01*
X0026099Y0278411D01*
X0024866Y0281388D01*
X0025465Y0279941D02*
X0045987Y0279941D01*
X0044033Y0278342D02*
X0026099Y0278342D01*
X0026099Y0276744D02*
X0042826Y0276744D01*
X0042164Y0275145D02*
X0026081Y0275145D01*
X0025419Y0273547D02*
X0041869Y0273547D01*
X0041869Y0271948D02*
X0024602Y0271948D01*
X0023004Y0270350D02*
X0042227Y0270350D01*
X0042889Y0268751D02*
X0019733Y0268751D01*
X0016267Y0268751D02*
X0005600Y0268751D01*
X0005600Y0267153D02*
X0044185Y0267153D01*
X0053950Y0279941D02*
X0251039Y0279941D01*
X0254961Y0279941D02*
X0342050Y0279941D01*
X0340096Y0278342D02*
X0256937Y0278342D01*
X0257599Y0276744D02*
X0338889Y0276744D01*
X0338227Y0275145D02*
X0257634Y0275145D01*
X0257109Y0273547D02*
X0337932Y0273547D01*
X0337932Y0271948D02*
X0255765Y0271948D01*
X0256941Y0270350D02*
X0338290Y0270350D01*
X0338952Y0268751D02*
X0257567Y0268751D01*
X0257595Y0267153D02*
X0340248Y0267153D01*
X0342417Y0265554D02*
X0257043Y0265554D01*
X0215851Y0246372D02*
X0390400Y0246372D01*
X0390400Y0244774D02*
X0367136Y0244774D01*
X0368081Y0243175D02*
X0390400Y0243175D01*
X0390400Y0241577D02*
X0368304Y0241577D01*
X0367909Y0239978D02*
X0390400Y0239978D01*
X0390400Y0238380D02*
X0366653Y0238380D01*
X0367097Y0236781D02*
X0390400Y0236781D01*
X0390400Y0235183D02*
X0368069Y0235183D01*
X0368304Y0233584D02*
X0390400Y0233584D01*
X0390400Y0231986D02*
X0367929Y0231986D01*
X0366707Y0230387D02*
X0390400Y0230387D01*
X0390400Y0228789D02*
X0367036Y0228789D01*
X0368044Y0227190D02*
X0390400Y0227190D01*
X0390400Y0225592D02*
X0368288Y0225592D01*
X0367924Y0223993D02*
X0390400Y0223993D01*
X0390400Y0222395D02*
X0366745Y0222395D01*
X0366529Y0220796D02*
X0390400Y0220796D01*
X0390400Y0219198D02*
X0366529Y0219198D01*
X0366529Y0217599D02*
X0390400Y0217599D01*
X0390400Y0216001D02*
X0366529Y0216001D01*
X0363945Y0214300D02*
X0345500Y0214300D01*
X0345500Y0226800D01*
X0159400Y0226800D01*
X0159400Y0204950D01*
X0162384Y0204811D02*
X0364700Y0204811D01*
X0364700Y0206409D02*
X0162384Y0206409D01*
X0161984Y0208008D02*
X0364700Y0208008D01*
X0364700Y0209606D02*
X0161984Y0209606D01*
X0161984Y0211205D02*
X0364700Y0211205D01*
X0363945Y0214300D02*
X0363945Y0225737D01*
X0360854Y0228789D02*
X0358214Y0228789D01*
X0358288Y0230387D02*
X0361183Y0230387D01*
X0359961Y0231986D02*
X0357754Y0231986D01*
X0356235Y0233584D02*
X0359586Y0233584D01*
X0359821Y0235183D02*
X0357407Y0235183D01*
X0358198Y0236781D02*
X0360793Y0236781D01*
X0361236Y0238380D02*
X0358288Y0238380D01*
X0357770Y0239978D02*
X0359981Y0239978D01*
X0359586Y0241577D02*
X0356329Y0241577D01*
X0363945Y0241577D02*
X0363945Y0241577D01*
X0363945Y0241800D02*
X0363945Y0241800D01*
X0363945Y0243175D02*
X0363945Y0243175D01*
X0363945Y0244774D02*
X0363945Y0244774D01*
X0363945Y0239978D02*
X0363945Y0239978D01*
X0363945Y0238380D02*
X0363945Y0238380D01*
X0363945Y0236781D02*
X0363945Y0236781D01*
X0363945Y0235183D02*
X0363945Y0235183D01*
X0359846Y0227190D02*
X0357446Y0227190D01*
X0356141Y0225592D02*
X0359602Y0225592D01*
X0359966Y0223993D02*
X0357738Y0223993D01*
X0358288Y0222395D02*
X0361145Y0222395D01*
X0361361Y0220796D02*
X0358230Y0220796D01*
X0357485Y0219198D02*
X0361361Y0219198D01*
X0361361Y0217599D02*
X0355152Y0217599D01*
X0352737Y0217599D02*
X0348084Y0217599D01*
X0348084Y0219198D02*
X0350405Y0219198D01*
X0349660Y0220796D02*
X0348084Y0220796D01*
X0348084Y0222395D02*
X0349602Y0222395D01*
X0350152Y0223993D02*
X0348084Y0223993D01*
X0348084Y0225592D02*
X0351749Y0225592D01*
X0350444Y0227190D02*
X0348084Y0227190D01*
X0342916Y0223993D02*
X0161984Y0223993D01*
X0161984Y0222395D02*
X0342916Y0222395D01*
X0342916Y0220796D02*
X0161984Y0220796D01*
X0161984Y0219198D02*
X0342916Y0219198D01*
X0342916Y0217599D02*
X0161984Y0217599D01*
X0161984Y0216001D02*
X0342916Y0216001D01*
X0342916Y0214402D02*
X0161984Y0214402D01*
X0161984Y0212803D02*
X0343342Y0212803D01*
X0364700Y0203212D02*
X0162384Y0203212D01*
X0155600Y0209300D02*
X0155600Y0229831D01*
X0353945Y0229831D01*
X0381300Y0214402D02*
X0390400Y0214402D01*
X0390400Y0212803D02*
X0381300Y0212803D01*
X0381300Y0211205D02*
X0390400Y0211205D01*
X0390400Y0209606D02*
X0381300Y0209606D01*
X0381300Y0208008D02*
X0390400Y0208008D01*
X0390400Y0206409D02*
X0381300Y0206409D01*
X0381300Y0204811D02*
X0390400Y0204811D01*
X0390400Y0203212D02*
X0381300Y0203212D01*
X0381300Y0201614D02*
X0390400Y0201614D01*
X0390400Y0200015D02*
X0381300Y0200015D01*
X0369842Y0164848D02*
X0145034Y0164848D01*
X0145034Y0163250D02*
X0369428Y0163250D01*
X0369750Y0161651D02*
X0145034Y0161651D01*
X0145034Y0160053D02*
X0371117Y0160053D01*
X0390400Y0115294D02*
X0317885Y0115294D01*
X0318084Y0113696D02*
X0390400Y0113696D01*
X0390400Y0112097D02*
X0318084Y0112097D01*
X0318084Y0110499D02*
X0390400Y0110499D01*
X0390400Y0108900D02*
X0318084Y0108900D01*
X0318084Y0107302D02*
X0390400Y0107302D01*
X0390400Y0105703D02*
X0318084Y0105703D01*
X0318084Y0104105D02*
X0390400Y0104105D01*
X0390400Y0102506D02*
X0318084Y0102506D01*
X0318084Y0100908D02*
X0390400Y0100908D01*
X0390400Y0099309D02*
X0318084Y0099309D01*
X0318084Y0097711D02*
X0390400Y0097711D01*
X0390400Y0096112D02*
X0318084Y0096112D01*
X0318084Y0094514D02*
X0390400Y0094514D01*
X0390400Y0092915D02*
X0318084Y0092915D01*
X0318084Y0091317D02*
X0390400Y0091317D01*
X0390400Y0089718D02*
X0318084Y0089718D01*
X0318084Y0088120D02*
X0390400Y0088120D01*
X0390400Y0086521D02*
X0318084Y0086521D01*
X0318084Y0084923D02*
X0328497Y0084923D01*
X0328231Y0084657D02*
X0328231Y0068155D01*
X0329277Y0067110D01*
X0345778Y0067110D01*
X0346824Y0068155D01*
X0346824Y0084657D01*
X0345778Y0085702D01*
X0329277Y0085702D01*
X0328231Y0084657D01*
X0328231Y0083324D02*
X0318084Y0083324D01*
X0318084Y0081726D02*
X0328231Y0081726D01*
X0328231Y0080127D02*
X0318084Y0080127D01*
X0318084Y0078529D02*
X0328231Y0078529D01*
X0328231Y0076930D02*
X0318084Y0076930D01*
X0318084Y0075332D02*
X0328231Y0075332D01*
X0328231Y0073733D02*
X0318084Y0073733D01*
X0318084Y0072134D02*
X0328231Y0072134D01*
X0328231Y0070536D02*
X0318084Y0070536D01*
X0318084Y0068937D02*
X0328231Y0068937D01*
X0329048Y0067339D02*
X0318084Y0067339D01*
X0318084Y0065740D02*
X0359759Y0065740D01*
X0370414Y0065740D02*
X0390400Y0065740D01*
X0390400Y0064142D02*
X0370414Y0064142D01*
X0370414Y0062543D02*
X0390400Y0062543D01*
X0390400Y0060945D02*
X0370414Y0060945D01*
X0370414Y0059346D02*
X0390400Y0059346D01*
X0390400Y0057748D02*
X0370414Y0057748D01*
X0368867Y0047301D02*
X0365468Y0047301D01*
X0365468Y0042339D01*
X0370430Y0042339D01*
X0370430Y0045738D01*
X0370307Y0046196D01*
X0370070Y0046606D01*
X0369735Y0046941D01*
X0369325Y0047178D01*
X0368867Y0047301D01*
X0370098Y0046558D02*
X0390400Y0046558D01*
X0390400Y0044960D02*
X0370430Y0044960D01*
X0370430Y0043361D02*
X0390400Y0043361D01*
X0390400Y0041763D02*
X0365468Y0041763D01*
X0364705Y0041763D02*
X0308381Y0041763D01*
X0346007Y0067339D02*
X0390400Y0067339D01*
X0390400Y0068937D02*
X0346824Y0068937D01*
X0346824Y0070536D02*
X0390400Y0070536D01*
X0390400Y0072134D02*
X0346824Y0072134D01*
X0346824Y0073733D02*
X0390400Y0073733D01*
X0390400Y0075332D02*
X0346824Y0075332D01*
X0346824Y0076930D02*
X0390400Y0076930D01*
X0390400Y0078529D02*
X0346824Y0078529D01*
X0346824Y0080127D02*
X0390400Y0080127D01*
X0390400Y0081726D02*
X0346824Y0081726D01*
X0346824Y0083324D02*
X0390400Y0083324D01*
X0390400Y0084923D02*
X0346558Y0084923D01*
X0364705Y0046558D02*
X0365468Y0046558D01*
X0365468Y0044960D02*
X0364705Y0044960D01*
X0364705Y0043361D02*
X0365468Y0043361D01*
X0365468Y0040164D02*
X0364705Y0040164D01*
X0364705Y0038566D02*
X0365468Y0038566D01*
X0365468Y0036967D02*
X0364705Y0036967D01*
X0369724Y0036967D02*
X0390400Y0036967D01*
X0390400Y0035369D02*
X0346824Y0035369D01*
X0346824Y0033770D02*
X0390400Y0033770D01*
X0390400Y0032172D02*
X0346824Y0032172D01*
X0346824Y0030573D02*
X0390400Y0030573D01*
X0390400Y0028975D02*
X0346824Y0028975D01*
X0346824Y0027376D02*
X0390400Y0027376D01*
X0390400Y0025778D02*
X0346824Y0025778D01*
X0346824Y0024179D02*
X0374651Y0024179D01*
X0372327Y0022581D02*
X0346824Y0022581D01*
X0346824Y0020982D02*
X0370966Y0020982D01*
X0381349Y0024179D02*
X0390400Y0024179D01*
X0390400Y0022581D02*
X0383673Y0022581D01*
X0385034Y0020982D02*
X0390400Y0020982D01*
X0390400Y0019384D02*
X0385696Y0019384D01*
X0386099Y0017785D02*
X0390400Y0017785D01*
X0390400Y0016187D02*
X0386099Y0016187D01*
X0385850Y0014588D02*
X0390400Y0014588D01*
X0390400Y0012990D02*
X0385188Y0012990D01*
X0384045Y0011391D02*
X0390400Y0011391D01*
X0390400Y0009793D02*
X0382247Y0009793D01*
X0373753Y0009793D02*
X0022247Y0009793D01*
X0024045Y0011391D02*
X0371955Y0011391D01*
X0370812Y0012990D02*
X0025188Y0012990D01*
X0082816Y0057748D02*
X0083184Y0057748D01*
X0083184Y0057484D02*
X0083184Y0062053D01*
X0086190Y0062053D01*
X0086648Y0061930D01*
X0087058Y0061693D01*
X0087393Y0061358D01*
X0087630Y0060948D01*
X0087753Y0060490D01*
X0087753Y0057484D01*
X0083184Y0057484D01*
X0083184Y0059346D02*
X0082816Y0059346D01*
X0082816Y0060945D02*
X0083184Y0060945D01*
X0087631Y0060945D02*
X0090416Y0060945D01*
X0090416Y0059346D02*
X0087753Y0059346D01*
X0087753Y0057748D02*
X0090416Y0057748D01*
X0090416Y0056149D02*
X0087753Y0056149D01*
X0087753Y0054551D02*
X0090416Y0054551D01*
X0090416Y0052952D02*
X0087737Y0052952D01*
X0098000Y0041300D02*
X0098000Y0082300D01*
X0078000Y0082300D01*
X0078000Y0217550D01*
X0148850Y0217550D01*
X0149866Y0214402D02*
X0145434Y0214402D01*
X0145434Y0212803D02*
X0149866Y0212803D01*
X0149866Y0211205D02*
X0145034Y0211205D01*
X0145034Y0209606D02*
X0149866Y0209606D01*
X0149866Y0208008D02*
X0145034Y0208008D01*
X0145034Y0206409D02*
X0149866Y0206409D01*
X0149866Y0204811D02*
X0145034Y0204811D01*
X0145034Y0203212D02*
X0149866Y0203212D01*
X0149466Y0201614D02*
X0145034Y0201614D01*
X0145034Y0200015D02*
X0149466Y0200015D01*
X0149935Y0198417D02*
X0145034Y0198417D01*
X0139300Y0211300D02*
X0137250Y0211300D01*
X0139300Y0211300D02*
X0139300Y0133750D01*
X0204300Y0133750D01*
X0222747Y0134476D02*
X0243203Y0134476D01*
X0127916Y0137673D02*
X0125028Y0137673D01*
X0125584Y0139272D02*
X0127916Y0139272D01*
X0127916Y0140870D02*
X0125584Y0140870D01*
X0125584Y0142469D02*
X0127916Y0142469D01*
X0127916Y0144068D02*
X0125584Y0144068D01*
X0125984Y0145666D02*
X0127916Y0145666D01*
X0075416Y0180833D02*
X0075130Y0180833D01*
X0075416Y0182432D02*
X0005600Y0182432D01*
X0005600Y0184030D02*
X0075416Y0184030D01*
X0075416Y0185629D02*
X0005600Y0185629D01*
X0005600Y0187227D02*
X0075416Y0187227D01*
X0075416Y0188826D02*
X0033868Y0188826D01*
X0034984Y0189943D02*
X0032357Y0187316D01*
X0028643Y0187316D01*
X0026016Y0189943D01*
X0026016Y0193657D01*
X0028643Y0196284D01*
X0032357Y0196284D01*
X0034984Y0193657D01*
X0034984Y0189943D01*
X0034984Y0190424D02*
X0075416Y0190424D01*
X0075416Y0192023D02*
X0034984Y0192023D01*
X0034984Y0193621D02*
X0075416Y0193621D01*
X0075416Y0195220D02*
X0033422Y0195220D01*
X0032357Y0197316D02*
X0028643Y0197316D01*
X0026016Y0199943D01*
X0026016Y0203657D01*
X0028643Y0206284D01*
X0032357Y0206284D01*
X0034984Y0203657D01*
X0034984Y0199943D01*
X0032357Y0197316D01*
X0033459Y0198417D02*
X0075416Y0198417D01*
X0075416Y0200015D02*
X0034984Y0200015D01*
X0034984Y0201614D02*
X0075416Y0201614D01*
X0075416Y0203212D02*
X0034984Y0203212D01*
X0033831Y0204811D02*
X0075416Y0204811D01*
X0075416Y0206409D02*
X0005600Y0206409D01*
X0005600Y0204811D02*
X0017169Y0204811D01*
X0016016Y0203657D02*
X0016016Y0199943D01*
X0018643Y0197316D01*
X0022357Y0197316D01*
X0024984Y0199943D01*
X0024984Y0203657D01*
X0022357Y0206284D01*
X0018643Y0206284D01*
X0016016Y0203657D01*
X0016016Y0203212D02*
X0005600Y0203212D01*
X0005600Y0201614D02*
X0016016Y0201614D01*
X0016016Y0200015D02*
X0005600Y0200015D01*
X0005600Y0198417D02*
X0017541Y0198417D01*
X0017960Y0195602D02*
X0016698Y0194340D01*
X0016016Y0192692D01*
X0016016Y0190908D01*
X0016698Y0189260D01*
X0017960Y0187998D01*
X0019608Y0187316D01*
X0021392Y0187316D01*
X0023040Y0187998D01*
X0024302Y0189260D01*
X0024984Y0190908D01*
X0024984Y0192692D01*
X0024302Y0194340D01*
X0023040Y0195602D01*
X0021392Y0196284D01*
X0019608Y0196284D01*
X0017960Y0195602D01*
X0017578Y0195220D02*
X0005600Y0195220D01*
X0005600Y0196818D02*
X0075416Y0196818D01*
X0075416Y0208008D02*
X0033072Y0208008D01*
X0032364Y0207300D02*
X0035000Y0209936D01*
X0035000Y0211700D01*
X0030600Y0211700D01*
X0030600Y0211900D01*
X0030400Y0211900D01*
X0030400Y0216300D01*
X0028636Y0216300D01*
X0026000Y0213664D01*
X0026000Y0211900D01*
X0030400Y0211900D01*
X0030400Y0211700D01*
X0026000Y0211700D01*
X0026000Y0209936D01*
X0028636Y0207300D01*
X0030400Y0207300D01*
X0030400Y0211700D01*
X0030600Y0211700D01*
X0030600Y0207300D01*
X0032364Y0207300D01*
X0030600Y0208008D02*
X0030400Y0208008D01*
X0030400Y0209606D02*
X0030600Y0209606D01*
X0030600Y0211205D02*
X0030400Y0211205D01*
X0030600Y0211900D02*
X0035000Y0211900D01*
X0035000Y0213664D01*
X0032364Y0216300D01*
X0030600Y0216300D01*
X0030600Y0211900D01*
X0030600Y0212803D02*
X0030400Y0212803D01*
X0030400Y0214402D02*
X0030600Y0214402D01*
X0030600Y0216001D02*
X0030400Y0216001D01*
X0028337Y0216001D02*
X0023084Y0216001D01*
X0023084Y0215557D02*
X0023084Y0221716D01*
X0048161Y0221716D01*
X0048561Y0221316D01*
X0052439Y0221316D01*
X0053484Y0222361D01*
X0053484Y0226239D01*
X0052439Y0227284D01*
X0048561Y0227284D01*
X0048161Y0226884D01*
X0019986Y0226884D01*
X0019036Y0226491D01*
X0018309Y0225764D01*
X0017916Y0224814D01*
X0017916Y0215557D01*
X0016016Y0213657D01*
X0016016Y0209943D01*
X0018643Y0207316D01*
X0022357Y0207316D01*
X0024984Y0209943D01*
X0024984Y0213657D01*
X0023084Y0215557D01*
X0024240Y0214402D02*
X0026738Y0214402D01*
X0026000Y0212803D02*
X0024984Y0212803D01*
X0024984Y0211205D02*
X0026000Y0211205D01*
X0026330Y0209606D02*
X0024648Y0209606D01*
X0023050Y0208008D02*
X0027928Y0208008D01*
X0027169Y0204811D02*
X0023831Y0204811D01*
X0024984Y0203212D02*
X0026016Y0203212D01*
X0026016Y0201614D02*
X0024984Y0201614D01*
X0024984Y0200015D02*
X0026016Y0200015D01*
X0027541Y0198417D02*
X0023459Y0198417D01*
X0023422Y0195220D02*
X0027578Y0195220D01*
X0026016Y0193621D02*
X0024599Y0193621D01*
X0024984Y0192023D02*
X0026016Y0192023D01*
X0026016Y0190424D02*
X0024784Y0190424D01*
X0023868Y0188826D02*
X0027132Y0188826D01*
X0017132Y0188826D02*
X0005600Y0188826D01*
X0005600Y0190424D02*
X0016216Y0190424D01*
X0016016Y0192023D02*
X0005600Y0192023D01*
X0005600Y0193621D02*
X0016401Y0193621D01*
X0017950Y0208008D02*
X0005600Y0208008D01*
X0005600Y0209606D02*
X0016352Y0209606D01*
X0016016Y0211205D02*
X0005600Y0211205D01*
X0005600Y0212803D02*
X0016016Y0212803D01*
X0016760Y0214402D02*
X0005600Y0214402D01*
X0005600Y0216001D02*
X0017916Y0216001D01*
X0017916Y0217599D02*
X0005600Y0217599D01*
X0005600Y0219198D02*
X0017916Y0219198D01*
X0017916Y0220796D02*
X0005600Y0220796D01*
X0005600Y0222395D02*
X0017916Y0222395D01*
X0017916Y0223993D02*
X0005600Y0223993D01*
X0005600Y0225592D02*
X0018238Y0225592D01*
X0020500Y0224300D02*
X0020500Y0211800D01*
X0023084Y0217599D02*
X0075416Y0217599D01*
X0075416Y0216001D02*
X0032663Y0216001D01*
X0034262Y0214402D02*
X0075416Y0214402D01*
X0075416Y0212803D02*
X0035000Y0212803D01*
X0035000Y0211205D02*
X0075416Y0211205D01*
X0075416Y0209606D02*
X0034670Y0209606D01*
X0023084Y0219198D02*
X0075993Y0219198D01*
X0053484Y0222395D02*
X0149866Y0222395D01*
X0149866Y0223993D02*
X0053484Y0223993D01*
X0053484Y0225592D02*
X0149866Y0225592D01*
X0149866Y0227190D02*
X0052533Y0227190D01*
X0050500Y0224300D02*
X0020500Y0224300D01*
X0023084Y0220796D02*
X0149866Y0220796D01*
X0149866Y0228789D02*
X0005600Y0228789D01*
X0005600Y0230387D02*
X0149866Y0230387D01*
X0149866Y0231986D02*
X0005600Y0231986D01*
X0005600Y0233584D02*
X0149866Y0233584D01*
X0150018Y0235183D02*
X0005600Y0235183D01*
X0005600Y0236781D02*
X0151687Y0236781D01*
X0160500Y0241800D02*
X0160500Y0256800D01*
X0163084Y0246372D02*
X0210149Y0246372D01*
X0210016Y0244774D02*
X0163084Y0244774D01*
X0163484Y0243175D02*
X0210016Y0243175D01*
X0210416Y0241577D02*
X0163484Y0241577D01*
X0163484Y0239978D02*
X0210416Y0239978D01*
X0072216Y0273547D02*
X0071816Y0273547D01*
X0072000Y0272824D02*
X0072016Y0272824D01*
X0071816Y0275145D02*
X0072216Y0275145D01*
X0072216Y0276744D02*
X0071816Y0276744D01*
X0023116Y0283138D02*
X0372884Y0283138D01*
X0375996Y0284737D02*
X0020004Y0284737D01*
X0015996Y0284737D02*
X0005600Y0284737D01*
X0005600Y0286335D02*
X0390400Y0286335D01*
X0390400Y0284737D02*
X0380004Y0284737D01*
X0383116Y0283138D02*
X0390400Y0283138D01*
X0390400Y0281539D02*
X0384715Y0281539D01*
X0385465Y0279941D02*
X0390400Y0279941D01*
X0390400Y0278342D02*
X0386099Y0278342D01*
X0386099Y0276744D02*
X0390400Y0276744D01*
X0390400Y0275145D02*
X0386081Y0275145D01*
X0385419Y0273547D02*
X0390400Y0273547D01*
X0390400Y0271948D02*
X0384602Y0271948D01*
X0383004Y0270350D02*
X0390400Y0270350D01*
X0390400Y0287934D02*
X0005600Y0287934D01*
X0005600Y0283138D02*
X0012884Y0283138D01*
X0011285Y0281539D02*
X0005600Y0281539D01*
X0005600Y0279941D02*
X0010535Y0279941D01*
X0009901Y0278342D02*
X0005600Y0278342D01*
X0005600Y0276744D02*
X0009901Y0276744D01*
X0009919Y0275145D02*
X0005600Y0275145D01*
X0005600Y0273547D02*
X0010581Y0273547D01*
X0011398Y0271948D02*
X0005600Y0271948D01*
X0005600Y0270350D02*
X0012996Y0270350D01*
X0005600Y0227190D02*
X0048467Y0227190D01*
X0370430Y0040164D02*
X0390400Y0040164D01*
X0390400Y0038566D02*
X0370430Y0038566D01*
D12*
X0337528Y0027194D03*
X0337528Y0076406D03*
D13*
X0365087Y0061643D03*
X0365087Y0041957D03*
X0308000Y0041957D03*
X0308000Y0051800D03*
X0308000Y0061643D03*
D14*
X0260067Y0057611D02*
X0255933Y0057611D01*
X0255933Y0051987D02*
X0260067Y0051987D01*
X0260067Y0046363D02*
X0255933Y0046363D01*
X0255933Y0040739D02*
X0260067Y0040739D01*
D15*
X0072016Y0272824D03*
D16*
X0082016Y0272824D03*
X0092016Y0272824D03*
X0102016Y0272824D03*
X0112016Y0272824D03*
X0122016Y0272824D03*
X0132016Y0272824D03*
X0142016Y0272824D03*
X0152016Y0272824D03*
X0162016Y0272824D03*
X0172016Y0272824D03*
X0182016Y0272824D03*
X0192016Y0272824D03*
X0202016Y0272824D03*
X0212016Y0272824D03*
X0222016Y0272824D03*
D17*
X0353945Y0237863D03*
X0353945Y0229831D03*
X0353945Y0221800D03*
X0363945Y0225737D03*
X0363945Y0233769D03*
X0363945Y0241800D03*
D18*
X0180500Y0111800D03*
X0170500Y0111800D03*
D19*
X0083000Y0057300D03*
X0083000Y0049300D03*
X0083000Y0041300D03*
D20*
X0253000Y0267863D03*
X0253000Y0275737D03*
D21*
X0180500Y0099300D03*
X0170500Y0099300D03*
D22*
X0020500Y0191800D03*
D23*
X0030500Y0191800D03*
X0030500Y0201800D03*
X0020500Y0201800D03*
X0020500Y0211800D03*
X0030500Y0211800D03*
D24*
X0050500Y0224300D03*
X0073000Y0224300D03*
X0108000Y0256800D03*
X0160500Y0241800D03*
X0148850Y0217550D03*
X0142450Y0214300D03*
X0137250Y0211300D03*
X0152450Y0200825D03*
X0159400Y0204950D03*
X0155600Y0209300D03*
X0189240Y0214398D03*
X0213000Y0244300D03*
X0290500Y0276800D03*
X0308000Y0194300D03*
X0350500Y0161800D03*
X0260500Y0151800D03*
X0245450Y0131800D03*
X0245450Y0127900D03*
X0245450Y0124000D03*
X0220500Y0124000D03*
X0220500Y0127900D03*
X0220500Y0131800D03*
X0181500Y0141550D03*
X0135500Y0166250D03*
X0128000Y0161800D03*
X0115500Y0166250D03*
X0109600Y0163000D03*
X0123000Y0146800D03*
X0110500Y0139300D03*
X0103000Y0134300D03*
X0085500Y0166800D03*
X0073000Y0178040D03*
X0118050Y0195500D03*
X0205500Y0184300D03*
M02*
