G75*
%MOIN*%
%OFA0B0*%
%FSLAX25Y25*%
%IPPOS*%
%LPD*%
%AMOC8*
5,1,8,0,0,1.08239X$1,22.5*
%
%ADD10C,0.12998*%
%ADD11C,0.03500*%
%ADD12C,0.03900*%
%ADD13R,0.06306X0.05518*%
%ADD14R,0.10243X0.08274*%
%ADD15R,0.13392X0.08274*%
%ADD16R,0.12605X0.02369*%
%ADD17C,0.03943*%
%ADD18R,0.06699X0.08274*%
%ADD19R,0.06699X0.07487*%
%ADD20R,0.02369X0.06306*%
%ADD21R,0.06306X0.02369*%
%ADD22R,0.07487X0.06699*%
%ADD23R,0.05518X0.06699*%
%ADD24R,0.12211X0.10243*%
%ADD25R,0.05124X0.05124*%
%ADD26R,0.05518X0.06306*%
%ADD27R,0.15424X0.15424*%
%ADD28R,0.07487X0.07487*%
%ADD29R,0.05124X0.02565*%
%ADD30C,0.04534*%
%ADD31R,0.06400X0.06400*%
%ADD32C,0.06400*%
%ADD33R,0.05200X0.09200*%
%ADD34R,0.14573X0.09061*%
%ADD35C,0.05518*%
%ADD36C,0.09691*%
%ADD37R,0.04337X0.05912*%
%ADD38R,0.05124X0.05912*%
%ADD39R,0.05912X0.05124*%
%ADD40C,0.07800*%
%ADD41R,0.06306X0.06306*%
%ADD42C,0.06100*%
%ADD43R,0.06699X0.05518*%
%ADD44OC8,0.05200*%
%ADD45C,0.05800*%
%ADD46OC8,0.05800*%
D10*
X0018000Y0016800D03*
X0049969Y0150776D03*
X0049969Y0272824D03*
X0018000Y0276800D03*
X0346031Y0272824D03*
X0378000Y0276800D03*
X0346031Y0150776D03*
X0378000Y0016800D03*
D11*
X0120500Y0151800D03*
X0115500Y0151800D03*
X0115500Y0156800D03*
X0120500Y0156800D03*
X0110500Y0156800D03*
X0110500Y0151800D03*
D12*
X0105500Y0150300D03*
X0105500Y0158300D03*
X0125500Y0154300D03*
D13*
X0088000Y0198060D03*
X0088000Y0205540D03*
X0213000Y0253060D03*
X0213000Y0260540D03*
X0283000Y0258060D03*
X0283000Y0265540D03*
X0318000Y0270560D03*
X0318000Y0278040D03*
X0248000Y0145540D03*
X0248000Y0138060D03*
X0248000Y0088040D03*
X0248000Y0080560D03*
X0258000Y0080560D03*
X0258000Y0088040D03*
X0238000Y0088040D03*
X0238000Y0080560D03*
D14*
X0384811Y0154280D03*
X0384811Y0189320D03*
D15*
X0361583Y0189320D03*
X0361583Y0154280D03*
D16*
X0361189Y0165501D03*
X0361189Y0168650D03*
X0361189Y0171800D03*
X0361189Y0174950D03*
X0361189Y0178099D03*
D17*
X0373000Y0180461D03*
X0373000Y0163139D03*
D18*
X0338512Y0164300D03*
X0327488Y0164300D03*
X0327488Y0181800D03*
X0338512Y0181800D03*
D19*
X0196012Y0176800D03*
X0184988Y0176800D03*
X0184988Y0189300D03*
X0196012Y0189300D03*
D20*
X0163748Y0178965D03*
X0160598Y0178965D03*
X0157449Y0178965D03*
X0154299Y0178965D03*
X0151150Y0178965D03*
X0148000Y0178965D03*
X0144850Y0178965D03*
X0141701Y0178965D03*
X0138551Y0178965D03*
X0135402Y0178965D03*
X0132252Y0178965D03*
X0132252Y0224635D03*
X0135402Y0224635D03*
X0138551Y0224635D03*
X0141701Y0224635D03*
X0144850Y0224635D03*
X0148000Y0224635D03*
X0151150Y0224635D03*
X0154299Y0224635D03*
X0157449Y0224635D03*
X0160598Y0224635D03*
X0163748Y0224635D03*
D21*
X0170835Y0217548D03*
X0170835Y0214398D03*
X0170835Y0211249D03*
X0170835Y0208099D03*
X0170835Y0204950D03*
X0170835Y0201800D03*
X0170835Y0198650D03*
X0170835Y0195501D03*
X0170835Y0192351D03*
X0170835Y0189202D03*
X0170835Y0186052D03*
X0125165Y0186052D03*
X0125165Y0189202D03*
X0125165Y0192351D03*
X0125165Y0195501D03*
X0125165Y0198650D03*
X0125165Y0201800D03*
X0125165Y0204950D03*
X0125165Y0208099D03*
X0125165Y0211249D03*
X0125165Y0214398D03*
X0125165Y0217548D03*
D22*
X0073000Y0217312D03*
X0073000Y0206288D03*
X0073000Y0197312D03*
X0073000Y0186288D03*
X0144250Y0162312D03*
X0144250Y0151288D03*
D23*
X0181760Y0224300D03*
X0189240Y0224300D03*
D24*
X0103000Y0211898D03*
X0103000Y0191308D03*
D25*
X0211366Y0184300D03*
X0219634Y0184300D03*
X0258000Y0145934D03*
X0258000Y0137666D03*
X0247134Y0241800D03*
X0238866Y0241800D03*
X0238866Y0254300D03*
X0247134Y0254300D03*
D26*
X0256760Y0254300D03*
X0264240Y0254300D03*
X0264240Y0241800D03*
X0256760Y0241800D03*
X0296760Y0246800D03*
X0304240Y0246800D03*
X0304240Y0276800D03*
X0296760Y0276800D03*
X0219240Y0193000D03*
X0211760Y0193000D03*
X0249260Y0166800D03*
X0256740Y0166800D03*
X0256740Y0156800D03*
X0249260Y0156800D03*
X0266760Y0166800D03*
X0274240Y0166800D03*
X0209240Y0104300D03*
X0201760Y0104300D03*
X0201760Y0094300D03*
X0209240Y0094300D03*
X0101740Y0244300D03*
X0094260Y0244300D03*
X0094260Y0256800D03*
X0101740Y0256800D03*
D27*
X0337528Y0076406D03*
X0337528Y0027194D03*
D28*
X0365087Y0041957D03*
X0365087Y0061643D03*
X0308000Y0061643D03*
X0308000Y0051800D03*
X0308000Y0041957D03*
D29*
X0305619Y0258060D03*
X0295381Y0258060D03*
X0295381Y0261800D03*
X0295381Y0265540D03*
X0305619Y0265540D03*
D30*
X0260067Y0057611D02*
X0255933Y0057611D01*
X0255933Y0051987D02*
X0260067Y0051987D01*
X0260067Y0046363D02*
X0255933Y0046363D01*
X0255933Y0040739D02*
X0260067Y0040739D01*
D31*
X0072016Y0272824D03*
D32*
X0082016Y0272824D03*
X0092016Y0272824D03*
X0102016Y0272824D03*
X0112016Y0272824D03*
X0122016Y0272824D03*
X0132016Y0272824D03*
X0142016Y0272824D03*
X0152016Y0272824D03*
X0162016Y0272824D03*
X0172016Y0272824D03*
X0182016Y0272824D03*
X0192016Y0272824D03*
X0202016Y0272824D03*
X0212016Y0272824D03*
X0222016Y0272824D03*
D33*
X0298900Y0202100D03*
X0308000Y0202100D03*
X0317100Y0202100D03*
X0267100Y0179600D03*
X0258000Y0179600D03*
X0248900Y0179600D03*
D34*
X0258000Y0204001D03*
X0308000Y0226501D03*
D35*
X0353945Y0229831D03*
X0353945Y0221800D03*
X0363945Y0225737D03*
X0363945Y0233769D03*
X0363945Y0241800D03*
X0353945Y0237863D03*
D36*
X0373000Y0255422D03*
X0373000Y0208178D03*
D37*
X0296740Y0177469D03*
X0289260Y0177469D03*
X0293000Y0186131D03*
D38*
X0287094Y0161800D03*
X0298906Y0161800D03*
D39*
X0318000Y0240894D03*
X0318000Y0252706D03*
X0330500Y0252706D03*
X0330500Y0240894D03*
X0330500Y0268394D03*
X0330500Y0280206D03*
D40*
X0180500Y0111800D03*
X0170500Y0111800D03*
D41*
X0083000Y0057300D03*
X0083000Y0049300D03*
X0083000Y0041300D03*
D42*
X0253000Y0267863D03*
X0253000Y0275737D03*
D43*
X0098000Y0178040D03*
X0098000Y0170560D03*
D44*
X0170500Y0099300D03*
X0180500Y0099300D03*
D45*
X0020500Y0191800D03*
D46*
X0030500Y0191800D03*
X0030500Y0201800D03*
X0020500Y0201800D03*
X0020500Y0211800D03*
X0030500Y0211800D03*
M02*
