G75*
%MOIN*%
%OFA0B0*%
%FSLAX25Y25*%
%IPPOS*%
%LPD*%
%AMOC8*
5,1,8,0,0,1.08239X$1,22.5*
%
%ADD10C,0.12998*%
%ADD11C,0.03900*%
%ADD12C,0.03943*%
%ADD13R,0.15424X0.15424*%
%ADD14R,0.07487X0.07487*%
%ADD15C,0.04534*%
%ADD16R,0.06400X0.06400*%
%ADD17C,0.06400*%
%ADD18C,0.05518*%
%ADD19C,0.09691*%
%ADD20C,0.07800*%
%ADD21R,0.06306X0.06306*%
%ADD22C,0.06100*%
%ADD23OC8,0.05200*%
%ADD24C,0.05800*%
%ADD25OC8,0.05800*%
D10*
X0018000Y0016800D03*
X0049969Y0150776D03*
X0049969Y0272824D03*
X0018000Y0276800D03*
X0346031Y0272824D03*
X0378000Y0276800D03*
X0346031Y0150776D03*
X0378000Y0016800D03*
D11*
X0125500Y0154300D03*
X0105500Y0150300D03*
X0105500Y0158300D03*
D12*
X0373000Y0163139D03*
X0373000Y0180461D03*
D13*
X0337528Y0076406D03*
X0337528Y0027194D03*
D14*
X0365087Y0041957D03*
X0365087Y0061643D03*
X0308000Y0061643D03*
X0308000Y0051800D03*
X0308000Y0041957D03*
D15*
X0260067Y0040739D02*
X0255933Y0040739D01*
X0255933Y0046363D02*
X0260067Y0046363D01*
X0260067Y0051987D02*
X0255933Y0051987D01*
X0255933Y0057611D02*
X0260067Y0057611D01*
D16*
X0072016Y0272824D03*
D17*
X0082016Y0272824D03*
X0092016Y0272824D03*
X0102016Y0272824D03*
X0112016Y0272824D03*
X0122016Y0272824D03*
X0132016Y0272824D03*
X0142016Y0272824D03*
X0152016Y0272824D03*
X0162016Y0272824D03*
X0172016Y0272824D03*
X0182016Y0272824D03*
X0192016Y0272824D03*
X0202016Y0272824D03*
X0212016Y0272824D03*
X0222016Y0272824D03*
D18*
X0353945Y0237863D03*
X0353945Y0229831D03*
X0353945Y0221800D03*
X0363945Y0225737D03*
X0363945Y0233769D03*
X0363945Y0241800D03*
D19*
X0373000Y0255422D03*
X0373000Y0208178D03*
D20*
X0180500Y0111800D03*
X0170500Y0111800D03*
D21*
X0083000Y0057300D03*
X0083000Y0049300D03*
X0083000Y0041300D03*
D22*
X0253000Y0267863D03*
X0253000Y0275737D03*
D23*
X0180500Y0099300D03*
X0170500Y0099300D03*
D24*
X0020500Y0191800D03*
D25*
X0030500Y0191800D03*
X0030500Y0201800D03*
X0020500Y0201800D03*
X0020500Y0211800D03*
X0030500Y0211800D03*
M02*
