G75*
%MOIN*%
%OFA0B0*%
%FSLAX25Y25*%
%IPPOS*%
%LPD*%
%AMOC8*
5,1,8,0,0,1.08239X$1,22.5*
%
%ADD10C,0.00600*%
%ADD11C,0.00800*%
D10*
X0028300Y0008168D02*
X0029368Y0007100D01*
X0031503Y0007100D01*
X0032570Y0008168D01*
X0032570Y0009235D01*
X0031503Y0010303D01*
X0029368Y0010303D01*
X0028300Y0011370D01*
X0028300Y0012438D01*
X0029368Y0013505D01*
X0031503Y0013505D01*
X0032570Y0012438D01*
X0034745Y0011370D02*
X0035813Y0011370D01*
X0035813Y0007100D01*
X0034745Y0007100D02*
X0036881Y0007100D01*
X0039042Y0007100D02*
X0039042Y0011370D01*
X0040110Y0011370D01*
X0041178Y0010303D01*
X0042245Y0011370D01*
X0043313Y0010303D01*
X0043313Y0007100D01*
X0041178Y0007100D02*
X0041178Y0010303D01*
X0045488Y0011370D02*
X0048691Y0011370D01*
X0049758Y0010303D01*
X0049758Y0008168D01*
X0048691Y0007100D01*
X0045488Y0007100D01*
X0045488Y0004965D02*
X0045488Y0011370D01*
X0051933Y0013505D02*
X0053001Y0013505D01*
X0053001Y0007100D01*
X0051933Y0007100D02*
X0054069Y0007100D01*
X0056230Y0008168D02*
X0056230Y0010303D01*
X0057298Y0011370D01*
X0059433Y0011370D01*
X0060501Y0010303D01*
X0060501Y0009235D01*
X0056230Y0009235D01*
X0056230Y0008168D02*
X0057298Y0007100D01*
X0059433Y0007100D01*
X0069121Y0007100D02*
X0072324Y0007100D01*
X0073392Y0008168D01*
X0072324Y0009235D01*
X0070189Y0009235D01*
X0069121Y0010303D01*
X0070189Y0011370D01*
X0073392Y0011370D01*
X0075567Y0011370D02*
X0078770Y0011370D01*
X0079837Y0010303D01*
X0079837Y0008168D01*
X0078770Y0007100D01*
X0075567Y0007100D01*
X0075567Y0004965D02*
X0075567Y0011370D01*
X0082012Y0010303D02*
X0082012Y0008168D01*
X0083080Y0007100D01*
X0085215Y0007100D01*
X0086283Y0009235D02*
X0082012Y0009235D01*
X0082012Y0010303D02*
X0083080Y0011370D01*
X0085215Y0011370D01*
X0086283Y0010303D01*
X0086283Y0009235D01*
X0088458Y0008168D02*
X0089526Y0007100D01*
X0092728Y0007100D01*
X0095971Y0008168D02*
X0097039Y0007100D01*
X0095971Y0008168D02*
X0095971Y0012438D01*
X0094903Y0011370D02*
X0097039Y0011370D01*
X0099200Y0011370D02*
X0099200Y0007100D01*
X0099200Y0009235D02*
X0101336Y0011370D01*
X0102403Y0011370D01*
X0104572Y0010303D02*
X0104572Y0008168D01*
X0105639Y0007100D01*
X0107774Y0007100D01*
X0108842Y0008168D01*
X0108842Y0010303D01*
X0107774Y0011370D01*
X0105639Y0011370D01*
X0104572Y0010303D01*
X0111017Y0011370D02*
X0111017Y0007100D01*
X0113152Y0007100D02*
X0113152Y0010303D01*
X0114220Y0011370D01*
X0115288Y0010303D01*
X0115288Y0007100D01*
X0117463Y0008168D02*
X0117463Y0010303D01*
X0118530Y0011370D01*
X0120665Y0011370D01*
X0121733Y0010303D01*
X0121733Y0009235D01*
X0117463Y0009235D01*
X0117463Y0008168D02*
X0118530Y0007100D01*
X0120665Y0007100D01*
X0124976Y0008168D02*
X0126043Y0007100D01*
X0124976Y0008168D02*
X0124976Y0012438D01*
X0126043Y0011370D02*
X0123908Y0011370D01*
X0128205Y0010303D02*
X0128205Y0008168D01*
X0129273Y0007100D01*
X0131408Y0007100D01*
X0132476Y0009235D02*
X0128205Y0009235D01*
X0128205Y0010303D02*
X0129273Y0011370D01*
X0131408Y0011370D01*
X0132476Y0010303D01*
X0132476Y0009235D01*
X0134651Y0009235D02*
X0136786Y0011370D01*
X0137853Y0011370D01*
X0134651Y0011370D02*
X0134651Y0007100D01*
X0146467Y0009235D02*
X0148603Y0007100D01*
X0150738Y0009235D01*
X0150738Y0013505D01*
X0146467Y0013505D02*
X0146467Y0009235D01*
X0159358Y0007100D02*
X0163629Y0007100D01*
X0161494Y0007100D02*
X0161494Y0013505D01*
X0159358Y0011370D01*
X0165804Y0008168D02*
X0166872Y0008168D01*
X0166872Y0007100D01*
X0165804Y0007100D01*
X0165804Y0008168D01*
X0169027Y0008168D02*
X0173297Y0012438D01*
X0173297Y0008168D01*
X0172229Y0007100D01*
X0170094Y0007100D01*
X0169027Y0008168D01*
X0169027Y0012438D01*
X0170094Y0013505D01*
X0172229Y0013505D01*
X0173297Y0012438D01*
X0178695Y0012438D02*
X0179762Y0013505D01*
X0181898Y0013505D01*
X0182965Y0012438D01*
X0178695Y0008168D01*
X0179762Y0007100D01*
X0181898Y0007100D01*
X0182965Y0008168D01*
X0182965Y0012438D01*
X0178695Y0012438D02*
X0178695Y0008168D01*
X0176540Y0008168D02*
X0176540Y0007100D01*
X0175472Y0007100D01*
X0175472Y0008168D01*
X0176540Y0008168D01*
X0113152Y0010303D02*
X0112085Y0011370D01*
X0111017Y0011370D01*
X0092728Y0011370D02*
X0089526Y0011370D01*
X0088458Y0010303D01*
X0088458Y0008168D01*
X0035813Y0013505D02*
X0035813Y0014573D01*
D11*
X0040520Y0140934D02*
X0040520Y0282666D01*
X0355480Y0282666D01*
X0355480Y0140934D01*
X0040520Y0140934D01*
X0057646Y0160028D02*
X0057646Y0263572D01*
X0338354Y0263572D01*
X0338354Y0160028D01*
X0057646Y0160028D01*
M02*
